<?xml version="1.0" encoding="UTF-8" standalone="no"?>
<svg width="26px" height="21px" viewBox="0 0 26 21" version="1.1" xmlns="http://www.w3.org/2000/svg" xmlns:xlink="http://www.w3.org/1999/xlink" xmlns:sketch="http://www.bohemiancoding.com/sketch/ns">
    <!-- Generator: Sketch 3.1.1 (8761) - http://www.bohemiancoding.com/sketch -->
    <title>Shape</title>
    <desc>Created with Sketch.</desc>
    <defs></defs>
    <g id="Design" stroke="none" stroke-width="1" fill="none" fill-rule="evenodd" sketch:type="MSPage">
        <g id="Group" sketch:type="MSLayerGroup" transform="translate(1.000000, 0.000000)" fill="#4A4A4A">
            <path d="M-0.0555555556,14.6680909 L5.21569444,14.6680909 L10.9444444,19.9700909 L10.9444444,1.36584091 L5.32369444,6.66809091 L-0.0555555556,6.66809091 L-0.0555555556,14.6680909 L-0.0555555556,14.6680909 Z M24.8464444,10.6680909 C24.8464444,6.79434091 23.2731944,3.28834091 20.7314444,0.753340909 L19.3169444,2.16784091 C21.4969444,4.34084091 22.8459444,7.34684091 22.8459444,10.6680909 C22.8459444,13.9890909 21.4969444,16.9953409 19.3169444,19.1680909 L20.7314444,20.5825909 C23.2731944,18.0478409 24.8464444,14.5415909 24.8464444,10.6680909 L24.8464444,10.6680909 Z M20.8456944,10.6680909 C20.8456944,7.89934091 19.7204444,5.39334091 17.9026944,3.58234091 L16.4951944,4.98984091 C17.9474444,6.44359091 18.8454444,8.45084091 18.8454444,10.6680909 C18.8454444,12.8850909 17.9471944,14.8923409 16.4951944,16.3463409 L17.9026944,17.7538409 C19.7204444,15.9428409 20.8456944,13.4368409 20.8456944,10.6680909 L20.8456944,10.6680909 Z M15.0806944,6.40409091 L13.6589444,7.82584091 C14.3911944,8.55084091 14.8446944,9.55634091 14.8446944,10.6680909 C14.8446944,11.7795909 14.3911944,12.7853409 13.6589444,13.5100909 L15.0806944,14.9318409 C16.1709444,13.8400909 16.8454444,12.3328409 16.8454444,10.6680909 C16.8454444,9.00309091 16.1709444,7.49609091 15.0806944,6.40409091 L15.0806944,6.40409091 Z" id="Shape" sketch:type="MSShapeGroup"></path>
        </g>
    </g>
</svg>