<?xml version="1.0" encoding="UTF-8" standalone="no"?>
<svg width="23px" height="18px" viewBox="0 0 23 18" version="1.1" xmlns="http://www.w3.org/2000/svg" xmlns:xlink="http://www.w3.org/1999/xlink" xmlns:sketch="http://www.bohemiancoding.com/sketch/ns">
    <!-- Generator: Sketch 3.1.1 (8761) - http://www.bohemiancoding.com/sketch -->
    <title>...</title>
    <desc>Created with Sketch.</desc>
    <defs></defs>
    <g id="Design" stroke="none" stroke-width="1" fill="none" fill-rule="evenodd" sketch:type="MSPage">
        <g id="Group" sketch:type="MSLayerGroup" transform="translate(-241.000000, -4.000000)" fill="#4A4A4A">
            <path d="M243.046711,4.009 C241.947026,4.009 241.055556,4.90808746 241.055556,6.01051246 L241.055556,16.7347603 C241.055556,17.8401651 241.957925,18.7362727 243.048615,18.7362727 L244.863248,18.7362727 L247.190171,22.009 L250.997863,18.7362727 L261.064473,18.7362727 C262.164117,18.7362727 263.055556,17.8371853 263.055556,16.7347603 L263.055556,6.01051246 C263.055556,4.90510765 262.165882,4.009 261.064401,4.009 L243.046711,4.009 L243.046711,4.009 Z M245.315556,11.689 C245.315556,12.589 245.975556,13.249 246.815556,13.249 C247.655556,13.249 248.295556,12.589 248.295556,11.689 C248.295556,10.789 247.655556,10.129 246.815556,10.129 C245.975556,10.129 245.315556,10.789 245.315556,11.689 L245.315556,11.689 L245.315556,11.689 Z M250.815556,11.689 C250.815556,12.589 251.475556,13.249 252.315556,13.249 C253.155556,13.249 253.795556,12.589 253.795556,11.689 C253.795556,10.789 253.155556,10.129 252.315556,10.129 C251.475556,10.129 250.815556,10.789 250.815556,11.689 L250.815556,11.689 L250.815556,11.689 Z M256.315556,11.689 C256.315556,12.589 256.975556,13.249 257.815556,13.249 C258.655556,13.249 259.295556,12.589 259.295556,11.689 C259.295556,10.789 258.655556,10.129 257.815556,10.129 C256.975556,10.129 256.315556,10.789 256.315556,11.689 L256.315556,11.689 L256.315556,11.689 Z" id="..." sketch:type="MSShapeGroup"></path>
        </g>
    </g>
</svg>