<?xml version="1.0" encoding="UTF-8" standalone="no"?>
<svg width="27px" height="15px" viewBox="0 0 27 15" version="1.1" xmlns="http://www.w3.org/2000/svg" xmlns:xlink="http://www.w3.org/1999/xlink" xmlns:sketch="http://www.bohemiancoding.com/sketch/ns">
    <!-- Generator: Sketch 3.1.1 (8761) - http://www.bohemiancoding.com/sketch -->
    <title>Shape</title>
    <desc>Created with Sketch.</desc>
    <defs></defs>
    <g id="Design" stroke="none" stroke-width="1" fill="none" fill-rule="evenodd" sketch:type="MSPage">
        <g id="Group" sketch:type="MSLayerGroup" transform="translate(-40.000000, -4.000000)" fill="#4A4A4A">
            <path d="M46.9518956,18.5216 L51.0388856,18.5216 C51.3920456,18.5216 51.7387256,18.49332 52.0773056,18.43928 C52.1510156,18.42752 52.2236456,18.41128 52.2962756,18.397 C51.0418556,17.6508 50.0093756,16.54788 49.3297856,15.22124 L48.9952556,15.22124 L46.7418356,15.22124 C44.7648956,15.22124 43.1624456,13.55916 43.1624456,11.50872 C43.1624456,9.45856 44.7648956,7.79676 46.7418356,7.79676 L49.3111556,7.79676 L49.8395456,7.79676 L50.3538956,7.79676 L50.3557856,7.79676 L51.2116856,7.79676 C52.1037656,7.79676 52.9188956,8.13612 53.5458356,8.69612 L53.5463756,8.69528 C53.5466456,8.69556 53.5466456,8.69584 53.5469156,8.69612 C53.6805656,8.81176 53.7864056,8.9204 53.8725356,9.01756 C54.0618056,9.23092 54.1455056,9.38212 54.1455056,9.38212 C54.1455056,9.3824 54.1452356,9.38268 54.1449656,9.38296 C54.1452356,9.38296 54.1455056,9.38324 54.1457756,9.3838 C54.5521256,9.9858 54.7910756,10.71828 54.7910756,11.50844 C54.7910756,12.27732 54.5656256,12.9916 54.1797956,13.5838 C54.1687256,13.60116 54.1568456,13.61684 54.1455056,13.63308 C54.6142256,14.0458 55.2198356,14.2964 55.8813356,14.2964 L57.2426756,14.2964 C57.6001556,13.44156 57.8002256,12.49964 57.8002256,11.50844 C57.8002256,10.51752 57.6012356,9.5756 57.2437556,8.72104 C57.1778756,8.56396 57.1063256,8.40996 57.0299156,8.25876 C56.9659256,8.13248 56.8997756,8.00732 56.8284956,7.8858 C56.8230956,7.87656 56.8187756,7.869 56.8141856,7.86088 C56.8012256,7.83904 56.7874556,7.81804 56.7744956,7.79648 C56.0206556,6.54684 54.8982656,5.5618 53.5647356,5.00404 C53.4005756,4.93544 53.2337156,4.87216 53.0636156,4.81644 C53.0544356,4.81336 53.0452556,4.81056 53.0358056,4.80748 C53.0074556,4.79852 52.9785656,4.79096 52.9499456,4.78256 C52.8770456,4.75988 52.8038756,4.7372 52.7296256,4.7176 C52.7285456,4.71732 52.7280056,4.71732 52.7271956,4.71704 C52.1871956,4.57284 51.6215456,4.4964 51.0383456,4.4964 L46.9518956,4.4964 C43.2172556,4.4964 40.1900156,7.63576 40.1900156,11.50872 C40.1900156,15.38196 43.2172556,18.5216 46.9518956,18.5216 Z M60.1592156,4.4964 L56.0722256,4.4964 C55.7193356,4.4964 55.3726556,4.5244 55.0340756,4.57844 C54.9603656,4.5902 54.8880056,4.60672 54.8151056,4.62072 C56.0695256,5.3672 57.1017356,6.47012 57.7815956,7.79676 L58.1158556,7.79676 L60.3692756,7.79676 C62.3462156,7.79676 63.9486656,9.45912 63.9486656,11.50928 C63.9486656,13.55916 62.3459456,15.22152 60.3692756,15.22152 L57.7999556,15.22152 L57.2712956,15.22152 L56.7569456,15.22152 L56.7553256,15.22152 L55.8991556,15.22152 C55.0068056,15.22152 54.1916756,14.88216 53.5647356,14.32216 L53.5639256,14.323 C53.5639256,14.32244 53.5636556,14.32244 53.5633856,14.32216 C53.4300056,14.20624 53.3241656,14.0976 53.2377656,14.00072 C53.0487656,13.7868 52.9647956,13.63588 52.9647956,13.63588 C52.9650656,13.63532 52.9653356,13.63532 52.9653356,13.63504 C52.9650656,13.63476 52.9647956,13.63448 52.9647956,13.6342 C52.5584456,13.0322 52.3197656,12.29972 52.3197656,11.50928 C52.3197656,10.7404 52.5449456,10.0264 52.9307756,9.43364 C52.9418456,9.41684 52.9539956,9.40088 52.9650656,9.38436 C52.4963456,8.97192 51.8910056,8.7216 51.2292356,8.7216 L49.8681656,8.7216 C49.5104156,9.57616 49.3100756,10.51808 49.3100756,11.50928 C49.3100756,12.49992 49.5090656,13.44212 49.8665456,14.29668 C49.9324256,14.45376 50.0039756,14.60776 50.0803856,14.75896 C50.1443756,14.88496 50.2105256,15.00984 50.2818056,15.13192 C50.2872056,15.14116 50.2915256,15.14844 50.2963856,15.15656 C50.3090756,15.17868 50.3231156,15.19912 50.3360756,15.22124 C51.0899156,16.47088 52.2120356,17.45564 53.5458356,18.01368 C53.7099956,18.08228 53.8768556,18.14584 54.0469556,18.201 C54.0561356,18.20408 54.0653156,18.20716 54.0747656,18.20968 C54.1031156,18.2192 54.1320056,18.22676 54.1606256,18.23516 C54.2335256,18.25756 54.3066956,18.28024 54.3806756,18.30012 C54.3817556,18.30012 54.3822956,18.30068 54.3833756,18.30096 C54.9233756,18.4446 55.4892956,18.52132 56.0719556,18.52132 L60.1589456,18.52132 C63.8935856,18.52132 66.9208256,15.38168 66.9208256,11.509 C66.9210956,7.63632 63.8938556,4.4964 60.1592156,4.4964 Z" id="Shape" sketch:type="MSShapeGroup"></path>
        </g>
    </g>
</svg>