<?xml version="1.0" encoding="UTF-8" standalone="no"?>
<svg width="27px" height="19px" viewBox="0 0 27 19" version="1.1" xmlns="http://www.w3.org/2000/svg" xmlns:xlink="http://www.w3.org/1999/xlink" xmlns:sketch="http://www.bohemiancoding.com/sketch/ns">
    <!-- Generator: Sketch 3.1.1 (8761) - http://www.bohemiancoding.com/sketch -->
    <title>Rectangle 27</title>
    <desc>Created with Sketch.</desc>
    <defs></defs>
    <g id="Design" stroke="none" stroke-width="1" fill="none" fill-rule="evenodd" sketch:type="MSPage">
        <g id="Group" sketch:type="MSLayerGroup" transform="translate(-160.000000, -2.000000)" fill="#4A4A4A">
            <path d="M163.997533,18.2878462 L162.277778,18.2878462 L162.277778,4.73015385 L183.833333,4.73015385 L183.833333,10.9845142 L180.555556,7.50453714 L174.055556,14.7545371 L170.305556,11.7545371 L163.997533,18.2878462 L163.997533,18.2878462 Z M162.05256,2.509 C160.949645,2.509 160.055556,3.4016228 160.055556,4.50408929 L160.055556,18.5139107 C160.055556,19.6157681 160.950534,20.509 162.05256,20.509 L184.058551,20.509 C185.161466,20.509 186.055556,19.6163772 186.055556,18.5139107 L186.055556,4.50408929 C186.055556,3.4022319 185.160577,2.509 184.058551,2.509 L162.05256,2.509 Z M166.555556,11.509 C167.936267,11.509 169.055556,10.3897119 169.055556,9.009 C169.055556,7.62828813 167.936267,6.509 166.555556,6.509 C165.174844,6.509 164.055556,7.62828813 164.055556,9.009 C164.055556,10.3897119 165.174844,11.509 166.555556,11.509 Z" id="Rectangle-27" sketch:type="MSShapeGroup"></path>
        </g>
    </g>
</svg>