<?xml version="1.0" encoding="UTF-8" standalone="no"?>
<svg width="23px" height="24px" viewBox="0 0 23 24" version="1.1" xmlns="http://www.w3.org/2000/svg" xmlns:xlink="http://www.w3.org/1999/xlink" xmlns:sketch="http://www.bohemiancoding.com/sketch/ns">
    <!-- Generator: Sketch 3.1.1 (8761) - http://www.bohemiancoding.com/sketch -->
    <title>?</title>
    <desc>Created with Sketch.</desc>
    <defs></defs>
    <g id="Design" stroke="none" stroke-width="1" fill="none" fill-rule="evenodd" sketch:type="MSPage">
        <g id="Group" sketch:type="MSLayerGroup" transform="translate(-278.000000, 1.000000)" fill="#4A4A4A">
            <path d="M279.152372,8.18426157 C277.592312,9.74432153 277.594568,12.2759343 279.152372,13.8337384 L286.230817,20.9121836 C287.790877,22.4722436 290.32249,22.4699878 291.880294,20.9121836 L298.958739,13.8337384 C300.518799,12.2736785 300.516543,9.74206573 298.958739,8.18426157 L291.880294,1.10581637 C290.320234,-0.454243587 287.788621,-0.451987795 286.230817,1.10581637 L279.152372,8.18426157 Z M288.063568,12.216 L290.127568,12.216 C289.935568,10.312 292.335568,9.72 292.335568,7.736 C292.335568,5.848 290.975568,5 289.167568,5 C287.983568,5 286.975568,5.592 286.255568,6.456 L287.551568,7.64 C287.983568,7.208 288.415568,6.904 289.007568,6.904 C289.647568,6.904 290.079568,7.256 290.079568,7.912 C290.079568,9.112 287.743568,10.024 288.063568,12.216 L288.063568,12.216 Z M287.555556,15.632 C287.555556,16.464 288.147556,17.104 288.963556,17.104 C289.779556,17.104 290.387556,16.464 290.387556,15.632 C290.387556,14.784 289.779556,14.144 288.963556,14.144 C288.147556,14.144 287.555556,14.784 287.555556,15.632 L287.555556,15.632 Z" id="?" sketch:type="MSShapeGroup"></path>
        </g>
    </g>
</svg>