<?xml version="1.0" encoding="UTF-8" standalone="no"?>
<svg width="27px" height="10px" viewBox="0 0 27 10" version="1.1" xmlns="http://www.w3.org/2000/svg" xmlns:xlink="http://www.w3.org/1999/xlink" xmlns:sketch="http://www.bohemiancoding.com/sketch/ns">
    <!-- Generator: Sketch 3.1.1 (8761) - http://www.bohemiancoding.com/sketch -->
    <title>“”</title>
    <desc>Created with Sketch.</desc>
    <defs></defs>
    <g id="Design" stroke="none" stroke-width="1" fill="none" fill-rule="evenodd" sketch:type="MSPage">
        <g id="Group" sketch:type="MSLayerGroup" transform="translate(-83.000000, -5.000000)" fill="#4A4A4A">
            <path d="M87.3055556,5.559 C84.6555556,6.809 83.4055556,8.759 83.4055556,11.259 C83.4055556,13.559 84.3055556,14.909 86.0555556,14.909 C87.3055556,14.909 88.2055556,14.009 88.2055556,12.609 C88.2055556,11.359 87.2555556,10.559 86.0555556,10.559 C85.9805556,10.559 85.8805556,10.559 85.8055556,10.584 C85.8055556,9.084 86.6055556,8.109 88.2055556,7.409 L87.3055556,5.559 Z M93.8055556,5.559 C91.1555556,6.809 89.9055556,8.759 89.9055556,11.259 C89.9055556,13.559 90.8055556,14.909 92.5555556,14.909 C93.8055556,14.909 94.7055556,14.009 94.7055556,12.609 C94.7055556,11.359 93.7555556,10.559 92.5555556,10.559 C92.4805556,10.559 92.3805556,10.559 92.3055556,10.584 C92.3055556,9.084 93.1055556,8.109 94.7055556,7.409 L93.8055556,5.559 Z M99.3055556,14.459 C101.955556,13.209 103.205556,11.259 103.205556,8.759 C103.205556,6.459 102.305556,5.109 100.555556,5.109 C99.3055556,5.109 98.4055556,6.009 98.4055556,7.409 C98.4055556,8.659 99.3555556,9.459 100.555556,9.459 C100.630556,9.459 100.730556,9.459 100.805556,9.434 C100.805556,10.934 100.005556,11.909 98.4055556,12.609 L99.3055556,14.459 Z M105.805556,14.459 C108.455556,13.209 109.705556,11.259 109.705556,8.759 C109.705556,6.459 108.805556,5.109 107.055556,5.109 C105.805556,5.109 104.905556,6.009 104.905556,7.409 C104.905556,8.659 105.855556,9.459 107.055556,9.459 C107.130556,9.459 107.230556,9.459 107.305556,9.434 C107.305556,10.934 106.505556,11.909 104.905556,12.609 L105.805556,14.459 Z" id="“”" sketch:type="MSShapeGroup"></path>
        </g>
    </g>
</svg>