<?xml version="1.0" encoding="UTF-8" standalone="no"?>
<svg width="20px" height="20px" viewBox="0 0 20 20" version="1.1" xmlns="http://www.w3.org/2000/svg" xmlns:xlink="http://www.w3.org/1999/xlink" xmlns:sketch="http://www.bohemiancoding.com/sketch/ns">
    <!-- Generator: Sketch 3.1.1 (8761) - http://www.bohemiancoding.com/sketch -->
    <title>Search</title>
    <desc>Created with Sketch.</desc>
    <defs></defs>
    <g id="Design" stroke="none" stroke-width="1" fill="none" fill-rule="evenodd" sketch:type="MSPage">
        <path d="M17.3740609,19.8982847 L12.6762207,15.1646175 C11.3886645,16.0135175 9.8497835,16.5113426 8.18932146,16.5113426 C3.66160879,16.5113426 0,12.8135845 0,8.25134238 C0,3.69775807 3.66117918,0 8.18932146,0 C12.709301,0 16.3777837,3.69775807 16.3777837,8.25134238 C16.3777837,9.84394973 15.9327025,11.3279013 15.1628324,12.5850179 L19.8941826,17.3515847 C20.1446481,17.5970341 19.9345664,18.2091425 19.4319168,18.7143268 L18.7273482,19.4260002 C18.2246986,19.9311844 17.617223,20.1428683 17.3740609,19.8982847 L17.3740609,19.8982847 Z M13.6566022,8.25134238 C13.6566022,5.20681738 11.2099446,2.74193393 8.18889184,2.74193393 C5.16740943,2.74193393 2.71344845,5.20681738 2.71344845,8.25134238 C2.71344845,11.2958674 5.16740943,13.7685429 8.18889184,13.7685429 C11.2099446,13.7685429 13.6566022,11.2963003 13.6566022,8.25134238 L13.6566022,8.25134238 Z" id="Search" fill="#000000" sketch:type="MSShapeGroup"></path>
    </g>
</svg>