<?xml version="1.0" encoding="UTF-8" standalone="no"?>
<svg width="16px" height="15px" viewBox="0 0 16 15" version="1.1" xmlns="http://www.w3.org/2000/svg" xmlns:xlink="http://www.w3.org/1999/xlink" xmlns:sketch="http://www.bohemiancoding.com/sketch/ns">
    <!-- Generator: Sketch 3.1.1 (8761) - http://www.bohemiancoding.com/sketch -->
    <title>share</title>
    <desc>Created with Sketch.</desc>
    <defs></defs>
    <g id="Design" stroke="none" stroke-width="1" fill="none" fill-rule="evenodd" sketch:type="MSPage">
        <path d="M12.9256437,9.73216787 C12.2408664,9.73216787 11.6188523,9.99308493 11.1492907,10.4179905 L6.09472379,7.85410459 C6.11486999,7.72326066 6.12842994,7.59029701 6.12842994,7.45367205 C6.12842994,7.37678438 6.12339339,7.30105291 6.11680713,7.22570685 L11.219415,4.63792603 C11.6800657,5.02564031 12.27496,5.26035004 12.9258374,5.26035004 C14.3858562,5.26035004 15.5696395,4.08294735 15.5696395,2.63036772 C15.5696395,1.1777881 14.3858562,0 12.9258374,0 C11.4654312,0 10.2816478,1.1775954 10.2816478,2.63036772 C10.2816478,2.71053131 10.2866844,2.78953869 10.2938518,2.86777527 L5.19783018,5.45247287 C4.73640457,5.06109728 4.13879836,4.82349703 3.48482151,4.82349703 C2.02460899,4.82349703 0.840631945,6.00109243 0.840631945,7.45367205 C0.840631945,8.90625168 2.02460899,10.0838471 3.48482151,10.0838471 C4.07371062,10.0838471 4.61552734,9.88998994 5.0548696,9.56625237 L10.2886215,12.2207077 C10.2861032,12.2677267 10.2814541,12.3141677 10.2814541,12.3617648 C10.2814541,13.8145371 11.4652375,14.9919398 12.9256437,14.9919398 C14.3856625,14.9919398 15.5694458,13.8145371 15.5694458,12.3617648 C15.5696395,10.9095706 14.3856625,9.73216787 12.9256437,9.73216787" id="share" fill="#4A4A4A" sketch:type="MSShapeGroup"></path>
    </g>
</svg>