<?xml version="1.0" encoding="UTF-8" standalone="no"?>
<svg width="22px" height="22px" viewBox="0 0 22 22" version="1.1" xmlns="http://www.w3.org/2000/svg" xmlns:xlink="http://www.w3.org/1999/xlink" xmlns:sketch="http://www.bohemiancoding.com/sketch/ns">
    <!-- Generator: Sketch 3.1.1 (8761) - http://www.bohemiancoding.com/sketch -->
    <title>Imported Layers 2</title>
    <desc>Created with Sketch.</desc>
    <defs></defs>
    <g id="Design" stroke="none" stroke-width="1" fill="none" fill-rule="evenodd" sketch:type="MSPage">
        <g id="Group" sketch:type="MSLayerGroup" transform="translate(-124.000000, 0.000000)" fill="#4A4A4A">
            <path d="M126.499556,14.2801111 C126.108556,14.6701111 126.100556,15.2971111 126.500556,15.6961111 L130.031556,19.2281111 C130.423556,19.6191111 131.055556,19.6221111 131.448556,19.2291111 L141.347556,9.33111111 C141.737556,8.94011111 141.745556,8.31411111 141.345556,7.91411111 L137.814556,4.38311111 C137.422556,3.99111111 136.790556,3.98811111 136.397556,4.38111111 L126.499556,14.2801111 L126.499556,14.2801111 Z M139.954556,0.824111111 L137.866556,2.91211111 L142.815556,7.86111111 L144.903556,5.77311111 C145.612556,5.06411111 144.903556,4.35511111 144.903556,4.35511111 L141.372556,0.824111111 C141.372556,0.824111111 140.663556,0.115111111 139.954556,0.824111111 L139.954556,0.824111111 Z M125.095556,15.6601111 L124.055556,21.6721111 L130.055556,20.6201111 L125.095556,15.6601111 L125.095556,15.6601111 Z" id="Imported-Layers-2" sketch:type="MSShapeGroup"></path>
        </g>
    </g>
</svg>