<?xml version="1.0" encoding="UTF-8" standalone="no"?>
<svg width="27px" height="19px" viewBox="0 0 27 19" version="1.1" xmlns="http://www.w3.org/2000/svg" xmlns:xlink="http://www.w3.org/1999/xlink" xmlns:sketch="http://www.bohemiancoding.com/sketch/ns">
    <!-- Generator: Sketch 3.1.1 (8761) - http://www.bohemiancoding.com/sketch -->
    <title>Rectangle 29</title>
    <desc>Created with Sketch.</desc>
    <defs></defs>
    <g id="Design" stroke="none" stroke-width="1" fill="none" fill-rule="evenodd" sketch:type="MSPage">
        <g id="Group" sketch:type="MSLayerGroup" transform="translate(-199.000000, -2.000000)" fill="#4A4A4A">
            <path d="M201.05256,2.509 C199.949645,2.509 199.055556,3.4016228 199.055556,4.50408929 L199.055556,18.5139107 C199.055556,19.6157681 199.950534,20.509 201.05256,20.509 L223.058551,20.509 C224.161466,20.509 225.055556,19.6163772 225.055556,18.5139107 L225.055556,4.50408929 C225.055556,3.4022319 224.160577,2.509 223.058551,2.509 L201.05256,2.509 Z M200.055556,4.509 L200.055556,6.509 L203.055556,6.509 L203.055556,4.509 L200.055556,4.509 Z M200.055556,7.509 L200.055556,9.509 L203.055556,9.509 L203.055556,7.509 L200.055556,7.509 Z M221.055556,4.509 L221.055556,6.509 L224.055556,6.509 L224.055556,4.509 L221.055556,4.509 Z M221.055556,7.509 L221.055556,9.509 L224.055556,9.509 L224.055556,7.509 L221.055556,7.509 Z M200.055556,10.509 L200.055556,12.509 L203.055556,12.509 L203.055556,10.509 L200.055556,10.509 Z M221.055556,10.509 L221.055556,12.509 L224.055556,12.509 L224.055556,10.509 L221.055556,10.509 Z M216.805556,11.634 L207.993056,16.7218992 L207.993056,6.54610075 L216.805556,11.634 Z M221.055556,16.509 L221.055556,18.509 L224.055556,18.509 L224.055556,16.509 L221.055556,16.509 Z M200.055556,16.509 L200.055556,18.509 L203.055556,18.509 L203.055556,16.509 L200.055556,16.509 Z M221.055556,13.509 L221.055556,15.509 L224.055556,15.509 L224.055556,13.509 L221.055556,13.509 Z M200.055556,13.509 L200.055556,15.509 L203.055556,15.509 L203.055556,13.509 L200.055556,13.509 Z" id="Rectangle-29" sketch:type="MSShapeGroup"></path>
        </g>
    </g>
</svg>