<?xml version="1.0" encoding="UTF-8" standalone="no"?>
<svg width="190px" height="62px" viewBox="0 0 190 62" version="1.1" xmlns="http://www.w3.org/2000/svg" xmlns:xlink="http://www.w3.org/1999/xlink" xmlns:sketch="http://www.bohemiancoding.com/sketch/ns">
    <!-- Generator: Sketch 3.2.2 (9983) - http://www.bohemiancoding.com/sketch -->
    <title>Amazon</title>
    <desc>Created with Sketch.</desc>
    <defs>
        <linearGradient x1="50%" y1="0.000280898876%" x2="50%" y2="100.000562%" id="linearGradient-1">
            <stop stop-color="#FF9A1B" offset="0%"></stop>
            <stop stop-color="#D16100" offset="100%"></stop>
        </linearGradient>
    </defs>
    <g id="Page-1" stroke="none" stroke-width="1" fill="none" fill-rule="evenodd" sketch:type="MSPage">
        <g id="Amazon" sketch:type="MSLayerGroup">
            <path d="M190,52.9108 C190,57.9308923 185.745897,62 180.499801,62 L9.5001994,62 C4.25410335,62 0,57.9299385 0,52.9108 L0,9.0892 C0,4.06910769 4.25410335,0 9.5001994,0 L180.499801,0 C185.746894,0 190,4.06910769 190,9.0892 L190,52.9108 L190,52.9108 Z" id="Shape" fill="#1A1919" sketch:type="MSShapeGroup"></path>
            <g id="Group" transform="translate(6.500000, 6.500000)" sketch:type="MSShapeGroup">
                <path d="M48.3566481,42.0175 C48.3566481,45.3594815 45.648037,48.0671852 42.306963,48.0671852 L6.60501852,48.0671852 C3.26394444,48.0671852 0.555333333,45.3594815 0.555333333,42.0175 L0.555333333,6.31555556 C0.555333333,2.97448148 3.26394444,0.26587037 6.60501852,0.26587037 L42.306963,0.26587037 C45.648037,0.26587037 48.3566481,2.97448148 48.3566481,6.31555556 L48.3566481,42.0175 L48.3566481,42.0175 Z" id="Shape" fill="#FFFFFF"></path>
                <path d="M48.4501111,42.110963 C48.4501111,45.452037 45.7415,48.1606481 42.3995185,48.1606481 L6.69848148,48.1606481 C3.35740741,48.1606481 0.648796296,45.452037 0.648796296,42.110963 L0.648796296,15.8569444 C0.648796296,15.8569444 10.8253704,17.6309259 24.5499074,17.5302037 C37.4369074,17.4358333 48.4501111,15.8569444 48.4501111,15.8569444 L48.4501111,42.110963 L48.4501111,42.110963 Z" id="Shape" fill="url(#linearGradient-1)"></path>
                <path d="M42.4004259,48.113463 L6.69848148,48.113463 C3.33653704,48.113463 0.601611111,45.378537 0.601611111,42.0165926 L0.601611111,6.31555556 C0.601611111,2.95361111 3.33653704,0.218685185 6.69848148,0.218685185 L42.4004259,0.218685185 C45.7623704,0.218685185 48.4972963,2.95361111 48.4972963,6.31555556 L48.4972963,42.0175 C48.4963889,45.3794444 45.7623704,48.113463 42.4004259,48.113463 L42.4004259,48.113463 Z M6.69848148,0.312148148 C3.38825926,0.312148148 0.695074074,3.00533333 0.695074074,6.31555556 L0.695074074,42.0175 C0.695074074,45.3277222 3.38825926,48.0209074 6.69848148,48.0209074 L42.4004259,48.0209074 C45.7106481,48.0209074 48.4038333,45.3277222 48.4038333,42.0175 L48.4038333,6.31555556 C48.4038333,3.00533333 45.7106481,0.312148148 42.4004259,0.312148148 L6.69848148,0.312148148 L6.69848148,0.312148148 Z" id="Shape" fill="#000000"></path>
                <path d="M28.6060185,12.8153148 C26.6550926,14.2916667 23.8257963,15.0774815 21.3903148,15.0774815 C17.9757407,15.0774815 14.9023519,13.7835185 12.5757593,11.6293333 C12.3933704,11.4605556 12.5557963,11.2291667 12.7753889,11.3607407 C15.2852778,12.857963 18.3886111,13.7599259 21.5953889,13.7599259 C23.7577407,13.7599259 26.1360556,13.2998704 28.3229074,12.348 C28.6522963,12.2046296 28.9290556,12.5712222 28.6060185,12.8153148 L28.6060185,12.8153148 Z" id="Shape" fill="#000000"></path>
                <path d="M29.4181481,11.8652593 C29.1686111,11.5376852 27.7684815,11.7100926 27.1396481,11.7872222 C26.9490926,11.8108148 26.9200556,11.6402222 27.0915556,11.5168148 C28.2085741,10.7119444 30.0388148,10.9451481 30.2511481,11.2137407 C30.4652963,11.485963 30.1948889,13.3670185 29.1477407,14.2653519 C28.9871296,14.4032778 28.8337778,14.3297778 28.9045556,14.1473889 C29.1404815,13.5430556 29.6676852,12.1928333 29.4181481,11.8652593 L29.4181481,11.8652593 Z" id="Shape" fill="#000000"></path>
                <path d="M27.0906481,5.83281481 L27.0906481,5.05153704 C27.0906481,4.93266667 27.1786667,4.85372222 27.2839259,4.85372222 L30.7003148,4.85372222 C30.8092037,4.85372222 30.8972222,4.93538889 30.8972222,5.05062963 L30.8972222,5.7212037 C30.8963148,5.83372222 30.8037593,5.98072222 30.6404259,6.21392593 L28.8700741,8.80457407 C29.527037,8.78914815 30.2221111,8.88987037 30.8191852,9.23377778 C30.9534815,9.31090741 30.9897778,9.42614815 31.0006667,9.53866667 L31.0006667,10.3734815 C31.0006667,10.4878148 30.8781667,10.6212037 30.7493148,10.5522407 C29.6976296,9.98692593 28.302037,9.92522222 27.1396481,10.5585926 C27.0207778,10.6239259 26.896463,10.4923519 26.896463,10.3780185 L26.896463,9.58494444 C26.896463,9.45790741 26.8982778,9.24103704 27.0235,9.04775926 L29.0742407,6.03153704 L27.288463,6.03153704 C27.1786667,6.03062963 27.0906481,5.95077778 27.0906481,5.83281481 L27.0906481,5.83281481 Z" id="Shape" fill="#000000"></path>
                <path d="M14.7217778,10.7155741 L13.6827963,10.7155741 C13.5838889,10.7092222 13.5049444,10.633 13.4967778,10.535 L13.4976852,5.06514815 C13.4976852,4.95535185 13.5875185,4.86824074 13.6982222,4.86824074 L14.6655185,4.86824074 C14.7671481,4.87368519 14.8488148,4.95262963 14.8551667,5.05244444 L14.8551667,5.76657407 L14.8742222,5.76657407 C15.1264815,5.07603704 15.601963,4.753 16.2425926,4.753 C16.8922963,4.753 17.2997222,5.07603704 17.591,5.76657407 C17.8432593,5.07603704 18.4158333,4.753 19.0274259,4.753 C19.4638889,4.753 19.9393704,4.9372037 20.2306481,5.35188889 C20.5609444,5.81285185 20.4928889,6.4797963 20.4928889,7.06688889 L20.4919815,10.5195741 C20.4919815,10.628463 20.4021481,10.7164815 20.2914444,10.7164815 L19.2533704,10.7164815 C19.1490185,10.7092222 19.0664444,10.6248333 19.0664444,10.5204815 L19.0664444,7.62040741 C19.0664444,7.39083333 19.0855,6.81462963 19.0374074,6.59594444 C18.9602778,6.22753704 18.7270741,6.12409259 18.4267222,6.12409259 C18.174463,6.12409259 17.9122222,6.2965 17.8051481,6.57325926 C17.6980741,6.85001852 17.7080556,7.31007407 17.7080556,7.62040741 L17.7080556,10.5204815 C17.7080556,10.6293704 17.6182222,10.7173889 17.5075185,10.7173889 L16.4694444,10.7173889 C16.3650926,10.7101296 16.2825185,10.6257407 16.2825185,10.5213889 L16.2816111,7.62131481 C16.2816111,7.01153704 16.3787037,6.1132037 15.6409815,6.1132037 C14.8941852,6.1132037 14.9223148,6.98794444 14.9223148,7.62131481 L14.9223148,10.5213889 C14.9223148,10.6275556 14.8324815,10.7155741 14.7217778,10.7155741 L14.7217778,10.7155741 Z" id="Shape" fill="#000000"></path>
                <path d="M33.7446667,4.75209259 C35.2872593,4.75209259 36.1220741,6.11048148 36.1220741,7.83727778 C36.1220741,9.506 35.2001481,10.8299074 33.7446667,10.8299074 C32.2311111,10.8299074 31.4062778,9.47151852 31.4062778,7.7792037 C31.4062778,6.076 32.2410926,4.75209259 33.7446667,4.75209259 L33.7446667,4.75209259 Z M33.7546481,5.86911111 C32.9878889,5.86911111 32.9397963,6.93894444 32.9397963,7.6067963 C32.9397963,8.27464815 32.9298148,9.702 33.7455741,9.702 C34.5504444,9.702 34.589463,8.5505 34.589463,7.84907407 C34.589463,7.38901852 34.5704074,6.83640741 34.4342963,6.39812963 C34.3172407,6.01883333 34.084037,5.86911111 33.7546481,5.86911111 L33.7546481,5.86911111 Z" id="Shape" fill="#000000"></path>
                <path d="M38.1229074,10.7155741 L37.0875556,10.7155741 C36.9832037,10.7083148 36.9006296,10.6239259 36.9006296,10.5195741 L36.8988148,5.047 C36.9078889,4.94718519 36.9931852,4.86824074 37.0984444,4.86824074 L38.0621111,4.86824074 C38.1528519,4.87277778 38.2272593,4.9362963 38.2472222,5.02159259 L38.2472222,5.85822222 L38.2662778,5.85822222 C38.5566481,5.10961111 38.9649815,4.753 39.6827407,4.753 C40.1482407,4.753 40.6046667,4.92540741 40.895037,5.39816667 C41.1663519,5.83553704 41.1663519,6.57235185 41.1663519,7.10137037 L41.1663519,10.5440741 C41.1545556,10.6411667 41.0701667,10.7164815 40.9676296,10.7164815 L39.9259259,10.7164815 C39.8297407,10.7101296 39.7526111,10.637537 39.7408148,10.5440741 L39.7408148,7.57412963 C39.7408148,6.97524074 39.8088704,6.1005 39.0911111,6.1005 C38.8388519,6.1005 38.6056481,6.27290741 38.4895,6.53787037 C38.3443148,6.8717963 38.3243519,7.20572222 38.3243519,7.57412963 L38.3243519,10.5195741 C38.322537,10.6275556 38.2336111,10.7155741 38.1229074,10.7155741 L38.1229074,10.7155741 Z" id="Shape" fill="#000000"></path>
                <path d="M24.4600741,8.10314815 C24.4600741,8.51874074 24.4700556,8.86446296 24.2658889,9.23377778 C24.0998333,9.53412963 23.8375926,9.71833333 23.5463148,9.71833333 C23.147963,9.71833333 22.9147593,9.40709259 22.9147593,8.94522222 C22.9147593,8.03781481 23.7087407,7.87175926 24.4609815,7.87175926 L24.4609815,8.10314815 L24.4600741,8.10314815 Z M25.5081296,10.7010556 C25.4391667,10.7645741 25.3402593,10.7682037 25.2622222,10.7255556 C24.9174074,10.4315556 24.8557037,10.2954444 24.666963,10.0150556 C24.0962037,10.6112222 23.6924074,10.7899815 22.9528704,10.7899815 C22.0781296,10.7899815 21.3975741,10.236463 21.3975741,9.12851852 C21.3975741,8.26285185 21.854,7.67575926 22.5055185,7.3872037 C23.0690185,7.13312963 23.8575556,7.08685185 24.4600741,7.01788889 L24.4600741,6.87905556 C24.4600741,6.62498148 24.4791296,6.32553704 24.3339444,6.10685185 C24.2078148,5.91085185 23.9646296,5.83009259 23.7504815,5.83009259 C23.3548519,5.83009259 23.0018704,6.03788889 22.9156667,6.46981481 C22.8975185,6.566 22.829463,6.66037037 22.7350926,6.66581481 L21.7278704,6.5542037 C21.6425741,6.53514815 21.5482037,6.46437037 21.5727037,6.33098148 C21.8040926,5.07785185 22.9084074,4.69946296 23.8974815,4.69946296 C24.4029074,4.69946296 25.0644074,4.83738889 25.4627593,5.2302963 C25.9681852,5.71485185 25.9191852,6.36092593 25.9191852,7.06416667 L25.9191852,8.72472222 C25.9191852,9.2247037 26.121537,9.44338889 26.3120926,9.71288889 C26.3783333,9.80998148 26.3928519,9.92522222 26.308463,9.996 C26.0961296,10.1783889 25.7195556,10.5141296 25.5117593,10.7037778 L25.5081296,10.7010556 L25.5081296,10.7010556 Z" id="Shape" fill="#000000"></path>
                <path d="M10.9279074,8.10314815 C10.9279074,8.51874074 10.9378889,8.86446296 10.7337222,9.23377778 C10.5685741,9.53412963 10.3054259,9.71833333 10.0141481,9.71833333 C9.6157963,9.71833333 9.38259259,9.40709259 9.38259259,8.94522222 C9.38259259,8.03781481 10.1765741,7.87175926 10.9288148,7.87175926 L10.9288148,8.10314815 L10.9279074,8.10314815 Z M11.975963,10.7010556 C11.907,10.7645741 11.8071852,10.7682037 11.7300556,10.7255556 C11.3843333,10.4315556 11.3226296,10.2954444 11.1338889,10.0150556 C10.5631296,10.6112222 10.1593333,10.7899815 9.4197963,10.7899815 C8.54505556,10.7899815 7.8645,10.236463 7.8645,9.12851852 C7.8645,8.26285185 8.32092593,7.67575926 8.97335185,7.3872037 C9.53685185,7.13312963 10.3244815,7.08685185 10.9279074,7.01788889 L10.9279074,6.87905556 C10.9279074,6.62498148 10.946963,6.32553704 10.8017778,6.10685185 C10.6747407,5.91085185 10.432463,5.83009259 10.2183148,5.83009259 C9.82177778,5.83009259 9.4697037,6.03788889 9.3835,6.46981481 C9.36535185,6.566 9.2972963,6.66037037 9.20292593,6.66581481 L8.1957037,6.5542037 C8.11040741,6.53514815 8.01603704,6.46437037 8.04053704,6.33098148 C8.27192593,5.07785185 9.37533333,4.69946296 10.3653148,4.69946296 C10.8707407,4.69946296 11.5322407,4.83738889 11.9305926,5.2302963 C12.4360185,5.71485185 12.3879259,6.36092593 12.3879259,7.06416667 L12.3879259,8.72472222 C12.3879259,9.2247037 12.5902778,9.44338889 12.7799259,9.71288889 C12.8461667,9.80998148 12.8606852,9.92522222 12.7762963,9.996 C12.563963,10.1783889 12.1873889,10.5141296 11.9795926,10.7037778 L11.975963,10.7010556 L11.975963,10.7010556 Z" id="Shape" fill="#000000"></path>
                <circle id="Oval" fill="#202074" cx="11.0758148" cy="31.0278889" r="8.44977778"></circle>
                <path d="M11.5485741,27.8020556 L9.52142593,27.8020556 L9.52142593,35.3144815 C9.52142593,35.3144815 9.43159259,35.4623889 9.25283333,35.2201111 C9.16481481,35.1003333 6.77924074,31.5578148 6.77924074,31.5578148 C6.77924074,31.5578148 6.39177778,31.1703519 5.82555556,31.3191667 C5.25842593,31.4679815 5.05062963,31.8554444 5.31831481,32.3327407 C5.586,32.8091296 7.40444444,37.1311111 9.76007407,38.3243519 C11.4342407,39.1718704 13.4269074,38.8597222 14.5593519,38.3243519 C15.562037,37.8497778 17.1291296,36.6846667 17.248,35.1348148 C17.3668704,33.5840556 17.2452778,32.212963 17.2452778,32.212963 L16.189963,32.212963 L16.189963,34.0903889 L15.5121296,34.0903889 L15.5121296,31.3482037 L14.3197963,31.3482037 L14.3197963,33.5904074 L13.6083889,33.5904074 L13.6083889,30.6631111 L12.2672407,30.6631111 L12.2672407,33.4415926 L11.6157222,33.4415926 L11.5485741,27.8020556 L11.5485741,27.8020556 Z" id="Shape" fill="#FFFFFF"></path>
                <rect id="Rectangle-path" fill="#FFFFFF" x="5.94442593" y="27.8020556" width="1.69866667" height="1.04351852"></rect>
                <rect id="Rectangle-path" fill="#FFFFFF" x="13.5303519" y="27.8020556" width="1.69866667" height="1.04351852"></rect>
                <rect id="Rectangle-path" fill="#FFFFFF" x="9.6402963" y="24.0462963" width="1.75855556" height="1.96725926"></rect>
                <path d="M8.12038889,26.9672407 L8.7465,26.3411296 L7.58774074,25.1487963 L6.88722222,25.7749074 L8.12038889,26.9672407 Z" id="Shape" fill="#FFFFFF"></path>
                <path d="M13.1329074,26.7812222 L12.6002593,26.0616481 L13.8524815,25.0553333 L14.3660741,25.7749074 L13.1329074,26.7812222 Z" id="Shape" fill="#FFFFFF"></path>
                <g transform="translate(20.870370, 26.314815)" id="Shape" fill="#FFFFFF">
                    <g>
                        <path d="M1.36474074,1.00631481 C1.80755556,0.774925926 2.42731481,0.457333333 3.42637037,0.457333333 C5.44988889,0.457333333 5.91901852,1.58524074 5.91901852,3.45268519 L5.91901852,6.70846296 C5.91901852,7.24474074 5.87637037,7.73655556 5.91448148,8.02511111 L4.49711111,8.02511111 C4.46535185,7.68392593 4.50164815,7.3745 4.50164815,7.01244444 L4.47624074,7.01244444 C4.08424074,7.62040741 3.59061111,8.14125926 2.65416667,8.14125926 C1.64240741,8.14125926 0.705962963,7.34546296 0.705962963,5.95622222 C0.705962963,3.93088889 2.14783333,3.42364815 4.13414815,3.42364815 L4.45083333,3.42364815 L4.45083333,3.1487037 C4.45083333,2.41098148 4.13414815,1.73133333 3.23672222,1.73133333 C2.45181481,1.73133333 1.75674074,2.16598148 1.45275926,2.45453704 L1.36474074,1.00631481 L1.36474074,1.00631481 Z M4.45174074,4.37824074 L4.31290741,4.37824074 C2.97175926,4.37824074 2.17505556,4.69674074 2.17505556,5.782 C2.17505556,6.46255556 2.56796296,6.92533333 3.17501852,6.92533333 C4.11146296,6.92533333 4.45264815,6.12953704 4.45264815,4.79837037 L4.45264815,4.37824074 L4.45174074,4.37824074 Z"></path>
                        <path d="M2.65507407,8.18753704 C1.66418519,8.18753704 0.660592593,7.42077778 0.660592593,5.95531481 C0.660592593,3.66864815 2.51714815,3.37646296 4.13596296,3.37646296 L4.40546296,3.37646296 L4.40546296,3.1487037 C4.40546296,2.73674074 4.29203704,1.7767037 3.23762963,1.7767037 C2.44364815,1.7767037 1.76309259,2.22405556 1.48633333,2.4872037 C1.47272222,2.50081481 1.45366667,2.50353704 1.43642593,2.49718519 C1.41918519,2.49083333 1.4082963,2.47540741 1.40738889,2.45635185 L1.31846296,1.00903704 C1.31755556,0.990888889 1.32753704,0.973648148 1.34296296,0.964574074 C1.76581481,0.744074074 2.40462963,0.410148148 3.42637037,0.410148148 C5.53337037,0.410148148 5.9652963,1.62607407 5.9652963,3.45268519 L5.9652963,6.70846296 C5.9652963,6.909 5.95985185,7.09864815 5.9535,7.28194444 C5.94442593,7.5822963 5.93625926,7.84090741 5.95985185,8.01875926 C5.96166667,8.03327778 5.95712963,8.04598148 5.94896296,8.05596296 C5.93988889,8.06594444 5.92718519,8.0722963 5.91357407,8.0722963 L4.4962037,8.0722963 C4.47261111,8.0722963 4.45174074,8.05324074 4.44992593,8.02964815 C4.42905556,7.80733333 4.43722222,7.60044444 4.44538889,7.38175926 C4.44811111,7.30009259 4.45174074,7.21661111 4.45355556,7.13131481 C4.09240741,7.6685 3.58698148,8.18753704 2.65507407,8.18753704 L2.65507407,8.18753704 Z M4.13596296,3.46992593 C1.79757407,3.46992593 0.754962963,4.23668519 0.754962963,5.95531481 C0.754962963,7.35907407 1.71137037,8.09407407 2.65598148,8.09407407 C3.59424074,8.09407407 4.06790741,7.56142593 4.43812963,6.98612963 C4.4472037,6.97251852 4.46172222,6.96525926 4.47805556,6.96525926 L4.50346296,6.96525926 C4.52887037,6.96525926 4.54974074,6.98522222 4.54974074,7.01153704 C4.54974074,7.1422037 4.5452037,7.26561111 4.54066667,7.38448148 C4.53340741,7.58683333 4.52614815,7.77738889 4.54157407,7.97792593 L5.86366667,7.97792593 C5.84642593,7.79644444 5.85459259,7.55416667 5.86275926,7.27831481 C5.8682037,7.09592593 5.87364815,6.90718519 5.87364815,6.70755556 L5.87364815,3.45177778 C5.87364815,1.68142593 5.45805556,0.502703704 3.42818519,0.502703704 C2.45,0.502703704 1.82933333,0.816666667 1.41464815,1.03353704 L1.49540741,2.35381481 C1.81753704,2.07796296 2.47812963,1.68324074 3.23853704,1.68324074 C4.03977778,1.68324074 4.49983333,2.2167963 4.49983333,3.1477963 L4.49983333,3.42274074 C4.49983333,3.44814815 4.47896296,3.46992593 4.45355556,3.46992593 L4.13596296,3.46992593 L4.13596296,3.46992593 Z M3.17411111,6.97251852 C2.548,6.97251852 2.12787037,6.49431481 2.12787037,5.782 C2.12787037,4.7657037 2.7812037,4.33196296 4.31290741,4.33196296 L4.45174074,4.33196296 C4.47714815,4.33196296 4.49801852,4.35192593 4.49801852,4.37824074 L4.49801852,4.79837037 C4.49801852,6.28198148 4.07788889,6.97251852 3.17411111,6.97251852 L3.17411111,6.97251852 Z M4.31290741,4.42542593 C2.84653704,4.42542593 2.22133333,4.83103704 2.22133333,5.782 C2.22133333,6.44803704 2.59518519,6.87905556 3.17411111,6.87905556 C4.01437037,6.87905556 4.40455556,6.21755556 4.40455556,4.79837037 L4.40455556,4.42542593 L4.31290741,4.42542593 L4.31290741,4.42542593 Z"></path>
                    </g>
                    <g transform="translate(7.259259, 0.000000)">
                        <path d="M0.139740741,1.84566667 C0.139740741,1.3102963 0.136111111,0.901055556 0.136111111,0.585277778 L1.50901852,0.588907407 C1.52172222,0.822111111 1.51446296,0.850240741 1.51446296,1.35657407 L1.55257407,1.35657407 C1.80574074,0.720481481 2.36651852,0.457333333 3.37918519,0.457333333 C4.99890741,0.457333333 5.76203704,2.22224074 5.76203704,4.29203704 C5.76203704,6.72388889 4.82105556,7.95433333 3.4172963,7.95433333 C2.48085185,7.95433333 1.96181481,7.81368519 1.73496296,7.23475926 L1.70955556,7.23475926 L1.70955556,10.7772778 L0.140648148,10.7772778 L0.140648148,1.84566667 L0.139740741,1.84566667 Z M2.92366667,6.63677778 C3.79659259,6.63677778 4.28659259,5.85459259 4.28659259,4.36372222 C4.28659259,2.64146296 3.86011111,1.77398148 2.94907407,1.77398148 C2.02533333,1.77398148 1.70955556,2.82294444 1.70955556,4.2267037 C1.70864815,5.67492593 2.06253704,6.63677778 2.92366667,6.63677778 L2.92366667,6.63677778 Z"></path>
                        <path d="M1.70864815,10.824463 L0.139740741,10.824463 C0.114333333,10.824463 0.093462963,10.8035926 0.093462963,10.7772778 L0.093462963,1.84566667 C0.093462963,1.5435 0.0925555556,1.28035185 0.0907407407,1.05259259 C0.0898333333,0.877462963 0.0889259259,0.723203704 0.0889259259,0.585277778 C0.0889259259,0.572574074 0.093462963,0.560777778 0.102537037,0.551703704 C0.111611111,0.543537037 0.123407407,0.538092593 0.136111111,0.538092593 L0.136111111,0.538092593 L1.50992593,0.541722222 C1.53442593,0.541722222 1.5552963,0.560777778 1.5562037,0.586185185 C1.56437037,0.741351852 1.56437037,0.805777778 1.56255556,0.978185185 C1.56255556,1.0407963 1.56164815,1.11883333 1.56164815,1.22137037 C1.84022222,0.654240741 2.39374074,0.410148148 3.37918519,0.410148148 C4.85553704,0.410148148 5.80922222,1.93368519 5.80922222,4.29112963 C5.80922222,6.64857407 4.93811111,8.00061111 3.4182037,8.00061111 C2.58338889,8.00061111 2.03168519,7.89716667 1.75674074,7.39083333 L1.75674074,10.7763704 C1.75583333,10.8026852 1.73496296,10.824463 1.70864815,10.824463 L1.70864815,10.824463 Z M0.186925926,10.731 L1.66146296,10.731 L1.66146296,7.23385185 C1.66146296,7.20844444 1.68233333,7.18666667 1.70864815,7.18666667 L1.73405556,7.18666667 C1.75311111,7.18666667 1.77035185,7.19937037 1.77761111,7.21661111 C1.97814815,7.72566667 2.40644444,7.90714815 3.4172963,7.90714815 C4.87731481,7.90714815 5.71575926,6.58959259 5.71575926,4.29112963 C5.71575926,2.54346296 5.10416667,0.502703704 3.37918519,0.502703704 C2.37196296,0.502703704 1.83840741,0.76312963 1.59612963,1.37381481 C1.58887037,1.39196296 1.57162963,1.40285185 1.55257407,1.40285185 L1.51446296,1.40285185 C1.48814815,1.40285185 1.46727778,1.38198148 1.46727778,1.35566667 C1.46727778,1.18325926 1.46818519,1.0662037 1.46909259,0.97637037 C1.47,0.823925926 1.47090741,0.756777778 1.46455556,0.634277778 L0.182388889,0.630648148 C0.182388889,0.756777778 0.183296296,0.895611111 0.184203704,1.05077778 C0.185111111,1.27944444 0.186925926,1.54168519 0.186925926,1.84475926 L0.186925926,10.731 L0.186925926,10.731 Z M2.92366667,6.68396296 C2.09883333,6.68396296 1.66237037,5.83372222 1.66237037,4.2267037 C1.66237037,2.56796296 2.0952037,1.7267963 2.94907407,1.7267963 C3.88098148,1.7267963 4.33377778,2.58883333 4.33377778,4.36372222 C4.33287037,5.86003704 3.83288889,6.68396296 2.92366667,6.68396296 L2.92366667,6.68396296 Z M2.94816667,1.82025926 C2.156,1.82025926 1.75492593,2.62966667 1.75492593,4.2267037 C1.75492593,5.3047037 1.95727778,6.58959259 2.92275926,6.58959259 C3.77209259,6.58959259 4.23940741,5.79924074 4.23940741,4.36372222 C4.23940741,2.65235185 3.81746296,1.82025926 2.94816667,1.82025926 L2.94816667,1.82025926 Z"></path>
                    </g>
                    <g transform="translate(19.962963, 0.000000)">
                        <path d="M0.694166667,6.027 C0.958222222,6.13951852 1.6297037,6.59866667 2.39464815,6.59866667 C2.98809259,6.59866667 3.44905556,6.4435 3.44905556,5.88181481 C3.44905556,5.60051852 3.31748148,5.33374074 2.72403704,4.96805556 L1.77216667,4.36009259 C1.08707407,3.92453704 0.61612963,3.60785185 0.61612963,2.60153704 C0.61612963,1.44096296 1.52535185,0.457333333 2.96177778,0.457333333 C3.83198148,0.457333333 4.50346296,0.695981481 4.66225926,0.752240741 L4.5697037,2.10064815 C4.16137037,1.93187037 3.72672222,1.77761111 3.13327778,1.77761111 C2.4745,1.77761111 2.19774074,2.0452963 2.19774074,2.47994444 C2.19774074,2.87375926 2.39646296,3.0262037 2.87012963,3.34924074 L3.99712963,3.88824074 C4.88366667,4.40727778 5.12503704,5.12957407 5.12503704,5.78290741 C5.12503704,7.11861111 4.16409259,8.01240741 2.68864815,8.01240741 C1.84475926,8.01240741 0.960037037,7.70842593 0.617037037,7.56777778 L0.694166667,6.027 L0.694166667,6.027 Z"></path>
                        <path d="M2.68683333,8.05959259 C1.73859259,8.05959259 0.78037037,7.68664815 0.597981481,7.61133333 C0.579833333,7.60316667 0.568037037,7.58592593 0.568944444,7.56596296 L0.647888889,6.02518519 C0.648796296,6.00975926 0.656962963,5.99614815 0.669666667,5.98798148 C0.68237037,5.97981481 0.698703704,5.978 0.712314815,5.98435185 C0.768574074,6.00794444 0.842074074,6.04605556 0.926462963,6.09142593 C1.25222222,6.26383333 1.79757407,6.55148148 2.39464815,6.55148148 C3.08246296,6.55148148 3.40187037,6.33914815 3.40187037,5.88181481 C3.40187037,5.61775926 3.283,5.36822222 2.69953704,5.00798148 L1.74675926,4.39911111 C1.08888889,3.9807963 0.568944444,3.6505 0.568944444,2.60244444 C0.568944444,1.33298148 1.57435185,0.411055556 2.96087037,0.411055556 C3.36103704,0.411055556 3.98351852,0.462777778 4.67677778,0.708685185 C4.69583333,0.715944444 4.70944444,0.735 4.70762963,0.75587037 L4.61507407,2.10518519 C4.61416667,2.12061111 4.606,2.13331481 4.5932963,2.14148148 C4.58059259,2.14964815 4.56425926,2.15055556 4.55064815,2.14511111 C4.15864815,1.98268519 3.72672222,1.8247963 3.13237037,1.8247963 C2.53438889,1.8247963 2.24401852,2.03894444 2.24401852,2.48085185 C2.24401852,2.85198148 2.43185185,2.99535185 2.89644444,3.31203704 L4.01618519,3.8465 C4.78294444,4.29566667 5.17040741,4.94718519 5.17040741,5.78381481 C5.17040741,7.14401852 4.17225926,8.05959259 2.68683333,8.05959259 L2.68683333,8.05959259 Z M0.663314815,7.53692593 C0.901962963,7.6322037 1.79938889,7.96703704 2.68592593,7.96703704 C4.13777778,7.96703704 5.07603704,7.11044444 5.07603704,5.78381481 C5.07603704,4.98257407 4.704,4.35918519 3.97081481,3.92907407 L2.84835185,3.3927963 C2.36107407,3.06159259 2.14874074,2.89916667 2.14874074,2.48085185 C2.14874074,2.13966667 2.31933333,1.73224074 3.13146296,1.73224074 C3.71311111,1.73224074 4.14140741,1.87742593 4.52614815,2.03440741 L4.61144444,0.784907407 C3.9445,0.553518519 3.34651852,0.503611111 2.95996296,0.503611111 C1.62788889,0.503611111 0.660592593,1.38651852 0.660592593,2.60153704 C0.660592593,3.59968519 1.13607407,3.90185185 1.79575926,4.32016667 L2.74762963,4.92903704 C3.27755556,5.2547963 3.49351852,5.53155556 3.49351852,5.88181481 C3.49351852,6.39540741 3.13327778,6.64494444 2.39283333,6.64494444 C1.77307407,6.64494444 1.21501852,6.35094444 0.881092593,6.174 C0.826648148,6.14587037 0.777648148,6.11955556 0.735,6.09868519 L0.663314815,7.53692593 L0.663314815,7.53692593 Z"></path>
                    </g>
                    <g transform="translate(13.611111, 0.000000)">
                        <path d="M0.528111111,1.84566667 C0.528111111,1.3102963 0.524481481,0.901055556 0.524481481,0.585277778 L1.8982963,0.588907407 C1.911,0.822111111 1.90283333,0.850240741 1.90283333,1.35657407 L1.94094444,1.35657407 C2.19411111,0.720481481 2.7557963,0.457333333 3.76755556,0.457333333 C5.38727778,0.457333333 6.15040741,2.22224074 6.15040741,4.29203704 C6.15040741,6.72388889 5.20942593,7.95433333 3.80566667,7.95433333 C2.86922222,7.95433333 2.35018519,7.81368519 2.12333333,7.23475926 L2.09792593,7.23475926 L2.09792593,10.7772778 L0.529018519,10.7772778 L0.529018519,1.84566667 L0.528111111,1.84566667 Z M3.31203704,6.63677778 C4.18496296,6.63677778 4.67496296,5.85459259 4.67496296,4.36372222 C4.67496296,2.64146296 4.24757407,1.77398148 3.33653704,1.77398148 C2.4127963,1.77398148 2.09701852,2.82294444 2.09701852,4.2267037 C2.09701852,5.67492593 2.45181481,6.63677778 3.31203704,6.63677778 L3.31203704,6.63677778 Z"></path>
                        <path d="M2.09701852,10.824463 L0.528111111,10.824463 C0.502703704,10.824463 0.481833333,10.8035926 0.481833333,10.7772778 L0.481833333,1.84566667 C0.481833333,1.5435 0.480925926,1.28035185 0.479111111,1.05259259 C0.478203704,0.877462963 0.478203704,0.723203704 0.478203704,0.585277778 C0.478203704,0.572574074 0.482740741,0.560777778 0.491814815,0.551703704 C0.499981481,0.543537037 0.511777778,0.538092593 0.524481481,0.538092593 L0.524481481,0.538092593 L1.8982963,0.541722222 C1.9227963,0.541722222 1.94366667,0.560777778 1.94457407,0.586185185 C1.95274074,0.741351852 1.95274074,0.805777778 1.95092593,0.978185185 C1.95092593,1.0407963 1.95001852,1.11883333 1.95001852,1.22137037 C2.22859259,0.654240741 2.78211111,0.410148148 3.76664815,0.410148148 C5.243,0.410148148 6.19668519,1.93368519 6.19668519,4.29112963 C6.19668519,6.64857407 5.32466667,8.00061111 3.80475926,8.00061111 C2.96994444,8.00061111 2.41824074,7.89716667 2.1432963,7.39083333 L2.1432963,10.7763704 C2.1442037,10.8026852 2.12333333,10.824463 2.09701852,10.824463 L2.09701852,10.824463 Z M0.575296296,10.731 L2.04983333,10.731 L2.04983333,7.23385185 C2.04983333,7.20844444 2.0707037,7.18666667 2.09701852,7.18666667 L2.12242593,7.18666667 C2.14148148,7.18666667 2.15872222,7.19937037 2.16598148,7.21661111 C2.36651852,7.72566667 2.79572222,7.90714815 3.80566667,7.90714815 C5.26568519,7.90714815 6.10412963,6.58959259 6.10412963,4.29112963 C6.10412963,2.54346296 5.49253704,0.502703704 3.76755556,0.502703704 C2.76033333,0.502703704 2.22768519,0.76312963 1.9845,1.37381481 C1.97724074,1.39196296 1.96090741,1.40285185 1.94094444,1.40285185 L1.90283333,1.40285185 C1.87742593,1.40285185 1.85655556,1.38198148 1.85655556,1.35566667 C1.85655556,1.18325926 1.85746296,1.0662037 1.85746296,0.97637037 C1.85837037,0.823925926 1.85927778,0.756777778 1.85383333,0.634277778 L0.571666667,0.630648148 C0.571666667,0.756777778 0.572574074,0.895611111 0.572574074,1.05077778 C0.573481481,1.27944444 0.575296296,1.54168519 0.575296296,1.84475926 L0.575296296,10.731 L0.575296296,10.731 Z M3.31203704,6.68396296 C2.4872037,6.68396296 2.05074074,5.83372222 2.05074074,4.2267037 C2.05074074,2.56796296 2.48357407,1.7267963 3.33744444,1.7267963 C4.26935185,1.7267963 4.72214815,2.58883333 4.72214815,4.36372222 C4.72214815,5.86003704 4.22125926,6.68396296 3.31203704,6.68396296 L3.31203704,6.68396296 Z M3.33744444,1.82025926 C2.54527778,1.82025926 2.14511111,2.62966667 2.14511111,4.2267037 C2.14511111,5.3047037 2.34746296,6.58959259 3.31294444,6.58959259 C4.16227778,6.58959259 4.62959259,5.79924074 4.62959259,4.36372222 C4.62868519,2.65235185 4.20583333,1.82025926 3.33744444,1.82025926 L3.33744444,1.82025926 Z"></path>
                    </g>
                </g>
            </g>
            <g id="Group" transform="translate(86.000000, 43.000000)" fill="#FF9200" sketch:type="MSShapeGroup">
                <path d="M48.851,6.2 C42.947,10.557 34.386,12.875 27.015,12.875 C16.685,12.875 7.383,9.057 0.342,2.7 C-0.21,2.201 0.283,1.518 0.946,1.905 C8.542,6.325 17.934,8.986 27.634,8.986 C34.179,8.986 41.372,7.628 47.991,4.822 C48.99,4.398 49.827,5.479 48.851,6.2 L48.851,6.2 Z" id="Shape"></path>
                <path d="M51.308,3.396 C50.552,2.428 46.316,2.937 44.413,3.166 C43.836,3.235 43.747,2.731 44.266,2.366 C47.646,-0.007 53.184,0.678 53.828,1.472 C54.476,2.274 53.658,7.826 50.49,10.476 C50.004,10.884 49.54,10.666 49.756,10.127 C50.468,8.349 52.063,4.362 51.308,3.396 L51.308,3.396 Z" id="Shape"></path>
            </g>
            <path d="M130.547,28.596 L130.547,26.289 C130.548,25.938 130.813,25.705 131.131,25.705 L141.469,25.703 C141.8,25.703 142.066,25.944 142.066,26.286 L142.066,28.265 C142.063,28.597 141.784,29.031 141.287,29.716 L135.933,37.363 C137.92,37.316 140.024,37.614 141.83,38.629 C142.236,38.858 142.346,39.197 142.377,39.529 L142.377,41.99 C142.377,42.33 142.007,42.722 141.617,42.518 C138.434,40.851 134.212,40.667 130.693,42.536 C130.334,42.728 129.958,42.342 129.958,42.003 L129.958,39.662 C129.958,39.288 129.965,38.648 130.342,38.078 L136.547,29.177 L131.145,29.176 C130.813,29.177 130.549,28.94 130.547,28.596 L130.547,28.596 Z" id="Shape" fill="#FFFFFF" sketch:type="MSShapeGroup"></path>
            <path d="M92.835,43.003 L89.69,43.003 C89.39,42.983 89.151,42.759 89.128,42.472 L89.13,26.33 C89.13,26.005 89.402,25.748 89.736,25.748 L92.665,25.747 C92.972,25.763 93.218,25.994 93.238,26.289 L93.238,28.396 L93.297,28.396 C94.061,26.358 95.499,25.407 97.436,25.407 C99.403,25.407 100.636,26.358 101.517,28.396 C102.281,26.358 104.012,25.407 105.863,25.407 C107.184,25.407 108.623,25.951 109.503,27.174 C110.501,28.532 110.296,30.503 110.296,32.236 L110.294,42.422 C110.294,42.745 110.022,43.003 109.688,43.003 L106.546,43.003 C106.231,42.983 105.981,42.732 105.981,42.422 L105.981,33.866 C105.981,33.185 106.04,31.487 105.892,30.842 C105.658,29.755 104.954,29.449 104.043,29.449 C103.279,29.449 102.486,29.959 102.164,30.774 C101.841,31.59 101.87,32.947 101.87,33.866 L101.87,42.422 C101.87,42.745 101.599,43.003 101.264,43.003 L98.122,43.003 C97.807,42.983 97.557,42.732 97.557,42.422 L97.555,33.866 C97.555,32.065 97.848,29.415 95.617,29.415 C93.356,29.415 93.445,31.997 93.445,33.866 L93.443,42.422 C93.442,42.745 93.17,43.003 92.835,43.003 L92.835,43.003 Z" id="Shape" fill="#FFFFFF" sketch:type="MSShapeGroup"></path>
            <path d="M150.965,25.407 C155.634,25.407 158.158,29.415 158.158,34.511 C158.158,39.437 155.37,43.344 150.965,43.344 C146.385,43.344 143.89,39.334 143.89,34.342 C143.89,29.313 146.414,25.407 150.965,25.407 L150.965,25.407 Z M150.994,28.702 C148.675,28.702 148.528,31.861 148.528,33.832 C148.528,35.802 148.499,40.013 150.965,40.013 C153.403,40.013 153.52,36.617 153.52,34.545 C153.52,33.186 153.462,31.556 153.05,30.265 C152.697,29.144 151.992,28.702 150.994,28.702 L150.994,28.702 Z" id="Shape" fill="#FFFFFF" sketch:type="MSShapeGroup"></path>
            <path d="M164.212,43.003 L161.078,43.003 C160.763,42.983 160.514,42.732 160.514,42.422 L160.509,26.275 C160.536,25.979 160.796,25.748 161.114,25.748 L164.032,25.747 C164.305,25.761 164.533,25.949 164.591,26.199 L164.591,28.668 L164.651,28.668 C165.531,26.46 166.764,25.407 168.936,25.407 C170.345,25.407 171.725,25.917 172.606,27.31 C173.428,28.602 173.428,30.774 173.428,32.337 L173.428,42.494 C173.393,42.781 173.136,43.003 172.826,43.003 L169.673,43.003 C169.381,42.983 169.147,42.771 169.112,42.494 L169.112,33.73 C169.112,31.963 169.319,29.382 167.145,29.382 C166.381,29.382 165.676,29.891 165.326,30.673 C164.886,31.657 164.826,32.643 164.826,33.731 L164.826,42.422 C164.819,42.745 164.547,43.003 164.212,43.003 L164.212,43.003 Z" id="Shape" fill="#FFFFFF" sketch:type="MSShapeGroup"></path>
            <path d="M122.306,35.294 C122.306,36.52 122.335,37.54 121.717,38.631 C121.216,39.516 120.422,40.061 119.539,40.061 C118.333,40.061 117.627,39.141 117.627,37.78 C117.627,35.1 120.029,34.614 122.306,34.614 L122.306,35.294 L122.306,35.294 Z M125.477,42.962 C125.268,43.15 124.968,43.161 124.734,43.036 C123.688,42.167 123.502,41.767 122.93,40.94 C121.203,42.699 119.981,43.226 117.745,43.226 C115.098,43.226 113.037,41.59 113.037,38.323 C113.037,35.771 114.42,34.034 116.391,33.183 C118.098,32.434 120.482,32.298 122.306,32.092 L122.306,31.685 C122.306,30.936 122.364,30.051 121.923,29.405 C121.54,28.825 120.805,28.588 120.157,28.588 C118.958,28.588 117.891,29.202 117.629,30.477 C117.574,30.759 117.368,31.039 117.083,31.055 L114.034,30.725 C113.776,30.667 113.491,30.46 113.565,30.067 C114.265,26.369 117.605,25.251 120.598,25.251 C122.127,25.251 124.128,25.66 125.334,26.818 C126.865,28.248 126.717,30.154 126.717,32.231 L126.717,37.131 C126.717,38.604 127.33,39.251 127.905,40.047 C128.106,40.332 128.151,40.672 127.894,40.881 C127.252,41.418 126.111,42.411 125.483,42.97 L125.477,42.962 L125.477,42.962 Z" id="Shape" fill="#FFFFFF" sketch:type="MSShapeGroup"></path>
            <path d="M81.074,35.294 C81.074,36.52 81.103,37.54 80.485,38.631 C79.986,39.516 79.191,40.061 78.308,40.061 C77.102,40.061 76.395,39.141 76.395,37.78 C76.395,35.1 78.798,34.614 81.074,34.614 L81.074,35.294 L81.074,35.294 Z M84.245,42.962 C84.037,43.15 83.736,43.161 83.502,43.036 C82.457,42.167 82.27,41.767 81.698,40.94 C79.972,42.699 78.749,43.226 76.513,43.226 C73.864,43.226 71.806,41.59 71.806,38.323 C71.806,35.771 73.189,34.034 75.16,33.183 C76.866,32.434 79.25,32.298 81.074,32.092 L81.074,31.685 C81.074,30.936 81.133,30.051 80.692,29.405 C80.309,28.825 79.573,28.588 78.926,28.588 C77.727,28.588 76.659,29.202 76.399,30.477 C76.344,30.759 76.138,31.039 75.852,31.055 L72.804,30.725 C72.546,30.667 72.26,30.46 72.334,30.067 C73.034,26.369 76.374,25.251 79.367,25.251 C80.897,25.251 82.898,25.66 84.105,26.818 C85.634,28.248 85.487,30.154 85.487,32.231 L85.487,37.131 C85.487,38.604 86.1,39.251 86.675,40.047 C86.876,40.332 86.921,40.672 86.664,40.881 C86.022,41.418 84.88,42.411 84.252,42.97 L84.245,42.962 L84.245,42.962 Z" id="Shape" fill="#FFFFFF" sketch:type="MSShapeGroup"></path>
            <g id="Group" transform="translate(71.000000, 8.000000)" fill="#FFFFFF" sketch:type="MSShapeGroup">
                <path d="M4.441,0.688 L5.844,0.688 L9.573,10.23 L8.17,10.23 L7.128,7.357 L3.092,7.357 L2.023,10.23 L0.713,10.23 L4.441,0.688 L4.441,0.688 Z M3.492,6.287 L6.726,6.287 L5.136,1.837 L5.109,1.837 L3.492,6.287 L3.492,6.287 Z" id="Shape"></path>
                <path d="M12.432,10.229 L11.216,10.229 L8.65,3.32 L9.92,3.32 L11.858,9.079 L11.885,9.079 L13.769,3.32 L14.958,3.32 L12.432,10.229 L12.432,10.229 Z" id="Shape"></path>
                <path d="M21.453,10.203 C21.252,10.324 20.998,10.391 20.637,10.391 C20.049,10.391 19.675,10.07 19.675,9.322 C19.047,10.057 18.205,10.391 17.243,10.391 C15.987,10.391 14.958,9.829 14.958,8.453 C14.958,6.89 16.121,6.555 17.296,6.328 C18.552,6.087 19.621,6.167 19.621,5.312 C19.621,4.323 18.806,4.163 18.084,4.163 C17.122,4.163 16.414,4.457 16.36,5.473 L15.224,5.473 C15.291,3.762 16.614,3.161 18.151,3.161 C19.394,3.161 20.743,3.442 20.743,5.058 L20.743,8.613 C20.743,9.147 20.743,9.388 21.104,9.388 C21.198,9.388 21.305,9.375 21.452,9.321 L21.452,10.203 L21.453,10.203 Z M19.608,6.662 C19.167,6.983 18.312,6.996 17.55,7.13 C16.802,7.263 16.16,7.531 16.16,8.373 C16.16,9.122 16.801,9.389 17.496,9.389 C18.993,9.389 19.607,8.454 19.607,7.826 L19.607,6.662 L19.608,6.662 Z" id="Shape"></path>
                <path d="M23.376,2.078 L22.24,2.078 L22.24,0.688 L23.376,0.688 L23.376,2.078 L23.376,2.078 Z M22.24,3.321 L23.376,3.321 L23.376,10.23 L22.24,10.23 L22.24,3.321 L22.24,3.321 Z" id="Shape"></path>
                <path d="M24.939,0.688 L26.075,0.688 L26.075,10.23 L24.939,10.23 L24.939,0.688 L24.939,0.688 Z" id="Shape"></path>
                <path d="M33.626,10.203 C33.425,10.324 33.171,10.391 32.811,10.391 C32.223,10.391 31.849,10.07 31.849,9.322 C31.221,10.057 30.378,10.391 29.416,10.391 C28.16,10.391 27.131,9.829 27.131,8.453 C27.131,6.89 28.294,6.555 29.47,6.328 C30.726,6.087 31.795,6.167 31.795,5.312 C31.795,4.323 30.98,4.163 30.258,4.163 C29.296,4.163 28.588,4.457 28.534,5.473 L27.398,5.473 C27.464,3.762 28.788,3.161 30.325,3.161 C31.567,3.161 32.917,3.442 32.917,5.058 L32.917,8.613 C32.917,9.147 32.917,9.388 33.278,9.388 C33.372,9.388 33.478,9.375 33.626,9.321 L33.626,10.203 L33.626,10.203 Z M31.781,6.662 C31.341,6.983 30.485,6.996 29.723,7.13 C28.975,7.263 28.333,7.531 28.333,8.373 C28.333,9.122 28.975,9.389 29.669,9.389 C31.166,9.389 31.78,8.454 31.78,7.826 L31.78,6.662 L31.781,6.662 Z" id="Shape"></path>
                <path d="M34.387,0.688 L35.523,0.688 L35.523,4.256 L35.55,4.256 C35.924,3.494 36.806,3.16 37.755,3.16 C39.88,3.16 40.936,4.844 40.936,6.795 C40.936,8.746 39.893,10.39 37.782,10.39 C37.074,10.39 36.058,10.123 35.551,9.307 L35.524,9.307 L35.524,10.229 L34.388,10.229 L34.388,0.688 L34.387,0.688 Z M37.595,4.163 C36.072,4.163 35.484,5.473 35.484,6.769 C35.484,8.132 36.098,9.388 37.662,9.388 C39.212,9.388 39.733,8.065 39.733,6.715 C39.732,5.418 39.064,4.163 37.595,4.163 L37.595,4.163 Z" id="Shape"></path>
                <path d="M41.804,0.688 L42.94,0.688 L42.94,10.23 L41.804,10.23 L41.804,0.688 L41.804,0.688 Z" id="Shape"></path>
                <path d="M50.263,8.038 C49.955,9.561 48.86,10.39 47.309,10.39 C45.104,10.39 44.062,8.867 43.996,6.755 C43.996,4.684 45.358,3.16 47.243,3.16 C49.688,3.16 50.437,5.445 50.37,7.115 L45.198,7.115 C45.158,8.318 45.84,9.387 47.349,9.387 C48.285,9.387 48.94,8.932 49.14,8.037 L50.263,8.037 L50.263,8.038 Z M49.166,6.114 C49.113,5.031 48.298,4.163 47.176,4.163 C45.986,4.163 45.278,5.058 45.197,6.114 L49.166,6.114 L49.166,6.114 Z" id="Shape"></path>
                <path d="M61.38,10.203 C61.18,10.324 60.926,10.391 60.566,10.391 C59.978,10.391 59.603,10.07 59.603,9.322 C58.975,10.057 58.133,10.391 57.171,10.391 C55.915,10.391 54.886,9.829 54.886,8.453 C54.886,6.89 56.048,6.555 57.224,6.328 C58.481,6.087 59.55,6.167 59.55,5.312 C59.55,4.323 58.735,4.163 58.013,4.163 C57.051,4.163 56.342,4.457 56.288,5.473 L55.153,5.473 C55.219,3.762 56.542,3.161 58.079,3.161 C59.322,3.161 60.672,3.442 60.672,5.058 L60.672,8.613 C60.672,9.147 60.672,9.388 61.032,9.388 C61.126,9.388 61.233,9.375 61.38,9.321 L61.38,10.203 L61.38,10.203 Z M59.536,6.662 C59.095,6.983 58.239,6.996 57.477,7.13 C56.729,7.263 56.087,7.531 56.087,8.373 C56.087,9.122 56.729,9.389 57.424,9.389 C58.92,9.389 59.535,8.454 59.535,7.826 L59.535,6.662 L59.536,6.662 Z" id="Shape"></path>
                <path d="M64.013,3.321 L65.389,3.321 L65.389,4.323 L64.013,4.323 L64.013,8.613 C64.013,9.134 64.159,9.228 64.868,9.228 L65.388,9.228 L65.388,10.23 L64.52,10.23 C63.344,10.23 62.877,9.99 62.877,8.72 L62.877,4.323 L61.7,4.323 L61.7,3.321 L62.877,3.321 L62.877,1.249 L64.013,1.249 L64.013,3.321 L64.013,3.321 Z" id="Shape"></path>
            </g>
        </g>
    </g>
</svg>