<?xml version="1.0" encoding="UTF-8" standalone="no"?>
<svg width="190px" height="62px" viewBox="0 0 190 62" version="1.1" xmlns="http://www.w3.org/2000/svg" xmlns:xlink="http://www.w3.org/1999/xlink" xmlns:sketch="http://www.bohemiancoding.com/sketch/ns">
    <!-- Generator: Sketch 3.2.2 (9983) - http://www.bohemiancoding.com/sketch -->
    <title>Amazon</title>
    <desc>Created with Sketch.</desc>
    <defs>
        <linearGradient x1="50%" y1="0.000280898876%" x2="50%" y2="100.000562%" id="linearGradient-1">
            <stop stop-color="#FF9A1B" offset="0%"></stop>
            <stop stop-color="#D16100" offset="100%"></stop>
        </linearGradient>
    </defs>
    <g id="Page-1" stroke="none" stroke-width="1" fill="none" fill-rule="evenodd" sketch:type="MSPage">
        <g id="Amazon" sketch:type="MSLayerGroup">
            <path d="M190,52.9108 C190,57.9308923 185.745897,62 180.499801,62 L9.5001994,62 C4.25410335,62 0,57.9299385 0,52.9108 L0,9.0892 C0,4.06910769 4.25410335,0 9.5001994,0 L180.499801,0 C185.746894,0 190,4.06910769 190,9.0892 L190,52.9108 L190,52.9108 Z" id="Shape" fill="#1A1919" sketch:type="MSShapeGroup"></path>
            <g id="Group" transform="translate(4.000000, 4.000000)" sketch:type="MSShapeGroup">
                <path d="M53.291,46.305 C53.291,49.988 50.306,52.972 46.624,52.972 L7.279,52.972 C3.597,52.972 0.612,49.988 0.612,46.305 L0.612,6.96 C0.612,3.278 3.597,0.293 7.279,0.293 L46.624,0.293 C50.306,0.293 53.291,3.278 53.291,6.96 L53.291,46.305 L53.291,46.305 Z" id="Shape" fill="#FFFFFF"></path>
                <path d="M53.394,46.408 C53.394,50.09 50.409,53.075 46.726,53.075 L7.382,53.075 C3.7,53.075 0.715,50.09 0.715,46.408 L0.715,17.475 C0.715,17.475 11.93,19.43 27.055,19.319 C41.257,19.215 53.394,17.475 53.394,17.475 L53.394,46.408 L53.394,46.408 Z" id="Shape" fill="url(#linearGradient-1)"></path>
                <path d="M46.727,53.023 L7.382,53.023 C3.677,53.023 0.663,50.009 0.663,46.304 L0.663,6.96 C0.663,3.255 3.677,0.241 7.382,0.241 L46.727,0.241 C50.432,0.241 53.446,3.255 53.446,6.96 L53.446,46.305 C53.445,50.01 50.432,53.023 46.727,53.023 L46.727,53.023 Z M7.382,0.344 C3.734,0.344 0.766,3.312 0.766,6.96 L0.766,46.305 C0.766,49.953 3.734,52.921 7.382,52.921 L46.727,52.921 C50.375,52.921 53.343,49.953 53.343,46.305 L53.343,6.96 C53.343,3.312 50.375,0.344 46.727,0.344 L7.382,0.344 L7.382,0.344 Z" id="Shape" fill="#000000"></path>
                <path d="M31.525,14.123 C29.375,15.75 26.257,16.616 23.573,16.616 C19.81,16.616 16.423,15.19 13.859,12.816 C13.658,12.63 13.837,12.375 14.079,12.52 C16.845,14.17 20.265,15.164 23.799,15.164 C26.182,15.164 28.803,14.657 31.213,13.608 C31.576,13.45 31.881,13.854 31.525,14.123 L31.525,14.123 Z" id="Shape" fill="#000000"></path>
                <path d="M32.42,13.076 C32.145,12.715 30.602,12.905 29.909,12.99 C29.699,13.016 29.667,12.828 29.856,12.692 C31.087,11.805 33.104,12.062 33.338,12.358 C33.574,12.658 33.276,14.731 32.122,15.721 C31.945,15.873 31.776,15.792 31.854,15.591 C32.114,14.925 32.695,13.437 32.42,13.076 L32.42,13.076 Z" id="Shape" fill="#000000"></path>
                <path d="M29.855,6.428 L29.855,5.567 C29.855,5.436 29.952,5.349 30.068,5.349 L33.833,5.349 C33.953,5.349 34.05,5.439 34.05,5.566 L34.05,6.305 C34.049,6.429 33.947,6.591 33.767,6.848 L31.816,9.703 C32.54,9.686 33.306,9.797 33.964,10.176 C34.112,10.261 34.152,10.388 34.164,10.512 L34.164,11.432 C34.164,11.558 34.029,11.705 33.887,11.629 C32.728,11.006 31.19,10.938 29.909,11.636 C29.778,11.708 29.641,11.563 29.641,11.437 L29.641,10.563 C29.641,10.423 29.643,10.184 29.781,9.971 L32.041,6.647 L30.073,6.647 C29.952,6.646 29.855,6.558 29.855,6.428 L29.855,6.428 Z" id="Shape" fill="#000000"></path>
                <path d="M16.224,11.809 L15.079,11.809 C14.97,11.802 14.883,11.718 14.874,11.61 L14.875,5.582 C14.875,5.461 14.974,5.365 15.096,5.365 L16.162,5.365 C16.274,5.371 16.364,5.458 16.371,5.568 L16.371,6.355 L16.392,6.355 C16.67,5.594 17.194,5.238 17.9,5.238 C18.616,5.238 19.065,5.594 19.386,6.355 C19.664,5.594 20.295,5.238 20.969,5.238 C21.45,5.238 21.974,5.441 22.295,5.898 C22.659,6.406 22.584,7.141 22.584,7.788 L22.583,11.593 C22.583,11.713 22.484,11.81 22.362,11.81 L21.218,11.81 C21.103,11.802 21.012,11.709 21.012,11.594 L21.012,8.398 C21.012,8.145 21.033,7.51 20.98,7.269 C20.895,6.863 20.638,6.749 20.307,6.749 C20.029,6.749 19.74,6.939 19.622,7.244 C19.504,7.549 19.515,8.056 19.515,8.398 L19.515,11.594 C19.515,11.714 19.416,11.811 19.294,11.811 L18.15,11.811 C18.035,11.803 17.944,11.71 17.944,11.595 L17.943,8.399 C17.943,7.727 18.05,6.737 17.237,6.737 C16.414,6.737 16.445,7.701 16.445,8.399 L16.445,11.595 C16.445,11.712 16.346,11.809 16.224,11.809 L16.224,11.809 Z" id="Shape" fill="#000000"></path>
                <path d="M37.188,5.237 C38.888,5.237 39.808,6.734 39.808,8.637 C39.808,10.476 38.792,11.935 37.188,11.935 C35.52,11.935 34.611,10.438 34.611,8.573 C34.611,6.696 35.531,5.237 37.188,5.237 L37.188,5.237 Z M37.199,6.468 C36.354,6.468 36.301,7.647 36.301,8.383 C36.301,9.119 36.29,10.692 37.189,10.692 C38.076,10.692 38.119,9.423 38.119,8.65 C38.119,8.143 38.098,7.534 37.948,7.051 C37.819,6.633 37.562,6.468 37.199,6.468 L37.199,6.468 Z" id="Shape" fill="#000000"></path>
                <path d="M42.013,11.809 L40.872,11.809 C40.757,11.801 40.666,11.708 40.666,11.593 L40.664,5.562 C40.674,5.452 40.768,5.365 40.884,5.365 L41.946,5.365 C42.046,5.37 42.128,5.44 42.15,5.534 L42.15,6.456 L42.171,6.456 C42.491,5.631 42.941,5.238 43.732,5.238 C44.245,5.238 44.748,5.428 45.068,5.949 C45.367,6.431 45.367,7.243 45.367,7.826 L45.367,11.62 C45.354,11.727 45.261,11.81 45.148,11.81 L44,11.81 C43.894,11.803 43.809,11.723 43.796,11.62 L43.796,8.347 C43.796,7.687 43.871,6.723 43.08,6.723 C42.802,6.723 42.545,6.913 42.417,7.205 C42.257,7.573 42.235,7.941 42.235,8.347 L42.235,11.593 C42.233,11.712 42.135,11.809 42.013,11.809 L42.013,11.809 Z" id="Shape" fill="#000000"></path>
                <path d="M26.956,8.93 C26.956,9.388 26.967,9.769 26.742,10.176 C26.559,10.507 26.27,10.71 25.949,10.71 C25.51,10.71 25.253,10.367 25.253,9.858 C25.253,8.858 26.128,8.675 26.957,8.675 L26.957,8.93 L26.956,8.93 Z M28.111,11.793 C28.035,11.863 27.926,11.867 27.84,11.82 C27.46,11.496 27.392,11.346 27.184,11.037 C26.555,11.694 26.11,11.891 25.295,11.891 C24.331,11.891 23.581,11.281 23.581,10.06 C23.581,9.106 24.084,8.459 24.802,8.141 C25.423,7.861 26.292,7.81 26.956,7.734 L26.956,7.581 C26.956,7.301 26.977,6.971 26.817,6.73 C26.678,6.514 26.41,6.425 26.174,6.425 C25.738,6.425 25.349,6.654 25.254,7.13 C25.234,7.236 25.159,7.34 25.055,7.346 L23.945,7.223 C23.851,7.202 23.747,7.124 23.774,6.977 C24.029,5.596 25.246,5.179 26.336,5.179 C26.893,5.179 27.622,5.331 28.061,5.764 C28.618,6.298 28.564,7.01 28.564,7.785 L28.564,9.615 C28.564,10.166 28.787,10.407 28.997,10.704 C29.07,10.811 29.086,10.938 28.993,11.016 C28.759,11.217 28.344,11.587 28.115,11.796 L28.111,11.793 L28.111,11.793 Z" id="Shape" fill="#000000"></path>
                <path d="M12.043,8.93 C12.043,9.388 12.054,9.769 11.829,10.176 C11.647,10.507 11.357,10.71 11.036,10.71 C10.597,10.71 10.34,10.367 10.34,9.858 C10.34,8.858 11.215,8.675 12.044,8.675 L12.044,8.93 L12.043,8.93 Z M13.198,11.793 C13.122,11.863 13.012,11.867 12.927,11.82 C12.546,11.496 12.478,11.346 12.27,11.037 C11.641,11.694 11.196,11.891 10.381,11.891 C9.417,11.891 8.667,11.281 8.667,10.06 C8.667,9.106 9.17,8.459 9.889,8.141 C10.51,7.861 11.378,7.81 12.043,7.734 L12.043,7.581 C12.043,7.301 12.064,6.971 11.904,6.73 C11.764,6.514 11.497,6.425 11.261,6.425 C10.824,6.425 10.436,6.654 10.341,7.13 C10.321,7.236 10.246,7.34 10.142,7.346 L9.032,7.223 C8.938,7.202 8.834,7.124 8.861,6.977 C9.116,5.596 10.332,5.179 11.423,5.179 C11.98,5.179 12.709,5.331 13.148,5.764 C13.705,6.298 13.652,7.01 13.652,7.785 L13.652,9.615 C13.652,10.166 13.875,10.407 14.084,10.704 C14.157,10.811 14.173,10.938 14.08,11.016 C13.846,11.217 13.431,11.587 13.202,11.796 L13.198,11.793 L13.198,11.793 Z" id="Shape" fill="#000000"></path>
                <circle id="Oval" fill="#202074" cx="12.206" cy="34.194" r="9.312"></circle>
                <path d="M12.727,30.639 L10.493,30.639 L10.493,38.918 C10.493,38.918 10.394,39.081 10.197,38.814 C10.1,38.682 7.471,34.778 7.471,34.778 C7.471,34.778 7.044,34.351 6.42,34.515 C5.795,34.679 5.566,35.106 5.861,35.632 C6.156,36.157 8.16,40.92 10.756,42.235 C12.601,43.169 14.797,42.825 16.045,42.235 C17.15,41.712 18.877,40.428 19.008,38.72 C19.139,37.011 19.005,35.5 19.005,35.5 L17.842,35.5 L17.842,37.569 L17.095,37.569 L17.095,34.547 L15.781,34.547 L15.781,37.018 L14.997,37.018 L14.997,33.792 L13.519,33.792 L13.519,36.854 L12.801,36.854 L12.727,30.639 L12.727,30.639 Z" id="Shape" fill="#FFFFFF"></path>
                <rect id="Rectangle-path" fill="#FFFFFF" x="6.551" y="30.639" width="1.872" height="1.15"></rect>
                <rect id="Rectangle-path" fill="#FFFFFF" x="14.911" y="30.639" width="1.872" height="1.15"></rect>
                <rect id="Rectangle-path" fill="#FFFFFF" x="10.624" y="26.5" width="1.938" height="2.168"></rect>
                <path d="M8.949,29.719 L9.639,29.029 L8.362,27.715 L7.59,28.405 L8.949,29.719 Z" id="Shape" fill="#FFFFFF"></path>
                <path d="M14.473,29.514 L13.886,28.721 L15.266,27.612 L15.832,28.405 L14.473,29.514 Z" id="Shape" fill="#FFFFFF"></path>
                <g transform="translate(23.000000, 29.000000)" id="Shape" fill="#FFFFFF">
                    <g>
                        <path d="M1.504,1.109 C1.992,0.854 2.675,0.504 3.776,0.504 C6.006,0.504 6.523,1.747 6.523,3.805 L6.523,7.393 C6.523,7.984 6.476,8.526 6.518,8.844 L4.956,8.844 C4.921,8.468 4.961,8.127 4.961,7.728 L4.933,7.728 C4.501,8.398 3.957,8.972 2.925,8.972 C1.81,8.972 0.778,8.095 0.778,6.564 C0.778,4.332 2.367,3.773 4.556,3.773 L4.905,3.773 L4.905,3.47 C4.905,2.657 4.556,1.908 3.567,1.908 C2.702,1.908 1.936,2.387 1.601,2.705 L1.504,1.109 L1.504,1.109 Z M4.906,4.825 L4.753,4.825 C3.275,4.825 2.397,5.176 2.397,6.372 C2.397,7.122 2.83,7.632 3.499,7.632 C4.531,7.632 4.907,6.755 4.907,5.288 L4.907,4.825 L4.906,4.825 Z"></path>
                        <path d="M2.926,9.023 C1.834,9.023 0.728,8.178 0.728,6.563 C0.728,4.043 2.774,3.721 4.558,3.721 L4.855,3.721 L4.855,3.47 C4.855,3.016 4.73,1.958 3.568,1.958 C2.693,1.958 1.943,2.451 1.638,2.741 C1.623,2.756 1.602,2.759 1.583,2.752 C1.564,2.745 1.552,2.728 1.551,2.707 L1.453,1.112 C1.452,1.092 1.463,1.073 1.48,1.063 C1.946,0.82 2.65,0.452 3.776,0.452 C6.098,0.452 6.574,1.792 6.574,3.805 L6.574,7.393 C6.574,7.614 6.568,7.823 6.561,8.025 C6.551,8.356 6.542,8.641 6.568,8.837 C6.57,8.853 6.565,8.867 6.556,8.878 C6.546,8.889 6.532,8.896 6.517,8.896 L4.955,8.896 C4.929,8.896 4.906,8.875 4.904,8.849 C4.881,8.604 4.89,8.376 4.899,8.135 C4.902,8.045 4.906,7.953 4.908,7.859 C4.51,8.451 3.953,9.023 2.926,9.023 L2.926,9.023 Z M4.558,3.824 C1.981,3.824 0.832,4.669 0.832,6.563 C0.832,8.11 1.886,8.92 2.927,8.92 C3.961,8.92 4.483,8.333 4.891,7.699 C4.901,7.684 4.917,7.676 4.935,7.676 L4.963,7.676 C4.991,7.676 5.014,7.698 5.014,7.727 C5.014,7.871 5.009,8.007 5.004,8.138 C4.996,8.361 4.988,8.571 5.005,8.792 L6.462,8.792 C6.443,8.592 6.452,8.325 6.461,8.021 C6.467,7.82 6.473,7.612 6.473,7.392 L6.473,3.804 C6.473,1.853 6.015,0.554 3.778,0.554 C2.7,0.554 2.016,0.9 1.559,1.139 L1.648,2.594 C2.003,2.29 2.731,1.855 3.569,1.855 C4.452,1.855 4.959,2.443 4.959,3.469 L4.959,3.772 C4.959,3.8 4.936,3.824 4.908,3.824 L4.558,3.824 L4.558,3.824 Z M3.498,7.684 C2.808,7.684 2.345,7.157 2.345,6.372 C2.345,5.252 3.065,4.774 4.753,4.774 L4.906,4.774 C4.934,4.774 4.957,4.796 4.957,4.825 L4.957,5.288 C4.957,6.923 4.494,7.684 3.498,7.684 L3.498,7.684 Z M4.753,4.877 C3.137,4.877 2.448,5.324 2.448,6.372 C2.448,7.106 2.86,7.581 3.498,7.581 C4.424,7.581 4.854,6.852 4.854,5.288 L4.854,4.877 L4.753,4.877 L4.753,4.877 Z"></path>
                    </g>
                    <g transform="translate(8.000000, 0.000000)">
                        <path d="M0.154,2.034 C0.154,1.444 0.15,0.993 0.15,0.645 L1.663,0.649 C1.677,0.906 1.669,0.937 1.669,1.495 L1.711,1.495 C1.99,0.794 2.608,0.504 3.724,0.504 C5.509,0.504 6.35,2.449 6.35,4.73 C6.35,7.41 5.313,8.766 3.766,8.766 C2.734,8.766 2.162,8.611 1.912,7.973 L1.884,7.973 L1.884,11.877 L0.155,11.877 L0.155,2.034 L0.154,2.034 Z M3.222,7.314 C4.184,7.314 4.724,6.452 4.724,4.809 C4.724,2.911 4.254,1.955 3.25,1.955 C2.232,1.955 1.884,3.111 1.884,4.658 C1.883,6.254 2.273,7.314 3.222,7.314 L3.222,7.314 Z"></path>
                        <path d="M1.883,11.929 L0.154,11.929 C0.126,11.929 0.103,11.906 0.103,11.877 L0.103,2.034 C0.103,1.701 0.102,1.411 0.1,1.16 C0.099,0.967 0.098,0.797 0.098,0.645 C0.098,0.631 0.103,0.618 0.113,0.608 C0.123,0.599 0.136,0.593 0.15,0.593 L0.15,0.593 L1.664,0.597 C1.691,0.597 1.714,0.618 1.715,0.646 C1.724,0.817 1.724,0.888 1.722,1.078 C1.722,1.147 1.721,1.233 1.721,1.346 C2.028,0.721 2.638,0.452 3.724,0.452 C5.351,0.452 6.402,2.131 6.402,4.729 C6.402,7.327 5.442,8.817 3.767,8.817 C2.847,8.817 2.239,8.703 1.936,8.145 L1.936,11.876 C1.935,11.905 1.912,11.929 1.883,11.929 L1.883,11.929 Z M0.206,11.826 L1.831,11.826 L1.831,7.972 C1.831,7.944 1.854,7.92 1.883,7.92 L1.911,7.92 C1.932,7.92 1.951,7.934 1.959,7.953 C2.18,8.514 2.652,8.714 3.766,8.714 C5.375,8.714 6.299,7.262 6.299,4.729 C6.299,2.803 5.625,0.554 3.724,0.554 C2.614,0.554 2.026,0.841 1.759,1.514 C1.751,1.534 1.732,1.546 1.711,1.546 L1.669,1.546 C1.64,1.546 1.617,1.523 1.617,1.494 C1.617,1.304 1.618,1.175 1.619,1.076 C1.62,0.908 1.621,0.834 1.614,0.699 L0.201,0.695 C0.201,0.834 0.202,0.987 0.203,1.158 C0.204,1.41 0.206,1.699 0.206,2.033 L0.206,11.826 L0.206,11.826 Z M3.222,7.366 C2.313,7.366 1.832,6.429 1.832,4.658 C1.832,2.83 2.309,1.903 3.25,1.903 C4.277,1.903 4.776,2.853 4.776,4.809 C4.775,6.458 4.224,7.366 3.222,7.366 L3.222,7.366 Z M3.249,2.006 C2.376,2.006 1.934,2.898 1.934,4.658 C1.934,5.846 2.157,7.262 3.221,7.262 C4.157,7.262 4.672,6.391 4.672,4.809 C4.672,2.923 4.207,2.006 3.249,2.006 L3.249,2.006 Z"></path>
                    </g>
                    <g transform="translate(22.000000, 0.000000)">
                        <path d="M0.765,6.642 C1.056,6.766 1.796,7.272 2.639,7.272 C3.293,7.272 3.801,7.101 3.801,6.482 C3.801,6.172 3.656,5.878 3.002,5.475 L1.953,4.805 C1.198,4.325 0.679,3.976 0.679,2.867 C0.679,1.588 1.681,0.504 3.264,0.504 C4.223,0.504 4.963,0.767 5.138,0.829 L5.036,2.315 C4.586,2.129 4.107,1.959 3.453,1.959 C2.727,1.959 2.422,2.254 2.422,2.733 C2.422,3.167 2.641,3.335 3.163,3.691 L4.405,4.285 C5.382,4.857 5.648,5.653 5.648,6.373 C5.648,7.845 4.589,8.83 2.963,8.83 C2.033,8.83 1.058,8.495 0.68,8.34 L0.765,6.642 L0.765,6.642 Z"></path>
                        <path d="M2.961,8.882 C1.916,8.882 0.86,8.471 0.659,8.388 C0.639,8.379 0.626,8.36 0.627,8.338 L0.714,6.64 C0.715,6.623 0.724,6.608 0.738,6.599 C0.752,6.59 0.77,6.588 0.785,6.595 C0.847,6.621 0.928,6.663 1.021,6.713 C1.38,6.903 1.981,7.22 2.639,7.22 C3.397,7.22 3.749,6.986 3.749,6.482 C3.749,6.191 3.618,5.916 2.975,5.519 L1.925,4.848 C1.2,4.387 0.627,4.023 0.627,2.868 C0.627,1.469 1.735,0.453 3.263,0.453 C3.704,0.453 4.39,0.51 5.154,0.781 C5.175,0.789 5.19,0.81 5.188,0.833 L5.086,2.32 C5.085,2.337 5.076,2.351 5.062,2.36 C5.048,2.369 5.03,2.37 5.015,2.364 C4.583,2.185 4.107,2.011 3.452,2.011 C2.793,2.011 2.473,2.247 2.473,2.734 C2.473,3.143 2.68,3.301 3.192,3.65 L4.426,4.239 C5.271,4.734 5.698,5.452 5.698,6.374 C5.698,7.873 4.598,8.882 2.961,8.882 L2.961,8.882 Z M0.731,8.306 C0.994,8.411 1.983,8.78 2.96,8.78 C4.56,8.78 5.594,7.836 5.594,6.374 C5.594,5.491 5.184,4.804 4.376,4.33 L3.139,3.739 C2.602,3.374 2.368,3.195 2.368,2.734 C2.368,2.358 2.556,1.909 3.451,1.909 C4.092,1.909 4.564,2.069 4.988,2.242 L5.082,0.865 C4.347,0.61 3.688,0.555 3.262,0.555 C1.794,0.555 0.728,1.528 0.728,2.867 C0.728,3.967 1.252,4.3 1.979,4.761 L3.028,5.432 C3.612,5.791 3.85,6.096 3.85,6.482 C3.85,7.048 3.453,7.323 2.637,7.323 C1.954,7.323 1.339,6.999 0.971,6.804 C0.911,6.773 0.857,6.744 0.81,6.721 L0.731,8.306 L0.731,8.306 Z"></path>
                    </g>
                    <g transform="translate(15.000000, 0.000000)">
                        <path d="M0.582,2.034 C0.582,1.444 0.578,0.993 0.578,0.645 L2.092,0.649 C2.106,0.906 2.097,0.937 2.097,1.495 L2.139,1.495 C2.418,0.794 3.037,0.504 4.152,0.504 C5.937,0.504 6.778,2.449 6.778,4.73 C6.778,7.41 5.741,8.766 4.194,8.766 C3.162,8.766 2.59,8.611 2.34,7.973 L2.312,7.973 L2.312,11.877 L0.583,11.877 L0.583,2.034 L0.582,2.034 Z M3.65,7.314 C4.612,7.314 5.152,6.452 5.152,4.809 C5.152,2.911 4.681,1.955 3.677,1.955 C2.659,1.955 2.311,3.111 2.311,4.658 C2.311,6.254 2.702,7.314 3.65,7.314 L3.65,7.314 Z"></path>
                        <path d="M2.311,11.929 L0.582,11.929 C0.554,11.929 0.531,11.906 0.531,11.877 L0.531,2.034 C0.531,1.701 0.53,1.411 0.528,1.16 C0.527,0.967 0.527,0.797 0.527,0.645 C0.527,0.631 0.532,0.618 0.542,0.608 C0.551,0.599 0.564,0.593 0.578,0.593 L0.578,0.593 L2.092,0.597 C2.119,0.597 2.142,0.618 2.143,0.646 C2.152,0.817 2.152,0.888 2.15,1.078 C2.15,1.147 2.149,1.233 2.149,1.346 C2.456,0.721 3.066,0.452 4.151,0.452 C5.778,0.452 6.829,2.131 6.829,4.729 C6.829,7.327 5.868,8.817 4.193,8.817 C3.273,8.817 2.665,8.703 2.362,8.145 L2.362,11.876 C2.363,11.905 2.34,11.929 2.311,11.929 L2.311,11.929 Z M0.634,11.826 L2.259,11.826 L2.259,7.972 C2.259,7.944 2.282,7.92 2.311,7.92 L2.339,7.92 C2.36,7.92 2.379,7.934 2.387,7.953 C2.608,8.514 3.081,8.714 4.194,8.714 C5.803,8.714 6.727,7.262 6.727,4.729 C6.727,2.803 6.053,0.554 4.152,0.554 C3.042,0.554 2.455,0.841 2.187,1.514 C2.179,1.534 2.161,1.546 2.139,1.546 L2.097,1.546 C2.069,1.546 2.046,1.523 2.046,1.494 C2.046,1.304 2.047,1.175 2.047,1.076 C2.048,0.908 2.049,0.834 2.043,0.699 L0.63,0.695 C0.63,0.834 0.631,0.987 0.631,1.158 C0.632,1.41 0.634,1.699 0.634,2.033 L0.634,11.826 L0.634,11.826 Z M3.65,7.366 C2.741,7.366 2.26,6.429 2.26,4.658 C2.26,2.83 2.737,1.903 3.678,1.903 C4.705,1.903 5.204,2.853 5.204,4.809 C5.204,6.458 4.652,7.366 3.65,7.366 L3.65,7.366 Z M3.678,2.006 C2.805,2.006 2.364,2.898 2.364,4.658 C2.364,5.846 2.587,7.262 3.651,7.262 C4.587,7.262 5.102,6.391 5.102,4.809 C5.101,2.923 4.635,2.006 3.678,2.006 L3.678,2.006 Z"></path>
                    </g>
                </g>
            </g>
            <g id="Group" transform="translate(86.000000, 43.000000)" fill="#FF9200" sketch:type="MSShapeGroup">
                <path d="M48.851,6.2 C42.947,10.557 34.386,12.875 27.015,12.875 C16.685,12.875 7.383,9.057 0.342,2.7 C-0.21,2.201 0.283,1.518 0.946,1.905 C8.542,6.325 17.934,8.986 27.634,8.986 C34.179,8.986 41.372,7.628 47.991,4.822 C48.99,4.398 49.827,5.479 48.851,6.2 L48.851,6.2 Z" id="Shape"></path>
                <path d="M51.308,3.396 C50.552,2.428 46.316,2.937 44.413,3.166 C43.836,3.235 43.747,2.731 44.266,2.366 C47.646,-0.007 53.184,0.678 53.828,1.472 C54.476,2.274 53.658,7.826 50.49,10.476 C50.004,10.884 49.54,10.666 49.756,10.127 C50.468,8.349 52.063,4.362 51.308,3.396 L51.308,3.396 Z" id="Shape"></path>
            </g>
            <path d="M130.547,28.596 L130.547,26.289 C130.548,25.938 130.813,25.705 131.131,25.705 L141.469,25.703 C141.8,25.703 142.066,25.944 142.066,26.286 L142.066,28.265 C142.063,28.597 141.784,29.031 141.287,29.716 L135.933,37.363 C137.92,37.316 140.024,37.614 141.83,38.629 C142.236,38.858 142.346,39.197 142.377,39.529 L142.377,41.99 C142.377,42.33 142.007,42.722 141.617,42.518 C138.434,40.851 134.212,40.667 130.693,42.536 C130.334,42.728 129.958,42.342 129.958,42.003 L129.958,39.662 C129.958,39.288 129.965,38.648 130.342,38.078 L136.547,29.177 L131.145,29.176 C130.813,29.177 130.549,28.94 130.547,28.596 L130.547,28.596 Z" id="Shape" fill="#FFFFFF" sketch:type="MSShapeGroup"></path>
            <path d="M92.835,43.003 L89.69,43.003 C89.39,42.983 89.151,42.759 89.128,42.472 L89.13,26.33 C89.13,26.005 89.402,25.748 89.736,25.748 L92.665,25.747 C92.972,25.763 93.218,25.994 93.238,26.289 L93.238,28.396 L93.297,28.396 C94.061,26.358 95.499,25.407 97.436,25.407 C99.403,25.407 100.636,26.358 101.517,28.396 C102.281,26.358 104.012,25.407 105.863,25.407 C107.184,25.407 108.623,25.951 109.503,27.174 C110.501,28.532 110.296,30.503 110.296,32.236 L110.294,42.422 C110.294,42.745 110.022,43.003 109.688,43.003 L106.546,43.003 C106.231,42.983 105.981,42.732 105.981,42.422 L105.981,33.866 C105.981,33.185 106.04,31.487 105.892,30.842 C105.658,29.755 104.954,29.449 104.043,29.449 C103.279,29.449 102.486,29.959 102.164,30.774 C101.841,31.59 101.87,32.947 101.87,33.866 L101.87,42.422 C101.87,42.745 101.599,43.003 101.264,43.003 L98.122,43.003 C97.807,42.983 97.557,42.732 97.557,42.422 L97.555,33.866 C97.555,32.065 97.848,29.415 95.617,29.415 C93.356,29.415 93.445,31.997 93.445,33.866 L93.443,42.422 C93.442,42.745 93.17,43.003 92.835,43.003 L92.835,43.003 Z" id="Shape" fill="#FFFFFF" sketch:type="MSShapeGroup"></path>
            <path d="M150.965,25.407 C155.634,25.407 158.158,29.415 158.158,34.511 C158.158,39.437 155.37,43.344 150.965,43.344 C146.385,43.344 143.89,39.334 143.89,34.342 C143.89,29.313 146.414,25.407 150.965,25.407 L150.965,25.407 Z M150.994,28.702 C148.675,28.702 148.528,31.861 148.528,33.832 C148.528,35.802 148.499,40.013 150.965,40.013 C153.403,40.013 153.52,36.617 153.52,34.545 C153.52,33.186 153.462,31.556 153.05,30.265 C152.697,29.144 151.992,28.702 150.994,28.702 L150.994,28.702 Z" id="Shape" fill="#FFFFFF" sketch:type="MSShapeGroup"></path>
            <path d="M164.212,43.003 L161.078,43.003 C160.763,42.983 160.514,42.732 160.514,42.422 L160.509,26.275 C160.536,25.979 160.796,25.748 161.114,25.748 L164.032,25.747 C164.305,25.761 164.533,25.949 164.591,26.199 L164.591,28.668 L164.651,28.668 C165.531,26.46 166.764,25.407 168.936,25.407 C170.345,25.407 171.725,25.917 172.606,27.31 C173.428,28.602 173.428,30.774 173.428,32.337 L173.428,42.494 C173.393,42.781 173.136,43.003 172.826,43.003 L169.673,43.003 C169.381,42.983 169.147,42.771 169.112,42.494 L169.112,33.73 C169.112,31.963 169.319,29.382 167.145,29.382 C166.381,29.382 165.676,29.891 165.326,30.673 C164.886,31.657 164.826,32.643 164.826,33.731 L164.826,42.422 C164.819,42.745 164.547,43.003 164.212,43.003 L164.212,43.003 Z" id="Shape" fill="#FFFFFF" sketch:type="MSShapeGroup"></path>
            <path d="M122.306,35.294 C122.306,36.52 122.335,37.54 121.717,38.631 C121.216,39.516 120.422,40.061 119.539,40.061 C118.333,40.061 117.627,39.141 117.627,37.78 C117.627,35.1 120.029,34.614 122.306,34.614 L122.306,35.294 L122.306,35.294 Z M125.477,42.962 C125.268,43.15 124.968,43.161 124.734,43.036 C123.688,42.167 123.502,41.767 122.93,40.94 C121.203,42.699 119.981,43.226 117.745,43.226 C115.098,43.226 113.037,41.59 113.037,38.323 C113.037,35.771 114.42,34.034 116.391,33.183 C118.098,32.434 120.482,32.298 122.306,32.092 L122.306,31.685 C122.306,30.936 122.364,30.051 121.923,29.405 C121.54,28.825 120.805,28.588 120.157,28.588 C118.958,28.588 117.891,29.202 117.629,30.477 C117.574,30.759 117.368,31.039 117.083,31.055 L114.034,30.725 C113.776,30.667 113.491,30.46 113.565,30.067 C114.265,26.369 117.605,25.251 120.598,25.251 C122.127,25.251 124.128,25.66 125.334,26.818 C126.865,28.248 126.717,30.154 126.717,32.231 L126.717,37.131 C126.717,38.604 127.33,39.251 127.905,40.047 C128.106,40.332 128.151,40.672 127.894,40.881 C127.252,41.418 126.111,42.411 125.483,42.97 L125.477,42.962 L125.477,42.962 Z" id="Shape" fill="#FFFFFF" sketch:type="MSShapeGroup"></path>
            <path d="M81.074,35.294 C81.074,36.52 81.103,37.54 80.485,38.631 C79.986,39.516 79.191,40.061 78.308,40.061 C77.102,40.061 76.395,39.141 76.395,37.78 C76.395,35.1 78.798,34.614 81.074,34.614 L81.074,35.294 L81.074,35.294 Z M84.245,42.962 C84.037,43.15 83.736,43.161 83.502,43.036 C82.457,42.167 82.27,41.767 81.698,40.94 C79.972,42.699 78.749,43.226 76.513,43.226 C73.864,43.226 71.806,41.59 71.806,38.323 C71.806,35.771 73.189,34.034 75.16,33.183 C76.866,32.434 79.25,32.298 81.074,32.092 L81.074,31.685 C81.074,30.936 81.133,30.051 80.692,29.405 C80.309,28.825 79.573,28.588 78.926,28.588 C77.727,28.588 76.659,29.202 76.399,30.477 C76.344,30.759 76.138,31.039 75.852,31.055 L72.804,30.725 C72.546,30.667 72.26,30.46 72.334,30.067 C73.034,26.369 76.374,25.251 79.367,25.251 C80.897,25.251 82.898,25.66 84.105,26.818 C85.634,28.248 85.487,30.154 85.487,32.231 L85.487,37.131 C85.487,38.604 86.1,39.251 86.675,40.047 C86.876,40.332 86.921,40.672 86.664,40.881 C86.022,41.418 84.88,42.411 84.252,42.97 L84.245,42.962 L84.245,42.962 Z" id="Shape" fill="#FFFFFF" sketch:type="MSShapeGroup"></path>
            <g id="Group" transform="translate(71.000000, 8.000000)" fill="#FFFFFF" sketch:type="MSShapeGroup">
                <path d="M4.441,0.688 L5.844,0.688 L9.573,10.23 L8.17,10.23 L7.128,7.357 L3.092,7.357 L2.023,10.23 L0.713,10.23 L4.441,0.688 L4.441,0.688 Z M3.492,6.287 L6.726,6.287 L5.136,1.837 L5.109,1.837 L3.492,6.287 L3.492,6.287 Z" id="Shape"></path>
                <path d="M12.432,10.229 L11.216,10.229 L8.65,3.32 L9.92,3.32 L11.858,9.079 L11.885,9.079 L13.769,3.32 L14.958,3.32 L12.432,10.229 L12.432,10.229 Z" id="Shape"></path>
                <path d="M21.453,10.203 C21.252,10.324 20.998,10.391 20.637,10.391 C20.049,10.391 19.675,10.07 19.675,9.322 C19.047,10.057 18.205,10.391 17.243,10.391 C15.987,10.391 14.958,9.829 14.958,8.453 C14.958,6.89 16.121,6.555 17.296,6.328 C18.552,6.087 19.621,6.167 19.621,5.312 C19.621,4.323 18.806,4.163 18.084,4.163 C17.122,4.163 16.414,4.457 16.36,5.473 L15.224,5.473 C15.291,3.762 16.614,3.161 18.151,3.161 C19.394,3.161 20.743,3.442 20.743,5.058 L20.743,8.613 C20.743,9.147 20.743,9.388 21.104,9.388 C21.198,9.388 21.305,9.375 21.452,9.321 L21.452,10.203 L21.453,10.203 Z M19.608,6.662 C19.167,6.983 18.312,6.996 17.55,7.13 C16.802,7.263 16.16,7.531 16.16,8.373 C16.16,9.122 16.801,9.389 17.496,9.389 C18.993,9.389 19.607,8.454 19.607,7.826 L19.607,6.662 L19.608,6.662 Z" id="Shape"></path>
                <path d="M23.376,2.078 L22.24,2.078 L22.24,0.688 L23.376,0.688 L23.376,2.078 L23.376,2.078 Z M22.24,3.321 L23.376,3.321 L23.376,10.23 L22.24,10.23 L22.24,3.321 L22.24,3.321 Z" id="Shape"></path>
                <path d="M24.939,0.688 L26.075,0.688 L26.075,10.23 L24.939,10.23 L24.939,0.688 L24.939,0.688 Z" id="Shape"></path>
                <path d="M33.626,10.203 C33.425,10.324 33.171,10.391 32.811,10.391 C32.223,10.391 31.849,10.07 31.849,9.322 C31.221,10.057 30.378,10.391 29.416,10.391 C28.16,10.391 27.131,9.829 27.131,8.453 C27.131,6.89 28.294,6.555 29.47,6.328 C30.726,6.087 31.795,6.167 31.795,5.312 C31.795,4.323 30.98,4.163 30.258,4.163 C29.296,4.163 28.588,4.457 28.534,5.473 L27.398,5.473 C27.464,3.762 28.788,3.161 30.325,3.161 C31.567,3.161 32.917,3.442 32.917,5.058 L32.917,8.613 C32.917,9.147 32.917,9.388 33.278,9.388 C33.372,9.388 33.478,9.375 33.626,9.321 L33.626,10.203 L33.626,10.203 Z M31.781,6.662 C31.341,6.983 30.485,6.996 29.723,7.13 C28.975,7.263 28.333,7.531 28.333,8.373 C28.333,9.122 28.975,9.389 29.669,9.389 C31.166,9.389 31.78,8.454 31.78,7.826 L31.78,6.662 L31.781,6.662 Z" id="Shape"></path>
                <path d="M34.387,0.688 L35.523,0.688 L35.523,4.256 L35.55,4.256 C35.924,3.494 36.806,3.16 37.755,3.16 C39.88,3.16 40.936,4.844 40.936,6.795 C40.936,8.746 39.893,10.39 37.782,10.39 C37.074,10.39 36.058,10.123 35.551,9.307 L35.524,9.307 L35.524,10.229 L34.388,10.229 L34.388,0.688 L34.387,0.688 Z M37.595,4.163 C36.072,4.163 35.484,5.473 35.484,6.769 C35.484,8.132 36.098,9.388 37.662,9.388 C39.212,9.388 39.733,8.065 39.733,6.715 C39.732,5.418 39.064,4.163 37.595,4.163 L37.595,4.163 Z" id="Shape"></path>
                <path d="M41.804,0.688 L42.94,0.688 L42.94,10.23 L41.804,10.23 L41.804,0.688 L41.804,0.688 Z" id="Shape"></path>
                <path d="M50.263,8.038 C49.955,9.561 48.86,10.39 47.309,10.39 C45.104,10.39 44.062,8.867 43.996,6.755 C43.996,4.684 45.358,3.16 47.243,3.16 C49.688,3.16 50.437,5.445 50.37,7.115 L45.198,7.115 C45.158,8.318 45.84,9.387 47.349,9.387 C48.285,9.387 48.94,8.932 49.14,8.037 L50.263,8.037 L50.263,8.038 Z M49.166,6.114 C49.113,5.031 48.298,4.163 47.176,4.163 C45.986,4.163 45.278,5.058 45.197,6.114 L49.166,6.114 L49.166,6.114 Z" id="Shape"></path>
                <path d="M61.38,10.203 C61.18,10.324 60.926,10.391 60.566,10.391 C59.978,10.391 59.603,10.07 59.603,9.322 C58.975,10.057 58.133,10.391 57.171,10.391 C55.915,10.391 54.886,9.829 54.886,8.453 C54.886,6.89 56.048,6.555 57.224,6.328 C58.481,6.087 59.55,6.167 59.55,5.312 C59.55,4.323 58.735,4.163 58.013,4.163 C57.051,4.163 56.342,4.457 56.288,5.473 L55.153,5.473 C55.219,3.762 56.542,3.161 58.079,3.161 C59.322,3.161 60.672,3.442 60.672,5.058 L60.672,8.613 C60.672,9.147 60.672,9.388 61.032,9.388 C61.126,9.388 61.233,9.375 61.38,9.321 L61.38,10.203 L61.38,10.203 Z M59.536,6.662 C59.095,6.983 58.239,6.996 57.477,7.13 C56.729,7.263 56.087,7.531 56.087,8.373 C56.087,9.122 56.729,9.389 57.424,9.389 C58.92,9.389 59.535,8.454 59.535,7.826 L59.535,6.662 L59.536,6.662 Z" id="Shape"></path>
                <path d="M64.013,3.321 L65.389,3.321 L65.389,4.323 L64.013,4.323 L64.013,8.613 C64.013,9.134 64.159,9.228 64.868,9.228 L65.388,9.228 L65.388,10.23 L64.52,10.23 C63.344,10.23 62.877,9.99 62.877,8.72 L62.877,4.323 L61.7,4.323 L61.7,3.321 L62.877,3.321 L62.877,1.249 L64.013,1.249 L64.013,3.321 L64.013,3.321 Z" id="Shape"></path>
            </g>
        </g>
    </g>
</svg>