<svg width="190" height="62" viewBox="0 0 190 62" xmlns="http://www.w3.org/2000/svg" xmlns:sketch="http://www.bohemiancoding.com/sketch/ns"><title>Amazon</title><desc>Created with Sketch.</desc><defs><linearGradient x1="50%" y1="0%" x2="50%" y2="100.001%" id="a"><stop stop-color="#FF9A1B" offset="0%"/><stop stop-color="#D16100" offset="100%"/></linearGradient></defs><g sketch:type="MSLayerGroup" fill="none"><path d="M190 52.911c0 5.02-4.254 9.089-9.5 9.089h-171c-5.246 0-9.5-4.07-9.5-9.089v-43.822c0-5.02 4.254-9.089 9.5-9.089h171c5.247 0 9.5 4.069 9.5 9.089v43.822z" id="Shape" fill="#1A1919" sketch:type="MSShapeGroup"/><g id="Group" transform="translate(4 4)" sketch:type="MSShapeGroup"><path d="M53.291 46.305c0 3.683-2.985 6.667-6.667 6.667h-39.345c-3.682 0-6.667-2.984-6.667-6.667v-39.345c0-3.682 2.985-6.667 6.667-6.667h39.345c3.682 0 6.667 2.985 6.667 6.667v39.345z" id="Shape" fill="#fff"/><path d="M53.394 46.408c0 3.682-2.985 6.667-6.668 6.667h-39.344c-3.682 0-6.667-2.985-6.667-6.667v-28.933s11.215 1.955 26.34 1.844c14.202-.104 26.339-1.844 26.339-1.844v28.933z" id="Shape" fill="url(#a)"/><path d="M46.727 53.023h-39.345c-3.705 0-6.719-3.014-6.719-6.719v-39.344c0-3.705 3.014-6.719 6.719-6.719h39.345c3.705 0 6.719 3.014 6.719 6.719v39.345c-.001 3.705-3.014 6.718-6.719 6.718zm-39.345-52.679c-3.648 0-6.616 2.968-6.616 6.616v39.345c0 3.648 2.968 6.616 6.616 6.616h39.345c3.648 0 6.616-2.968 6.616-6.616v-39.345c0-3.648-2.968-6.616-6.616-6.616h-39.345zM31.525 14.123c-2.15 1.627-5.268 2.493-7.952 2.493-3.763 0-7.15-1.426-9.714-3.8-.201-.186-.022-.441.22-.296 2.766 1.65 6.186 2.644 9.72 2.644 2.383 0 5.004-.507 7.414-1.556.363-.158.668.246.312.515zM32.42 13.076c-.275-.361-1.818-.171-2.511-.086-.21.026-.242-.162-.053-.298 1.231-.887 3.248-.63 3.482-.334.236.3-.062 2.373-1.216 3.363-.177.152-.346.071-.268-.13.26-.666.841-2.154.566-2.515zM29.855 6.428v-.861c0-.131.097-.218.213-.218h3.765c.12 0 .217.09.217.217v.739c-.001.124-.103.286-.283.543l-1.951 2.855c.724-.017 1.49.094 2.148.473.148.085.188.212.2.336v.92c0 .126-.135.273-.277.197-1.159-.623-2.697-.691-3.978.007-.131.072-.268-.073-.268-.199v-.874c0-.14.002-.379.14-.592l2.26-3.324h-1.968c-.121-.001-.218-.089-.218-.219zM16.224 11.809h-1.145c-.109-.007-.196-.091-.205-.199l.001-6.028c0-.121.099-.217.221-.217h1.066c.112.006.202.093.209.203v.787h.021c.278-.761.802-1.117 1.508-1.117.716 0 1.165.356 1.486 1.117.278-.761.909-1.117 1.583-1.117.481 0 1.005.203 1.326.66.364.508.289 1.243.289 1.89l-.001 3.805c0 .12-.099.217-.221.217h-1.144c-.115-.008-.206-.101-.206-.216v-3.196c0-.253.021-.888-.032-1.129-.085-.406-.342-.52-.673-.52-.278 0-.567.19-.685.495-.118.305-.107.812-.107 1.154v3.196c0 .12-.099.217-.221.217h-1.144c-.115-.008-.206-.101-.206-.216l-.001-3.196c0-.672.107-1.662-.706-1.662-.823 0-.792.964-.792 1.662v3.196c0 .117-.099.214-.221.214zM37.188 5.237c1.7 0 2.62 1.497 2.62 3.4 0 1.839-1.016 3.298-2.62 3.298-1.668 0-2.577-1.497-2.577-3.362 0-1.877.92-3.336 2.577-3.336zm.011 1.231c-.845 0-.898 1.179-.898 1.915s-.011 2.309.888 2.309c.887 0 .93-1.269.93-2.042 0-.507-.021-1.116-.171-1.599-.129-.418-.386-.583-.749-.583zM42.013 11.809h-1.141c-.115-.008-.206-.101-.206-.216l-.002-6.031c.01-.11.104-.197.22-.197h1.062c.1.005.182.075.204.169v.922h.021c.32-.825.77-1.218 1.561-1.218.513 0 1.016.19 1.336.711.299.482.299 1.294.299 1.877v3.794c-.013.107-.106.19-.219.19h-1.148c-.106-.007-.191-.087-.204-.19v-3.273c0-.66.075-1.624-.716-1.624-.278 0-.535.19-.663.482-.16.368-.182.736-.182 1.142v3.246c-.002.119-.1.216-.222.216zM26.956 8.93c0 .458.011.839-.214 1.246-.183.331-.472.534-.793.534-.439 0-.696-.343-.696-.852 0-1 .875-1.183 1.704-1.183v.255h-.001zm1.155 2.863c-.076.07-.185.074-.271.027-.38-.324-.448-.474-.656-.783-.629.657-1.074.854-1.889.854-.964 0-1.714-.61-1.714-1.831 0-.954.503-1.601 1.221-1.919.621-.28 1.49-.331 2.154-.407v-.153c0-.28.021-.61-.139-.851-.139-.216-.407-.305-.643-.305-.436 0-.825.229-.92.705-.02.106-.095.21-.199.216l-1.11-.123c-.094-.021-.198-.099-.171-.246.255-1.381 1.472-1.798 2.562-1.798.557 0 1.286.152 1.725.585.557.534.503 1.246.503 2.021v1.83c0 .551.223.792.433 1.089.073.107.089.234-.004.312-.234.201-.649.571-.878.78l-.004-.003zM12.043 8.93c0 .458.011.839-.214 1.246-.182.331-.472.534-.793.534-.439 0-.696-.343-.696-.852 0-1 .875-1.183 1.704-1.183v.255h-.001zm1.155 2.863c-.076.07-.186.074-.271.027-.381-.324-.449-.474-.657-.783-.629.657-1.074.854-1.889.854-.964 0-1.714-.61-1.714-1.831 0-.954.503-1.601 1.222-1.919.621-.28 1.489-.331 2.154-.407v-.153c0-.28.021-.61-.139-.851-.14-.216-.407-.305-.643-.305-.437 0-.825.229-.92.705-.02.106-.095.21-.199.216l-1.11-.123c-.094-.021-.198-.099-.171-.246.255-1.381 1.471-1.798 2.562-1.798.557 0 1.286.152 1.725.585.557.534.504 1.246.504 2.021v1.83c0 .551.223.792.432 1.089.073.107.089.234-.004.312-.234.201-.649.571-.878.78l-.004-.003z" id="Shape" fill="#000"/><circle fill="#202074" cx="12.206" cy="34.194" r="9.312"/><path d="M12.727 30.639h-2.234v8.279s-.099.163-.296-.104c-.097-.132-2.726-4.036-2.726-4.036s-.427-.427-1.051-.263c-.625.164-.854.591-.559 1.117.295.525 2.299 5.288 4.895 6.603 1.845.934 4.041.59 5.289 0 1.105-.523 2.832-1.807 2.963-3.515.131-1.709-.003-3.22-.003-3.22h-1.163v2.069h-.747v-3.022h-1.314v2.471h-.784v-3.226h-1.478v3.062h-.718l-.074-6.215z" id="Shape" fill="#fff"/><path fill="#fff" d="M6.551 30.639h1.872v1.15h-1.872zM14.911 30.639h1.872v1.15h-1.872zM10.624 26.5h1.938v2.168h-1.938z"/><path d="M8.949 29.719l.69-.69-1.277-1.314-.772.69 1.359 1.314zM14.473 29.514l-.587-.793 1.38-1.109.566.793-1.359 1.109z" id="Shape" fill="#fff"/><g id="Shape" fill="#fff"><path d="M24.504 30.109c.488-.255 1.171-.605 2.272-.605 2.23 0 2.747 1.243 2.747 3.301v3.588c0 .591-.047 1.133-.005 1.451h-1.562c-.035-.376.005-.717.005-1.116h-.028c-.432.67-.976 1.244-2.008 1.244-1.115 0-2.147-.877-2.147-2.408 0-2.232 1.589-2.791 3.778-2.791h.349v-.303c0-.813-.349-1.562-1.338-1.562-.865 0-1.631.479-1.966.797l-.097-1.596zm3.402 3.716h-.153c-1.478 0-2.356.351-2.356 1.547 0 .75.433 1.26 1.102 1.26 1.032 0 1.408-.877 1.408-2.344v-.463h-.001zM25.926 38.023c-1.092 0-2.198-.845-2.198-2.46 0-2.52 2.046-2.842 3.83-2.842h.297v-.251c0-.454-.125-1.512-1.287-1.512-.875 0-1.625.493-1.93.783l-.055.011-.032-.045-.098-1.595.027-.049c.466-.243 1.17-.611 2.296-.611 2.322 0 2.798 1.34 2.798 3.353v3.588l-.013.632c-.01.331-.019.616.007.812l-.012.041-.039.018h-1.562l-.051-.047c-.023-.245-.014-.473-.005-.714l.009-.276c-.398.592-.955 1.164-1.982 1.164zm1.632-5.199c-2.577 0-3.726.845-3.726 2.739 0 1.547 1.054 2.357 2.095 2.357 1.034 0 1.556-.587 1.964-1.221l.044-.023h.028l.051.051-.01.411c-.008.223-.016.433.001.654h1.457c-.019-.2-.01-.467-.001-.771l.012-.629v-3.588c0-1.951-.458-3.25-2.695-3.25-1.078 0-1.762.346-2.219.585l.089 1.455c.355-.304 1.083-.739 1.921-.739.883 0 1.39.588 1.39 1.614v.303l-.051.052h-.35zm-1.06 3.86c-.69 0-1.153-.527-1.153-1.312 0-1.12.72-1.598 2.408-1.598h.153l.051.051v.463c0 1.635-.463 2.396-1.459 2.396zm1.255-2.807c-1.616 0-2.305.447-2.305 1.495 0 .734.412 1.209 1.05 1.209.926 0 1.356-.729 1.356-2.293v-.411h-.101zM31.154 31.034l-.004-1.389 1.513.004c.014.257.006.288.006.846h.042c.279-.701.897-.991 2.013-.991 1.785 0 2.626 1.945 2.626 4.226 0 2.68-1.037 4.036-2.584 4.036-1.032 0-1.604-.155-1.854-.793h-.028v3.904h-1.729v-9.843h-.001zm3.068 5.28c.962 0 1.502-.862 1.502-2.505 0-1.898-.47-2.854-1.474-2.854-1.018 0-1.366 1.156-1.366 2.703-.001 1.596.389 2.656 1.338 2.656zM32.883 40.929h-1.729l-.051-.052v-9.843l-.003-.874-.002-.515.015-.037.037-.015 1.514.004.051.049.007.432-.001.268c.307-.625.917-.894 2.003-.894 1.627 0 2.678 1.679 2.678 4.277s-.96 4.088-2.635 4.088c-.92 0-1.528-.114-1.831-.672v3.731l-.053.053zm-1.677-.103h1.625v-3.854l.052-.052h.028l.048.033c.221.561.693.761 1.807.761 1.609 0 2.533-1.452 2.533-3.985 0-1.926-.674-4.175-2.575-4.175-1.11 0-1.698.287-1.965.96l-.048.032h-.042l-.052-.052.002-.418-.005-.377-1.413-.004.002.463.003.875v9.793zm3.016-4.46c-.909 0-1.39-.937-1.39-2.708 0-1.828.477-2.755 1.418-2.755 1.027 0 1.526.95 1.526 2.906-.001 1.649-.552 2.557-1.554 2.557zm.027-5.36c-.873 0-1.315.892-1.315 2.652 0 1.188.223 2.604 1.287 2.604.936 0 1.451-.871 1.451-2.453 0-1.886-.465-2.803-1.423-2.803zM45.765 35.642c.291.124 1.031.63 1.874.63.654 0 1.162-.171 1.162-.79 0-.31-.145-.604-.799-1.007l-1.049-.67c-.755-.48-1.274-.829-1.274-1.938 0-1.279 1.002-2.363 2.585-2.363.959 0 1.699.263 1.874.325l-.102 1.486c-.45-.186-.929-.356-1.583-.356-.726 0-1.031.295-1.031.774 0 .434.219.602.741.958l1.242.594c.977.572 1.243 1.368 1.243 2.088 0 1.472-1.059 2.457-2.685 2.457-.93 0-1.905-.335-2.283-.49l.085-1.698zM47.961 37.882c-1.045 0-2.101-.411-2.302-.494l-.032-.05.087-1.698.024-.041.047-.004.236.118c.359.19.96.507 1.618.507.758 0 1.11-.234 1.11-.738 0-.291-.131-.566-.774-.963l-1.05-.671c-.725-.461-1.298-.825-1.298-1.98 0-1.399 1.108-2.415 2.636-2.415.441 0 1.127.057 1.891.328l.034.052-.102 1.487-.024.04-.047.004c-.432-.179-.908-.353-1.563-.353-.659 0-.979.236-.979.723 0 .409.207.567.719.916l1.234.589c.845.495 1.272 1.213 1.272 2.135 0 1.499-1.1 2.508-2.737 2.508zm-2.23-.576c.263.105 1.252.474 2.229.474 1.6 0 2.634-.944 2.634-2.406 0-.883-.41-1.57-1.218-2.044l-1.237-.591c-.537-.365-.771-.544-.771-1.005 0-.376.188-.825 1.083-.825.641 0 1.113.16 1.537.333l.094-1.377c-.735-.255-1.394-.31-1.82-.31-1.468 0-2.534.973-2.534 2.312 0 1.1.524 1.433 1.251 1.894l1.049.671c.584.359.822.664.822 1.05 0 .566-.397.841-1.213.841-.683 0-1.298-.324-1.666-.519l-.161-.083-.079 1.585zM38.582 31.034l-.004-1.389 1.514.004c.014.257.005.288.005.846h.042c.279-.701.898-.991 2.013-.991 1.785 0 2.626 1.945 2.626 4.226 0 2.68-1.037 4.036-2.584 4.036-1.032 0-1.604-.155-1.854-.793h-.028v3.904h-1.729v-9.843h-.001zm3.068 5.28c.962 0 1.502-.862 1.502-2.505 0-1.898-.471-2.854-1.475-2.854-1.018 0-1.366 1.156-1.366 2.703 0 1.596.391 2.656 1.339 2.656zM40.311 40.929h-1.729l-.051-.052v-9.843l-.003-.874-.001-.515.015-.037.036-.015 1.514.004.051.049.007.432-.001.268c.307-.625.917-.894 2.002-.894 1.627 0 2.678 1.679 2.678 4.277s-.961 4.088-2.636 4.088c-.92 0-1.528-.114-1.831-.672v3.731l-.051.053zm-1.677-.103h1.625v-3.854l.052-.052h.028l.048.033c.221.561.694.761 1.807.761 1.609 0 2.533-1.452 2.533-3.985 0-1.926-.674-4.175-2.575-4.175-1.11 0-1.697.287-1.965.96l-.048.032h-.042l-.051-.052.001-.418-.004-.377-1.413-.004.001.463.003.875v9.793zm3.016-4.46c-.909 0-1.39-.937-1.39-2.708 0-1.828.477-2.755 1.418-2.755 1.027 0 1.526.95 1.526 2.906 0 1.649-.552 2.557-1.554 2.557zm.028-5.36c-.873 0-1.314.892-1.314 2.652 0 1.188.223 2.604 1.287 2.604.936 0 1.451-.871 1.451-2.453-.001-1.886-.467-2.803-1.424-2.803z"/></g></g><g id="Group" fill="#FF9200" sketch:type="MSShapeGroup"><path d="M134.851 49.2c-5.904 4.357-14.465 6.675-21.836 6.675-10.33 0-19.632-3.818-26.673-10.175-.552-.499-.059-1.182.604-.795 7.596 4.42 16.988 7.081 26.688 7.081 6.545 0 13.738-1.358 20.357-4.164.999-.424 1.836.657.86 1.378zM137.308 46.396c-.756-.968-4.992-.459-6.895-.23-.577.069-.666-.435-.147-.8 3.38-2.373 8.918-1.688 9.562-.894.648.802-.17 6.354-3.338 9.004-.486.408-.95.19-.734-.349.712-1.778 2.307-5.765 1.552-6.731z" id="Shape"/></g><path d="M130.547 28.596v-2.307c.001-.351.266-.584.584-.584l10.338-.002c.331 0 .597.241.597.583v1.979c-.003.332-.282.766-.779 1.451l-5.354 7.647c1.987-.047 4.091.251 5.897 1.266.406.229.516.568.547.9v2.461c0 .34-.37.732-.76.528-3.183-1.667-7.405-1.851-10.924.018-.359.192-.735-.194-.735-.533v-2.341c0-.374.007-1.014.384-1.584l6.205-8.901-5.402-.001c-.332.001-.596-.236-.598-.58zM92.835 43.003h-3.145c-.3-.02-.539-.244-.562-.531l.002-16.142c0-.325.272-.582.606-.582l2.929-.001c.307.016.553.247.573.542v2.107h.059c.764-2.038 2.202-2.989 4.139-2.989 1.967 0 3.2.951 4.081 2.989.764-2.038 2.495-2.989 4.346-2.989 1.321 0 2.76.544 3.64 1.767.998 1.358.793 3.329.793 5.062l-.002 10.186c0 .323-.272.581-.606.581h-3.142c-.315-.02-.565-.271-.565-.581v-8.556c0-.681.059-2.379-.089-3.024-.234-1.087-.938-1.393-1.849-1.393-.764 0-1.557.51-1.879 1.325-.323.816-.294 2.173-.294 3.092v8.556c0 .323-.271.581-.606.581h-3.142c-.315-.02-.565-.271-.565-.581l-.002-8.556c0-1.801.293-4.451-1.938-4.451-2.261 0-2.172 2.582-2.172 4.451l-.002 8.556c-.001.323-.273.581-.608.581zM150.965 25.407c4.669 0 7.193 4.008 7.193 9.104 0 4.926-2.788 8.833-7.193 8.833-4.58 0-7.075-4.01-7.075-9.002 0-5.029 2.524-8.935 7.075-8.935zm.029 3.295c-2.319 0-2.466 3.159-2.466 5.13 0 1.97-.029 6.181 2.437 6.181 2.438 0 2.555-3.396 2.555-5.468 0-1.359-.058-2.989-.47-4.28-.353-1.121-1.058-1.563-2.056-1.563zM164.212 43.003h-3.134c-.315-.02-.564-.271-.564-.581l-.005-16.147c.027-.296.287-.527.605-.527l2.918-.001c.273.014.501.202.559.452v2.469h.06c.88-2.208 2.113-3.261 4.285-3.261 1.409 0 2.789.51 3.67 1.903.822 1.292.822 3.464.822 5.027v10.157c-.035.287-.292.509-.602.509h-3.153c-.292-.02-.526-.232-.561-.509v-8.764c0-1.767.207-4.348-1.967-4.348-.764 0-1.469.509-1.819 1.291-.44.984-.5 1.97-.5 3.058v8.691c-.007.323-.279.581-.614.581zM122.306 35.294c0 1.226.029 2.246-.589 3.337-.501.885-1.295 1.43-2.178 1.43-1.206 0-1.912-.92-1.912-2.281 0-2.68 2.402-3.166 4.679-3.166v.68zm3.171 7.668c-.209.188-.509.199-.743.074-1.046-.869-1.232-1.269-1.804-2.096-1.727 1.759-2.949 2.286-5.185 2.286-2.647 0-4.708-1.636-4.708-4.903 0-2.552 1.383-4.289 3.354-5.14 1.707-.749 4.091-.885 5.915-1.091v-.407c0-.749.058-1.634-.383-2.28-.383-.58-1.118-.817-1.766-.817-1.199 0-2.266.614-2.528 1.889-.055.282-.261.562-.546.578l-3.049-.33c-.258-.058-.543-.265-.469-.658.7-3.698 4.04-4.816 7.033-4.816 1.529 0 3.53.409 4.736 1.567 1.531 1.43 1.383 3.336 1.383 5.413v4.9c0 1.473.613 2.12 1.188 2.916.201.285.246.625-.011.834-.642.537-1.783 1.53-2.411 2.089l-.006-.008zM81.074 35.294c0 1.226.029 2.246-.589 3.337-.499.885-1.294 1.43-2.177 1.43-1.206 0-1.913-.92-1.913-2.281 0-2.68 2.403-3.166 4.679-3.166v.68zm3.171 7.668c-.208.188-.509.199-.743.074-1.045-.869-1.232-1.269-1.804-2.096-1.726 1.759-2.949 2.286-5.185 2.286-2.649 0-4.707-1.636-4.707-4.903 0-2.552 1.383-4.289 3.354-5.14 1.706-.749 4.09-.885 5.914-1.091v-.407c0-.749.059-1.634-.382-2.28-.383-.58-1.119-.817-1.766-.817-1.199 0-2.267.614-2.527 1.889-.055.282-.261.562-.547.578l-3.048-.33c-.258-.058-.544-.265-.47-.658.7-3.698 4.04-4.816 7.033-4.816 1.53 0 3.531.409 4.738 1.567 1.529 1.43 1.382 3.336 1.382 5.413v4.9c0 1.473.613 2.12 1.188 2.916.201.285.246.625-.011.834-.642.537-1.784 1.53-2.412 2.089l-.007-.008z" id="Shape" fill="#fff" sketch:type="MSShapeGroup"/><g fill="#fff" sketch:type="MSShapeGroup"><path d="M75.441 8.688h1.403l3.729 9.542h-1.403l-1.042-2.873h-4.036l-1.069 2.873h-1.31l3.728-9.542zm-.949 5.599h3.234l-1.59-4.45h-.027l-1.617 4.45zM83.432 18.229h-1.216l-2.566-6.909h1.27l1.938 5.759h.027l1.884-5.759h1.189l-2.526 6.909zM92.453 18.203c-.201.121-.455.188-.816.188-.588 0-.962-.321-.962-1.069-.628.735-1.47 1.069-2.432 1.069-1.256 0-2.285-.562-2.285-1.938 0-1.563 1.163-1.898 2.338-2.125 1.256-.241 2.325-.161 2.325-1.016 0-.989-.815-1.149-1.537-1.149-.962 0-1.67.294-1.724 1.31h-1.136c.067-1.711 1.39-2.312 2.927-2.312 1.243 0 2.592.281 2.592 1.897v3.555c0 .534 0 .775.361.775.094 0 .201-.013.348-.067v.882h.001zm-1.845-3.541c-.441.321-1.296.334-2.058.468-.748.133-1.39.401-1.39 1.243 0 .749.641 1.016 1.336 1.016 1.497 0 2.111-.935 2.111-1.563v-1.164h.001zM94.376 10.078h-1.136v-1.39h1.136v1.39zm-1.136 1.243h1.136v6.909h-1.136v-6.909zM95.939 8.688h1.136v9.542h-1.136v-9.542zM104.626 18.203c-.201.121-.455.188-.815.188-.588 0-.962-.321-.962-1.069-.628.735-1.471 1.069-2.433 1.069-1.256 0-2.285-.562-2.285-1.938 0-1.563 1.163-1.898 2.339-2.125 1.256-.241 2.325-.161 2.325-1.016 0-.989-.815-1.149-1.537-1.149-.962 0-1.67.294-1.724 1.31h-1.136c.066-1.711 1.39-2.312 2.927-2.312 1.242 0 2.592.281 2.592 1.897v3.555c0 .534 0 .775.361.775.094 0 .2-.013.348-.067v.882zm-1.845-3.541c-.44.321-1.296.334-2.058.468-.748.133-1.39.401-1.39 1.243 0 .749.642 1.016 1.336 1.016 1.497 0 2.111-.935 2.111-1.563v-1.164h.001zM105.387 8.688h1.136v3.568h.027c.374-.762 1.256-1.096 2.205-1.096 2.125 0 3.181 1.684 3.181 3.635 0 1.951-1.043 3.595-3.154 3.595-.708 0-1.724-.267-2.231-1.083h-.027v.922h-1.136v-9.541h-.001zm3.208 3.475c-1.523 0-2.111 1.31-2.111 2.606 0 1.363.614 2.619 2.178 2.619 1.55 0 2.071-1.323 2.071-2.673-.001-1.297-.669-2.552-2.138-2.552zM112.804 8.688h1.136v9.542h-1.136v-9.542zM121.263 16.038c-.308 1.523-1.403 2.352-2.954 2.352-2.205 0-3.247-1.523-3.313-3.635 0-2.071 1.362-3.595 3.247-3.595 2.445 0 3.194 2.285 3.127 3.955h-5.172c-.04 1.203.642 2.272 2.151 2.272.936 0 1.591-.455 1.791-1.35h1.123v.001zm-1.097-1.924c-.053-1.083-.868-1.951-1.99-1.951-1.19 0-1.898.895-1.979 1.951h3.969zM132.38 18.203c-.2.121-.454.188-.814.188-.588 0-.963-.321-.963-1.069-.628.735-1.47 1.069-2.432 1.069-1.256 0-2.285-.562-2.285-1.938 0-1.563 1.162-1.898 2.338-2.125 1.257-.241 2.326-.161 2.326-1.016 0-.989-.815-1.149-1.537-1.149-.962 0-1.671.294-1.725 1.31h-1.135c.066-1.711 1.389-2.312 2.926-2.312 1.243 0 2.593.281 2.593 1.897v3.555c0 .534 0 .775.36.775.094 0 .201-.013.348-.067v.882zm-1.844-3.541c-.441.321-1.297.334-2.059.468-.748.133-1.39.401-1.39 1.243 0 .749.642 1.016 1.337 1.016 1.496 0 2.111-.935 2.111-1.563v-1.164h.001zM135.013 11.321h1.376v1.002h-1.376v4.29c0 .521.146.615.855.615h.52v1.002h-.868c-1.176 0-1.643-.24-1.643-1.51v-4.397h-1.177v-1.002h1.177v-2.072h1.136v2.072z"/></g></g></svg>