<?xml version="1.0" encoding="UTF-8" standalone="no"?>
<svg width="191px" height="63px" viewBox="0 0 191 63" version="1.1" xmlns="http://www.w3.org/2000/svg" xmlns:xlink="http://www.w3.org/1999/xlink" xmlns:sketch="http://www.bohemiancoding.com/sketch/ns">
    <!-- Generator: Sketch 3.2.2 (9983) - http://www.bohemiancoding.com/sketch -->
    <title>AppStore</title>
    <desc>Created with Sketch.</desc>
    <defs></defs>
    <g id="Page-1" stroke="none" stroke-width="1" fill="none" fill-rule="evenodd" sketch:type="MSPage">
        <g id="AppStore" sketch:type="MSLayerGroup">
            <path d="M190.225,53.4628 C190.225,58.4819385 185.970897,62.552 180.723804,62.552 L9.72420242,62.552 C4.47810637,62.552 0.225,58.4819385 0.225,53.4628 L0.225,9.6412 C0.225,4.62110769 4.47810637,0.552 9.72420242,0.552 L180.723804,0.552 C185.970897,0.552 190.225,4.62110769 190.225,9.6412 L190.225,53.4628" id="Fill-1" fill="#1A1918" sketch:type="MSShapeGroup"></path>
            <path d="M42.757,30.564 C42.716,26.018 46.479,23.806 46.651,23.703 C44.521,20.596 41.217,20.171 40.056,20.138 C37.282,19.846 34.592,21.798 33.178,21.798 C31.736,21.798 29.56,20.167 27.215,20.215 C24.198,20.262 21.373,22.009 19.824,24.722 C16.629,30.255 19.012,38.387 22.073,42.859 C23.605,45.049 25.395,47.495 27.737,47.408 C30.029,47.313 30.885,45.947 33.652,45.947 C36.393,45.947 37.196,47.408 39.585,47.353 C42.045,47.313 43.594,45.153 45.072,42.943 C46.842,40.432 47.553,37.959 47.581,37.833 C47.524,37.813 42.804,36.013 42.757,30.564" id="Fill-2" fill="#FFFFFF" sketch:type="MSShapeGroup"></path>
            <path d="M38.244,17.196 C39.476,15.654 40.32,13.557 40.085,11.429 C38.301,11.508 36.07,12.662 34.785,14.171 C33.649,15.499 32.633,17.678 32.896,19.725 C34.899,19.874 36.957,18.714 38.244,17.196" id="Fill-3" fill="#FFFFFF" sketch:type="MSShapeGroup"></path>
            <path d="M75.927,47.094 L72.724,47.094 L70.97,41.58 L64.871,41.58 L63.2,47.094 L60.081,47.094 L66.124,28.325 L69.856,28.325 L75.927,47.094 L75.927,47.094 Z M70.441,39.268 L68.853,34.367 C68.686,33.866 68.37,32.687 67.906,30.831 L67.85,30.831 C67.665,31.63 67.368,32.808 66.959,34.367 L65.4,39.268 L70.441,39.268 L70.441,39.268 Z" id="Fill-4" fill="#FFFFFF" sketch:type="MSShapeGroup"></path>
            <path d="M91.466,40.161 C91.466,42.462 90.844,44.282 89.6,45.618 C88.486,46.806 87.103,47.4 85.451,47.4 C83.668,47.4 82.387,46.759 81.608,45.479 L81.552,45.479 L81.552,52.608 L78.544,52.608 L78.544,38.016 C78.544,36.568 78.507,35.083 78.433,33.56 L81.078,33.56 L81.245,35.705 L81.301,35.705 C82.304,34.089 83.826,33.282 85.868,33.282 C87.465,33.282 88.797,33.913 89.864,35.174 C90.932,36.439 91.466,38.1 91.466,40.161 L91.466,40.161 Z M88.402,40.271 C88.402,38.954 88.105,37.867 87.511,37.013 C86.861,36.122 85.988,35.676 84.893,35.676 C84.151,35.676 83.477,35.924 82.875,36.414 C82.271,36.907 81.876,37.552 81.691,38.351 C81.598,38.723 81.552,39.028 81.552,39.268 L81.552,41.524 C81.552,42.509 81.854,43.339 82.457,44.017 C83.06,44.695 83.845,45.034 84.81,45.034 C85.942,45.034 86.824,44.597 87.455,43.725 C88.086,42.852 88.402,41.7 88.402,40.271 L88.402,40.271 Z" id="Fill-5" fill="#FFFFFF" sketch:type="MSShapeGroup"></path>
            <path d="M107.033,40.161 C107.033,42.462 106.41,44.282 105.165,45.618 C104.052,46.806 102.669,47.4 101.016,47.4 C99.234,47.4 97.953,46.759 97.174,45.479 L97.119,45.479 L97.119,52.608 L94.111,52.608 L94.111,38.016 C94.111,36.568 94.074,35.083 94,33.56 L96.645,33.56 L96.812,35.705 L96.868,35.705 C97.87,34.089 99.391,33.282 101.435,33.282 C103.03,33.282 104.363,33.913 105.432,35.174 C106.498,36.439 107.033,38.1 107.033,40.161 L107.033,40.161 Z M103.969,40.271 C103.969,38.954 103.672,37.867 103.077,37.013 C102.427,36.122 101.556,35.676 100.46,35.676 C99.716,35.676 99.044,35.924 98.441,36.414 C97.837,36.907 97.444,37.552 97.258,38.351 C97.166,38.723 97.119,39.028 97.119,39.268 L97.119,41.524 C97.119,42.509 97.421,43.339 98.022,44.017 C98.625,44.695 99.41,45.034 100.377,45.034 C101.509,45.034 102.391,44.597 103.022,43.725 C103.652,42.852 103.969,41.7 103.969,40.271 L103.969,40.271 Z" id="Fill-6" fill="#FFFFFF" sketch:type="MSShapeGroup"></path>
            <path d="M124.437,41.831 C124.437,43.428 123.883,44.727 122.77,45.729 C121.547,46.826 119.845,47.372 117.658,47.372 C115.639,47.372 114.019,46.983 112.793,46.203 L113.49,43.696 C114.809,44.495 116.258,44.895 117.837,44.895 C118.969,44.895 119.85,44.638 120.484,44.127 C121.115,43.616 121.429,42.932 121.429,42.076 C121.429,41.315 121.17,40.673 120.649,40.152 C120.131,39.632 119.266,39.148 118.06,38.7 C114.773,37.475 113.132,35.68 113.132,33.318 C113.132,31.775 113.707,30.51 114.859,29.524 C116.008,28.539 117.539,28.046 119.454,28.046 C121.162,28.046 122.581,28.343 123.713,28.937 L122.961,31.388 C121.903,30.813 120.707,30.524 119.368,30.524 C118.311,30.524 117.484,30.785 116.892,31.305 C116.391,31.769 116.14,32.334 116.14,33.004 C116.14,33.746 116.426,34.359 117.002,34.841 C117.503,35.287 118.413,35.769 119.732,36.29 C121.346,36.94 122.534,37.701 123.297,38.572 C124.057,39.446 124.437,40.532 124.437,41.831" id="Fill-7" fill="#FFFFFF" sketch:type="MSShapeGroup"></path>
            <path d="M134.379,35.816 L131.065,35.816 L131.065,42.388 C131.065,44.059 131.649,44.895 132.82,44.895 C133.357,44.895 133.803,44.848 134.156,44.755 L134.239,47.039 C133.646,47.261 132.867,47.372 131.9,47.372 C130.712,47.372 129.784,47.01 129.115,46.287 C128.448,45.563 128.112,44.346 128.112,42.638 L128.112,35.816 L126.137,35.816 L126.137,33.56 L128.112,33.56 L128.112,31.082 L131.065,30.19 L131.065,33.56 L134.379,33.56 L134.379,35.816" id="Fill-8" fill="#FFFFFF" sketch:type="MSShapeGroup"></path>
            <path d="M149.335,40.216 C149.335,42.296 148.74,44.003 147.552,45.34 C146.307,46.714 144.654,47.4 142.594,47.4 C140.607,47.4 139.026,46.742 137.847,45.423 C136.668,44.105 136.079,42.443 136.079,40.439 C136.079,38.341 136.685,36.623 137.902,35.287 C139.117,33.95 140.756,33.282 142.817,33.282 C144.803,33.282 146.401,33.94 147.607,35.26 C148.759,36.541 149.335,38.192 149.335,40.216 L149.335,40.216 Z M146.213,40.313 C146.213,39.065 145.946,37.995 145.406,37.101 C144.775,36.021 143.875,35.482 142.707,35.482 C141.497,35.482 140.58,36.021 139.949,37.101 C139.409,37.995 139.142,39.083 139.142,40.37 C139.142,41.618 139.409,42.688 139.949,43.581 C140.599,44.66 141.508,45.2 142.679,45.2 C143.828,45.2 144.729,44.651 145.379,43.553 C145.935,42.641 146.213,41.56 146.213,40.313 L146.213,40.313 Z" id="Fill-9" fill="#FFFFFF" sketch:type="MSShapeGroup"></path>
            <path d="M159.108,36.205 C158.811,36.15 158.494,36.122 158.161,36.122 C157.103,36.122 156.285,36.521 155.709,37.32 C155.208,38.026 154.957,38.917 154.957,39.993 L154.957,47.094 L151.952,47.094 L151.979,37.822 C151.979,36.261 151.941,34.841 151.866,33.56 L154.486,33.56 L154.596,36.15 L154.679,36.15 C154.996,35.26 155.497,34.544 156.183,34.006 C156.852,33.523 157.577,33.282 158.356,33.282 C158.635,33.282 158.885,33.301 159.108,33.337 L159.108,36.205" id="Fill-10" fill="#FFFFFF" sketch:type="MSShapeGroup"></path>
            <path d="M172.557,39.687 C172.557,40.225 172.521,40.68 172.447,41.05 L163.425,41.05 C163.461,42.388 163.896,43.41 164.734,44.115 C165.494,44.746 166.477,45.061 167.684,45.061 C169.02,45.061 170.237,44.848 171.334,44.421 L171.805,46.509 C170.524,47.067 169.012,47.345 167.268,47.345 C165.169,47.345 163.521,46.728 162.323,45.492 C161.128,44.258 160.527,42.601 160.527,40.521 C160.527,38.48 161.084,36.78 162.199,35.425 C163.367,33.978 164.946,33.254 166.932,33.254 C168.882,33.254 170.359,33.978 171.362,35.425 C172.158,36.577 172.557,37.998 172.557,39.687 L172.557,39.687 Z M169.689,38.907 C169.709,38.016 169.513,37.246 169.105,36.596 C168.585,35.76 167.786,35.342 166.709,35.342 C165.725,35.342 164.926,35.75 164.315,36.568 C163.814,37.218 163.516,37.998 163.425,38.907 L169.689,38.907 L169.689,38.907 Z" id="Fill-11" fill="#FFFFFF" sketch:type="MSShapeGroup"></path>
            <path d="M69.446,16.777 C69.446,18.437 68.949,19.687 67.954,20.526 C67.033,21.301 65.724,21.688 64.029,21.688 C63.189,21.688 62.468,21.652 61.867,21.579 L61.867,12.508 C62.652,12.381 63.499,12.317 64.412,12.317 C66.026,12.317 67.244,12.668 68.065,13.371 C68.985,14.164 69.446,15.3 69.446,16.777 L69.446,16.777 Z M67.887,16.818 C67.887,15.742 67.602,14.917 67.032,14.342 C66.461,13.767 65.629,13.48 64.535,13.48 C64.069,13.48 63.672,13.512 63.344,13.576 L63.344,20.471 C63.526,20.499 63.86,20.512 64.343,20.512 C65.474,20.512 66.347,20.198 66.963,19.568 C67.579,18.939 67.887,18.022 67.887,16.818 L67.887,16.818 Z" id="Fill-12" fill="#FFFFFF" sketch:type="MSShapeGroup"></path>
            <path d="M77.709,18.227 C77.709,19.249 77.417,20.088 76.833,20.744 C76.221,21.42 75.41,21.757 74.398,21.757 C73.421,21.757 72.645,21.434 72.064,20.786 C71.486,20.138 71.197,19.322 71.197,18.337 C71.197,17.306 71.494,16.463 72.092,15.806 C72.69,15.149 73.494,14.821 74.507,14.821 C75.483,14.821 76.267,15.145 76.861,15.792 C77.425,16.421 77.709,17.233 77.709,18.227 L77.709,18.227 Z M76.176,18.275 C76.176,17.662 76.044,17.136 75.779,16.698 C75.469,16.167 75.027,15.902 74.453,15.902 C73.859,15.902 73.408,16.167 73.098,16.698 C72.833,17.136 72.701,17.672 72.701,18.302 C72.701,18.916 72.833,19.441 73.098,19.881 C73.417,20.411 73.863,20.676 74.439,20.676 C75.004,20.676 75.446,20.406 75.766,19.867 C76.04,19.419 76.176,18.888 76.176,18.275 L76.176,18.275 Z" id="Fill-13" fill="#FFFFFF" sketch:type="MSShapeGroup"></path>
            <path d="M88.79,14.957 L86.71,21.607 L85.356,21.607 L84.494,18.72 C84.275,17.999 84.097,17.283 83.96,16.572 L83.933,16.572 C83.805,17.302 83.628,18.018 83.399,18.72 L82.483,21.607 L81.114,21.607 L79.158,14.957 L80.677,14.957 L81.429,18.118 C81.611,18.866 81.761,19.577 81.881,20.252 L81.907,20.252 C82.018,19.696 82.199,18.989 82.455,18.131 L83.399,14.957 L84.603,14.957 L85.506,18.063 C85.725,18.82 85.903,19.55 86.039,20.252 L86.081,20.252 C86.181,19.568 86.331,18.839 86.533,18.063 L87.34,14.957 L88.79,14.957" id="Fill-14" fill="#FFFFFF" sketch:type="MSShapeGroup"></path>
            <path d="M96.452,21.607 L94.974,21.607 L94.974,17.799 C94.974,16.625 94.528,16.039 93.634,16.039 C93.196,16.039 92.841,16.2 92.567,16.523 C92.294,16.846 92.156,17.226 92.156,17.662 L92.156,21.607 L90.678,21.607 L90.678,16.86 C90.678,16.275 90.66,15.642 90.625,14.957 L91.923,14.957 L91.992,15.997 L92.034,15.997 C92.206,15.674 92.462,15.406 92.799,15.194 C93.2,14.946 93.648,14.821 94.14,14.821 C94.761,14.821 95.276,15.021 95.687,15.423 C96.197,15.915 96.452,16.65 96.452,17.625 L96.452,21.607" id="Fill-15" fill="#FFFFFF" sketch:type="MSShapeGroup"></path>
            <path d="M99.052,11.907 L100.529,11.907 L100.529,21.607 L99.052,21.607 L99.052,11.907 Z" id="Fill-16" fill="#FFFFFF" sketch:type="MSShapeGroup"></path>
            <path d="M109.231,18.227 C109.231,19.249 108.939,20.088 108.355,20.744 C107.743,21.42 106.931,21.757 105.92,21.757 C104.942,21.757 104.165,21.434 103.587,20.786 C103.008,20.138 102.719,19.322 102.719,18.337 C102.719,17.306 103.016,16.463 103.614,15.806 C104.212,15.149 105.016,14.821 106.027,14.821 C107.005,14.821 107.787,15.145 108.383,15.792 C108.947,16.421 109.231,17.233 109.231,18.227 L109.231,18.227 Z M107.697,18.275 C107.697,17.662 107.564,17.136 107.3,16.698 C106.991,16.167 106.548,15.902 105.975,15.902 C105.38,15.902 104.928,16.167 104.62,16.698 C104.355,17.136 104.223,17.672 104.223,18.302 C104.223,18.916 104.355,19.441 104.62,19.881 C104.939,20.411 105.385,20.676 105.961,20.676 C106.526,20.676 106.966,20.406 107.286,19.867 C107.561,19.419 107.697,18.888 107.697,18.275 L107.697,18.275 Z" id="Fill-17" fill="#FFFFFF" sketch:type="MSShapeGroup"></path>
            <path d="M116.385,21.607 L115.057,21.607 L114.947,20.841 L114.906,20.841 C114.451,21.452 113.804,21.757 112.964,21.757 C112.336,21.757 111.829,21.556 111.446,21.155 C111.099,20.791 110.925,20.339 110.925,19.801 C110.925,18.989 111.264,18.369 111.944,17.94 C112.625,17.512 113.581,17.302 114.812,17.311 L114.812,17.187 C114.812,16.312 114.352,15.874 113.432,15.874 C112.776,15.874 112.198,16.039 111.699,16.366 L111.399,15.395 C112.016,15.012 112.779,14.821 113.68,14.821 C115.418,14.821 116.289,15.738 116.289,17.571 L116.289,20.02 C116.289,20.685 116.322,21.215 116.385,21.607 L116.385,21.607 Z M114.851,19.322 L114.851,18.296 C113.22,18.269 112.404,18.715 112.404,19.636 C112.404,19.983 112.498,20.243 112.688,20.417 C112.878,20.589 113.121,20.676 113.41,20.676 C113.735,20.676 114.038,20.574 114.313,20.368 C114.592,20.163 114.762,19.901 114.826,19.582 C114.842,19.509 114.851,19.422 114.851,19.322 L114.851,19.322 Z" id="Fill-18" fill="#FFFFFF" sketch:type="MSShapeGroup"></path>
            <path d="M124.784,21.607 L123.473,21.607 L123.404,20.539 L123.363,20.539 C122.944,21.351 122.231,21.757 121.228,21.757 C120.426,21.757 119.76,21.443 119.231,20.813 C118.702,20.184 118.437,19.368 118.437,18.364 C118.437,17.288 118.724,16.417 119.3,15.751 C119.856,15.131 120.539,14.821 121.352,14.821 C122.244,14.821 122.87,15.122 123.225,15.724 L123.253,15.724 L123.253,11.907 L124.732,11.907 L124.732,19.815 C124.732,20.462 124.749,21.059 124.784,21.607 L124.784,21.607 Z M123.253,18.802 L123.253,17.694 C123.253,17.502 123.239,17.347 123.211,17.229 C123.129,16.873 122.95,16.574 122.677,16.333 C122.401,16.091 122.071,15.97 121.688,15.97 C121.137,15.97 120.704,16.189 120.388,16.627 C120.074,17.065 119.914,17.625 119.914,18.309 C119.914,18.966 120.065,19.5 120.368,19.91 C120.688,20.348 121.12,20.567 121.66,20.567 C122.145,20.567 122.534,20.384 122.828,20.02 C123.112,19.682 123.253,19.276 123.253,18.802 L123.253,18.802 Z" id="Fill-19" fill="#FFFFFF" sketch:type="MSShapeGroup"></path>
            <path d="M137.426,18.227 C137.426,19.249 137.134,20.088 136.55,20.744 C135.938,21.42 135.128,21.757 134.115,21.757 C133.139,21.757 132.362,21.434 131.781,20.786 C131.203,20.138 130.914,19.322 130.914,18.337 C130.914,17.306 131.211,16.463 131.809,15.806 C132.407,15.149 133.211,14.821 134.225,14.821 C135.2,14.821 135.985,15.145 136.577,15.792 C137.142,16.421 137.426,17.233 137.426,18.227 L137.426,18.227 Z M135.894,18.275 C135.894,17.662 135.762,17.136 135.497,16.698 C135.186,16.167 134.745,15.902 134.17,15.902 C133.577,15.902 133.126,16.167 132.814,16.698 C132.55,17.136 132.418,17.672 132.418,18.302 C132.418,18.916 132.55,19.441 132.814,19.881 C133.134,20.411 133.58,20.676 134.156,20.676 C134.721,20.676 135.164,20.406 135.484,19.867 C135.757,19.419 135.894,18.888 135.894,18.275 L135.894,18.275 Z" id="Fill-20" fill="#FFFFFF" sketch:type="MSShapeGroup"></path>
            <path d="M145.373,21.607 L143.897,21.607 L143.897,17.799 C143.897,16.625 143.45,16.039 142.555,16.039 C142.117,16.039 141.762,16.2 141.489,16.523 C141.216,16.846 141.079,17.226 141.079,17.662 L141.079,21.607 L139.599,21.607 L139.599,16.86 C139.599,16.275 139.583,15.642 139.547,14.957 L140.844,14.957 L140.913,15.997 L140.955,15.997 C141.128,15.674 141.384,15.406 141.721,15.194 C142.123,14.946 142.569,14.821 143.062,14.821 C143.682,14.821 144.197,15.021 144.607,15.423 C145.12,15.915 145.373,16.65 145.373,17.625 L145.373,21.607" id="Fill-21" fill="#FFFFFF" sketch:type="MSShapeGroup"></path>
            <path d="M155.32,16.065 L153.693,16.065 L153.693,19.295 C153.693,20.116 153.982,20.526 154.555,20.526 C154.819,20.526 155.04,20.503 155.213,20.457 L155.252,21.579 C154.96,21.688 154.577,21.744 154.103,21.744 C153.519,21.744 153.064,21.565 152.737,21.21 C152.406,20.854 152.243,20.257 152.243,19.418 L152.243,16.065 L151.271,16.065 L151.271,14.957 L152.243,14.957 L152.243,13.74 L153.693,13.302 L153.693,14.957 L155.32,14.957 L155.32,16.065" id="Fill-22" fill="#FFFFFF" sketch:type="MSShapeGroup"></path>
            <path d="M163.147,21.607 L161.667,21.607 L161.667,17.826 C161.667,16.634 161.221,16.039 160.329,16.039 C159.643,16.039 159.175,16.384 158.918,17.076 C158.874,17.221 158.849,17.399 158.849,17.608 L158.849,21.607 L157.373,21.607 L157.373,11.907 L158.849,11.907 L158.849,15.914 L158.877,15.914 C159.342,15.185 160.009,14.821 160.874,14.821 C161.486,14.821 161.993,15.021 162.395,15.423 C162.896,15.924 163.147,16.668 163.147,17.653 L163.147,21.607" id="Fill-23" fill="#FFFFFF" sketch:type="MSShapeGroup"></path>
            <path d="M171.218,17.967 C171.218,18.232 171.199,18.455 171.163,18.638 L166.731,18.638 C166.75,19.295 166.962,19.796 167.373,20.142 C167.747,20.453 168.232,20.608 168.824,20.608 C169.48,20.608 170.078,20.503 170.618,20.293 L170.849,21.319 C170.218,21.593 169.477,21.73 168.618,21.73 C167.587,21.73 166.778,21.427 166.191,20.82 C165.601,20.213 165.309,19.399 165.309,18.378 C165.309,17.375 165.582,16.54 166.13,15.874 C166.703,15.163 167.477,14.807 168.455,14.807 C169.411,14.807 170.138,15.163 170.629,15.874 C171.023,16.44 171.218,17.138 171.218,17.967 L171.218,17.967 Z M169.808,17.585 C169.819,17.147 169.722,16.768 169.521,16.449 C169.265,16.039 168.874,15.833 168.345,15.833 C167.863,15.833 167.469,16.034 167.169,16.435 C166.924,16.755 166.778,17.138 166.731,17.585 L169.808,17.585 L169.808,17.585 Z" id="Fill-24" fill="#FFFFFF" sketch:type="MSShapeGroup"></path>
        </g>
    </g>
</svg>