<svg width="191" height="63" viewBox="0 0 191 63" xmlns="http://www.w3.org/2000/svg" xmlns:sketch="http://www.bohemiancoding.com/sketch/ns"><title>AppStore</title><desc>Created with Sketch.</desc><g sketch:type="MSLayerGroup" fill="none"><path d="M190.225 53.463c0 5.019-4.254 9.089-9.501 9.089h-171c-5.246 0-9.499-4.07-9.499-9.089v-43.822c0-5.02 4.253-9.089 9.499-9.089h171c5.247 0 9.501 4.069 9.501 9.089v43.822" fill="#1A1918" sketch:type="MSShapeGroup"/><path d="M42.757 30.564c-.041-4.546 3.722-6.758 3.894-6.861-2.13-3.107-5.434-3.532-6.595-3.565-2.774-.292-5.464 1.66-6.878 1.66-1.442 0-3.618-1.631-5.963-1.583-3.017.047-5.842 1.794-7.391 4.507-3.195 5.533-.812 13.665 2.249 18.137 1.532 2.19 3.322 4.636 5.664 4.549 2.292-.095 3.148-1.461 5.915-1.461 2.741 0 3.544 1.461 5.933 1.406 2.46-.04 4.009-2.2 5.487-4.41 1.77-2.511 2.481-4.984 2.509-5.11-.057-.02-4.777-1.82-4.824-7.269" fill="#fff" sketch:type="MSShapeGroup"/><path d="M38.244 17.196c1.232-1.542 2.076-3.639 1.841-5.767-1.784.079-4.015 1.233-5.3 2.742-1.136 1.328-2.152 3.507-1.889 5.554 2.003.149 4.061-1.011 5.348-2.529" fill="#fff" sketch:type="MSShapeGroup"/><path d="M75.927 47.094h-3.203l-1.754-5.514h-6.099l-1.671 5.514h-3.119l6.043-18.769h3.732l6.071 18.769zm-5.486-7.826l-1.588-4.901c-.167-.501-.483-1.68-.947-3.536h-.056c-.185.799-.482 1.977-.891 3.536l-1.559 4.901h5.041z" fill="#fff" sketch:type="MSShapeGroup"/><path d="M91.466 40.161c0 2.301-.622 4.121-1.866 5.457-1.114 1.188-2.497 1.782-4.149 1.782-1.783 0-3.064-.641-3.843-1.921h-.056v7.129h-3.008v-14.592c0-1.448-.037-2.933-.111-4.456h2.645l.167 2.145h.056c1.003-1.616 2.525-2.423 4.567-2.423 1.597 0 2.929.631 3.996 1.892 1.068 1.265 1.602 2.926 1.602 4.987zm-3.064.11c0-1.317-.297-2.404-.891-3.258-.65-.891-1.523-1.337-2.618-1.337-.742 0-1.416.248-2.018.738-.604.493-.999 1.138-1.184 1.937-.093.372-.139.677-.139.917v2.256c0 .985.302 1.815.905 2.493.603.678 1.388 1.017 2.353 1.017 1.132 0 2.014-.437 2.645-1.309.631-.873.947-2.025.947-3.454z" fill="#fff" sketch:type="MSShapeGroup"/><path d="M107.033 40.161c0 2.301-.623 4.121-1.868 5.457-1.113 1.188-2.496 1.782-4.149 1.782-1.782 0-3.063-.641-3.842-1.921h-.055v7.129h-3.008v-14.592c0-1.448-.037-2.933-.111-4.456h2.645l.167 2.145h.056c1.002-1.616 2.523-2.423 4.567-2.423 1.595 0 2.928.631 3.997 1.892 1.066 1.265 1.601 2.926 1.601 4.987zm-3.064.11c0-1.317-.297-2.404-.892-3.258-.65-.891-1.521-1.337-2.617-1.337-.744 0-1.416.248-2.019.738-.604.493-.997 1.138-1.183 1.937-.092.372-.139.677-.139.917v2.256c0 .985.302 1.815.903 2.493.603.678 1.388 1.017 2.355 1.017 1.132 0 2.014-.437 2.645-1.309.63-.873.947-2.025.947-3.454z" fill="#fff" sketch:type="MSShapeGroup"/><path d="M124.437 41.831c0 1.597-.554 2.896-1.667 3.898-1.223 1.097-2.925 1.643-5.112 1.643-2.019 0-3.639-.389-4.865-1.169l.697-2.507c1.319.799 2.768 1.199 4.347 1.199 1.132 0 2.013-.257 2.647-.768.631-.511.945-1.195.945-2.051 0-.761-.259-1.403-.78-1.924-.518-.52-1.383-1.004-2.589-1.452-3.287-1.225-4.928-3.02-4.928-5.382 0-1.543.575-2.808 1.727-3.794 1.149-.985 2.68-1.478 4.595-1.478 1.708 0 3.127.297 4.259.891l-.752 2.451c-1.058-.575-2.254-.864-3.593-.864-1.057 0-1.884.261-2.476.781-.501.464-.752 1.029-.752 1.699 0 .742.286 1.355.862 1.837.501.446 1.411.928 2.73 1.449 1.614.65 2.802 1.411 3.565 2.282.76.874 1.14 1.96 1.14 3.259" fill="#fff" sketch:type="MSShapeGroup"/><path d="M134.379 35.816h-3.314v6.572c0 1.671.584 2.507 1.755 2.507.537 0 .983-.047 1.336-.14l.083 2.284c-.593.222-1.372.333-2.339.333-1.188 0-2.116-.362-2.785-1.085-.667-.724-1.003-1.941-1.003-3.649v-6.822h-1.975v-2.256h1.975v-2.478l2.953-.892v3.37h3.314v2.256" fill="#fff" sketch:type="MSShapeGroup"/><path d="M149.335 40.216c0 2.08-.595 3.787-1.783 5.124-1.245 1.374-2.898 2.06-4.958 2.06-1.987 0-3.568-.658-4.747-1.977-1.179-1.318-1.768-2.98-1.768-4.984 0-2.098.606-3.816 1.823-5.152 1.215-1.337 2.854-2.005 4.915-2.005 1.986 0 3.584.658 4.79 1.978 1.152 1.281 1.728 2.932 1.728 4.956zm-3.122.097c0-1.248-.267-2.318-.807-3.212-.631-1.08-1.531-1.619-2.699-1.619-1.21 0-2.127.539-2.758 1.619-.54.894-.807 1.982-.807 3.269 0 1.248.267 2.318.807 3.211.65 1.079 1.559 1.619 2.73 1.619 1.149 0 2.05-.549 2.7-1.647.556-.912.834-1.993.834-3.24z" fill="#fff" sketch:type="MSShapeGroup"/><path d="M159.108 36.205c-.297-.055-.614-.083-.947-.083-1.058 0-1.876.399-2.452 1.198-.501.706-.752 1.597-.752 2.673v7.101h-3.005l.027-9.272c0-1.561-.038-2.981-.113-4.262h2.62l.11 2.59h.083c.317-.89.818-1.606 1.504-2.144.669-.483 1.394-.724 2.173-.724.279 0 .529.019.752.055v2.868" fill="#fff" sketch:type="MSShapeGroup"/><path d="M172.557 39.687c0 .538-.036.993-.11 1.363h-9.022c.036 1.338.471 2.36 1.309 3.065.76.631 1.743.946 2.95.946 1.336 0 2.553-.213 3.65-.64l.471 2.088c-1.281.558-2.793.836-4.537.836-2.099 0-3.747-.617-4.945-1.853-1.195-1.234-1.796-2.891-1.796-4.971 0-2.041.557-3.741 1.672-5.096 1.168-1.447 2.747-2.171 4.733-2.171 1.95 0 3.427.724 4.43 2.171.796 1.152 1.195 2.573 1.195 4.262zm-2.868-.78c.02-.891-.176-1.661-.584-2.311-.52-.836-1.319-1.254-2.396-1.254-.984 0-1.783.408-2.394 1.226-.501.65-.799 1.43-.89 2.339h6.264z" fill="#fff" sketch:type="MSShapeGroup"/><path d="M69.446 16.777c0 1.66-.497 2.91-1.492 3.749-.921.775-2.23 1.162-3.925 1.162-.84 0-1.561-.036-2.162-.109v-9.071c.785-.127 1.632-.191 2.545-.191 1.614 0 2.832.351 3.653 1.054.92.793 1.381 1.929 1.381 3.406zm-1.559.041c0-1.076-.285-1.901-.855-2.476-.571-.575-1.403-.862-2.497-.862-.466 0-.863.032-1.191.096v6.895c.182.028.516.041.999.041 1.131 0 2.004-.314 2.62-.944.616-.629.924-1.546.924-2.75z" fill="#fff" sketch:type="MSShapeGroup"/><path d="M77.709 18.227c0 1.022-.292 1.861-.876 2.517-.612.676-1.423 1.013-2.435 1.013-.977 0-1.753-.323-2.334-.971-.578-.648-.867-1.464-.867-2.449 0-1.031.297-1.874.895-2.531.598-.657 1.402-.985 2.415-.985.976 0 1.76.324 2.354.971.564.629.848 1.441.848 2.435zm-1.533.048c0-.613-.132-1.139-.397-1.577-.31-.531-.752-.796-1.326-.796-.594 0-1.045.265-1.355.796-.265.438-.397.974-.397 1.604 0 .614.132 1.139.397 1.579.319.53.765.795 1.341.795.565 0 1.007-.27 1.327-.809.274-.448.41-.979.41-1.592z" fill="#fff" sketch:type="MSShapeGroup"/><path d="M88.79 14.957l-2.08 6.65h-1.354l-.862-2.887c-.219-.721-.397-1.437-.534-2.148h-.027c-.128.73-.305 1.446-.534 2.148l-.916 2.887h-1.369l-1.956-6.65h1.519l.752 3.161c.182.748.332 1.459.452 2.134h.026c.111-.556.292-1.263.548-2.121l.944-3.174h1.204l.903 3.106c.219.757.397 1.487.533 2.189h.042c.1-.684.25-1.413.452-2.189l.807-3.106h1.45" fill="#fff" sketch:type="MSShapeGroup"/><path d="M96.452 21.607h-1.478v-3.808c0-1.174-.446-1.76-1.34-1.76-.438 0-.793.161-1.067.484-.273.323-.411.703-.411 1.139v3.945h-1.478v-4.747c0-.585-.018-1.218-.053-1.903h1.298l.069 1.04h.042c.172-.323.428-.591.765-.803.401-.248.849-.373 1.341-.373.621 0 1.136.2 1.547.602.51.492.765 1.227.765 2.202v3.982" fill="#fff" sketch:type="MSShapeGroup"/><path d="M99.052 11.907h1.477v9.7h-1.477v-9.7z" fill="#fff" sketch:type="MSShapeGroup"/><path d="M109.231 18.227c0 1.022-.292 1.861-.876 2.517-.612.676-1.424 1.013-2.435 1.013-.978 0-1.755-.323-2.333-.971-.579-.648-.868-1.464-.868-2.449 0-1.031.297-1.874.895-2.531.598-.657 1.402-.985 2.413-.985.978 0 1.76.324 2.356.971.564.629.848 1.441.848 2.435zm-1.534.048c0-.613-.133-1.139-.397-1.577-.309-.531-.752-.796-1.325-.796-.595 0-1.047.265-1.355.796-.265.438-.397.974-.397 1.604 0 .614.132 1.139.397 1.579.319.53.765.795 1.341.795.565 0 1.005-.27 1.325-.809.275-.448.411-.979.411-1.592z" fill="#fff" sketch:type="MSShapeGroup"/><path d="M116.385 21.607h-1.328l-.11-.766h-.041c-.455.611-1.102.916-1.942.916-.628 0-1.135-.201-1.518-.602-.347-.364-.521-.816-.521-1.354 0-.812.339-1.432 1.019-1.861.681-.428 1.637-.638 2.868-.629v-.124c0-.875-.46-1.313-1.38-1.313-.656 0-1.234.165-1.733.492l-.3-.971c.617-.383 1.38-.574 2.281-.574 1.738 0 2.609.917 2.609 2.75v2.449c0 .665.033 1.195.096 1.587zm-1.534-2.285v-1.026c-1.631-.027-2.447.419-2.447 1.34 0 .347.094.607.284.781.19.172.433.259.722.259.325 0 .628-.102.903-.308.279-.205.449-.467.513-.786l.025-.26z" fill="#fff" sketch:type="MSShapeGroup"/><path d="M124.784 21.607h-1.311l-.069-1.068h-.041c-.419.812-1.132 1.218-2.135 1.218-.802 0-1.468-.314-1.997-.944-.529-.629-.794-1.445-.794-2.449 0-1.076.287-1.947.863-2.613.556-.62 1.239-.93 2.052-.93.892 0 1.518.301 1.873.903h.028v-3.817h1.479v7.908c0 .647.017 1.244.052 1.792zm-1.531-2.805v-1.108c0-.192-.014-.347-.042-.465-.082-.356-.261-.655-.534-.896-.276-.242-.606-.363-.989-.363-.551 0-.984.219-1.3.657-.314.438-.474.998-.474 1.682 0 .657.151 1.191.454 1.601.32.438.752.657 1.292.657.485 0 .874-.183 1.168-.547.284-.338.425-.744.425-1.218z" fill="#fff" sketch:type="MSShapeGroup"/><path d="M137.426 18.227c0 1.022-.292 1.861-.876 2.517-.612.676-1.422 1.013-2.435 1.013-.976 0-1.753-.323-2.334-.971-.578-.648-.867-1.464-.867-2.449 0-1.031.297-1.874.895-2.531.598-.657 1.402-.985 2.416-.985.975 0 1.76.324 2.352.971.565.629.849 1.441.849 2.435zm-1.532.048c0-.613-.132-1.139-.397-1.577-.311-.531-.752-.796-1.327-.796-.593 0-1.044.265-1.356.796-.264.438-.396.974-.396 1.604 0 .614.132 1.139.396 1.579.32.53.766.795 1.342.795.565 0 1.008-.27 1.328-.809.273-.448.41-.979.41-1.592z" fill="#fff" sketch:type="MSShapeGroup"/><path d="M145.373 21.607h-1.476v-3.808c0-1.174-.447-1.76-1.342-1.76-.438 0-.793.161-1.066.484-.273.323-.41.703-.41 1.139v3.945h-1.48v-4.747c0-.585-.016-1.218-.052-1.903h1.297l.069 1.04h.042c.173-.323.429-.591.766-.803.402-.248.848-.373 1.341-.373.62 0 1.135.2 1.545.602.513.492.766 1.227.766 2.202v3.982" fill="#fff" sketch:type="MSShapeGroup"/><path d="M155.32 16.065h-1.627v3.23c0 .821.289 1.231.862 1.231.264 0 .485-.023.658-.069l.039 1.122c-.292.109-.675.165-1.149.165-.584 0-1.039-.179-1.366-.534-.331-.356-.494-.953-.494-1.792v-3.353h-.972v-1.108h.972v-1.217l1.45-.438v1.655h1.627v1.108" fill="#fff" sketch:type="MSShapeGroup"/><path d="M163.147 21.607h-1.48v-3.781c0-1.192-.446-1.787-1.338-1.787-.686 0-1.154.345-1.411 1.037-.044.145-.069.323-.069.532v3.999h-1.476v-9.7h1.476v4.007h.028c.465-.729 1.132-1.093 1.997-1.093.612 0 1.119.2 1.521.602.501.501.752 1.245.752 2.23v3.954" fill="#fff" sketch:type="MSShapeGroup"/><path d="M171.218 17.967c0 .265-.019.488-.055.671h-4.432c.019.657.231 1.158.642 1.504.374.311.859.466 1.451.466.656 0 1.254-.105 1.794-.315l.231 1.026c-.631.274-1.372.411-2.231.411-1.031 0-1.84-.303-2.427-.91-.59-.607-.882-1.421-.882-2.442 0-1.003.273-1.838.821-2.504.573-.711 1.347-1.067 2.325-1.067.956 0 1.683.356 2.174 1.067.394.566.589 1.264.589 2.093zm-1.41-.382c.011-.438-.086-.817-.287-1.136-.256-.41-.647-.616-1.176-.616-.482 0-.876.201-1.176.602-.245.32-.391.703-.438 1.15h3.077z" fill="#fff" sketch:type="MSShapeGroup"/></g></svg>