<svg width="26" height="21" viewBox="0 0 26 21" xmlns="http://www.w3.org/2000/svg" xmlns:sketch="http://www.bohemiancoding.com/sketch/ns"><title>audio</title><desc>Created with Sketch.</desc><g sketch:type="MSLayerGroup" fill="#4A4A4A"><path d="M16.025 6.404l-1.422 1.422c.732.725 1.186 1.73 1.186 2.842 0 1.111-.454 2.117-1.186 2.842l1.422 1.422c1.09-1.092 1.765-2.599 1.765-4.264s-.674-3.172-1.765-4.264zM21.79 10.668c0-2.769-1.125-5.275-2.943-7.086l-1.407 1.407c1.452 1.454 2.35 3.461 2.35 5.678s-.898 4.224-2.35 5.678l1.407 1.408c1.818-1.811 2.943-4.317 2.943-7.086zM25.791 10.668c0-3.874-1.573-7.38-4.115-9.915l-1.415 1.414c2.18 2.173 3.529 5.179 3.529 8.5 0 3.321-1.349 6.327-3.529 8.5l1.415 1.415c2.542-2.535 4.115-6.041 4.115-9.915zM.889 14.668h5.271l5.729 5.302v-18.604l-5.621 5.302h-5.379v8z" sketch:type="MSShapeGroup"/></g></svg>