<svg width="191" height="63" viewBox="0 0 191 63" xmlns="http://www.w3.org/2000/svg" xmlns:xlink="http://www.w3.org/1999/xlink" xmlns:sketch="http://www.bohemiancoding.com/sketch/ns"><title>GooglePlay</title><desc>Created with Sketch.</desc><defs><path id="a" d="M27.733 15.005l-8.576-4.951s-15.623-9.021-16.542-9.552c-.919-.53-1.833-.209-1.833.899v38.914c0 .831.654 1.189 1.452.728l16.924-9.772 8.576-4.951s7.276-4.201 8.244-4.759c.967-.559.874-1.325.058-1.764-.818-.439-8.303-4.792-8.303-4.792z"/><linearGradient x1="50%" y1="0%" x2="50%" y2="100.001%" id="b"><stop stop-color="#007BB3" offset="0%"/><stop stop-color="#3494B8" offset="28.63%"/><stop stop-color="#63C0BD" offset="76.7%"/><stop stop-color="#73D5BF" offset="100%"/></linearGradient><path id="d" d="M27.733 15.005l-8.576-4.951s-15.623-9.021-16.542-9.552c-.919-.53-1.833-.209-1.833.899v38.914c0 .831.654 1.189 1.452.728l16.924-9.772 8.576-4.951s7.276-4.201 8.244-4.759c.967-.559.874-1.325.058-1.764-.818-.439-8.303-4.792-8.303-4.792z"/><linearGradient x1="0%" y1="49.999%" x2="99.998%" y2="49.999%" id="e"><stop stop-color="#00C8AF" offset="0%"/><stop stop-color="#D9EE96" offset="100%"/></linearGradient><path id="g" d="M27.733 15.005l-8.576-4.951s-15.623-9.021-16.542-9.552c-.919-.53-1.833-.209-1.833.899v38.914c0 .831.654 1.189 1.452.728l16.924-9.772 8.576-4.951s7.276-4.201 8.244-4.759c.967-.559.874-1.325.058-1.764-.818-.439-8.303-4.792-8.303-4.792z"/><linearGradient x1="50%" y1="0%" x2="50%" y2="99.999%" id="h"><stop stop-color="#FE0026" offset="0%"/><stop stop-color="#EA0B47" offset="16.68%"/><stop stop-color="#BE2B77" offset="57.48%"/><stop stop-color="#A23192" offset="86.19%"/><stop stop-color="#96329E" offset="100%"/></linearGradient><path id="j" d="M27.733 15.005l-8.576-4.951s-15.623-9.021-16.542-9.552c-.919-.53-1.833-.209-1.833.899v38.914c0 .831.654 1.189 1.452.728l16.924-9.772 8.576-4.951s7.276-4.201 8.244-4.759c.967-.559.874-1.325.058-1.764-.818-.439-8.303-4.792-8.303-4.792z"/><linearGradient x1="50.001%" y1="-.003%" x2="50.001%" y2="99.997%" id="k"><stop stop-color="#FF7A71" offset="0%"/><stop stop-color="#FF8571" offset="11.94%"/><stop stop-color="#FFB56E" offset="71.28%"/><stop stop-color="#FFC76B" offset="100%"/></linearGradient></defs><g sketch:type="MSLayerGroup" fill="none"><path d="M190.515 54.24c0 4.627-3.76 8.379-8.397 8.379h-173.203c-4.638 0-8.399-3.752-8.399-8.379v-45.242c0-4.627 3.761-8.379 8.399-8.379h173.203c4.637 0 8.397 3.752 8.397 8.379v45.242z" id="Shape" fill="#1A1919" sketch:type="MSShapeGroup"/><g><g id="Clipped" transform="translate(14 11)"><mask id="c" sketch:name="SVGID_1_"><use xlink:href="#a"/></mask><path d="M.781-.403v42.131l21.245-21.065-21.245-21.066z" id="Shape" fill="url(#b)" sketch:type="MSShapeGroup" mask="url(#c)"/></g><g id="Clipped" transform="translate(14 11)"><mask id="f" sketch:name="SVGID_1_"><use xlink:href="#d"/></mask><path d="M27.733 15.005l-8.576-4.952-18.376-10.609v.153l21.245 21.066 5.707-5.658z" id="Shape" fill="url(#e)" sketch:type="MSShapeGroup" mask="url(#f)"/></g><g id="Clipped" transform="translate(14 11)"><mask id="i" sketch:name="SVGID_1_"><use xlink:href="#g"/></mask><path d="M.781 41.728v.154l18.376-10.61 8.575-4.951-5.706-5.658-21.245 21.065z" id="Shape" fill="url(#h)" sketch:type="MSShapeGroup" mask="url(#i)"/></g><g transform="translate(14 11)"><mask id="l" sketch:name="SVGID_1_"><use xlink:href="#j"/></mask><path d="M27.733 15.005l-5.707 5.658 5.706 5.658 9.801-5.658-9.8-5.658z" id="Shape" fill="url(#k)" sketch:type="MSShapeGroup" mask="url(#l)"/></g></g><g id="Group" fill="#F9F9F9" sketch:type="MSShapeGroup"><path d="M148.533 39.899c-.798 0-1.526-.147-2.185-.441-.659-.295-1.213-.747-1.661-1.358h-.134c.089.715.134 1.394.134 2.034v5.042h-1.855v-17.754h1.509l.257 1.677h.089c.478-.671 1.033-1.155 1.666-1.453.633-.298 1.36-.447 2.18-.447 1.625 0 2.879.556 3.762 1.666.883 1.11 1.325 2.668 1.325 4.673 0 2.012-.449 3.575-1.347 4.691-.898 1.113-2.144 1.67-3.74 1.67zm-.268-11.124c-1.252 0-2.157.347-2.716 1.04-.559.693-.846 1.796-.861 3.31v.413c0 1.722.287 2.954.861 3.695.574.742 1.495 1.112 2.761 1.112 1.059 0 1.888-.428 2.489-1.285.6-.857.899-2.038.899-3.545 0-1.527-.3-2.7-.899-3.516-.601-.816-1.446-1.224-2.534-1.224zM157.917 39.675h-1.856v-17.395h1.856v17.395zM168.586 39.675l-.369-1.744h-.089c-.611.768-1.22 1.288-1.828 1.56-.607.273-1.366.408-2.275.408-1.215 0-2.167-.313-2.856-.939-.69-.626-1.034-1.516-1.034-2.672 0-2.474 1.979-3.771 5.936-3.891l2.08-.067v-.76c0-.962-.207-1.672-.621-2.129-.413-.459-1.076-.688-1.984-.688-1.022 0-2.177.313-3.466.939l-.57-1.42c.604-.328 1.265-.585 1.985-.771.719-.186 1.44-.28 2.163-.28 1.461 0 2.543.324 3.248.972.704.649 1.056 1.688 1.056 3.119v8.362h-1.376v.001zm-4.192-1.308c1.155 0 2.062-.317 2.722-.95.659-.633.99-1.52.99-2.661v-1.106l-1.857.078c-1.475.053-2.539.281-3.192.688-.652.406-.978 1.038-.978 1.895 0 .67.203 1.181.609 1.531.407.35.975.525 1.706.525zM171.038 27.422h1.989l2.683 6.987c.589 1.595.954 2.746 1.096 3.455h.089c.097-.381.3-1.031.609-1.952s1.321-3.75 3.035-8.49h1.991l-5.266 13.952c-.521 1.379-1.131 2.357-1.828 2.936-.696.577-1.552.865-2.565.865-.567 0-1.126-.063-1.678-.19v-1.487c.41.089.869.134 1.376.134 1.275 0 2.183-.715 2.728-2.147l.682-1.744-4.941-12.319z" id="Shape"/></g><g id="Group" fill="#F9F9F9" sketch:type="MSShapeGroup"><path d="M114.156 28.561c.589.487 1.819 1.512 1.819 3.46 0 1.895-1.076 2.794-2.153 3.639-.333.333-.718.693-.718 1.257 0 .562.384.87.667 1.101l.923.716c1.128.949 2.152 1.82 2.152 3.59 0 2.409-2.332 4.843-6.739 4.843-3.717 0-5.51-1.768-5.51-3.666 0-.922.459-2.229 1.973-3.127 1.588-.974 3.742-1.101 4.895-1.179-.36-.461-.769-.948-.769-1.741 0-.435.129-.692.256-1.001-.283.026-.564.052-.821.052-2.716 0-4.253-2.025-4.253-4.023 0-1.179.539-2.487 1.64-3.434 1.461-1.205 3.204-1.41 4.589-1.41h5.278l-1.64.923h-1.589zm-1.82 11.379c-.205-.027-.334-.027-.589-.027-.231 0-1.616.052-2.692.412-.564.203-2.204.819-2.204 2.639 0 1.819 1.769 3.128 4.512 3.128 2.459 0 3.767-1.181 3.767-2.769 0-1.309-.846-1.998-2.794-3.383zm.743-4.87c.589-.59.639-1.409.639-1.871 0-1.845-1.101-4.715-3.228-4.715-.667 0-1.384.333-1.794.846-.435.538-.564 1.229-.564 1.896 0 1.717 1 4.562 3.205 4.562.64 0 1.331-.307 1.742-.718zM98.022 39.53c-4.068 0-6.243-3.173-6.243-6.039 0-3.352 2.737-6.216 6.628-6.216 3.76 0 6.114 2.941 6.114 6.038 0 3.017-2.328 6.217-6.499 6.217zm3.197-2.072c.615-.82.769-1.843.769-2.841 0-2.252-1.075-6.55-4.248-6.55-.844 0-1.688.333-2.302.872-.998.894-1.178 2.02-1.178 3.122 0 2.531 1.254 6.701 4.351 6.701.997-.001 2.021-.486 2.608-1.304zM84.153 39.53c-4.069 0-6.244-3.173-6.244-6.039 0-3.352 2.738-6.216 6.628-6.216 3.761 0 6.114 2.941 6.114 6.038.001 3.017-2.327 6.217-6.498 6.217zm3.199-2.072c.614-.82.768-1.843.768-2.841 0-2.252-1.075-6.55-4.248-6.55-.844 0-1.689.333-2.302.872-.998.894-1.177 2.02-1.177 3.122 0 2.531 1.253 6.701 4.35 6.701.998-.001 2.021-.486 2.609-1.304zM75.955 39.129l-3.679.849c-1.493.232-2.83.436-4.244.436-7.101 0-9.801-5.222-9.801-9.313 0-4.99 3.832-9.619 10.393-9.619 1.39 0 2.726.205 3.935.54 1.929.54 2.83 1.209 3.396 1.595l-2.135 2.033-.9.205.643-1.029c-.874-.848-2.47-2.417-5.505-2.417-4.065 0-7.126 3.088-7.126 7.59 0 4.835 3.499 9.388 9.106 9.388 1.648 0 2.495-.334 3.267-.643v-4.141l-3.884.206 2.057-1.107h5.454l-.668.643c-.181.155-.206.207-.258.411-.027.232-.051.979-.051 1.236v3.137zM122.286 38.388c-.849-.077-1.027-.231-1.027-1.235v-14.559999999999999l.014-.166c.104-.9.361-1.054 1.159-1.518h-3.68l-1.93.926h1.967v.012l-.001-.009v15.882c0 .513-.102.592-.694 1.362h4.554l.952-.564-1.314-.13zM132.754 38.625c-.28.154-.561.333-.841.46-.845.383-1.713.485-2.481.485-.816 0-2.094-.053-3.398-.997-1.812-1.278-2.604-3.475-2.604-5.391 0-3.959 3.219-5.901 5.85-5.901.92 0 1.866.229 2.633.716 1.276.841 1.608 1.94 1.786 2.528l-6.002 2.428-1.967.153c.638 3.244 2.835 5.133 5.263 5.133 1.303 0 2.248-.459 3.116-.893l-1.355 1.279zm-2.401-7.614c.484-.178.74-.332.74-.689 0-1.021-1.149-2.197-2.53-2.197-1.023 0-2.938.792-2.938 3.551 0 .434.051.894.078 1.355l4.65-2.02z" id="Shape"/><g id="Shape"><path d="M135.22 27.457v1.686h-.205v-1.686h-.558v-.175h1.32v.175h-.557zM137.518 29.143v-1.701h-.009l-.519 1.701h-.16l-.524-1.701h-.007v1.701h-.186v-1.86h.319l.474 1.504h.007l.467-1.504h.323v1.86h-.185z"/></g></g><g fill="#F9F9FA" sketch:type="MSShapeGroup"><path d="M63.341 16.474h-1.278c0-.176-.121-.674-.364-1.494h-1.845c-.25.807-.375 1.305-.375 1.494h-1.202c0-.104.311-.956.933-2.556.622-1.6.933-2.482.933-2.644h1.51c0 .152.282 1.02.845 2.606.561 1.585.843 2.45.843 2.594zm-1.846-2.257c-.455-1.374-.683-2.117-.683-2.229h-.064c0 .104-.236.847-.707 2.229h1.454zM68.491 16.474h-.987c0-.109-.366-.686-1.098-1.73-.767-1.1-1.204-1.852-1.31-2.257h-.064c.066.583.1 1.11.1 1.582 0 .658.019 1.459.056 2.405h-.983c.04-.825.06-1.732.06-2.72 0-.972-.02-1.799-.06-2.481h1.186c0 .141.329.705.987 1.69.7 1.047 1.102 1.756 1.206 2.129h.06c-.064-.594-.096-1.126-.096-1.598 0-.722-.019-1.462-.056-2.221h.999c-.037.661-.056 1.487-.056 2.481 0 1 .019 1.907.056 2.72zM74.281 13.693c0 .756-.242 1.417-.727 1.981-.485.565-1.164.847-2.037.847-.394 0-.937-.016-1.63-.048.035-.804.052-1.711.052-2.72 0-.969-.017-1.796-.052-2.481h.699l.511-.012.443-.012c.961 0 1.658.24 2.091.719.434.48.65 1.055.65 1.726zm-1.091.172c0-.511-.149-.942-.447-1.292-.298-.35-.754-.525-1.366-.525-.115 0-.272.012-.471.036.027.533.04 1.089.04 1.67 0 .637.013 1.268.04 1.893.173.035.346.052.519.052.573 0 .997-.178 1.272-.533.276-.356.413-.79.413-1.301zM79.619 16.474h-1.182c-.309-.943-.546-1.524-.711-1.746-.165-.221-.431-.332-.799-.332l-.443.004c0 .685.012 1.376.036 2.073h-1.11c.035-.804.052-1.711.052-2.72 0-.969-.017-1.796-.052-2.481h.69l.501-.012.705-.012c1.222 0 1.833.418 1.833 1.254 0 .663-.349 1.125-1.047 1.386v.06c.269.074.505.284.707.629.204.346.477.978.82 1.897zm-1.498-3.675c0-.53-.341-.795-1.023-.795-.25 0-.471.019-.663.056.029.413.044.951.044 1.614l.372.008c.847-.001 1.27-.295 1.27-.883zM85.345 13.777c0 .817-.25 1.495-.751 2.033-.501.538-1.12.807-1.857.807-.703 0-1.292-.247-1.766-.741s-.711-1.122-.711-1.883c0-.817.25-1.495.751-2.033.501-.538 1.12-.807 1.857-.807.703 0 1.291.246 1.766.739.474.493.711 1.121.711 1.885zm-1.102.116c0-.557-.143-1.008-.427-1.354-.285-.346-.637-.519-1.055-.519-.389 0-.719.174-.991.523-.272.349-.407.789-.407 1.322 0 .554.143 1.004.429 1.352.286.347.637.521 1.053.521.389 0 .719-.175.991-.525.271-.35.407-.79.407-1.32zM87.604 16.474h-1.13c.035-.825.052-1.732.052-2.72 0-.972-.017-1.799-.052-2.481h1.13c-.035.671-.052 1.498-.052 2.481 0 1.003.017 1.91.052 2.72zM93.394 13.693c0 .756-.242 1.417-.727 1.981-.485.565-1.164.847-2.037.847-.394 0-.937-.016-1.63-.048.034-.804.052-1.711.052-2.72 0-.969-.017-1.796-.052-2.481h.699l.511-.012.443-.012c.961 0 1.658.24 2.091.719.433.48.65 1.055.65 1.726zm-1.091.172c0-.511-.149-.942-.447-1.292-.298-.35-.754-.525-1.366-.525-.115 0-.272.012-.471.036.027.533.04 1.089.04 1.67 0 .637.013 1.268.04 1.893.173.035.346.052.519.052.573 0 .997-.178 1.272-.533.275-.356.413-.79.413-1.301zM101.074 16.474h-1.278c0-.176-.121-.674-.364-1.494h-1.845c-.25.807-.375 1.305-.375 1.494h-1.202c0-.104.311-.956.933-2.556.622-1.6.933-2.482.933-2.644h1.51c0 .152.282 1.02.845 2.606.562 1.585.843 2.45.843 2.594zm-1.845-2.257c-.455-1.374-.683-2.117-.683-2.229h-.064c0 .104-.235.847-.707 2.229h1.454zM105.734 12.635c0 .637-.236 1.106-.709 1.41-.472.304-1.052.455-1.739.455l-.268-.008c0 .501.015 1.161.044 1.981h-1.122c.035-.77.052-1.676.052-2.72 0-.959-.017-1.786-.052-2.481h.695l.567-.012.727-.012c.506 0 .933.114 1.282.344.349.229.523.577.523 1.043zm-1.031.219c0-.57-.378-.855-1.134-.855-.189 0-.389.02-.599.06.029.503.044 1.073.044 1.71l.232.008c.971 0 1.457-.307 1.457-.923zM110.525 12.635c0 .637-.236 1.106-.709 1.41-.473.304-1.053.455-1.74.455l-.268-.008c0 .501.015 1.161.044 1.981h-1.122c.035-.77.052-1.676.052-2.72 0-.959-.017-1.786-.052-2.481h.695l.567-.012.727-.012c.506 0 .933.114 1.282.344.349.229.524.577.524 1.043zm-1.031.219c0-.57-.378-.855-1.134-.855-.189 0-.389.02-.599.06.029.503.044 1.073.044 1.71l.232.008c.971 0 1.457-.307 1.457-.923zM118.357 13.777c0 .817-.25 1.495-.751 2.033-.501.538-1.12.807-1.857.807-.703 0-1.292-.247-1.766-.741s-.711-1.122-.711-1.883c0-.817.25-1.495.751-2.033.501-.538 1.12-.807 1.857-.807.703 0 1.292.246 1.766.739s.711 1.121.711 1.885zm-1.102.116c0-.557-.142-1.008-.427-1.354-.285-.346-.637-.519-1.055-.519-.389 0-.719.174-.991.523-.272.349-.407.789-.407 1.322 0 .554.143 1.004.43 1.352.286.347.637.521 1.052.521.389 0 .719-.175.991-.525.271-.35.407-.79.407-1.32zM123.772 16.474h-.987c0-.109-.366-.686-1.098-1.73-.767-1.1-1.204-1.852-1.31-2.257h-.064c.066.583.1 1.11.1 1.582 0 .658.019 1.459.056 2.405h-.983c.04-.825.06-1.732.06-2.72 0-.972-.02-1.799-.06-2.481h1.186c0 .141.329.705.987 1.69.7 1.047 1.102 1.756 1.206 2.129h.06c-.064-.594-.096-1.126-.096-1.598 0-.722-.019-1.462-.056-2.221h.999c-.037.661-.056 1.487-.056 2.481 0 1 .018 1.907.056 2.72z"/></g></g></svg>