<?xml version="1.0" encoding="UTF-8" standalone="no"?>
<svg width="191px" height="63px" viewBox="0 0 191 63" version="1.1" xmlns="http://www.w3.org/2000/svg" xmlns:xlink="http://www.w3.org/1999/xlink" xmlns:sketch="http://www.bohemiancoding.com/sketch/ns">
    <!-- Generator: Sketch 3.2.2 (9983) - http://www.bohemiancoding.com/sketch -->
    <title>GooglePlay</title>
    <desc>Created with Sketch.</desc>
    <defs>
        <path id="path-1" d="M27.733,15.005 L19.157,10.054 C19.157,10.054 3.534,1.033 2.615,0.502 C1.696,-0.028 0.782,0.293 0.782,1.401 L0.782,20.663 L0.782,40.315 C0.782,41.146 1.436,41.504 2.234,41.043 C3.032,40.582 19.158,31.271 19.158,31.271 L27.734,26.32 C27.734,26.32 35.01,22.119 35.978,21.561 C36.945,21.002 36.852,20.236 36.036,19.797 C35.218,19.358 27.733,15.005 27.733,15.005 L27.733,15.005 Z"></path>
        <linearGradient x1="50.0004707%" y1="-0.000237354917%" x2="50.0004707%" y2="100.001187%" id="linearGradient-3">
            <stop stop-color="#007BB3" offset="0%"></stop>
            <stop stop-color="#3494B8" offset="28.63%"></stop>
            <stop stop-color="#63C0BD" offset="76.7%"></stop>
            <stop stop-color="#73D5BF" offset="100%"></stop>
        </linearGradient>
        <path id="path-4" d="M27.733,15.005 L19.157,10.054 C19.157,10.054 3.534,1.033 2.615,0.502 C1.696,-0.028 0.782,0.293 0.782,1.401 L0.782,20.663 L0.782,40.315 C0.782,41.146 1.436,41.504 2.234,41.043 C3.032,40.582 19.158,31.271 19.158,31.271 L27.734,26.32 C27.734,26.32 35.01,22.119 35.978,21.561 C36.945,21.002 36.852,20.236 36.036,19.797 C35.218,19.358 27.733,15.005 27.733,15.005 L27.733,15.005 Z"></path>
        <linearGradient x1="0%" y1="49.9990574%" x2="99.9981449%" y2="49.9990574%" id="linearGradient-6">
            <stop stop-color="#00C8AF" offset="0%"></stop>
            <stop stop-color="#D9EE96" offset="100%"></stop>
        </linearGradient>
        <path id="path-7" d="M27.733,15.005 L19.157,10.054 C19.157,10.054 3.534,1.033 2.615,0.502 C1.696,-0.028 0.782,0.293 0.782,1.401 L0.782,20.663 L0.782,40.315 C0.782,41.146 1.436,41.504 2.234,41.043 C3.032,40.582 19.158,31.271 19.158,31.271 L27.734,26.32 C27.734,26.32 35.01,22.119 35.978,21.561 C36.945,21.002 36.852,20.236 36.036,19.797 C35.218,19.358 27.733,15.005 27.733,15.005 L27.733,15.005 Z"></path>
        <linearGradient x1="50.000371%" y1="0.000471275743%" x2="50.000371%" y2="99.9985862%" id="linearGradient-9">
            <stop stop-color="#FE0026" offset="0%"></stop>
            <stop stop-color="#EA0B47" offset="16.68%"></stop>
            <stop stop-color="#BE2B77" offset="57.48%"></stop>
            <stop stop-color="#A23192" offset="86.19%"></stop>
            <stop stop-color="#96329E" offset="100%"></stop>
        </linearGradient>
        <path id="path-10" d="M27.733,15.005 L19.157,10.054 C19.157,10.054 3.534,1.033 2.615,0.502 C1.696,-0.028 0.782,0.293 0.782,1.401 L0.782,20.663 L0.782,40.315 C0.782,41.146 1.436,41.504 2.234,41.043 C3.032,40.582 19.158,31.271 19.158,31.271 L27.734,26.32 C27.734,26.32 35.01,22.119 35.978,21.561 C36.945,21.002 36.852,20.236 36.036,19.797 C35.218,19.358 27.733,15.005 27.733,15.005 L27.733,15.005 Z"></path>
        <linearGradient x1="50.0006449%" y1="-0.00265111347%" x2="50.0006449%" y2="99.9973489%" id="linearGradient-12">
            <stop stop-color="#FF7A71" offset="0%"></stop>
            <stop stop-color="#FF8571" offset="11.94%"></stop>
            <stop stop-color="#FFB56E" offset="71.28%"></stop>
            <stop stop-color="#FFC76B" offset="100%"></stop>
        </linearGradient>
    </defs>
    <g id="Page-1" stroke="none" stroke-width="1" fill="none" fill-rule="evenodd" sketch:type="MSPage">
        <g id="GooglePlay" sketch:type="MSLayerGroup">
            <path d="M190.515,54.240056 C190.515,58.8670109 186.754839,62.619 182.117574,62.619 L8.91442375,62.619 C4.27615966,62.619 0.515,58.8670109 0.515,54.240056 L0.515,8.99794398 C0.515,4.37098907 4.27615966,0.619 8.91442375,0.619 L182.117574,0.619 C186.754839,0.619 190.515,4.37098907 190.515,8.99794398 L190.515,54.240056 L190.515,54.240056 Z" id="Shape" fill="#1A1919" sketch:type="MSShapeGroup"></path>
            <g id="PLAY_1_" transform="translate(14.000000, 11.000000)">
                <g id="Clipped">
                    <mask id="mask-2" sketch:name="SVGID_1_" fill="white">
                        <use xlink:href="#path-1"></use>
                    </mask>
                    <g id="SVGID_1_"></g>
                    <path d="M0.781,-0.403 L0.781,20.663 L0.781,41.728 L22.026,20.663 L0.781,-0.403 Z" id="Shape" fill="url(#linearGradient-3)" sketch:type="MSShapeGroup" mask="url(#mask-2)"></path>
                </g>
                <g id="Clipped">
                    <mask id="mask-5" sketch:name="SVGID_1_" fill="white">
                        <use xlink:href="#path-4"></use>
                    </mask>
                    <g id="SVGID_1_"></g>
                    <path d="M27.733,15.005 L19.157,10.053 L0.781,-0.556 L0.781,-0.403 L22.026,20.663 L27.733,15.005 Z" id="Shape" fill="url(#linearGradient-6)" sketch:type="MSShapeGroup" mask="url(#mask-5)"></path>
                </g>
                <g id="Clipped">
                    <mask id="mask-8" sketch:name="SVGID_1_" fill="white">
                        <use xlink:href="#path-7"></use>
                    </mask>
                    <g id="SVGID_1_"></g>
                    <path d="M0.781,41.728 L0.781,41.882 L19.157,31.272 L27.732,26.321 L22.026,20.663 L0.781,41.728 Z" id="Shape" fill="url(#linearGradient-9)" sketch:type="MSShapeGroup" mask="url(#mask-8)"></path>
                </g>
                <g id="Clipped">
                    <mask id="mask-11" sketch:name="SVGID_1_" fill="white">
                        <use xlink:href="#path-10"></use>
                    </mask>
                    <g id="SVGID_1_"></g>
                    <path d="M27.733,15.005 L22.026,20.663 L27.732,26.321 L37.533,20.663 L27.733,15.005 Z" id="Shape" fill="url(#linearGradient-12)" sketch:type="MSShapeGroup" mask="url(#mask-11)"></path>
                </g>
            </g>
            <g id="Group" transform="translate(142.000000, 22.000000)" fill="#F9F9F9" sketch:type="MSShapeGroup">
                <path d="M6.533,17.899 C5.735,17.899 5.007,17.752 4.348,17.458 C3.689,17.163 3.135,16.711 2.687,16.1 L2.553,16.1 C2.642,16.815 2.687,17.494 2.687,18.134 L2.687,23.176 L0.832,23.176 L0.832,5.422 L2.341,5.422 L2.598,7.099 L2.687,7.099 C3.165,6.428 3.72,5.944 4.353,5.646 C4.986,5.348 5.713,5.199 6.533,5.199 C8.158,5.199 9.412,5.755 10.295,6.865 C11.178,7.975 11.62,9.533 11.62,11.538 C11.62,13.55 11.171,15.113 10.273,16.229 C9.375,17.342 8.129,17.899 6.533,17.899 L6.533,17.899 Z M6.265,6.775 C5.013,6.775 4.108,7.122 3.549,7.815 C2.99,8.508 2.703,9.611 2.688,11.125 L2.688,11.538 C2.688,13.26 2.975,14.492 3.549,15.233 C4.123,15.975 5.044,16.345 6.31,16.345 C7.369,16.345 8.198,15.917 8.799,15.06 C9.399,14.203 9.698,13.022 9.698,11.515 C9.698,9.988 9.398,8.815 8.799,7.999 C8.198,7.183 7.353,6.775 6.265,6.775 L6.265,6.775 Z" id="Shape"></path>
                <path d="M15.917,17.675 L14.061,17.675 L14.061,0.28 L15.917,0.28 L15.917,17.675 L15.917,17.675 Z" id="Shape"></path>
                <path d="M26.586,17.675 L26.217,15.931 L26.128,15.931 C25.517,16.699 24.908,17.219 24.3,17.491 C23.693,17.764 22.934,17.899 22.025,17.899 C20.81,17.899 19.858,17.586 19.169,16.96 C18.479,16.334 18.135,15.444 18.135,14.288 C18.135,11.814 20.114,10.517 24.071,10.397 L26.151,10.33 L26.151,9.57 C26.151,8.608 25.944,7.898 25.53,7.441 C25.117,6.982 24.454,6.753 23.546,6.753 C22.524,6.753 21.369,7.066 20.08,7.692 L19.51,6.272 C20.114,5.944 20.775,5.687 21.495,5.501 C22.214,5.315 22.935,5.221 23.658,5.221 C25.119,5.221 26.201,5.545 26.906,6.193 C27.61,6.842 27.962,7.881 27.962,9.312 L27.962,17.674 L26.586,17.674 L26.586,17.675 Z M22.394,16.367 C23.549,16.367 24.456,16.05 25.116,15.417 C25.775,14.784 26.106,13.897 26.106,12.756 L26.106,11.65 L24.249,11.728 C22.774,11.781 21.71,12.009 21.057,12.416 C20.405,12.822 20.079,13.454 20.079,14.311 C20.079,14.981 20.282,15.492 20.688,15.842 C21.095,16.192 21.663,16.367 22.394,16.367 L22.394,16.367 Z" id="Shape"></path>
                <path d="M29.038,5.422 L31.027,5.422 L33.71,12.409 C34.299,14.004 34.664,15.155 34.806,15.864 L34.895,15.864 C34.992,15.483 35.195,14.833 35.504,13.912 C35.813,12.991 36.825,10.162 38.539,5.422 L40.53,5.422 L35.264,19.374 C34.743,20.753 34.133,21.731 33.436,22.31 C32.74,22.887 31.884,23.175 30.871,23.175 C30.304,23.175 29.745,23.112 29.193,22.985 L29.193,21.498 C29.603,21.587 30.062,21.632 30.569,21.632 C31.844,21.632 32.752,20.917 33.297,19.485 L33.979,17.741 L29.038,5.422 L29.038,5.422 Z" id="Shape"></path>
            </g>
            <g id="Group" transform="translate(58.000000, 20.000000)" fill="#F9F9F9" sketch:type="MSShapeGroup">
                <path d="M56.156,8.561 C56.745,9.048 57.975,10.073 57.975,12.021 C57.975,13.916 56.899,14.815 55.822,15.66 C55.489,15.993 55.104,16.353 55.104,16.917 C55.104,17.479 55.488,17.787 55.771,18.018 L56.694,18.734 C57.822,19.683 58.846,20.554 58.846,22.324 C58.846,24.733 56.514,27.167 52.107,27.167 C48.39,27.167 46.597,25.399 46.597,23.501 C46.597,22.579 47.056,21.272 48.57,20.374 C50.158,19.4 52.312,19.273 53.465,19.195 C53.105,18.734 52.696,18.247 52.696,17.454 C52.696,17.019 52.825,16.762 52.952,16.453 C52.669,16.479 52.388,16.505 52.131,16.505 C49.415,16.505 47.878,14.48 47.878,12.482 C47.878,11.303 48.417,9.995 49.518,9.048 C50.979,7.843 52.722,7.638 54.107,7.638 L59.385,7.638 L57.745,8.561 L56.156,8.561 L56.156,8.561 Z M54.336,19.94 C54.131,19.913 54.002,19.913 53.747,19.913 C53.516,19.913 52.131,19.965 51.055,20.325 C50.491,20.528 48.851,21.144 48.851,22.964 C48.851,24.783 50.62,26.092 53.363,26.092 C55.822,26.092 57.13,24.911 57.13,23.323 C57.13,22.014 56.284,21.325 54.336,19.94 L54.336,19.94 Z M55.079,15.07 C55.668,14.48 55.718,13.661 55.718,13.199 C55.718,11.354 54.617,8.484 52.49,8.484 C51.823,8.484 51.106,8.817 50.696,9.33 C50.261,9.868 50.132,10.559 50.132,11.226 C50.132,12.943 51.132,15.788 53.337,15.788 C53.977,15.788 54.668,15.481 55.079,15.07 L55.079,15.07 Z" id="Shape"></path>
                <path d="M40.022,19.53 C35.954,19.53 33.779,16.357 33.779,13.491 C33.779,10.139 36.516,7.275 40.407,7.275 C44.167,7.275 46.521,10.216 46.521,13.313 C46.521,16.33 44.193,19.53 40.022,19.53 L40.022,19.53 Z M43.219,17.458 C43.834,16.638 43.988,15.615 43.988,14.617 C43.988,12.365 42.913,8.067 39.74,8.067 C38.896,8.067 38.052,8.4 37.438,8.939 C36.44,9.833 36.26,10.959 36.26,12.061 C36.26,14.592 37.514,18.762 40.611,18.762 C41.608,18.761 42.632,18.276 43.219,17.458 L43.219,17.458 Z" id="Shape"></path>
                <path d="M26.153,19.53 C22.084,19.53 19.909,16.357 19.909,13.491 C19.909,10.139 22.647,7.275 26.537,7.275 C30.298,7.275 32.651,10.216 32.651,13.313 C32.652,16.33 30.324,19.53 26.153,19.53 L26.153,19.53 Z M29.352,17.458 C29.966,16.638 30.12,15.615 30.12,14.617 C30.12,12.365 29.045,8.067 25.872,8.067 C25.028,8.067 24.183,8.4 23.57,8.939 C22.572,9.833 22.393,10.959 22.393,12.061 C22.393,14.592 23.646,18.762 26.743,18.762 C27.741,18.761 28.764,18.276 29.352,17.458 L29.352,17.458 Z" id="Shape"></path>
                <path d="M17.955,19.129 L14.276,19.978 C12.783,20.21 11.446,20.414 10.032,20.414 C2.931,20.414 0.231,15.192 0.231,11.101 C0.231,6.111 4.063,1.482 10.624,1.482 C12.014,1.482 13.35,1.687 14.559,2.022 C16.488,2.562 17.389,3.231 17.955,3.617 L15.82,5.65 L14.92,5.855 L15.563,4.826 C14.689,3.978 13.093,2.409 10.058,2.409 C5.993,2.409 2.932,5.497 2.932,9.999 C2.932,14.834 6.431,19.387 12.038,19.387 C13.686,19.387 14.533,19.053 15.305,18.744 L15.305,14.603 L11.421,14.809 L13.478,13.702 L18.932,13.702 L18.264,14.345 C18.083,14.5 18.058,14.552 18.006,14.756 C17.979,14.988 17.955,15.735 17.955,15.992 L17.955,19.129 L17.955,19.129 Z" id="Shape"></path>
                <path d="M64.286,18.388 C63.437,18.311 63.259,18.157 63.259,17.153 L63.259,16.87 L63.259,2.593 C63.264,2.537 63.268,2.481 63.273,2.427 C63.377,1.527 63.634,1.373 64.432,0.909 L60.752,0.909 L58.822,1.835 L60.789,1.835 L60.789,1.847 L60.788,1.838 L60.788,16.87 L60.788,17.72 C60.788,18.233 60.686,18.312 60.094,19.082 L64.648,19.082 L65.6,18.518 C65.162,18.465 64.724,18.439 64.286,18.388 L64.286,18.388 Z" id="Shape"></path>
                <path d="M74.754,18.625 C74.474,18.779 74.193,18.958 73.913,19.085 C73.068,19.468 72.2,19.57 71.432,19.57 C70.616,19.57 69.338,19.517 68.034,18.573 C66.222,17.295 65.43,15.098 65.43,13.182 C65.43,9.223 68.649,7.281 71.28,7.281 C72.2,7.281 73.146,7.51 73.913,7.997 C75.189,8.838 75.521,9.937 75.699,10.525 L69.697,12.953 L67.73,13.106 C68.368,16.35 70.565,18.239 72.993,18.239 C74.296,18.239 75.241,17.78 76.109,17.346 L74.754,18.625 L74.754,18.625 Z M72.353,11.011 C72.837,10.833 73.093,10.679 73.093,10.322 C73.093,9.301 71.944,8.125 70.563,8.125 C69.54,8.125 67.625,8.917 67.625,11.676 C67.625,12.11 67.676,12.57 67.703,13.031 L72.353,11.011 L72.353,11.011 Z" id="Shape"></path>
                <g transform="translate(76.000000, 7.000000)" id="Shape">
                    <path d="M1.22,0.457 L1.22,2.143 L1.015,2.143 L1.015,0.457 L0.457,0.457 L0.457,0.282 L1.777,0.282 L1.777,0.457 L1.22,0.457 L1.22,0.457 Z"></path>
                    <path d="M3.518,2.143 L3.518,0.442 L3.509,0.442 L2.99,2.143 L2.83,2.143 L2.306,0.442 L2.299,0.442 L2.299,2.143 L2.113,2.143 L2.113,0.283 L2.432,0.283 L2.906,1.787 L2.913,1.787 L3.38,0.283 L3.703,0.283 L3.703,2.143 L3.518,2.143 L3.518,2.143 Z"></path>
                </g>
            </g>
            <g id="Group" transform="translate(58.000000, 11.000000)" fill="#F9F9FA" sketch:type="MSShapeGroup">
                <path d="M5.341,5.474 L4.063,5.474 C4.063,5.298 3.942,4.8 3.699,3.98 L1.854,3.98 C1.604,4.787 1.479,5.285 1.479,5.474 L0.277,5.474 C0.277,5.37 0.588,4.518 1.21,2.918 C1.832,1.318 2.143,0.436 2.143,0.274 L3.653,0.274 C3.653,0.426 3.935,1.294 4.498,2.88 C5.059,4.465 5.341,5.33 5.341,5.474 L5.341,5.474 Z M3.495,3.217 C3.04,1.843 2.812,1.1 2.812,0.988 L2.748,0.988 C2.748,1.092 2.512,1.835 2.041,3.217 L3.495,3.217 L3.495,3.217 Z" id="Shape"></path>
                <path d="M10.491,5.474 L9.504,5.474 C9.504,5.365 9.138,4.788 8.406,3.744 C7.639,2.644 7.202,1.892 7.096,1.487 L7.032,1.487 C7.098,2.07 7.132,2.597 7.132,3.069 C7.132,3.727 7.151,4.528 7.188,5.474 L6.205,5.474 C6.245,4.649 6.265,3.742 6.265,2.754 C6.265,1.782 6.245,0.955 6.205,0.273 L7.391,0.273 C7.391,0.414 7.72,0.978 8.378,1.963 C9.078,3.01 9.48,3.719 9.584,4.092 L9.644,4.092 C9.58,3.498 9.548,2.966 9.548,2.494 C9.548,1.772 9.529,1.032 9.492,0.273 L10.491,0.273 C10.454,0.934 10.435,1.76 10.435,2.754 C10.435,3.754 10.454,4.661 10.491,5.474 L10.491,5.474 Z" id="Shape"></path>
                <path d="M16.281,2.693 C16.281,3.449 16.039,4.11 15.554,4.674 C15.069,5.239 14.39,5.521 13.517,5.521 C13.123,5.521 12.58,5.505 11.887,5.473 C11.922,4.669 11.939,3.762 11.939,2.753 C11.939,1.784 11.922,0.957 11.887,0.272 L12.586,0.272 C12.7,0.272 12.871,0.268 13.097,0.26 C13.323,0.252 13.471,0.248 13.54,0.248 C14.501,0.248 15.198,0.488 15.631,0.967 C16.065,1.447 16.281,2.022 16.281,2.693 L16.281,2.693 Z M15.19,2.865 C15.19,2.354 15.041,1.923 14.743,1.573 C14.445,1.223 13.989,1.048 13.377,1.048 C13.262,1.048 13.105,1.06 12.906,1.084 C12.933,1.617 12.946,2.173 12.946,2.754 C12.946,3.391 12.959,4.022 12.986,4.647 C13.159,4.682 13.332,4.699 13.505,4.699 C14.078,4.699 14.502,4.521 14.777,4.166 C15.053,3.81 15.19,3.376 15.19,2.865 L15.19,2.865 Z" id="Shape"></path>
                <path d="M21.619,5.474 L20.437,5.474 C20.128,4.531 19.891,3.95 19.726,3.728 C19.561,3.507 19.295,3.396 18.927,3.396 C18.772,3.396 18.625,3.397 18.484,3.4 C18.484,4.085 18.496,4.776 18.52,5.473 L17.41,5.473 C17.445,4.669 17.462,3.762 17.462,2.753 C17.462,1.784 17.445,0.957 17.41,0.272 L18.1,0.272 C18.18,0.272 18.347,0.268 18.601,0.26 C18.855,0.252 19.09,0.248 19.306,0.248 C20.528,0.248 21.139,0.666 21.139,1.502 C21.139,2.165 20.79,2.627 20.092,2.888 L20.092,2.948 C20.361,3.022 20.597,3.232 20.799,3.577 C21.003,3.923 21.276,4.555 21.619,5.474 L21.619,5.474 Z M20.121,1.799 C20.121,1.269 19.78,1.004 19.098,1.004 C18.848,1.004 18.627,1.023 18.435,1.06 C18.464,1.473 18.479,2.011 18.479,2.674 C18.625,2.679 18.749,2.682 18.851,2.682 C19.698,2.681 20.121,2.387 20.121,1.799 L20.121,1.799 Z" id="Shape"></path>
                <path d="M27.345,2.777 C27.345,3.594 27.095,4.272 26.594,4.81 C26.093,5.348 25.474,5.617 24.737,5.617 C24.034,5.617 23.445,5.37 22.971,4.876 C22.497,4.382 22.26,3.754 22.26,2.993 C22.26,2.176 22.51,1.498 23.011,0.96 C23.512,0.422 24.131,0.153 24.868,0.153 C25.571,0.153 26.159,0.399 26.634,0.892 C27.108,1.385 27.345,2.013 27.345,2.777 L27.345,2.777 Z M26.243,2.893 C26.243,2.336 26.1,1.885 25.816,1.539 C25.531,1.193 25.179,1.02 24.761,1.02 C24.372,1.02 24.042,1.194 23.77,1.543 C23.498,1.892 23.363,2.332 23.363,2.865 C23.363,3.419 23.506,3.869 23.792,4.217 C24.078,4.564 24.429,4.738 24.845,4.738 C25.234,4.738 25.564,4.563 25.836,4.213 C26.107,3.863 26.243,3.423 26.243,2.893 L26.243,2.893 Z" id="Shape"></path>
                <path d="M29.604,5.474 L28.474,5.474 C28.509,4.649 28.526,3.742 28.526,2.754 C28.526,1.782 28.509,0.955 28.474,0.273 L29.604,0.273 C29.569,0.944 29.552,1.771 29.552,2.754 C29.552,3.757 29.569,4.664 29.604,5.474 L29.604,5.474 Z" id="Shape"></path>
                <path d="M35.394,2.693 C35.394,3.449 35.152,4.11 34.667,4.674 C34.182,5.239 33.503,5.521 32.63,5.521 C32.236,5.521 31.693,5.505 31,5.473 C31.034,4.669 31.052,3.762 31.052,2.753 C31.052,1.784 31.035,0.957 31,0.272 L31.699,0.272 C31.813,0.272 31.984,0.268 32.21,0.26 C32.436,0.252 32.584,0.248 32.653,0.248 C33.614,0.248 34.311,0.488 34.744,0.967 C35.177,1.447 35.394,2.022 35.394,2.693 L35.394,2.693 Z M34.303,2.865 C34.303,2.354 34.154,1.923 33.856,1.573 C33.558,1.223 33.102,1.048 32.49,1.048 C32.375,1.048 32.218,1.06 32.019,1.084 C32.046,1.617 32.059,2.173 32.059,2.754 C32.059,3.391 32.072,4.022 32.099,4.647 C32.272,4.682 32.445,4.699 32.618,4.699 C33.191,4.699 33.615,4.521 33.89,4.166 C34.165,3.81 34.303,3.376 34.303,2.865 L34.303,2.865 Z" id="Shape"></path>
                <path d="M43.074,5.474 L41.796,5.474 C41.796,5.298 41.675,4.8 41.432,3.98 L39.587,3.98 C39.337,4.787 39.212,5.285 39.212,5.474 L38.01,5.474 C38.01,5.37 38.321,4.518 38.943,2.918 C39.565,1.318 39.876,0.436 39.876,0.274 L41.386,0.274 C41.386,0.426 41.668,1.294 42.231,2.88 C42.793,4.465 43.074,5.33 43.074,5.474 L43.074,5.474 Z M41.229,3.217 C40.774,1.843 40.546,1.1 40.546,0.988 L40.482,0.988 C40.482,1.092 40.247,1.835 39.775,3.217 L41.229,3.217 L41.229,3.217 Z" id="Shape"></path>
                <path d="M47.734,1.635 C47.734,2.272 47.498,2.741 47.025,3.045 C46.553,3.349 45.973,3.5 45.286,3.5 C45.161,3.5 45.072,3.497 45.018,3.492 C45.018,3.993 45.033,4.653 45.062,5.473 L43.94,5.473 C43.975,4.703 43.992,3.797 43.992,2.753 C43.992,1.794 43.975,0.967 43.94,0.272 L44.635,0.272 C44.733,0.272 44.923,0.268 45.202,0.26 C45.482,0.252 45.724,0.248 45.929,0.248 C46.435,0.248 46.862,0.362 47.211,0.592 C47.56,0.821 47.734,1.169 47.734,1.635 L47.734,1.635 Z M46.703,1.854 C46.703,1.284 46.325,0.999 45.569,0.999 C45.38,0.999 45.18,1.019 44.97,1.059 C44.999,1.562 45.014,2.132 45.014,2.769 C45.08,2.774 45.158,2.777 45.246,2.777 C46.217,2.777 46.703,2.47 46.703,1.854 L46.703,1.854 Z" id="Shape"></path>
                <path d="M52.525,1.635 C52.525,2.272 52.289,2.741 51.816,3.045 C51.343,3.349 50.763,3.5 50.076,3.5 C49.951,3.5 49.862,3.497 49.808,3.492 C49.808,3.993 49.823,4.653 49.852,5.473 L48.73,5.473 C48.765,4.703 48.782,3.797 48.782,2.753 C48.782,1.794 48.765,0.967 48.73,0.272 L49.425,0.272 C49.523,0.272 49.713,0.268 49.992,0.26 C50.272,0.252 50.514,0.248 50.719,0.248 C51.225,0.248 51.652,0.362 52.001,0.592 C52.35,0.821 52.525,1.169 52.525,1.635 L52.525,1.635 Z M51.494,1.854 C51.494,1.284 51.116,0.999 50.36,0.999 C50.171,0.999 49.971,1.019 49.761,1.059 C49.79,1.562 49.805,2.132 49.805,2.769 C49.871,2.774 49.949,2.777 50.037,2.777 C51.008,2.777 51.494,2.47 51.494,1.854 L51.494,1.854 Z" id="Shape"></path>
                <path d="M60.357,2.777 C60.357,3.594 60.107,4.272 59.606,4.81 C59.105,5.348 58.486,5.617 57.749,5.617 C57.046,5.617 56.457,5.37 55.983,4.876 C55.509,4.382 55.272,3.754 55.272,2.993 C55.272,2.176 55.522,1.498 56.023,0.96 C56.524,0.422 57.143,0.153 57.88,0.153 C58.583,0.153 59.172,0.399 59.646,0.892 C60.12,1.385 60.357,2.013 60.357,2.777 L60.357,2.777 Z M59.255,2.893 C59.255,2.336 59.113,1.885 58.828,1.539 C58.543,1.193 58.191,1.02 57.773,1.02 C57.384,1.02 57.054,1.194 56.782,1.543 C56.51,1.892 56.375,2.332 56.375,2.865 C56.375,3.419 56.518,3.869 56.805,4.217 C57.091,4.564 57.442,4.738 57.857,4.738 C58.246,4.738 58.576,4.563 58.848,4.213 C59.119,3.863 59.255,3.423 59.255,2.893 L59.255,2.893 Z" id="Shape"></path>
                <path d="M65.772,5.474 L64.785,5.474 C64.785,5.365 64.419,4.788 63.687,3.744 C62.92,2.644 62.483,1.892 62.377,1.487 L62.313,1.487 C62.379,2.07 62.413,2.597 62.413,3.069 C62.413,3.727 62.432,4.528 62.469,5.474 L61.486,5.474 C61.526,4.649 61.546,3.742 61.546,2.754 C61.546,1.782 61.526,0.955 61.486,0.273 L62.672,0.273 C62.672,0.414 63.001,0.978 63.659,1.963 C64.359,3.01 64.761,3.719 64.865,4.092 L64.925,4.092 C64.861,3.498 64.829,2.966 64.829,2.494 C64.829,1.772 64.81,1.032 64.773,0.273 L65.772,0.273 C65.735,0.934 65.716,1.76 65.716,2.754 C65.716,3.754 65.734,4.661 65.772,5.474 L65.772,5.474 Z" id="Shape"></path>
            </g>
        </g>
    </g>
</svg>