<?xml version="1.0" encoding="UTF-8" standalone="no"?>
<svg width="191px" height="63px" viewBox="0 0 191 63" version="1.1" xmlns="http://www.w3.org/2000/svg" xmlns:xlink="http://www.w3.org/1999/xlink" xmlns:sketch="http://www.bohemiancoding.com/sketch/ns">
    <!-- Generator: Sketch 3.2.2 (9983) - http://www.bohemiancoding.com/sketch -->
    <title>Greenlight</title>
    <desc>Created with Sketch.</desc>
    <defs>
        <filter x="-50%" y="-50%" width="200%" height="200%" filterUnits="objectBoundingBox" id="filter-1">
            <feOffset dx="-3" dy="-1" in="SourceAlpha" result="shadowOffsetOuter1"></feOffset>
            <feGaussianBlur stdDeviation="1" in="shadowOffsetOuter1" result="shadowBlurOuter1"></feGaussianBlur>
            <feColorMatrix values="0 0 0 0 0.603921569   0 0 0 0 0.721568627   0 0 0 0 0.239215686  0 0 0 0.7 0" in="shadowBlurOuter1" type="matrix" result="shadowMatrixOuter1"></feColorMatrix>
            <feMerge>
                <feMergeNode in="shadowMatrixOuter1"></feMergeNode>
                <feMergeNode in="SourceGraphic"></feMergeNode>
            </feMerge>
        </filter>
        <linearGradient x1="50%" y1="0%" x2="50%" y2="100%" id="linearGradient-2">
            <stop stop-color="#C4C6C1" offset="0%"></stop>
            <stop stop-color="#555B43" offset="100%"></stop>
        </linearGradient>
    </defs>
    <g id="Page-1" stroke="none" stroke-width="1" fill="none" fill-rule="evenodd" sketch:type="MSPage">
        <g id="Greenlight" sketch:type="MSLayerGroup">
            <path d="M190.5,54.2060595 C190.5,58.8340109 186.739839,62.586 182.102574,62.586 L8.89942375,62.586 C4.26115966,62.586 0.5,58.8340109 0.5,54.2060595 L0.5,8.96494398 C0.5,4.33798907 4.26115966,0.586 8.89942375,0.586 L182.102574,0.586 C186.739839,0.586 190.5,4.33798907 190.5,8.96494398 L190.5,54.2060595" id="Fill-1" fill="#1A1918" sketch:type="MSShapeGroup"></path>
            <circle id="Oval-3" fill="#1A1919" filter="url(#filter-1)" sketch:type="MSShapeGroup" cx="39" cy="32" r="23"></circle>
            <path d="M58.4710268,27.9598297 L57.5942805,27.9598297 L57.5942805,25.3412626 L56.7357283,27.044979 L56.1428775,27.044979 L55.2784895,25.3412626 L55.2784895,27.9598297 L54.4013999,27.9598297 L54.4013999,23.4669342 L55.2623552,23.4669342 L56.4312358,25.8963521 L57.5942805,23.4669342 L58.4710268,23.4669342 L58.4710268,27.9598297 Z M53.1669522,27.9598297 L52.2521014,27.9598297 L51.9870865,27.1647849 L50.3908178,27.1647849 L50.1196238,27.9598297 L49.2044298,27.9598297 L50.8388029,23.4669342 L51.5263999,23.4669342 L53.1669522,27.9598297 Z M51.7536537,26.426382 L51.2047432,24.7923521 L50.6369522,26.426382 L51.7536537,26.426382 Z M47.8879372,27.9598297 L44.9284895,27.9598297 L44.9284895,23.4669342 L47.8879372,23.4669342 L47.8879372,24.2496208 L45.805579,24.2496208 L45.805579,25.3035014 L47.578982,25.3035014 L47.578982,26.0858446 L45.805579,26.0858446 L45.805579,27.1774864 L47.8879372,27.1774864 L47.8879372,27.9598297 Z M43.5364746,24.2496208 L42.362788,24.2496208 L42.362788,27.9598297 L41.4856984,27.9598297 L41.4856984,24.2496208 L40.3120119,24.2496208 L40.3120119,23.4669342 L43.5364746,23.4669342 L43.5364746,24.2496208 Z M39.1472507,26.6347551 C39.1472507,27.0597402 38.9903701,27.3930685 38.6772955,27.6347402 C38.3638775,27.8767551 37.9653253,27.9975909 37.4812955,27.9975909 C36.7789372,27.9975909 36.2320865,27.7998596 35.8410865,27.4043969 L36.4088775,26.8366058 C36.661191,27.0889193 37.0230119,27.2152476 37.4943402,27.2152476 C38.0240268,27.2152476 38.2890417,27.0302178 38.2890417,26.6598148 C38.2890417,26.4916058 38.2451014,26.3663073 38.1565343,26.2842626 C38.0683104,26.2022178 37.9337432,26.1486655 37.7528328,26.1232626 L37.2101014,26.0477402 C36.4150566,25.9382327 36.0178775,25.51977 36.0178775,24.7920088 C36.0178775,24.3838446 36.1586238,24.0546357 36.4404596,23.8047252 C36.7219522,23.5541282 37.1029969,23.429173 37.5822208,23.429173 C38.1881164,23.429173 38.6718029,23.6035611 39.0339671,23.9526805 L38.4785343,24.5015909 C38.263982,24.2956208 37.9567432,24.1926357 37.5571611,24.1926357 C37.3340268,24.1926357 37.1630716,24.2461879 37.0429223,24.3532924 C36.9231164,24.4607402 36.863385,24.5963372 36.863385,24.7604267 C36.863385,24.8908745 36.9107581,25.000382 37.0051611,25.0886058 C37.0999074,25.1768297 37.2355044,25.2338148 37.4122955,25.2588745 L37.941982,25.3347402 C38.3247432,25.3893223 38.6110417,25.5050088 38.800191,25.6817999 C39.0315641,25.9008148 39.1472507,26.2180088 39.1472507,26.6347551 Z" id="Fill-28" fill="#919390" sketch:type="MSShapeGroup"></path>
            <path d="M41.239,34.466 L43.585,34.466 C43.585,33.2306605 43.2903363,32.2815033 42.701,31.6185 C42.1116637,30.9554967 41.14834,30.624 39.811,30.624 C39.0289961,30.624 38.3773359,30.754332 37.856,31.015 C37.3346641,31.275668 36.9153349,31.6638308 36.598,32.1795 C36.2806651,32.6951692 36.056834,33.3383295 35.9265,34.109 C35.796166,34.8796705 35.731,35.7749949 35.731,36.795 C35.731,37.8490053 35.7763329,38.775496 35.867,39.5745 C35.9576671,40.373504 36.1361653,41.0449973 36.4025,41.589 C36.6688347,42.1330027 37.0371643,42.535332 37.5075,42.796 C37.9778357,43.056668 38.5869963,43.187 39.335,43.187 C39.9130029,43.187 40.4088313,43.0878343 40.8225,42.8895 C41.2361687,42.6911657 41.5903319,42.3540024 41.885,41.878 L41.919,41.878 L41.919,43 L43.721,43 L43.721,36.455 L39.76,36.455 L39.76,38.257 L41.375,38.257 L41.375,39.498 C41.375,39.8266683 41.3240005,40.1128321 41.222,40.3565 C41.1199995,40.6001679 40.9925008,40.8013325 40.8395,40.96 C40.6864992,41.1186675 40.5221675,41.2376663 40.3465,41.317 C40.1708325,41.3963337 40.0093341,41.436 39.862,41.436 C39.5106649,41.436 39.2245011,41.3255011 39.0035,41.1045 C38.7824989,40.8834989 38.6125006,40.5661687 38.4935,40.1525 C38.3744994,39.7388313 38.2923336,39.2373363 38.247,38.648 C38.2016664,38.0586637 38.179,37.401337 38.179,36.676 C38.179,35.1573257 38.309332,34.0693366 38.57,33.412 C38.830668,32.7546634 39.2556637,32.426 39.845,32.426 C40.0943346,32.426 40.3068325,32.491166 40.4825,32.6215 C40.6581675,32.751834 40.8026661,32.9161657 40.916,33.1145 C41.0293339,33.3128343 41.1114997,33.5309988 41.1625,33.769 C41.2135003,34.0070012 41.239,34.2393322 41.239,34.466 L41.239,34.466 Z M44.5464444,30.862 L44.5464444,43 L46.9944444,43 L46.9944444,37.866 L48.3034444,37.866 C48.8134469,37.866 49.17611,38.0019986 49.3914444,38.274 C49.6067788,38.5460014 49.7257776,38.9199976 49.7484444,39.396 L49.8164444,41.725 C49.8277778,41.9630012 49.8504442,42.1924989 49.8844444,42.4135 C49.9184445,42.6345011 49.9977771,42.8299991 50.1224444,43 L52.7744444,43 L52.7744444,42.898 C52.5477766,42.7733327 52.4004447,42.5410017 52.3324444,42.201 C52.2871108,41.8609983 52.2531112,41.3680032 52.2304444,40.722 C52.219111,40.3933317 52.2077778,40.0958347 52.1964444,39.8295 C52.185111,39.5631653 52.1681112,39.3166678 52.1454444,39.09 C52.077444,38.4099966 51.9017791,37.9170015 51.6184444,37.611 C51.3351096,37.3049985 50.8874474,37.1066671 50.2754444,37.016 L50.2754444,36.982 C50.9667812,36.8346659 51.4767761,36.5031692 51.8054444,35.9875 C52.1341127,35.4718308 52.2984444,34.8060041 52.2984444,33.99 C52.2984444,32.9359947 52.0151139,32.1511692 51.4484444,31.6355 C50.8817749,31.1198308 50.0884495,30.862 49.0684444,30.862 L44.5464444,30.862 Z M46.9944444,36.166 L46.9944444,32.664 L48.1504444,32.664 C49.2837834,32.664 49.8504444,33.2249944 49.8504444,34.347 C49.8504444,35.0043366 49.6917793,35.4718319 49.3744444,35.7495 C49.0571095,36.0271681 48.6037807,36.166 48.0144444,36.166 L46.9944444,36.166 Z M60.0258887,30.862 L53.2428887,30.862 L53.2428887,43 L60.1958887,43 L60.1958887,40.994 L55.6908887,40.994 L55.6908887,37.73 L59.7708887,37.73 L59.7708887,35.724 L55.6908887,35.724 L55.6908887,32.868 L60.0258887,32.868 L60.0258887,30.862 Z M67.4473331,30.862 L60.6643331,30.862 L60.6643331,43 L67.6173331,43 L67.6173331,40.994 L63.1123331,40.994 L63.1123331,37.73 L67.1923331,37.73 L67.1923331,35.724 L63.1123331,35.724 L63.1123331,32.868 L67.4473331,32.868 L67.4473331,30.862 Z M70.9077775,30.862 L68.0857775,30.862 L68.0857775,43 L70.3297775,43 L70.3297775,34.5 L70.3637775,34.5 L73.3557775,43 L76.1437775,43 L76.1437775,30.862 L73.8997775,30.862 L73.8997775,39.175 L73.8657775,39.175 L70.9077775,30.862 Z M77.0882219,43 L83.8712219,43 L83.8712219,40.994 L79.5362219,40.994 L79.5362219,30.862 L77.0882219,30.862 L77.0882219,43 Z M84.3226662,43 L86.7706662,43 L86.7706662,30.862 L84.3226662,30.862 L84.3226662,43 Z M93.2231106,34.466 L95.5691106,34.466 C95.5691106,33.2306605 95.2744469,32.2815033 94.6851106,31.6185 C94.0957743,30.9554967 93.1324506,30.624 91.7951106,30.624 C91.0131067,30.624 90.3614465,30.754332 89.8401106,31.015 C89.3187747,31.275668 88.8994455,31.6638308 88.5821106,32.1795 C88.2647757,32.6951692 88.0409446,33.3383295 87.9106106,34.109 C87.7802766,34.8796705 87.7151106,35.7749949 87.7151106,36.795 C87.7151106,37.8490053 87.7604435,38.775496 87.8511106,39.5745 C87.9417777,40.373504 88.1202759,41.0449973 88.3866106,41.589 C88.6529453,42.1330027 89.0212749,42.535332 89.4916106,42.796 C89.9619463,43.056668 90.5711069,43.187 91.3191106,43.187 C91.8971135,43.187 92.3929419,43.0878343 92.8066106,42.8895 C93.2202793,42.6911657 93.5744425,42.3540024 93.8691106,41.878 L93.9031106,41.878 L93.9031106,43 L95.7051106,43 L95.7051106,36.455 L91.7441106,36.455 L91.7441106,38.257 L93.3591106,38.257 L93.3591106,39.498 C93.3591106,39.8266683 93.3081111,40.1128321 93.2061106,40.3565 C93.1041101,40.6001679 92.9766114,40.8013325 92.8236106,40.96 C92.6706098,41.1186675 92.5062781,41.2376663 92.3306106,41.317 C92.154943,41.3963337 91.9934447,41.436 91.8461106,41.436 C91.4947755,41.436 91.2086117,41.3255011 90.9876106,41.1045 C90.7666095,40.8834989 90.5966112,40.5661687 90.4776106,40.1525 C90.35861,39.7388313 90.2764442,39.2373363 90.2311106,38.648 C90.185777,38.0586637 90.1631106,37.401337 90.1631106,36.676 C90.1631106,35.1573257 90.2934426,34.0693366 90.5541106,33.412 C90.8147786,32.7546634 91.2397743,32.426 91.8291106,32.426 C92.0784452,32.426 92.290943,32.491166 92.4666106,32.6215 C92.6422781,32.751834 92.7867767,32.9161657 92.9001106,33.1145 C93.0134445,33.3128343 93.0956103,33.5309988 93.1466106,33.769 C93.1976108,34.0070012 93.2231106,34.2393322 93.2231106,34.466 L93.2231106,34.466 Z M96.530555,30.862 L96.530555,43 L98.978555,43 L98.978555,37.611 L101.834555,37.611 L101.834555,43 L104.282555,43 L104.282555,30.862 L101.834555,30.862 L101.834555,35.503 L98.978555,35.503 L98.978555,30.862 L96.530555,30.862 Z M112.332999,30.862 L104.580999,30.862 L104.580999,32.868 L107.232999,32.868 L107.232999,43 L109.680999,43 L109.680999,32.868 L112.332999,32.868 L112.332999,30.862 Z" id="GREENLIGHT" fill="url(#linearGradient-2)" sketch:type="MSShapeGroup"></path>
        </g>
    </g>
</svg>