<svg width="191" height="63" viewBox="0 0 191 63" xmlns="http://www.w3.org/2000/svg" xmlns:sketch="http://www.bohemiancoding.com/sketch/ns"><title>IndieGoGo</title><desc>Created with Sketch.</desc><g sketch:type="MSLayerGroup" fill="none"><path d="M190.5 54.206c0 4.627-3.76 8.38-8.397 8.38h-173.203c-4.638 0-8.399-3.753-8.399-8.38v-45.241c0-4.627 3.761-8.379 8.399-8.379h173.203c4.637 0 8.397 3.752 8.397 8.379v45.241" fill="#1A1919" sketch:type="MSShapeGroup"/><path d="M16.477 56.16h48.294v-6.09h-3.045v3.045h-42.204v-42.203h42.204v24.774h3.045v-27.819h-48.294v48.293" fill="#CA4671" sketch:type="MSShapeGroup"/><path d="M27.089 37.178h3.046v11.398h-3.046v-11.398z" fill="#CA4671" sketch:type="MSShapeGroup"/><path d="M37.921 42.454l-3.077-5.276h-3.199v11.398h2.891v-5.922l.046.001 3.492 5.921h2.799v-11.398h-2.907v5.276h-.045" fill="#CA4671" sketch:type="MSShapeGroup"/><path d="M42.393 37.178v11.398h3.83c3.614 0 5.321-.908 5.321-5.707 0-4.706-1.737-5.691-5.367-5.691h-3.784zm6.06 5.706c0 2.877-.815 3.061-1.953 3.061h-1.062v-5.998h.938c1.293 0 2.077.077 2.077 2.937z" fill="#CA4671" sketch:type="MSShapeGroup"/><path d="M52.635 37.178h3.045v11.398h-3.045v-11.398z" fill="#CA4671" sketch:type="MSShapeGroup"/><path d="M80.843 37.04c-4.245 0-4.999 2.783-4.999 5.844 0 3.046.754 5.83 4.999 5.83 4.23 0 4.984-2.784 4.984-5.83 0-3.061-.739-5.844-4.984-5.844zm0 8.982c-1.677 0-1.908-1.154-1.908-3.03 0-1.861.231-3.015 1.908-3.015 1.661 0 1.892 1.154 1.892 3.015 0 1.876-.231 3.03-1.892 3.03z" fill="#CA4671" sketch:type="MSShapeGroup"/><path d="M102.191 37.04c-4.246 0-5 2.783-5 5.844 0 3.046.754 5.83 5 5.83 4.229 0 4.982-2.784 4.982-5.83 0-3.061-.738-5.844-4.982-5.844zm0 8.982c-1.677 0-1.908-1.154-1.908-3.03 0-1.861.231-3.015 1.908-3.015 1.66 0 1.891 1.154 1.891 3.015 0 1.876-.231 3.03-1.891 3.03z" fill="#CA4671" sketch:type="MSShapeGroup"/><path d="M108.156 46.772c-.556 0-.692.376-.692.867 0 .489.136.863.692.863.553 0 .694-.374.694-.863 0-.491-.141-.867-.694-.867zm0 1.607c-.455 0-.56-.321-.56-.74 0-.421.105-.742.56-.742.455 0 .562.321.562.742 0 .419-.107.74-.562.74z" fill="#CA4671" sketch:type="MSShapeGroup"/><path d="M108.538 47.443c0-.206-.068-.325-.334-.325h-.394v1.031h.211v-.364h.135l.159.364h.216l-.173-.385c.139-.045.18-.159.18-.321zm-.343.172h-.174v-.312h.174c.102 0 .136.043.136.156 0 .112-.034.156-.136.156z" fill="#CA4671" sketch:type="MSShapeGroup"/><path d="M70.004 44.177h1.965v.199c0 1.26.039 1.815-1.461 1.815-1.4 0-1.877-.646-1.877-3.214 0-2.677.8-3 2-3 .891 0 1.523.231 2.046.524l1.63-2.538c-.862-.554-2.123-.923-3.538-.923-3.937 0-5.199 1.892-5.199 5.844 0 3.446.923 5.83 4.661 5.83.662 0 1.231-.045 1.721-.138h2.801v-6.876h-4.413l-.336 2.477" fill="#CA4671" sketch:type="MSShapeGroup"/><path d="M91.351 44.177h1.965v.199c0 1.26.04 1.815-1.461 1.815-1.399 0-1.877-.646-1.877-3.214 0-2.677.8-3 2-3 .891 0 1.523.231 2.046.524l1.63-2.538c-.862-.554-2.123-.923-3.538-.923-3.937 0-5.198 1.892-5.198 5.844 0 3.446.922 5.83 4.66 5.83.662 0 1.231-.045 1.721-.138h2.801v-6.876h-4.412l-.337 2.477" fill="#CA4671" sketch:type="MSShapeGroup"/><path d="M64.769 39.962v-2.784h-7.568v11.398h7.568v-2.707h-4.584v-1.708h3.011l.367-2.706h-3.378v-1.493h4.584" fill="#CA4671" sketch:type="MSShapeGroup"/></g></svg>