<?xml version="1.0" encoding="UTF-8" standalone="no"?>
<svg width="191px" height="63px" viewBox="0 0 191 63" version="1.1" xmlns="http://www.w3.org/2000/svg" xmlns:xlink="http://www.w3.org/1999/xlink" xmlns:sketch="http://www.bohemiancoding.com/sketch/ns">
    <!-- Generator: Sketch 3.2.2 (9983) - http://www.bohemiancoding.com/sketch -->
    <title>Itch.io</title>
    <desc>Created with Sketch.</desc>
    <defs></defs>
    <g id="Page-1" stroke="none" stroke-width="1" fill="none" fill-rule="evenodd" sketch:type="MSPage">
        <g id="Itch.io" sketch:type="MSLayerGroup">
            <path d="M190.515,54.240056 C190.515,58.8670109 186.754839,62.619 182.117574,62.619 L8.91442375,62.619 C4.27615966,62.619 0.515,58.8670109 0.515,54.240056 L0.515,8.99794398 C0.515,4.37098907 4.27615966,0.619 8.91442375,0.619 L182.117574,0.619 C186.754839,0.619 190.515,4.37098907 190.515,8.99794398 L190.515,54.240056 L190.515,54.240056 Z" id="Shape" fill="#1A1919" sketch:type="MSShapeGroup"></path>
            <g id="Path-374-+-itch.io" transform="translate(16.000000, 12.619000)" fill="#FFFFFF" sketch:type="MSShapeGroup">
                <path d="M2.80945122,14.1632795 C2.80945122,14.33706 2.80945122,37.3917683 2.80945122,37.3917683 L38.2607181,37.3917683 L38.145609,13.9315721 C38.145609,13.9315721 36.6395115,14.6266941 35.0167683,14.1051829 C33.3940251,13.5836718 32.540566,11.8317246 32.540566,11.8317246 C32.540566,11.8317246 31.193937,14.33706 28.4567246,14.33706 C25.7195122,14.33706 24.3439197,11.9039634 24.3439197,11.9039634 C24.3439197,11.9039634 23.1274563,14.3368902 20.2166331,14.2646514 C17.30581,14.1924126 16.2196819,11.8317246 16.2196819,11.8317246 C16.2196819,11.8317246 14.7859929,14.2646514 12.1213587,14.2646514 C9.45672459,14.2646514 8.03751727,11.9039634 8.03751727,11.9039634 C8.03751727,11.9039634 6.60382824,14.829438 2.80945122,14.1632795 Z M5.35823171,0.608231707 L35.1326783,0.608231707 L40.6935976,6.80640244 L40.6935976,8.60213415 C40.6935976,8.60213415 40.3460366,12.8887195 36.5807927,12.8887195 C32.8155488,12.8887195 32.410061,8.83384146 32.410061,8.83384146 C32.410061,8.83384146 32.0625,12.8887195 28.5289634,12.8887195 C24.9954268,12.8887195 24.4161585,9.2972561 24.4161585,9.2972561 C24.4161585,9.2972561 23.4314024,13.0625 20.1295732,12.8887195 C16.8277439,12.714939 16.0746951,9.00762195 16.0746951,9.00762195 C16.0746951,9.00762195 15.6692073,12.8887195 12.2515244,12.8887195 C8.83384146,12.8887195 8.08079268,9.2972561 8.08079268,9.2972561 C8.08079268,9.2972561 7.03810976,12.8887195 4.14176829,12.8887195 C1.24542683,12.8887195 0.0868902439,9.64481707 0.0868902439,9.64481707 L0.0868902439,6.80640244 L5.35823171,0.608231707 Z M7.67779392,20.535061 C7.67779392,20.535061 9.7886159,16.3643293 12.9166647,16.3643293 C16.0447135,16.3643293 16.0736769,18.8258801 16.0736769,18.8258801 L24.8495915,18.8258801 C24.8495915,18.8258801 25.2296232,16.8277439 26.9674281,16.3643293 C28.7052329,15.9009146 31.9745908,17.7252702 32.90142,20.1002702 C33.8282493,22.4752702 35.4801829,28.9914729 35.4801829,28.9914729 C35.4801829,28.9914729 36.4059932,33.9158191 34.08892,34.6688679 C31.7718469,35.4219167 29.1686476,34.5533537 27.1991354,30.4984756 C26.4435976,30.5564024 13.7021842,30.4984756 13.7021842,30.4984756 C13.7021842,30.4984756 11.0340428,35.7118901 7.558433,35.0453921 C4.08282322,34.3788942 5.06859756,29.8612805 5.06859756,29.8612805 L7.67779392,20.535061 Z M17.2901403,26.2115508 L17.2901403,28.9920386 L22.909117,28.9920386 L22.909117,26.2115508 L25.6026403,26.2115508 L20.273372,19.7527094 L14.5386159,26.2115508 L17.2901403,26.2115508 Z" id="Path-374"></path>
                <path d="M49.101561,13.1035122 C50.8625366,13.1035122 52.0952195,12.0117073 52.0952195,10.3211707 C52.0952195,8.63063415 50.8625366,7.53882927 49.101561,7.53882927 C47.3405854,7.53882927 46.143122,8.63063415 46.143122,10.3211707 C46.143122,12.0117073 47.3405854,13.1035122 49.101561,13.1035122 L49.101561,13.1035122 Z M46.4600976,32.4390244 L51.8134634,32.4390244 L51.8134634,16.3084878 L46.4600976,16.3084878 L46.4600976,32.4390244 Z M55.1945364,27.7900488 C55.1945364,31.0654634 57.4485852,32.8616585 60.7239998,32.8616585 C63.9994144,32.8616585 66.4647803,31.0302439 66.4647803,31.0302439 L64.9855608,27.2617561 C63.6119998,28.2126829 62.5906339,28.564878 62.0271218,28.564878 C61.0409754,28.564878 60.5479022,27.9661463 60.5479022,26.4869268 L60.5479022,20.0065366 L65.3025364,20.0065366 L65.3025364,16.3084878 L60.5126827,16.3084878 L60.5126827,11.4834146 L55.4058535,12.4343415 L55.4058535,16.2380488 L52.5882925,17.1185366 L52.5882925,20.0065366 L55.1945364,20.0065366 L55.1945364,27.7900488 Z M65.8660484,24.7611707 C65.8660484,29.2340488 69.2823411,32.8616585 74.8822435,32.8616585 C79.179024,32.8616585 81.0104386,30.8189268 81.0104386,30.8189268 L79.3903411,27.3321951 C79.3903411,27.3321951 77.664585,28.9170732 75.2696581,28.9170732 C73.0156094,28.9170732 71.3250728,27.3674146 71.3250728,24.4441951 C71.3250728,21.204 73.3678045,19.830439 75.6218533,19.830439 C77.5941459,19.830439 79.249463,21.274439 79.249463,21.274439 L81.0104386,17.4707317 C81.0104386,17.4707317 78.6859508,15.8858537 74.987902,15.8858537 C69.5993167,15.8858537 65.8660484,20.0417561 65.8660484,24.7611707 L65.8660484,24.7611707 Z M81.7852677,32.4390244 L87.1386335,32.4390244 L87.1386335,22.6127805 C88.0191214,21.6618537 89.3574628,20.4996098 90.4844872,20.4996098 C91.435414,20.4996098 91.7876092,21.204 91.7876092,23.5989268 L91.7876092,32.4390244 L97.1057555,32.4390244 L97.1057555,21.0983415 C97.1057555,17.6116098 95.5913165,15.8858537 92.5976579,15.8858537 C89.991414,15.8858537 88.1952189,17.4002927 87.1386335,18.6329756 L87.1386335,7.11619512 L81.7852677,7.96146341 L81.7852677,32.4390244 Z M98.6554138,29.8327805 C98.6554138,31.4880976 100.028975,32.8616585 101.684292,32.8616585 C103.374828,32.8616585 104.748389,31.4880976 104.748389,29.8327805 C104.748389,28.1422439 103.374828,26.7334634 101.684292,26.7334634 C100.028975,26.7334634 98.6554138,28.1422439 98.6554138,29.8327805 L98.6554138,29.8327805 Z M109.150828,13.1035122 C110.911804,13.1035122 112.144487,12.0117073 112.144487,10.3211707 C112.144487,8.63063415 110.911804,7.53882927 109.150828,7.53882927 C107.389853,7.53882927 106.192389,8.63063415 106.192389,10.3211707 C106.192389,12.0117073 107.389853,13.1035122 109.150828,13.1035122 L109.150828,13.1035122 Z M106.509365,32.4390244 L111.862731,32.4390244 L111.862731,16.3084878 L106.509365,16.3084878 L106.509365,32.4390244 Z M113.060194,24.4089756 C113.060194,28.7761951 115.912974,32.8616585 122.076389,32.8616585 C128.944194,32.8616585 131.303901,27.8604878 131.303901,24.092 C131.303901,19.9360976 128.48634,15.8858537 122.146828,15.8858537 C115.49034,15.8858537 113.060194,20.3587317 113.060194,24.4089756 L113.060194,24.4089756 Z M118.519218,24.1976585 C118.519218,21.4505366 120.174535,19.689561 122.182048,19.689561 C124.612194,19.689561 125.844877,22.2253659 125.844877,24.5146341 C125.844877,27.2265366 124.15434,29.0931707 122.111609,29.0931707 C119.751901,29.0931707 118.519218,26.5925854 118.519218,24.1976585 L118.519218,24.1976585 Z" id="itch.io"></path>
            </g>
        </g>
    </g>
</svg>