<?xml version="1.0" encoding="UTF-8" standalone="no"?>
<svg width="191px" height="63px" viewBox="0 0 191 63" version="1.1" xmlns="http://www.w3.org/2000/svg" xmlns:xlink="http://www.w3.org/1999/xlink" xmlns:sketch="http://www.bohemiancoding.com/sketch/ns">
    <!-- Generator: Sketch 3.2.2 (9983) - http://www.bohemiancoding.com/sketch -->
    <title>Itch.io</title>
    <desc>Created with Sketch.</desc>
    <defs></defs>
    <g id="Page-1" stroke="none" stroke-width="1" fill="none" fill-rule="evenodd" sketch:type="MSPage">
        <g id="Itch.io" sketch:type="MSLayerGroup">
            <path d="M190.515,54.240056 C190.515,58.8670109 186.754839,62.619 182.117574,62.619 L8.91442375,62.619 C4.27615966,62.619 0.515,58.8670109 0.515,54.240056 L0.515,8.99794398 C0.515,4.37098907 4.27615966,0.619 8.91442375,0.619 L182.117574,0.619 C186.754839,0.619 190.515,4.37098907 190.515,8.99794398 L190.515,54.240056 L190.515,54.240056 Z" id="Shape" fill="#1A1919" sketch:type="MSShapeGroup"></path>
            <g id="Path-374-+-itch.io" transform="translate(27.000000, 11.000000)" fill="#FFFFFF" sketch:type="MSShapeGroup">
                <path d="M3.03125,15.2814331 C3.03125,15.4689331 3.03125,40.34375 3.03125,40.34375 L41.2813011,40.34375 L41.1571045,15.0314331 C41.1571045,15.0314331 39.5321045,15.7814331 37.78125,15.21875 C36.0303955,14.6560669 35.1095581,12.7658081 35.1095581,12.7658081 C35.1095581,12.7658081 33.6566162,15.4689331 30.7033081,15.4689331 C27.75,15.4689331 26.2658081,12.84375 26.2658081,12.84375 C26.2658081,12.84375 24.9533081,15.46875 21.8126831,15.3908081 C18.6720581,15.3128662 17.5001831,12.7658081 17.5001831,12.7658081 C17.5001831,12.7658081 15.9533081,15.3908081 13.0783081,15.3908081 C10.2033081,15.3908081 8.67205811,12.84375 8.67205811,12.84375 C8.67205811,12.84375 7.12518311,16.0001831 3.03125,15.2814331 Z M5.78125,0.65625 L37.9063108,0.65625 L43.90625,7.34375 L43.90625,9.28125 C43.90625,9.28125 43.53125,13.90625 39.46875,13.90625 C35.40625,13.90625 34.96875,9.53125 34.96875,9.53125 C34.96875,9.53125 34.59375,13.90625 30.78125,13.90625 C26.96875,13.90625 26.34375,10.03125 26.34375,10.03125 C26.34375,10.03125 25.28125,14.09375 21.71875,13.90625 C18.15625,13.71875 17.34375,9.71875 17.34375,9.71875 C17.34375,9.71875 16.90625,13.90625 13.21875,13.90625 C9.53125,13.90625 8.71875,10.03125 8.71875,10.03125 C8.71875,10.03125 7.59375,13.90625 4.46875,13.90625 C1.34375,13.90625 0.09375,10.40625 0.09375,10.40625 L0.09375,7.34375 L5.78125,0.65625 Z M8.28393555,22.15625 C8.28393555,22.15625 10.5614014,17.65625 13.9364014,17.65625 C17.3114014,17.65625 17.3426514,20.3121338 17.3426514,20.3121338 L26.8114014,20.3121338 C26.8114014,20.3121338 27.2214355,18.15625 29.0964355,17.65625 C30.9714355,17.15625 34.4989006,19.1246336 35.4989006,21.6871336 C36.4989006,24.2496336 38.28125,31.2802734 38.28125,31.2802734 C38.28125,31.2802734 39.2801506,36.5933838 36.7801506,37.4058838 C34.2801506,38.2183838 31.4714355,37.28125 29.3464355,32.90625 C28.53125,32.96875 14.7839355,32.90625 14.7839355,32.90625 C14.7839355,32.90625 11.9051514,38.5312498 8.1551514,37.8121336 C4.40515137,37.0930174 5.46875,32.21875 5.46875,32.21875 L8.28393555,22.15625 Z M18.6551514,28.2808838 L18.6551514,31.2808838 L24.7177315,31.2808838 L24.7177315,28.2808838 L27.6239014,28.2808838 L21.8739014,21.3121338 L15.6864014,28.2808838 L18.6551514,28.2808838 Z" id="Path-374"></path>
                <path d="M52.978,14.138 C54.878,14.138 56.208,12.96 56.208,11.136 C56.208,9.312 54.878,8.134 52.978,8.134 C51.078,8.134 49.786,9.312 49.786,11.136 C49.786,12.96 51.078,14.138 52.978,14.138 L52.978,14.138 Z M50.128,35 L55.904,35 L55.904,17.596 L50.128,17.596 L50.128,35 Z M59.5519998,29.984 C59.5519998,33.518 61.9839998,35.456 65.5179998,35.456 C69.0519998,35.456 71.7119998,33.48 71.7119998,33.48 L70.1159998,29.414 C68.6339998,30.44 67.5319998,30.82 66.9239998,30.82 C65.8599998,30.82 65.3279998,30.174 65.3279998,28.578 L65.3279998,21.586 L70.4579998,21.586 L70.4579998,17.596 L65.2899998,17.596 L65.2899998,12.39 L59.7799998,13.416 L59.7799998,17.52 L56.7399998,18.47 L56.7399998,21.586 L59.5519998,21.586 L59.5519998,29.984 Z M71.0659996,26.716 C71.0659996,31.542 74.7519996,35.456 80.7939996,35.456 C85.4299996,35.456 87.4059996,33.252 87.4059996,33.252 L85.6579996,29.49 C85.6579996,29.49 83.7959996,31.2 81.2119996,31.2 C78.7799996,31.2 76.9559996,29.528 76.9559996,26.374 C76.9559996,22.878 79.1599996,21.396 81.5919996,21.396 C83.7199996,21.396 85.5059996,22.954 85.5059996,22.954 L87.4059996,18.85 C87.4059996,18.85 84.8979996,17.14 80.9079996,17.14 C75.0939996,17.14 71.0659996,21.624 71.0659996,26.716 L71.0659996,26.716 Z M88.2419994,35 L94.0179994,35 L94.0179994,24.398 C94.9679994,23.372 96.4119994,22.118 97.6279994,22.118 C98.6539994,22.118 99.0339994,22.878 99.0339994,25.462 L99.0339994,35 L104.771999,35 L104.771999,22.764 C104.771999,19.002 103.137999,17.14 99.9079994,17.14 C97.0959994,17.14 95.1579994,18.774 94.0179994,20.104 L94.0179994,7.678 L88.2419994,8.59 L88.2419994,35 Z M106.443999,32.188 C106.443999,33.974 107.925999,35.456 109.711999,35.456 C111.535999,35.456 113.017999,33.974 113.017999,32.188 C113.017999,30.364 111.535999,28.844 109.711999,28.844 C107.925999,28.844 106.443999,30.364 106.443999,32.188 L106.443999,32.188 Z M117.767999,14.138 C119.667999,14.138 120.997999,12.96 120.997999,11.136 C120.997999,9.312 119.667999,8.134 117.767999,8.134 C115.867999,8.134 114.575999,9.312 114.575999,11.136 C114.575999,12.96 115.867999,14.138 117.767999,14.138 L117.767999,14.138 Z M114.917999,35 L120.693999,35 L120.693999,17.596 L114.917999,17.596 L114.917999,35 Z M121.985999,26.336 C121.985999,31.048 125.063999,35.456 131.713999,35.456 C139.123999,35.456 141.669999,30.06 141.669999,25.994 C141.669999,21.51 138.629999,17.14 131.789999,17.14 C124.607999,17.14 121.985999,21.966 121.985999,26.336 L121.985999,26.336 Z M127.875999,26.108 C127.875999,23.144 129.661999,21.244 131.827999,21.244 C134.449999,21.244 135.779999,23.98 135.779999,26.45 C135.779999,29.376 133.955999,31.39 131.751999,31.39 C129.205999,31.39 127.875999,28.692 127.875999,26.108 L127.875999,26.108 Z" id="itch.io"></path>
            </g>
        </g>
    </g>
</svg>