<svg width="191" height="63" viewBox="0 0 191 63" xmlns="http://www.w3.org/2000/svg" xmlns:sketch="http://www.bohemiancoding.com/sketch/ns"><title>iTunes</title><desc>Created with Sketch.</desc><g sketch:type="MSLayerGroup" fill="none"><path d="M190.735 53.463c0 5.019-4.254 9.089-9.501 9.089h-171c-5.246 0-9.499-4.07-9.499-9.089v-43.822c0-5.02 4.253-9.089 9.499-9.089h171c5.247 0 9.501 4.069 9.501 9.089v43.822" fill="#1A1919" sketch:type="MSShapeGroup"/><path d="M43.267 30.564c-.041-4.546 3.722-6.758 3.894-6.861-2.131-3.107-5.434-3.532-6.594-3.565-2.775-.292-5.465 1.66-6.879 1.66-1.442 0-3.619-1.631-5.963-1.583-3.018.047-5.842 1.794-7.391 4.507-3.195 5.533-.812 13.665 2.249 18.137 1.532 2.19 3.322 4.636 5.664 4.549 2.292-.095 3.148-1.461 5.915-1.461 2.741 0 3.544 1.461 5.933 1.406 2.46-.04 4.009-2.2 5.487-4.41 1.77-2.511 2.481-4.984 2.509-5.11-.057-.02-4.777-1.82-4.824-7.269" fill="#fff" sketch:type="MSShapeGroup"/><path d="M38.754 17.196c1.232-1.542 2.075-3.639 1.841-5.767-1.784.079-4.015 1.233-5.3 2.742-1.136 1.328-2.152 3.507-1.89 5.554 2.004.149 4.062-1.011 5.349-2.529" fill="#fff" sketch:type="MSShapeGroup"/><path d="M71.999 19.404l-.87 2.865h-1.905l3.24-10.11h2.355l3.285 10.11h-1.98l-.915-2.865h-3.21zm2.895-1.395l-.795-2.49c-.195-.615-.36-1.305-.51-1.89h-.03c-.15.585-.3 1.29-.48 1.89l-.78 2.49h2.595z" fill="#FFFEFD" sketch:type="MSShapeGroup"/><path d="M80.204 14.964l1.185 3.704c.21.645.361 1.23.495 1.831h.045c.135-.601.3-1.17.495-1.831l1.155-3.704h1.95l-2.79 7.305h-1.815l-2.714-7.305h1.994" fill="#FFFEFD" sketch:type="MSShapeGroup"/><path d="M90.674 22.269l-.119-.811h-.046c-.449.571-1.215.976-2.159.976-1.47 0-2.295-1.065-2.295-2.175 0-1.845 1.634-2.775 4.335-2.76v-.12c0-.48-.196-1.275-1.485-1.275-.72 0-1.47.225-1.966.54l-.359-1.2c.54-.33 1.484-.645 2.64-.645 2.34 0 3.014 1.485 3.014 3.075v2.64c0 .66.031 1.304.105 1.755h-1.665zm-.239-3.57c-1.306-.031-2.55.255-2.55 1.364 0 .721.465 1.051 1.05 1.051.734 0 1.275-.48 1.44-1.005.044-.135.06-.285.06-.405v-1.005z" fill="#FFFEFD" sketch:type="MSShapeGroup"/><path d="M96.15 12.924c0 .555-.405.99-1.05.99-.615 0-1.02-.435-1.02-.99 0-.57.42-1.005 1.035-1.005.63 0 1.02.435 1.035 1.005zm-1.965 2.04h1.86v7.305h-1.86v-7.305z" fill="#FFFEFD" sketch:type="MSShapeGroup"/><path d="M98.024 11.619h1.86v10.65h-1.86v-10.65z" fill="#FFFEFD" sketch:type="MSShapeGroup"/><path d="M105.989 22.269l-.119-.811h-.046c-.449.571-1.215.976-2.159.976-1.47 0-2.295-1.065-2.295-2.175 0-1.845 1.634-2.775 4.335-2.76v-.12c0-.48-.196-1.275-1.485-1.275-.72 0-1.47.225-1.966.54l-.359-1.2c.54-.33 1.484-.645 2.64-.645 2.34 0 3.014 1.485 3.014 3.075v2.64c0 .66.031 1.304.105 1.755h-1.665zm-.239-3.57c-1.306-.031-2.55.255-2.55 1.364 0 .721.465 1.051 1.05 1.051.734 0 1.274-.48 1.439-1.005.045-.135.061-.285.061-.405v-1.005z" fill="#FFFEFD" sketch:type="MSShapeGroup"/><path d="M109.44 22.269c.03-.496.06-1.306.06-2.055v-8.595h1.845v4.35h.03c.45-.705 1.245-1.17 2.339-1.17 1.786 0 3.06 1.485 3.045 3.705 0 2.624-1.664 3.93-3.315 3.93-.944 0-1.784-.36-2.309-1.26h-.031l-.089 1.095h-1.575zm1.905-3.015c0 .15.015.3.045.434.195.736.839 1.291 1.634 1.291 1.156 0 1.86-.93 1.86-2.4 0-1.29-.614-2.34-1.844-2.34-.75 0-1.425.54-1.635 1.35-.03.135-.06.3-.06.48v1.185z" fill="#FFFEFD" sketch:type="MSShapeGroup"/><path d="M118.274 11.619h1.86v10.65h-1.86v-10.65z" fill="#FFFEFD" sketch:type="MSShapeGroup"/><path d="M123.435 19.134c.044 1.32 1.08 1.889 2.25 1.889.855 0 1.469-.119 2.025-.329l.269 1.275c-.629.255-1.5.45-2.549.45-2.37 0-3.765-1.456-3.765-3.69 0-2.025 1.23-3.93 3.569-3.93 2.37 0 3.15 1.95 3.15 3.555 0 .345-.03.615-.06.78h-4.889zm3.21-1.29c.014-.675-.286-1.785-1.516-1.785-1.139 0-1.619 1.035-1.694 1.785h3.21z" fill="#FFFEFD" sketch:type="MSShapeGroup"/><path d="M139.319 18.549c0 2.684-1.89 3.885-3.75 3.885-2.07 0-3.66-1.425-3.66-3.766 0-2.399 1.575-3.869 3.78-3.869 2.175 0 3.63 1.53 3.63 3.75zm-5.505.075c0 1.41.69 2.475 1.815 2.475 1.05 0 1.785-1.036 1.785-2.505 0-1.14-.51-2.445-1.77-2.445-1.305 0-1.83 1.26-1.83 2.475z" fill="#FFFEFD" sketch:type="MSShapeGroup"/><path d="M140.834 17.139c0-.84-.015-1.545-.06-2.175h1.62l.09 1.095h.045c.315-.57 1.11-1.26 2.325-1.26 1.275 0 2.595.825 2.595 3.135v4.335h-1.845v-4.125c0-1.05-.39-1.845-1.395-1.845-.735 0-1.245.525-1.44 1.08-.06.165-.075.39-.075.6v4.29h-1.86v-5.13" fill="#FFFEFD" sketch:type="MSShapeGroup"/><path d="M72.473 29.419c0 1.082-.79 1.93-2.048 1.93-1.199 0-1.99-.848-1.99-1.93 0-1.112.82-1.96 2.019-1.96 1.229 0 1.989.848 2.019 1.96zm-3.832 3.978h3.627v14.245h-3.627v-14.245z" fill="#FFFEFD" sketch:type="MSShapeGroup"/><path d="M80.049 30.94h-5.616v-3.013h14.889v3.013h-5.675v16.702h-3.598v-16.702" fill="#FFFEFD" sketch:type="MSShapeGroup"/><path d="M102.78 43.372c0 1.696.058 3.1.117 4.27h-3.159l-.176-2.164h-.059c-.614 1.024-2.018 2.486-4.563 2.486-2.603 0-4.972-1.55-4.972-6.201v-8.366h3.597v7.751c0 2.37.761 3.891 2.662 3.891 1.434 0 2.37-1.024 2.75-1.931.117-.321.205-.702.205-1.111v-8.6h3.598v9.975" fill="#FFFEFD" sketch:type="MSShapeGroup"/><path d="M106.672 37.638c0-1.638-.029-3.012-.117-4.241h3.159l.176 2.135h.088c.614-1.112 2.164-2.457 4.534-2.457 2.486 0 5.06 1.609 5.06 6.114v8.453h-3.598v-8.044c0-2.048-.761-3.598-2.72-3.598-1.434 0-2.428 1.024-2.808 2.106-.117.322-.147.761-.147 1.17v8.366h-3.627v-10.004" fill="#FFFEFD" sketch:type="MSShapeGroup"/><path d="M125.951 41.529c.088 2.573 2.106 3.685 4.388 3.685 1.667 0 2.866-.234 3.949-.643l.526 2.486c-1.229.497-2.925.878-4.973.878-4.621 0-7.342-2.838-7.342-7.196 0-3.949 2.399-7.664 6.962-7.664 4.622 0 6.143 3.803 6.143 6.932 0 .673-.059 1.2-.117 1.522h-9.536zm6.26-2.516c.029-1.316-.556-3.481-2.955-3.481-2.223 0-3.159 2.018-3.305 3.481h6.26z" fill="#FFFEFD" sketch:type="MSShapeGroup"/><path d="M138.326 44.337c.82.497 2.37 1.023 3.657 1.023 1.579 0 2.281-.643 2.281-1.579 0-.966-.585-1.463-2.34-2.077-2.778-.965-3.948-2.486-3.92-4.154 0-2.515 2.078-4.475 5.383-4.475 1.579 0 2.954.409 3.773.848l-.702 2.545c-.614-.351-1.755-.819-3.013-.819-1.287 0-1.989.614-1.989 1.492 0 .907.673 1.345 2.486 1.989 2.575.936 3.774 2.252 3.803 4.358 0 2.575-2.018 4.447-5.791 4.447-1.726 0-3.277-.41-4.329-.995l.701-2.603" fill="#FFFEFD" sketch:type="MSShapeGroup"/></g></svg>