<svg width="191" height="63" viewBox="0 0 191 63" xmlns="http://www.w3.org/2000/svg" xmlns:sketch="http://www.bohemiancoding.com/sketch/ns"><title>Kickstarter</title><desc>Created with Sketch.</desc><g sketch:type="MSLayerGroup" fill="none"><path d="M190.5 54.206c0 4.627-3.76 8.38-8.397 8.38h-173.203c-4.638 0-8.399-3.753-8.399-8.38v-45.241c0-4.627 3.761-8.379 8.399-8.379h173.203c4.637 0 8.397 3.752 8.397 8.379v45.241" fill="#1A1919" sketch:type="MSShapeGroup"/><path d="M20.781 28.746l3.394-4.918c.642-.926 1.47-1.39 2.486-1.39.829 0 1.546.295 2.152.882.606.589.909 1.292.909 2.112 0 .606-.161 1.14-.481 1.604l-3.061 4.45 3.742 4.745c.374.472.562 1.025.562 1.657 0 .838-.295 1.557-.883 2.158-.588.602-1.301.902-2.138.902-.918 0-1.617-.298-2.098-.895l-4.584-5.72v3.154c0 .9-.156 1.599-.468 2.099-.57.908-1.399 1.362-2.486 1.362-.989 0-1.755-.333-2.299-1.002-.508-.615-.761-1.43-.761-2.445v-11.695c0-.962.258-1.755.775-2.379.543-.659 1.291-.989 2.245-.989.909 0 1.666.33 2.272.989.339.366.552.735.642 1.11.053.231.08.663.08 1.296v2.913zm16.859-2.579v11.32c0 .98-.254 1.787-.761 2.419-.544.695-1.297 1.042-2.259 1.042-.882 0-1.626-.324-2.232-.975-.508-.544-.762-1.372-.762-2.486v-11.32c0-1.265.254-2.183.762-2.753.579-.651 1.323-.976 2.232-.976.909 0 1.653.321 2.232.963.526.587.788 1.51.788 2.766zm10.823-4.09c2.219-.008 4.259.735 6.121 2.232 1.462 1.176 2.192 2.393 2.192 3.649 0 1.069-.445 1.898-1.336 2.486-.508.339-1.061.508-1.657.508-.49 0-.958-.116-1.404-.348-.187-.098-.65-.548-1.39-1.35-.686-.748-1.546-1.123-2.579-1.123-.998 0-1.833.346-2.506 1.036-.673.691-1.009 1.535-1.009 2.533 0 .989.336 1.829 1.009 2.52.673.69 1.504 1.035 2.493 1.035.819 0 1.581-.276 2.285-.828.436-.419.869-.838 1.296-1.257.464-.401 1.052-.601 1.764-.601.82 0 1.531.287 2.132.862.601.574.902 1.272.902 2.091 0 1.114-.655 2.241-1.964 3.381-1.836 1.604-3.956 2.406-6.362 2.406-1.488 0-2.891-.316-4.21-.949-1.666-.802-2.991-1.98-3.976-3.535-.985-1.554-1.477-3.254-1.477-5.098 0-2.762 1.025-5.114 3.074-7.057 1.809-1.711 4.009-2.575 6.602-2.593zm15.437 6.669l3.395-4.918c.641-.926 1.47-1.39 2.486-1.39.828 0 1.545.295 2.152.882.605.589.908 1.292.908 2.112 0 .606-.16 1.14-.481 1.604l-3.06 4.45 3.742 4.745c.374.472.561 1.025.561 1.657 0 .838-.294 1.557-.882 2.158-.588.602-1.301.902-2.138.902-.918 0-1.618-.298-2.099-.895l-4.584-5.72v3.154c0 .9-.156 1.599-.468 2.099-.57.908-1.399 1.362-2.485 1.362-.989 0-1.756-.333-2.299-1.002-.508-.615-.762-1.43-.762-2.445v-11.695c0-.962.258-1.755.775-2.379.544-.659 1.292-.989 2.246-.989.908 0 1.665.33 2.271.989.339.366.553.735.642 1.11.053.231.08.663.08 1.296v2.913z" fill="#fff" sketch:type="MSShapeGroup"/><path d="M77.366 33.919c.669 0 1.381.294 2.139.882.944.74 1.59 1.109 1.938 1.109.516 0 .775-.267.775-.802 0-.294-.152-.543-.455-.749-.16-.107-1.06-.449-2.699-1.029-2.682-.944-4.023-2.69-4.023-5.239 0-1.924.708-3.443 2.125-4.557 1.238-.971 2.771-1.457 4.597-1.457 1.577 0 2.949.377 4.117 1.13 1.167.753 1.751 1.722 1.751 2.907 0 .713-.221 1.307-.662 1.784-.441.477-1.014.714-1.718.714-.739 0-1.559-.351-2.459-1.055-.561-.436-.984-.655-1.269-.655-.49 0-.735.241-.735.722 0 .454.605.869 1.817 1.243 1.675.526 2.972 1.167 3.889 1.924 1.221 1.016 1.832 2.442 1.832 4.277 0 1.996-.687 3.555-2.059 4.678-1.274 1.042-2.931 1.563-4.971 1.563-2.041 0-3.729-.543-5.066-1.63-1.069-.864-1.603-1.875-1.603-3.034 0-.775.262-1.421.788-1.938.526-.516 1.176-.78 1.951-.788zm16.092-5.747h-1.591c-.882 0-1.613-.241-2.192-.722-.614-.516-.922-1.207-.922-2.071 0-.517.145-1.014.434-1.491.29-.476.664-.815 1.123-1.015.459-.201 1.548-.301 3.268-.301h6.068c1.487 0 2.45.089 2.886.267.481.196.871.533 1.169 1.009.299.477.449.978.449 1.504 0 .828-.33 1.55-.99 2.165-.472.437-1.243.655-2.312.655h-1.377v9.088c0 .989-.168 1.755-.507 2.298-.571.909-1.395 1.364-2.472 1.364-1.079 0-1.907-.415-2.487-1.243-.365-.517-.547-1.301-.547-2.352v-9.155zm14.621 10.277c-.286.677-.579 1.181-.882 1.51-.606.66-1.341.989-2.205.989-1.061 0-1.885-.427-2.473-1.283-.347-.507-.521-1.077-.521-1.71 0-.526.125-1.056.374-1.591l5.707-12.148c.552-1.185 1.474-1.778 2.766-1.778 1.31 0 2.25.61 2.82 1.831l5.761 12.242c.232.491.347.976.347 1.457 0 .713-.232 1.346-.695 1.898-.606.722-1.381 1.082-2.325 1.082-.776 0-1.422-.24-1.939-.721-.383-.356-.766-.949-1.149-1.778h-5.586zm24.985-4.664l1.416 2.272c.392.632.588 1.283.588 1.951 0 .847-.291 1.548-.875 2.105-.584.557-1.298.835-2.144.835-1.088 0-1.912-.463-2.473-1.39l-2.513-4.116v2.473c0 .846-.278 1.564-.835 2.151-.557.589-1.259.882-2.105.882-1.034 0-1.818-.369-2.352-1.109-.481-.65-.722-1.506-.722-2.566v-11.239c0-2.308 1.243-3.462 3.729-3.462h3.822c1.256 0 2.424.363 3.502 1.089 1.078.727 1.866 1.669 2.365 2.827.374.873.562 1.751.562 2.633 0 1.648-.655 3.203-1.965 4.664zm7.147-5.613h-1.591c-.882 0-1.612-.241-2.191-.722-.615-.516-.923-1.207-.923-2.071 0-.517.146-1.014.435-1.491.289-.476.664-.815 1.122-1.015.459-.201 1.548-.301 3.268-.301h6.068c1.488 0 2.45.089 2.886.267.481.196.871.533 1.17 1.009.298.477.448.978.448 1.504 0 .828-.33 1.55-.989 2.165-.473.437-1.243.655-2.312.655h-1.377v9.088c0 .989-.169 1.755-.508 2.298-.57.909-1.395 1.364-2.472 1.364-1.078 0-1.907-.415-2.486-1.243-.366-.517-.548-1.301-.548-2.352v-9.155zm17.828 7.003h2.734c1.129 0 1.97.232 2.521.695.649.553.974 1.265.974 2.138 0 .891-.326 1.613-.976 2.165-.508.428-1.341.642-2.499.642h-4.691c-1.105 0-1.862-.085-2.272-.254-.803-.33-1.333-.869-1.591-1.617-.16-.481-.24-1.27-.24-2.366v-9.916c0-.829.027-1.385.08-1.671.098-.579.334-1.069.708-1.47.428-.455.971-.744 1.631-.869.311-.053.944-.08 1.897-.08h3.596c.98 0 1.55.009 1.71.027.642.062 1.167.249 1.577.561.731.553 1.096 1.274 1.096 2.165 0 .962-.32 1.697-.96 2.205-.569.455-1.347.682-2.334.682h-2.961v1.243h2.36c.692 0 1.266.182 1.719.548.479.392.72.931.72 1.617 0 1.452-.885 2.179-2.653 2.179h-2.146v1.376zm19.35-1.39l1.417 2.272c.392.632.588 1.283.588 1.951 0 .847-.293 1.548-.876 2.105-.583.557-1.299.835-2.145.835-1.087 0-1.911-.463-2.472-1.39l-2.513-4.116v2.473c0 .846-.279 1.564-.835 2.151-.557.589-1.259.882-2.105.882-1.034 0-1.818-.369-2.352-1.109-.482-.65-.722-1.506-.722-2.566v-11.239c0-2.308 1.243-3.462 3.729-3.462h3.822c1.256 0 2.423.363 3.501 1.089 1.078.727 1.867 1.669 2.366 2.827.374.873.561 1.751.561 2.633 0 1.648-.654 3.203-1.964 4.664z" fill="#6EBA6D" sketch:type="MSShapeGroup"/></g></svg>