<?xml version="1.0" encoding="UTF-8" standalone="no"?>
<svg width="191px" height="63px" viewBox="0 0 191 63" version="1.1" xmlns="http://www.w3.org/2000/svg" xmlns:xlink="http://www.w3.org/1999/xlink" xmlns:sketch="http://www.bohemiancoding.com/sketch/ns">
    <!-- Generator: Sketch 3.2.2 (9983) - http://www.bohemiancoding.com/sketch -->
    <title>Kindle</title>
    <desc>Created with Sketch.</desc>
    <defs>
        <linearGradient x1="49.9994305%" y1="0.000280898876%" x2="49.9994305%" y2="100.000562%" id="linearGradient-1">
            <stop stop-color="#FF9A1B" offset="0%"></stop>
            <stop stop-color="#D16100" offset="100%"></stop>
        </linearGradient>
        <linearGradient x1="50.000751%" y1="99.9975819%" x2="50.000751%" y2="-0.00145088746%" id="linearGradient-2">
            <stop stop-color="#FF6500" offset="0%"></stop>
            <stop stop-color="#FFAD00" offset="100%"></stop>
        </linearGradient>
        <linearGradient x1="50%" y1="100.00353%" x2="50%" y2="0.00352982704%" id="linearGradient-3">
            <stop stop-color="#FF6500" offset="0%"></stop>
            <stop stop-color="#FFAD00" offset="100%"></stop>
        </linearGradient>
        <linearGradient x1="49.9974057%" y1="99.9965412%" x2="49.9974057%" y2="-0.00345877144%" id="linearGradient-4">
            <stop stop-color="#FF6500" offset="0%"></stop>
            <stop stop-color="#FFAD00" offset="100%"></stop>
        </linearGradient>
    </defs>
    <g id="Page-1" stroke="none" stroke-width="1" fill="none" fill-rule="evenodd" sketch:type="MSPage">
        <g id="Kindle" sketch:type="MSLayerGroup">
            <path d="M190.867,53.8848 C190.867,58.9048923 186.612919,62.974 181.36685,62.974 L10.3671495,62.974 C5.12108103,62.974 0.867,58.9039385 0.867,53.8848 L0.867,10.0632 C0.867,5.04310769 5.12108103,0.974 10.3671495,0.974 L181.365853,0.974 C186.612919,0.974 190.866003,5.04310769 190.866003,10.0632 L190.866003,53.8848 L190.867,53.8848 Z" id="Shape" fill="#1A1919" sketch:type="MSShapeGroup"></path>
            <g id="Group" transform="translate(5.000000, 5.000000)" sketch:type="MSShapeGroup">
                <path d="M53.159,46.279 C53.159,49.962 50.174,52.946 46.492,52.946 L7.146,52.946 C3.464,52.946 0.479,49.962 0.479,46.279 L0.479,6.934 C0.479,3.252 3.464,0.267 7.146,0.267 L46.491,0.267 C50.173,0.267 53.158,3.252 53.158,6.934 L53.158,46.279 L53.159,46.279 Z" id="Shape" fill="#FFFFFF"></path>
                <path d="M53.262,46.382 C53.262,50.064 50.277,53.049 46.594,53.049 L7.25,53.049 C3.568,53.049 0.583,50.064 0.583,46.382 L0.583,17.449 C0.583,17.449 11.798,19.404 26.923,19.293 C41.125,19.189 53.262,17.449 53.262,17.449 L53.262,46.382 L53.262,46.382 Z" id="Shape" fill="url(#linearGradient-1)"></path>
                <path d="M46.594,52.997 L7.25,52.997 C3.545,52.997 0.531,49.983 0.531,46.278 L0.531,6.934 C0.531,3.229 3.545,0.215 7.25,0.215 L46.595,0.215 C50.3,0.215 53.314,3.229 53.314,6.934 L53.314,46.279 C53.313,49.984 50.299,52.997 46.594,52.997 L46.594,52.997 Z M7.25,0.318 C3.602,0.318 0.634,3.286 0.634,6.934 L0.634,46.279 C0.634,49.927 3.602,52.895 7.25,52.895 L46.595,52.895 C50.243,52.895 53.211,49.927 53.211,46.279 L53.211,6.934 C53.211,3.286 50.243,0.318 46.595,0.318 L7.25,0.318 L7.25,0.318 Z" id="Shape" fill="#000000"></path>
                <path d="M31.393,14.097 C29.243,15.724 26.125,16.59 23.441,16.59 C19.678,16.59 16.291,15.164 13.727,12.79 C13.526,12.604 13.705,12.349 13.947,12.494 C16.713,14.144 20.133,15.138 23.667,15.138 C26.05,15.138 28.671,14.631 31.081,13.582 C31.444,13.424 31.749,13.827 31.393,14.097 L31.393,14.097 Z" id="Shape" fill="#000000"></path>
                <path d="M32.288,13.05 C32.013,12.689 30.47,12.879 29.777,12.964 C29.567,12.99 29.535,12.802 29.724,12.666 C30.955,11.779 32.972,12.036 33.206,12.332 C33.442,12.632 33.144,14.705 31.99,15.695 C31.813,15.847 31.644,15.766 31.722,15.565 C31.982,14.899 32.563,13.41 32.288,13.05 L32.288,13.05 Z" id="Shape" fill="#000000"></path>
                <path d="M29.723,6.402 L29.723,5.541 C29.723,5.41 29.82,5.323 29.936,5.323 L33.701,5.323 C33.821,5.323 33.918,5.413 33.918,5.54 L33.918,6.279 C33.917,6.403 33.816,6.565 33.635,6.821 L31.684,9.676 C32.408,9.659 33.174,9.77 33.832,10.149 C33.98,10.234 34.02,10.361 34.032,10.485 L34.032,11.405 C34.032,11.531 33.897,11.678 33.755,11.602 C32.596,10.979 31.058,10.911 29.777,11.609 C29.646,11.681 29.509,11.536 29.509,11.41 L29.509,10.536 C29.509,10.396 29.511,10.157 29.649,9.944 L31.909,6.62 L29.94,6.62 C29.82,6.619 29.723,6.532 29.723,6.402 L29.723,6.402 Z" id="Shape" fill="#000000"></path>
                <path d="M16.091,11.783 L14.946,11.783 C14.837,11.776 14.75,11.692 14.741,11.584 L14.742,5.556 C14.742,5.435 14.841,5.339 14.963,5.339 L16.029,5.339 C16.141,5.345 16.231,5.432 16.238,5.542 L16.238,6.329 L16.259,6.329 C16.537,5.568 17.061,5.212 17.767,5.212 C18.483,5.212 18.932,5.567 19.253,6.329 C19.531,5.568 20.162,5.212 20.836,5.212 C21.317,5.212 21.841,5.415 22.162,5.872 C22.526,6.38 22.451,7.115 22.451,7.762 L22.45,11.567 C22.45,11.687 22.351,11.784 22.229,11.784 L21.085,11.784 C20.97,11.776 20.879,11.683 20.879,11.568 L20.879,8.37 C20.879,8.117 20.9,7.482 20.847,7.241 C20.762,6.835 20.505,6.721 20.174,6.721 C19.896,6.721 19.607,6.911 19.489,7.216 C19.371,7.521 19.382,8.028 19.382,8.37 L19.382,11.566 C19.382,11.686 19.283,11.783 19.161,11.783 L18.017,11.783 C17.902,11.775 17.811,11.682 17.811,11.567 L17.81,8.37 C17.81,7.698 17.917,6.708 17.104,6.708 C16.281,6.708 16.312,7.672 16.312,8.37 L16.312,11.566 C16.312,11.686 16.213,11.783 16.091,11.783 L16.091,11.783 Z" id="Shape" fill="#000000"></path>
                <path d="M37.056,5.211 C38.756,5.211 39.676,6.708 39.676,8.611 C39.676,10.45 38.66,11.909 37.056,11.909 C35.388,11.909 34.479,10.412 34.479,8.547 C34.479,6.67 35.399,5.211 37.056,5.211 L37.056,5.211 Z M37.067,6.442 C36.222,6.442 36.169,7.621 36.169,8.357 C36.169,9.093 36.158,10.666 37.057,10.666 C37.944,10.666 37.987,9.397 37.987,8.624 C37.987,8.117 37.966,7.508 37.816,7.025 C37.687,6.607 37.43,6.442 37.067,6.442 L37.067,6.442 Z" id="Shape" fill="#000000"></path>
                <path d="M41.88,11.783 L40.739,11.783 C40.624,11.775 40.533,11.682 40.533,11.567 L40.531,5.536 C40.541,5.426 40.635,5.339 40.751,5.339 L41.813,5.339 C41.913,5.344 41.995,5.414 42.017,5.508 L42.017,6.43 L42.038,6.43 C42.358,5.605 42.808,5.212 43.599,5.212 C44.112,5.212 44.615,5.402 44.935,5.922 C45.234,6.404 45.234,7.216 45.234,7.799 L45.234,11.592 C45.221,11.699 45.128,11.782 45.015,11.782 L43.867,11.782 C43.76,11.775 43.676,11.695 43.663,11.592 L43.663,8.32 C43.663,7.66 43.738,6.696 42.947,6.696 C42.669,6.696 42.412,6.886 42.284,7.178 C42.124,7.546 42.102,7.914 42.102,8.32 L42.102,11.566 C42.101,11.686 42.002,11.783 41.88,11.783 L41.88,11.783 Z" id="Shape" fill="#000000"></path>
                <path d="M26.824,8.904 C26.824,9.361 26.835,9.743 26.61,10.15 C26.427,10.481 26.138,10.684 25.817,10.684 C25.378,10.684 25.121,10.341 25.121,9.832 C25.121,8.832 25.996,8.649 26.825,8.649 L26.825,8.904 L26.824,8.904 Z M27.979,11.767 C27.903,11.837 27.794,11.841 27.708,11.794 C27.328,11.47 27.26,11.32 27.052,11.011 C26.423,11.668 25.978,11.865 25.163,11.865 C24.199,11.865 23.449,11.255 23.449,10.034 C23.449,9.08 23.952,8.432 24.67,8.115 C25.291,7.835 26.16,7.784 26.824,7.708 L26.824,7.555 C26.824,7.275 26.845,6.945 26.685,6.703 C26.546,6.487 26.278,6.398 26.042,6.398 C25.605,6.398 25.217,6.627 25.122,7.103 C25.102,7.209 25.027,7.313 24.923,7.319 L23.813,7.196 C23.719,7.175 23.615,7.097 23.642,6.95 C23.897,5.569 25.114,5.152 26.204,5.152 C26.761,5.152 27.49,5.304 27.929,5.737 C28.486,6.271 28.432,6.983 28.432,7.758 L28.432,9.588 C28.432,10.139 28.655,10.38 28.865,10.677 C28.938,10.784 28.954,10.911 28.861,10.989 C28.627,11.19 28.212,11.56 27.983,11.769 L27.979,11.767 L27.979,11.767 Z" id="Shape" fill="#000000"></path>
                <path d="M11.911,8.904 C11.911,9.361 11.922,9.743 11.697,10.15 C11.515,10.481 11.225,10.684 10.904,10.684 C10.465,10.684 10.208,10.341 10.208,9.832 C10.208,8.832 11.083,8.649 11.912,8.649 L11.912,8.904 L11.911,8.904 Z M13.066,11.767 C12.99,11.837 12.88,11.841 12.795,11.794 C12.414,11.47 12.346,11.32 12.138,11.011 C11.509,11.668 11.064,11.865 10.249,11.865 C9.285,11.865 8.535,11.255 8.535,10.034 C8.535,9.08 9.038,8.432 9.757,8.115 C10.378,7.835 11.246,7.784 11.911,7.708 L11.911,7.555 C11.911,7.275 11.932,6.945 11.772,6.703 C11.632,6.487 11.365,6.398 11.129,6.398 C10.692,6.398 10.304,6.627 10.209,7.103 C10.189,7.209 10.114,7.313 10.01,7.319 L8.9,7.196 C8.806,7.175 8.702,7.097 8.729,6.95 C8.984,5.569 10.2,5.152 11.291,5.152 C11.848,5.152 12.577,5.304 13.016,5.737 C13.573,6.271 13.52,6.983 13.52,7.758 L13.52,9.588 C13.52,10.139 13.743,10.38 13.952,10.677 C14.025,10.784 14.041,10.911 13.948,10.989 C13.714,11.19 13.299,11.56 13.07,11.769 L13.066,11.767 L13.066,11.767 Z" id="Shape" fill="#000000"></path>
                <circle id="Oval" fill="#202074" cx="12.074" cy="34.168" r="9.312"></circle>
                <path d="M12.594,30.613 L10.36,30.613 L10.36,38.892 C10.36,38.892 10.261,39.055 10.064,38.788 C9.967,38.656 7.338,34.752 7.338,34.752 C7.338,34.752 6.911,34.325 6.287,34.489 C5.662,34.653 5.433,35.08 5.728,35.606 C6.023,36.131 8.027,40.894 10.623,42.209 C12.468,43.143 14.663,42.799 15.912,42.209 C17.017,41.687 18.744,40.402 18.875,38.694 C19.006,36.985 18.872,35.474 18.872,35.474 L17.71,35.474 L17.71,37.543 L16.963,37.543 L16.963,34.521 L15.649,34.521 L15.649,36.992 L14.865,36.992 L14.865,33.766 L13.387,33.766 L13.387,36.828 L12.669,36.828 L12.594,30.613 L12.594,30.613 Z" id="Shape" fill="#FFFFFF"></path>
                <rect id="Rectangle-path" fill="#FFFFFF" x="6.418" y="30.613" width="1.872" height="1.15"></rect>
                <rect id="Rectangle-path" fill="#FFFFFF" x="14.778" y="30.613" width="1.872" height="1.15"></rect>
                <rect id="Rectangle-path" fill="#FFFFFF" x="10.492" y="26.474" width="1.938" height="2.168"></rect>
                <path d="M8.816,29.693 L9.506,29.003 L8.229,27.689 L7.458,28.379 L8.816,29.693 Z" id="Shape" fill="#FFFFFF"></path>
                <path d="M14.341,29.488 L13.754,28.695 L15.134,27.586 L15.7,28.379 L14.341,29.488 Z" id="Shape" fill="#FFFFFF"></path>
                <g transform="translate(23.000000, 29.000000)" id="Shape" fill="#FFFFFF">
                    <g>
                        <path d="M1.372,1.083 C1.86,0.828 2.543,0.478 3.644,0.478 C5.874,0.478 6.391,1.721 6.391,3.779 L6.391,7.367 C6.391,7.958 6.344,8.5 6.386,8.818 L4.824,8.818 C4.789,8.442 4.829,8.101 4.829,7.702 L4.801,7.702 C4.369,8.372 3.825,8.946 2.793,8.946 C1.678,8.946 0.646,8.069 0.646,6.538 C0.646,4.306 2.235,3.747 4.424,3.747 L4.773,3.747 L4.773,3.444 C4.773,2.631 4.424,1.882 3.435,1.882 C2.57,1.882 1.804,2.361 1.469,2.679 L1.372,1.083 L1.372,1.083 Z M4.774,4.799 L4.621,4.799 C3.143,4.799 2.265,5.15 2.265,6.346 C2.265,7.096 2.698,7.606 3.367,7.606 C4.399,7.606 4.775,6.729 4.775,5.262 L4.775,4.799 L4.774,4.799 Z"></path>
                        <path d="M2.794,8.997 C1.702,8.997 0.596,8.152 0.596,6.537 C0.596,4.017 2.642,3.695 4.426,3.695 L4.723,3.695 L4.723,3.443 C4.723,2.989 4.598,1.931 3.436,1.931 C2.561,1.931 1.811,2.424 1.506,2.714 C1.491,2.729 1.47,2.732 1.451,2.725 C1.432,2.718 1.42,2.7 1.419,2.68 L1.321,1.085 C1.32,1.066 1.331,1.046 1.348,1.036 C1.814,0.793 2.518,0.425 3.644,0.425 C5.966,0.425 6.442,1.765 6.442,3.778 L6.442,7.366 C6.442,7.587 6.436,7.796 6.429,7.998 C6.419,8.329 6.41,8.614 6.436,8.81 C6.438,8.826 6.434,8.84 6.424,8.851 C6.414,8.862 6.4,8.869 6.385,8.869 L4.823,8.869 C4.797,8.869 4.774,8.849 4.772,8.822 C4.749,8.577 4.758,8.349 4.767,8.108 C4.77,8.018 4.774,7.926 4.776,7.832 C4.377,8.425 3.821,8.997 2.794,8.997 L2.794,8.997 Z M4.425,3.798 C1.848,3.798 0.699,4.643 0.699,6.537 C0.699,8.084 1.753,8.894 2.794,8.894 C3.828,8.894 4.35,8.307 4.758,7.673 C4.768,7.658 4.784,7.65 4.802,7.65 L4.83,7.65 C4.858,7.65 4.881,7.672 4.881,7.701 C4.881,7.845 4.876,7.981 4.871,8.112 C4.863,8.335 4.855,8.545 4.872,8.766 L6.329,8.766 C6.31,8.566 6.319,8.299 6.328,7.995 C6.334,7.794 6.34,7.586 6.34,7.366 L6.34,3.778 C6.34,1.827 5.882,0.528 3.645,0.528 C2.567,0.528 1.883,0.874 1.426,1.113 L1.515,2.568 C1.87,2.264 2.598,1.829 3.436,1.829 C4.319,1.829 4.826,2.417 4.826,3.443 L4.826,3.746 C4.826,3.774 4.803,3.798 4.775,3.798 L4.425,3.798 L4.425,3.798 Z M3.366,7.658 C2.676,7.658 2.213,7.131 2.213,6.346 C2.213,5.226 2.933,4.748 4.621,4.748 L4.774,4.748 C4.802,4.748 4.825,4.77 4.825,4.799 L4.825,5.262 C4.825,6.897 4.361,7.658 3.366,7.658 L3.366,7.658 Z M4.621,4.851 C3.005,4.851 2.316,5.298 2.316,6.346 C2.316,7.08 2.728,7.555 3.366,7.555 C4.292,7.555 4.722,6.826 4.722,5.262 L4.722,4.851 L4.621,4.851 L4.621,4.851 Z"></path>
                    </g>
                    <g transform="translate(7.000000, 0.000000)">
                        <path d="M1.022,2.008 C1.022,1.418 1.018,0.967 1.018,0.619 L2.531,0.623 C2.545,0.88 2.537,0.911 2.537,1.469 L2.579,1.469 C2.858,0.768 3.476,0.478 4.592,0.478 C6.377,0.478 7.218,2.423 7.218,4.704 C7.218,7.384 6.181,8.74 4.634,8.74 C3.602,8.74 3.03,8.585 2.78,7.947 L2.752,7.947 L2.752,11.851 L1.023,11.851 L1.023,2.008 L1.022,2.008 Z M4.089,7.288 C5.051,7.288 5.591,6.426 5.591,4.783 C5.591,2.886 5.121,1.929 4.117,1.929 C3.099,1.929 2.751,3.085 2.751,4.632 C2.751,6.228 3.141,7.288 4.089,7.288 L4.089,7.288 Z"></path>
                        <path d="M2.751,11.903 L1.022,11.903 C0.994,11.903 0.971,11.88 0.971,11.851 L0.971,2.008 C0.971,1.675 0.97,1.385 0.968,1.134 C0.967,0.941 0.966,0.771 0.966,0.619 C0.966,0.605 0.971,0.592 0.981,0.582 C0.991,0.573 1.004,0.567 1.018,0.567 L1.018,0.567 L2.532,0.571 C2.559,0.571 2.582,0.592 2.583,0.62 C2.592,0.791 2.592,0.862 2.59,1.052 C2.59,1.121 2.589,1.207 2.589,1.32 C2.896,0.695 3.506,0.426 4.592,0.426 C6.219,0.426 7.27,2.105 7.27,4.703 C7.27,7.302 6.31,8.791 4.635,8.791 C3.715,8.791 3.107,8.677 2.804,8.119 L2.804,11.851 C2.802,11.879 2.779,11.903 2.751,11.903 L2.751,11.903 Z M1.074,11.8 L2.699,11.8 L2.699,7.946 C2.699,7.918 2.722,7.894 2.751,7.894 L2.779,7.894 C2.8,7.894 2.819,7.908 2.827,7.927 C3.048,8.489 3.52,8.688 4.634,8.688 C6.243,8.688 7.167,7.236 7.167,4.703 C7.167,2.777 6.493,0.528 4.592,0.528 C3.482,0.528 2.894,0.815 2.627,1.488 C2.619,1.508 2.6,1.52 2.579,1.52 L2.537,1.52 C2.508,1.52 2.485,1.497 2.485,1.468 C2.485,1.278 2.486,1.149 2.487,1.05 C2.488,0.882 2.489,0.808 2.482,0.673 L1.069,0.669 C1.069,0.808 1.07,0.961 1.071,1.132 C1.072,1.384 1.074,1.673 1.074,2.007 L1.074,11.8 L1.074,11.8 Z M4.089,7.34 C3.18,7.34 2.699,6.403 2.699,4.632 C2.699,2.804 3.176,1.877 4.117,1.877 C5.144,1.877 5.643,2.827 5.643,4.783 C5.643,6.432 5.091,7.34 4.089,7.34 L4.089,7.34 Z M4.117,1.98 C3.244,1.98 2.802,2.873 2.802,4.632 C2.802,5.82 3.025,7.236 4.089,7.236 C5.025,7.236 5.54,6.365 5.54,4.783 C5.54,2.897 5.075,1.98 4.117,1.98 L4.117,1.98 Z"></path>
                    </g>
                    <g transform="translate(22.000000, 0.000000)">
                        <path d="M0.633,6.616 C0.924,6.74 1.664,7.246 2.507,7.246 C3.161,7.246 3.669,7.075 3.669,6.456 C3.669,6.146 3.524,5.852 2.87,5.449 L1.821,4.779 C1.066,4.299 0.547,3.95 0.547,2.841 C0.547,1.562 1.549,0.478 3.132,0.478 C4.091,0.478 4.831,0.741 5.006,0.803 L4.904,2.289 C4.454,2.103 3.975,1.933 3.321,1.933 C2.595,1.933 2.29,2.228 2.29,2.707 C2.29,3.141 2.509,3.309 3.031,3.665 L4.273,4.259 C5.25,4.831 5.516,5.627 5.516,6.347 C5.516,7.819 4.457,8.804 2.83,8.804 C1.9,8.804 0.925,8.469 0.547,8.314 L0.633,6.616 L0.633,6.616 Z"></path>
                        <path d="M2.829,8.856 C1.784,8.856 0.728,8.445 0.527,8.362 C0.507,8.353 0.494,8.334 0.495,8.312 L0.582,6.614 C0.583,6.597 0.592,6.582 0.606,6.573 C0.62,6.564 0.638,6.562 0.653,6.569 C0.715,6.595 0.796,6.637 0.889,6.687 C1.248,6.876 1.849,7.194 2.507,7.194 C3.265,7.194 3.617,6.96 3.617,6.456 C3.617,6.165 3.486,5.889 2.843,5.493 L1.793,4.822 C1.068,4.361 0.495,3.997 0.495,2.842 C0.495,1.443 1.603,0.427 3.131,0.427 C3.572,0.427 4.258,0.484 5.022,0.755 C5.043,0.763 5.058,0.784 5.056,0.807 L4.954,2.294 C4.953,2.311 4.944,2.325 4.93,2.334 C4.916,2.343 4.898,2.344 4.883,2.338 C4.451,2.159 3.975,1.986 3.32,1.986 C2.661,1.986 2.341,2.222 2.341,2.709 C2.341,3.118 2.548,3.276 3.06,3.625 L4.294,4.214 C5.139,4.709 5.566,5.427 5.566,6.349 C5.565,7.847 4.466,8.856 2.829,8.856 L2.829,8.856 Z M0.599,8.28 C0.862,8.385 1.851,8.754 2.828,8.754 C4.428,8.754 5.462,7.81 5.462,6.348 C5.462,5.465 5.052,4.778 4.244,4.304 L3.007,3.713 C2.47,3.348 2.236,3.169 2.236,2.708 C2.236,2.332 2.424,1.883 3.319,1.883 C3.96,1.883 4.432,2.043 4.856,2.216 L4.95,0.839 C4.215,0.584 3.556,0.529 3.13,0.529 C1.662,0.529 0.596,1.502 0.596,2.841 C0.596,3.941 1.12,4.274 1.847,4.735 L2.896,5.406 C3.48,5.765 3.718,6.07 3.718,6.456 C3.718,7.022 3.321,7.297 2.505,7.297 C1.822,7.297 1.207,6.973 0.839,6.778 C0.779,6.747 0.725,6.718 0.678,6.695 L0.599,8.28 L0.599,8.28 Z"></path>
                    </g>
                    <g transform="translate(15.000000, 0.000000)">
                        <path d="M0.45,2.008 C0.45,1.418 0.446,0.967 0.446,0.619 L1.96,0.623 C1.974,0.88 1.965,0.911 1.965,1.469 L2.007,1.469 C2.286,0.768 2.905,0.478 4.02,0.478 C5.805,0.478 6.646,2.423 6.646,4.704 C6.646,7.384 5.609,8.74 4.062,8.74 C3.03,8.74 2.458,8.585 2.208,7.947 L2.18,7.947 L2.18,11.851 L0.45,11.851 L0.45,2.008 L0.45,2.008 Z M3.518,7.288 C4.48,7.288 5.02,6.426 5.02,4.783 C5.02,2.886 4.549,1.929 3.545,1.929 C2.527,1.929 2.179,3.085 2.179,4.632 C2.179,6.228 2.569,7.288 3.518,7.288 L3.518,7.288 Z"></path>
                        <path d="M2.179,11.903 L0.45,11.903 C0.422,11.903 0.399,11.88 0.399,11.851 L0.399,2.008 C0.399,1.675 0.397,1.385 0.396,1.134 C0.395,0.941 0.395,0.771 0.395,0.619 C0.395,0.605 0.4,0.592 0.41,0.582 C0.419,0.573 0.432,0.567 0.446,0.567 L0.446,0.567 L1.96,0.571 C1.987,0.571 2.01,0.592 2.011,0.62 C2.02,0.791 2.02,0.862 2.018,1.052 C2.018,1.121 2.017,1.207 2.017,1.32 C2.324,0.695 2.934,0.426 4.019,0.426 C5.646,0.426 6.697,2.105 6.697,4.703 C6.697,7.302 5.736,8.791 4.061,8.791 C3.141,8.791 2.533,8.677 2.23,8.119 L2.23,11.851 C2.231,11.879 2.208,11.903 2.179,11.903 L2.179,11.903 Z M0.502,11.8 L2.127,11.8 L2.127,7.946 C2.127,7.918 2.15,7.894 2.179,7.894 L2.207,7.894 C2.228,7.894 2.247,7.908 2.255,7.927 C2.476,8.489 2.949,8.688 4.062,8.688 C5.671,8.688 6.595,7.236 6.595,4.703 C6.595,2.777 5.921,0.528 4.02,0.528 C2.91,0.528 2.323,0.815 2.055,1.488 C2.047,1.508 2.029,1.52 2.007,1.52 L1.965,1.52 C1.937,1.52 1.914,1.497 1.914,1.468 C1.914,1.278 1.915,1.149 1.915,1.05 C1.916,0.882 1.917,0.808 1.911,0.673 L0.498,0.669 C0.498,0.808 0.499,0.961 0.499,1.132 C0.5,1.384 0.502,1.673 0.502,2.007 L0.502,11.8 L0.502,11.8 Z M3.518,7.34 C2.609,7.34 2.128,6.403 2.128,4.632 C2.128,2.804 2.605,1.877 3.546,1.877 C4.573,1.877 5.072,2.827 5.072,4.783 C5.071,6.432 4.52,7.34 3.518,7.34 L3.518,7.34 Z M3.545,1.98 C2.672,1.98 2.231,2.873 2.231,4.632 C2.231,5.82 2.454,7.236 3.518,7.236 C4.454,7.236 4.969,6.365 4.969,4.783 C4.968,2.897 4.503,1.98 3.545,1.98 L3.545,1.98 Z"></path>
                    </g>
                </g>
            </g>
            <g id="Group" transform="translate(73.000000, 15.000000)" fill="#FFFFFF" sketch:type="MSShapeGroup">
                <path d="M4.55,0.53 L6.008,0.53 L9.883,10.446 L8.425,10.446 L7.342,7.46 L3.148,7.46 L2.037,10.446 L0.676,10.446 L4.55,0.53 L4.55,0.53 Z M3.564,6.349 L6.925,6.349 L5.272,1.724 L5.244,1.724 L3.564,6.349 L3.564,6.349 Z" id="Shape"></path>
                <path d="M12.855,10.446 L11.591,10.446 L8.925,3.266 L10.244,3.266 L12.258,9.251 L12.286,9.251 L14.244,3.266 L15.48,3.266 L12.855,10.446 L12.855,10.446 Z" id="Shape"></path>
                <path d="M22.229,10.418 C22.021,10.543 21.757,10.613 21.382,10.613 C20.771,10.613 20.382,10.28 20.382,9.502 C19.73,10.266 18.855,10.613 17.855,10.613 C16.55,10.613 15.48,10.03 15.48,8.599 C15.48,6.974 16.688,6.627 17.91,6.391 C19.216,6.141 20.327,6.224 20.327,5.335 C20.327,4.307 19.48,4.141 18.73,4.141 C17.73,4.141 16.994,4.446 16.938,5.502 L15.758,5.502 C15.827,3.725 17.202,3.1 18.799,3.1 C20.09,3.1 21.493,3.392 21.493,5.072 L21.493,8.766 C21.493,9.322 21.493,9.571 21.868,9.571 C21.965,9.571 22.076,9.557 22.229,9.502 L22.229,10.418 L22.229,10.418 Z M20.313,6.738 C19.855,7.071 18.966,7.086 18.174,7.224 C17.397,7.363 16.73,7.641 16.73,8.516 C16.73,9.294 17.397,9.571 18.119,9.571 C19.675,9.571 20.313,8.599 20.313,7.946 L20.313,6.738 L20.313,6.738 Z" id="Shape"></path>
                <path d="M24.23,1.974 L23.049,1.974 L23.049,0.53 L24.23,0.53 L24.23,1.974 L24.23,1.974 Z M23.049,3.266 L24.23,3.266 L24.23,10.446 L23.049,10.446 L23.049,3.266 L23.049,3.266 Z" id="Shape"></path>
                <path d="M25.715,0.53 L26.896,0.53 L26.896,10.446 L25.715,10.446 L25.715,0.53 L25.715,0.53 Z" id="Shape"></path>
                <path d="M34.742,10.418 C34.534,10.543 34.27,10.613 33.895,10.613 C33.284,10.613 32.895,10.28 32.895,9.502 C32.243,10.266 31.368,10.613 30.368,10.613 C29.062,10.613 27.993,10.03 27.993,8.599 C27.993,6.974 29.201,6.627 30.424,6.391 C31.73,6.141 32.84,6.224 32.84,5.335 C32.84,4.307 31.993,4.141 31.243,4.141 C30.243,4.141 29.507,4.446 29.451,5.502 L28.271,5.502 C28.34,3.725 29.715,3.1 31.312,3.1 C32.603,3.1 34.006,3.392 34.006,5.072 L34.006,8.766 C34.006,9.322 34.006,9.571 34.381,9.571 C34.478,9.571 34.589,9.557 34.741,9.502 L34.741,10.418 L34.742,10.418 Z M32.826,6.738 C32.368,7.071 31.479,7.086 30.687,7.224 C29.91,7.363 29.243,7.641 29.243,8.516 C29.243,9.294 29.91,9.571 30.632,9.571 C32.188,9.571 32.826,8.599 32.826,7.946 L32.826,6.738 L32.826,6.738 Z" id="Shape"></path>
                <path d="M35.534,0.53 L36.715,0.53 L36.715,4.238 L36.743,4.238 C37.132,3.446 38.048,3.099 39.034,3.099 C41.242,3.099 42.339,4.849 42.339,6.876 C42.339,8.903 41.256,10.612 39.062,10.612 C38.327,10.612 37.271,10.334 36.744,9.487 L36.716,9.487 L36.716,10.445 L35.535,10.445 L35.535,0.53 L35.534,0.53 Z M38.867,4.141 C37.284,4.141 36.673,5.502 36.673,6.849 C36.673,8.266 37.313,9.571 38.937,9.571 C40.548,9.571 41.09,8.196 41.09,6.794 C41.089,5.446 40.395,4.141 38.867,4.141 L38.867,4.141 Z" id="Shape"></path>
                <path d="M43.242,0.53 L44.423,0.53 L44.423,10.446 L43.242,10.446 L43.242,0.53 L43.242,0.53 Z" id="Shape"></path>
                <path d="M52.033,8.168 C51.713,9.751 50.574,10.612 48.964,10.612 C46.672,10.612 45.589,9.029 45.52,6.835 C45.52,4.682 46.936,3.099 48.895,3.099 C51.436,3.099 52.213,5.474 52.144,7.209 L46.77,7.209 C46.728,8.459 47.437,9.57 49.005,9.57 C49.978,9.57 50.658,9.098 50.866,8.168 L52.033,8.168 L52.033,8.168 Z M50.893,6.168 C50.838,5.043 49.991,4.141 48.825,4.141 C47.589,4.141 46.852,5.071 46.769,6.168 L50.893,6.168 L50.893,6.168 Z" id="Shape"></path>
                <path d="M60.324,3.099 C62.601,3.099 63.809,4.751 63.809,6.862 C63.809,8.959 62.601,10.612 60.324,10.612 C58.047,10.612 56.838,8.959 56.838,6.862 C56.837,4.752 58.046,3.099 60.324,3.099 L60.324,3.099 Z M60.324,9.571 C61.559,9.571 62.559,8.599 62.559,6.863 C62.559,5.113 61.559,4.141 60.324,4.141 C59.088,4.141 58.088,5.113 58.088,6.863 C58.087,8.599 59.087,9.571 60.324,9.571 L60.324,9.571 Z" id="Shape"></path>
                <path d="M64.851,3.266 L65.962,3.266 L65.962,4.405 L65.989,4.405 C66.489,3.516 67.295,3.1 68.322,3.1 C70.211,3.1 70.794,4.183 70.794,5.725 L70.794,10.447 L69.614,10.447 L69.614,5.587 C69.614,4.712 69.058,4.143 68.156,4.143 C66.725,4.143 66.031,5.101 66.031,6.393 L66.031,10.448 L64.85,10.448 L64.85,3.266 L64.851,3.266 Z" id="Shape"></path>
            </g>
            <g id="Group" transform="translate(73.000000, 29.000000)" sketch:type="MSShapeGroup">
                <g transform="translate(65.000000, 0.000000)" id="Shape">
                    <path d="M2.504,9.38 L0.606,9.38 L0.606,7.306 L2.504,7.306 L2.504,5.058 C2.504,1.7 4.52,0.444 6.738,0.444 C7.467,0.444 8.374,0.59 9.103,0.941 L8.579,3.015 C8.052,2.81 7.527,2.693 7.001,2.693 C5.687,2.693 5.074,3.511 5.074,4.971 L5.074,7.307 L8.607,7.307 L7.935,9.381 L5.074,9.381 L5.074,21.121 L2.504,21.121 L2.504,9.38 L2.504,9.38 Z M10.593,2.809 C10.593,1.904 11.266,1.173 12.23,1.173 C13.222,1.173 13.922,1.875 13.922,2.809 C13.922,3.743 13.192,4.474 12.23,4.474 C11.266,4.474 10.593,3.743 10.593,2.809 L10.593,2.809 Z M10.974,7.306 L13.542,7.306 L13.542,21.12 L10.974,21.12 L10.974,7.306 L10.974,7.306 Z" fill="url(#linearGradient-2)"></path>
                    <path d="M16.054,7.306 L18.215,7.306 L18.507,9 C19.967,7.452 21.135,6.955 22.391,6.955 C22.975,6.955 23.618,7.101 24.026,7.364 L23.122,9.642 C22.684,9.409 22.246,9.29 21.808,9.29 C20.815,9.29 19.909,9.816 18.624,11.072 L18.624,21.12 L16.055,21.12 L16.055,7.306 L16.054,7.306 Z" fill="url(#linearGradient-3)"></path>
                    <path d="M23.355,14.111 C23.355,9.906 25.662,6.956 29.195,6.956 C32.816,6.956 34.919,9.731 34.919,14.142 L34.919,14.784 L25.984,14.784 C26.042,17.384 27.618,19.309 30.364,19.309 C31.678,19.309 32.816,18.901 33.78,18.375 L34.598,20.156 C33.313,20.974 31.618,21.412 30.042,21.412 C25.458,21.411 23.355,18.054 23.355,14.111 L23.355,14.111 Z M32.262,12.856 C32.203,10.928 31.269,9.001 29.195,9.001 C27.21,9.001 26.012,10.753 25.984,12.856 L32.262,12.856 L32.262,12.856 Z" fill="url(#linearGradient-4)"></path>
                </g>
                <g id="Shape" fill="#FFFFFF">
                    <path d="M0.676,0.444 L3.246,0.444 L3.246,12.3 L3.304,12.3 L8.298,7.306 L11.336,7.306 L5.407,13.206 L11.92,21.12 L8.854,21.12 L3.305,14.256 L3.247,14.256 L3.247,21.12 L0.677,21.12 L0.677,0.444 L0.676,0.444 Z"></path>
                    <path d="M12.239,2.809 C12.239,1.904 12.911,1.173 13.874,1.173 C14.868,1.173 15.568,1.875 15.568,2.809 C15.568,3.743 14.838,4.474 13.874,4.474 C12.911,4.474 12.239,3.743 12.239,2.809 L12.239,2.809 Z M12.619,7.306 L15.189,7.306 L15.189,21.12 L12.619,21.12 L12.619,7.306 L12.619,7.306 Z"></path>
                    <path d="M17.141,7.306 L19.33,7.306 L19.623,9 C21.112,7.773 22.66,6.955 24.412,6.955 C26.601,6.955 28.617,8.241 28.617,11.861 L28.617,21.12 L26.048,21.12 L26.048,12.709 C26.048,10.752 25.58,9.233 23.682,9.233 C22.281,9.233 20.937,10.051 19.711,11.102 L19.711,21.12 L17.141,21.12 L17.141,7.306 L17.141,7.306 Z"></path>
                    <path d="M29.605,14.374 C29.605,9.935 32.789,6.955 36.906,6.955 C37.607,6.955 38.367,7.013 39.067,7.22 L39.067,0.444 L41.637,0.444 L41.637,20.448 C40.557,21.033 38.775,21.412 37.023,21.412 C32.905,21.411 29.605,18.989 29.605,14.374 L29.605,14.374 Z M39.067,18.9 L39.067,9.438 C38.424,9.234 37.929,9.118 37.051,9.118 C34.395,9.118 32.263,10.986 32.263,14.316 C32.263,17.352 34.103,19.222 37.081,19.222 C37.723,19.222 38.541,19.135 39.067,18.9 L39.067,18.9 Z"></path>
                    <path d="M43.646,0.444 L46.216,0.444 L46.216,17.674 C46.216,18.725 46.537,19.046 47.268,19.046 C47.472,19.046 47.88,18.958 48.115,18.87 L48.64,20.886 C47.998,21.149 47.18,21.294 46.508,21.294 C44.581,21.294 43.646,20.244 43.646,18.404 L43.646,0.444 L43.646,0.444 Z"></path>
                    <path d="M48.727,14.111 C48.727,9.906 51.035,6.956 54.568,6.956 C58.19,6.956 60.292,9.731 60.292,14.142 L60.292,14.784 L51.356,14.784 C51.415,17.384 52.992,19.309 55.737,19.309 C57.05,19.309 58.19,18.901 59.153,18.375 L59.97,20.156 C58.686,20.974 56.992,21.412 55.414,21.412 C50.83,21.411 48.727,18.054 48.727,14.111 L48.727,14.111 Z M57.634,12.856 C57.575,10.928 56.641,9.001 54.568,9.001 C52.583,9.001 51.385,10.753 51.356,12.856 L57.634,12.856 L57.634,12.856 Z"></path>
                </g>
            </g>
        </g>
    </g>
</svg>