<?xml version="1.0" encoding="UTF-8" standalone="no"?>
<svg width="191px" height="63px" viewBox="0 0 191 63" version="1.1" xmlns="http://www.w3.org/2000/svg" xmlns:xlink="http://www.w3.org/1999/xlink" xmlns:sketch="http://www.bohemiancoding.com/sketch/ns">
    <!-- Generator: Sketch 3.2.2 (9983) - http://www.bohemiancoding.com/sketch -->
    <title>Kindle</title>
    <desc>Created with Sketch.</desc>
    <defs>
        <linearGradient x1="49.9994305%" y1="0.000280898876%" x2="49.9994305%" y2="100.000562%" id="linearGradient-1">
            <stop stop-color="#FF9A1B" offset="0%"></stop>
            <stop stop-color="#D16100" offset="100%"></stop>
        </linearGradient>
        <linearGradient x1="50.000751%" y1="99.9975819%" x2="50.000751%" y2="-0.00145088746%" id="linearGradient-2">
            <stop stop-color="#FF6500" offset="0%"></stop>
            <stop stop-color="#FFAD00" offset="100%"></stop>
        </linearGradient>
        <linearGradient x1="50%" y1="100.00353%" x2="50%" y2="0.00352982704%" id="linearGradient-3">
            <stop stop-color="#FF6500" offset="0%"></stop>
            <stop stop-color="#FFAD00" offset="100%"></stop>
        </linearGradient>
        <linearGradient x1="49.9974057%" y1="99.9965412%" x2="49.9974057%" y2="-0.00345877144%" id="linearGradient-4">
            <stop stop-color="#FF6500" offset="0%"></stop>
            <stop stop-color="#FFAD00" offset="100%"></stop>
        </linearGradient>
    </defs>
    <g id="Page-1" stroke="none" stroke-width="1" fill="none" fill-rule="evenodd" sketch:type="MSPage">
        <g id="Kindle" sketch:type="MSLayerGroup">
            <path d="M190.867,53.8848 C190.867,58.9048923 186.612919,62.974 181.36685,62.974 L10.3671495,62.974 C5.12108103,62.974 0.867,58.9039385 0.867,53.8848 L0.867,10.0632 C0.867,5.04310769 5.12108103,0.974 10.3671495,0.974 L181.365853,0.974 C186.612919,0.974 190.866003,5.04310769 190.866003,10.0632 L190.866003,53.8848 L190.867,53.8848 Z" id="Shape" fill="#1A1919" sketch:type="MSShapeGroup"></path>
            <g id="Group" transform="translate(7.000000, 8.000000)" sketch:type="MSShapeGroup">
                <path d="M47.2524444,41.1368889 C47.2524444,44.4106667 44.5991111,47.0631111 41.3262222,47.0631111 L6.352,47.0631111 C3.07911111,47.0631111 0.425777778,44.4106667 0.425777778,41.1368889 L0.425777778,6.16355556 C0.425777778,2.89066667 3.07911111,0.237333333 6.352,0.237333333 L41.3253333,0.237333333 C44.5982222,0.237333333 47.2515556,2.89066667 47.2515556,6.16355556 L47.2515556,41.1368889 L47.2524444,41.1368889 Z" id="Shape" fill="#FFFFFF"></path>
                <path d="M47.344,41.2284444 C47.344,44.5013333 44.6906667,47.1546667 41.4168889,47.1546667 L6.44444444,47.1546667 C3.17155556,47.1546667 0.518222222,44.5013333 0.518222222,41.2284444 L0.518222222,15.5102222 C0.518222222,15.5102222 10.4871111,17.248 23.9315556,17.1493333 C36.5555556,17.0568889 47.344,15.5102222 47.344,15.5102222 L47.344,41.2284444 L47.344,41.2284444 Z" id="Shape" fill="url(#linearGradient-1)"></path>
                <path d="M41.4168889,47.1084444 L6.44444444,47.1084444 C3.15111111,47.1084444 0.472,44.4293333 0.472,41.136 L0.472,6.16355556 C0.472,2.87022222 3.15111111,0.191111111 6.44444444,0.191111111 L41.4177778,0.191111111 C44.7111111,0.191111111 47.3902222,2.87022222 47.3902222,6.16355556 L47.3902222,41.1368889 C47.3893333,44.4302222 44.7102222,47.1084444 41.4168889,47.1084444 L41.4168889,47.1084444 Z M6.44444444,0.282666667 C3.20177778,0.282666667 0.563555556,2.92088889 0.563555556,6.16355556 L0.563555556,41.1368889 C0.563555556,44.3795556 3.20177778,47.0177778 6.44444444,47.0177778 L41.4177778,47.0177778 C44.6604444,47.0177778 47.2986667,44.3795556 47.2986667,41.1368889 L47.2986667,6.16355556 C47.2986667,2.92088889 44.6604444,0.282666667 41.4177778,0.282666667 L6.44444444,0.282666667 L6.44444444,0.282666667 Z" id="Shape" fill="#000000"></path>
                <path d="M27.9048889,12.5306667 C25.9937778,13.9768889 23.2222222,14.7466667 20.8364444,14.7466667 C17.4915556,14.7466667 14.4808889,13.4791111 12.2017778,11.3688889 C12.0231111,11.2035556 12.1822222,10.9768889 12.3973333,11.1057778 C14.856,12.5724444 17.896,13.456 21.0373333,13.456 C23.1555556,13.456 25.4853333,13.0053333 27.6275556,12.0728889 C27.9502222,11.9324444 28.2213333,12.2906667 27.9048889,12.5306667 L27.9048889,12.5306667 Z" id="Shape" fill="#000000"></path>
                <path d="M28.7004444,11.6 C28.456,11.2791111 27.0844444,11.448 26.4684444,11.5235556 C26.2817778,11.5466667 26.2533333,11.3795556 26.4213333,11.2586667 C27.5155556,10.4702222 29.3084444,10.6986667 29.5164444,10.9617778 C29.7262222,11.2284444 29.4613333,13.0711111 28.4355556,13.9511111 C28.2782222,14.0862222 28.128,14.0142222 28.1973333,13.8355556 C28.4284444,13.2435556 28.9448889,11.92 28.7004444,11.6 L28.7004444,11.6 Z" id="Shape" fill="#000000"></path>
                <path d="M26.4204444,5.69066667 L26.4204444,4.92533333 C26.4204444,4.80888889 26.5066667,4.73155556 26.6097778,4.73155556 L29.9564444,4.73155556 C30.0631111,4.73155556 30.1493333,4.81155556 30.1493333,4.92444444 L30.1493333,5.58133333 C30.1484444,5.69155556 30.0586667,5.83555556 29.8977778,6.06311111 L28.1635556,8.60088889 C28.8071111,8.58577778 29.488,8.68444444 30.0728889,9.02133333 C30.2044444,9.09688889 30.24,9.20977778 30.2506667,9.32 L30.2506667,10.1377778 C30.2506667,10.2497778 30.1306667,10.3804444 30.0044444,10.3128889 C28.9742222,9.75911111 27.6071111,9.69866667 26.4684444,10.3191111 C26.352,10.3831111 26.2302222,10.2542222 26.2302222,10.1422222 L26.2302222,9.36533333 C26.2302222,9.24088889 26.232,9.02844444 26.3546667,8.83911111 L28.3635556,5.88444444 L26.6133333,5.88444444 C26.5066667,5.88355556 26.4204444,5.80622222 26.4204444,5.69066667 L26.4204444,5.69066667 Z" id="Shape" fill="#000000"></path>
                <path d="M14.3031111,10.4737778 L13.2853333,10.4737778 C13.1884444,10.4675556 13.1111111,10.3928889 13.1031111,10.2968889 L13.104,4.93866667 C13.104,4.83111111 13.192,4.74577778 13.3004444,4.74577778 L14.248,4.74577778 C14.3475556,4.75111111 14.4275556,4.82844444 14.4337778,4.92622222 L14.4337778,5.62577778 L14.4524444,5.62577778 C14.6995556,4.94933333 15.1653333,4.63288889 15.7928889,4.63288889 C16.4293333,4.63288889 16.8284444,4.94844444 17.1137778,5.62577778 C17.3608889,4.94933333 17.9217778,4.63288889 18.5208889,4.63288889 C18.9484444,4.63288889 19.4142222,4.81333333 19.6995556,5.21955556 C20.0231111,5.67111111 19.9564444,6.32444444 19.9564444,6.89955556 L19.9555556,10.2817778 C19.9555556,10.3884444 19.8675556,10.4746667 19.7591111,10.4746667 L18.7422222,10.4746667 C18.64,10.4675556 18.5591111,10.3848889 18.5591111,10.2826667 L18.5591111,7.44 C18.5591111,7.21511111 18.5777778,6.65066667 18.5306667,6.43644444 C18.4551111,6.07555556 18.2266667,5.97422222 17.9324444,5.97422222 C17.6853333,5.97422222 17.4284444,6.14311111 17.3235556,6.41422222 C17.2186667,6.68533333 17.2284444,7.136 17.2284444,7.44 L17.2284444,10.2808889 C17.2284444,10.3875556 17.1404444,10.4737778 17.032,10.4737778 L16.0151111,10.4737778 C15.9128889,10.4666667 15.832,10.384 15.832,10.2817778 L15.8311111,7.44 C15.8311111,6.84266667 15.9262222,5.96266667 15.2035556,5.96266667 C14.472,5.96266667 14.4995556,6.81955556 14.4995556,7.44 L14.4995556,10.2808889 C14.4995556,10.3875556 14.4115556,10.4737778 14.3031111,10.4737778 L14.3031111,10.4737778 Z" id="Shape" fill="#000000"></path>
                <path d="M32.9386667,4.632 C34.4497778,4.632 35.2675556,5.96266667 35.2675556,7.65422222 C35.2675556,9.28888889 34.3644444,10.5857778 32.9386667,10.5857778 C31.456,10.5857778 30.648,9.25511111 30.648,7.59733333 C30.648,5.92888889 31.4657778,4.632 32.9386667,4.632 L32.9386667,4.632 Z M32.9484444,5.72622222 C32.1973333,5.72622222 32.1502222,6.77422222 32.1502222,7.42844444 C32.1502222,8.08266667 32.1404444,9.48088889 32.9395556,9.48088889 C33.728,9.48088889 33.7662222,8.35288889 33.7662222,7.66577778 C33.7662222,7.21511111 33.7475556,6.67377778 33.6142222,6.24444444 C33.4995556,5.87288889 33.2711111,5.72622222 32.9484444,5.72622222 L32.9484444,5.72622222 Z" id="Shape" fill="#000000"></path>
                <path d="M37.2266667,10.4737778 L36.2124444,10.4737778 C36.1102222,10.4666667 36.0293333,10.384 36.0293333,10.2817778 L36.0275556,4.92088889 C36.0364444,4.82311111 36.12,4.74577778 36.2231111,4.74577778 L37.1671111,4.74577778 C37.256,4.75022222 37.3288889,4.81244444 37.3484444,4.896 L37.3484444,5.71555556 L37.3671111,5.71555556 C37.6515556,4.98222222 38.0515556,4.63288889 38.7546667,4.63288889 C39.2106667,4.63288889 39.6577778,4.80177778 39.9422222,5.264 C40.208,5.69244444 40.208,6.41422222 40.208,6.93244444 L40.208,10.304 C40.1964444,10.3991111 40.1137778,10.4728889 40.0133333,10.4728889 L38.9928889,10.4728889 C38.8977778,10.4666667 38.8231111,10.3955556 38.8115556,10.304 L38.8115556,7.39555556 C38.8115556,6.80888889 38.8782222,5.952 38.1751111,5.952 C37.928,5.952 37.6995556,6.12088889 37.5857778,6.38044444 C37.4435556,6.70755556 37.424,7.03466667 37.424,7.39555556 L37.424,10.2808889 C37.4231111,10.3875556 37.3351111,10.4737778 37.2266667,10.4737778 L37.2266667,10.4737778 Z" id="Shape" fill="#000000"></path>
                <path d="M24.8702222,10.4595556 C24.8026667,10.5217778 24.7057778,10.5253333 24.6293333,10.4835556 C24.2915556,10.1955556 24.2311111,10.0622222 24.0462222,9.78755556 C23.4871111,10.3715556 23.0915556,10.5466667 22.3671111,10.5466667 C21.5102222,10.5466667 20.8435556,10.0044444 20.8435556,8.91911111 C20.8435556,8.07111111 21.2906667,7.49511111 21.9288889,7.21333333 C22.4808889,6.96444444 23.2533333,6.91911111 23.8435556,6.85155556 L23.8435556,6.71555556 C23.8435556,6.46666667 23.8622222,6.17333333 23.72,5.95822222 C23.5964444,5.76622222 23.3582222,5.68711111 23.1484444,5.68711111 C22.76,5.68711111 22.4151111,5.89066667 22.3306667,6.31377778 C22.3128889,6.408 22.2462222,6.50044444 22.1537778,6.50577778 L21.1671111,6.39644444 C21.0835556,6.37777778 20.9911111,6.30844444 21.0151111,6.17777778 C21.2417778,4.95022222 22.3235556,4.57955556 23.2924444,4.57955556 C23.7875556,4.57955556 24.4355556,4.71466667 24.8257778,5.09955556 C25.3208889,5.57422222 25.2728889,6.20711111 25.2728889,6.896 L25.2728889,8.52266667 C25.2728889,9.01244444 25.4711111,9.22666667 25.6577778,9.49066667 C25.7226667,9.58577778 25.7368889,9.69866667 25.6542222,9.768 C25.4462222,9.94666667 25.0773333,10.2755556 24.8737778,10.4613333 L24.8702222,10.4595556 Z M23.8435556,7.91466667 C23.8435556,8.32088889 23.8533333,8.66044444 23.6533333,9.02222222 C23.4906667,9.31644444 23.2337778,9.49688889 22.9484444,9.49688889 C22.5582222,9.49688889 22.3297778,9.192 22.3297778,8.73955556 C22.3297778,7.85066667 23.1075556,7.688 23.8444444,7.688 L23.8444444,7.91466667 L23.8435556,7.91466667 Z" id="Shape" fill="#000000"></path>
                <path d="M11.6142222,10.4595556 C11.5466667,10.5217778 11.4488889,10.5253333 11.3733333,10.4835556 C11.0346667,10.1955556 10.9742222,10.0622222 10.7893333,9.78755556 C10.2302222,10.3715556 9.83466667,10.5466667 9.11022222,10.5466667 C8.25333333,10.5466667 7.58666667,10.0044444 7.58666667,8.91911111 C7.58666667,8.07111111 8.03377778,7.49511111 8.67288889,7.21333333 C9.22488889,6.96444444 9.99644444,6.91911111 10.5875556,6.85155556 L10.5875556,6.71555556 C10.5875556,6.46666667 10.6062222,6.17333333 10.464,5.95822222 C10.3395556,5.76622222 10.1022222,5.68711111 9.89244444,5.68711111 C9.504,5.68711111 9.15911111,5.89066667 9.07466667,6.31377778 C9.05688889,6.408 8.99022222,6.50044444 8.89777778,6.50577778 L7.91111111,6.39644444 C7.82755556,6.37777778 7.73511111,6.30844444 7.75911111,6.17777778 C7.98577778,4.95022222 9.06666667,4.57955556 10.0364444,4.57955556 C10.5315556,4.57955556 11.1795556,4.71466667 11.5697778,5.09955556 C12.0648889,5.57422222 12.0177778,6.20711111 12.0177778,6.896 L12.0177778,8.52266667 C12.0177778,9.01244444 12.216,9.22666667 12.4017778,9.49066667 C12.4666667,9.58577778 12.4808889,9.69866667 12.3982222,9.768 C12.1902222,9.94666667 11.8213333,10.2755556 11.6177778,10.4613333 L11.6142222,10.4595556 Z M10.5875556,7.91466667 C10.5875556,8.32088889 10.5973333,8.66044444 10.3973333,9.02222222 C10.2355556,9.31644444 9.97777778,9.49688889 9.69244444,9.49688889 C9.30222222,9.49688889 9.07377778,9.192 9.07377778,8.73955556 C9.07377778,7.85066667 9.85155556,7.688 10.5884444,7.688 L10.5884444,7.91466667 L10.5875556,7.91466667 Z" id="Shape" fill="#000000"></path>
                <circle id="Oval" fill="#202074" cx="10.7324444" cy="30.3715556" r="8.27733333"></circle>
                <path d="M11.1946667,27.2115556 L9.20888889,27.2115556 L9.20888889,34.5706667 C9.20888889,34.5706667 9.12088889,34.7155556 8.94577778,34.4782222 C8.85955556,34.3608889 6.52266667,30.8906667 6.52266667,30.8906667 C6.52266667,30.8906667 6.14311111,30.5111111 5.58844444,30.6568889 C5.03288889,30.8026667 4.82933333,31.1822222 5.09155556,31.6497778 C5.35377778,32.1164444 7.13511111,36.3502222 9.44266667,37.5191111 C11.0826667,38.3493333 13.0337778,38.0435556 14.144,37.5191111 C15.1262222,37.0551111 16.6613333,35.9128889 16.7777778,34.3946667 C16.8942222,32.8755556 16.7751111,31.5324444 16.7751111,31.5324444 L15.7422222,31.5324444 L15.7422222,33.3715556 L15.0782222,33.3715556 L15.0782222,30.6853333 L13.9102222,30.6853333 L13.9102222,32.8817778 L13.2133333,32.8817778 L13.2133333,30.0142222 L11.8995556,30.0142222 L11.8995556,32.736 L11.2613333,32.736 L11.1946667,27.2115556 L11.1946667,27.2115556 Z" id="Shape" fill="#FFFFFF"></path>
                <rect id="Rectangle-path" fill="#FFFFFF" x="5.70488889" y="27.2115556" width="1.664" height="1.02222222"></rect>
                <rect id="Rectangle-path" fill="#FFFFFF" x="13.136" y="27.2115556" width="1.664" height="1.02222222"></rect>
                <rect id="Rectangle-path" fill="#FFFFFF" x="9.32622222" y="23.5324444" width="1.72266667" height="1.92711111"></rect>
                <path d="M7.83644444,26.3937778 L8.44977778,25.7804444 L7.31466667,24.6124444 L6.62933333,25.2257778 L7.83644444,26.3937778 Z" id="Shape" fill="#FFFFFF"></path>
                <path d="M12.7475556,26.2115556 L12.2257778,25.5066667 L13.4524444,24.5208889 L13.9555556,25.2257778 L12.7475556,26.2115556 Z" id="Shape" fill="#FFFFFF"></path>
                <g transform="translate(20.444444, 25.777778)" id="Shape" fill="#FFFFFF">
                    <g>
                        <path d="M1.21955556,0.962666667 C1.65333333,0.736 2.26044444,0.424888889 3.23911111,0.424888889 C5.22133333,0.424888889 5.68088889,1.52977778 5.68088889,3.35911111 L5.68088889,6.54844444 C5.68088889,7.07377778 5.63911111,7.55555556 5.67644444,7.83822222 L4.288,7.83822222 C4.25688889,7.504 4.29244444,7.20088889 4.29244444,6.84622222 L4.26755556,6.84622222 C3.88355556,7.44177778 3.4,7.952 2.48266667,7.952 C1.49155556,7.952 0.574222222,7.17244444 0.574222222,5.81155556 C0.574222222,3.82755556 1.98666667,3.33066667 3.93244444,3.33066667 L4.24266667,3.33066667 L4.24266667,3.06133333 C4.24266667,2.33866667 3.93244444,1.67288889 3.05333333,1.67288889 C2.28444444,1.67288889 1.60355556,2.09866667 1.30577778,2.38133333 L1.21955556,0.962666667 L1.21955556,0.962666667 Z M4.24355556,4.26577778 L4.10755556,4.26577778 C2.79377778,4.26577778 2.01333333,4.57777778 2.01333333,5.64088889 C2.01333333,6.30755556 2.39822222,6.76088889 2.99288889,6.76088889 C3.91022222,6.76088889 4.24444444,5.98133333 4.24444444,4.67733333 L4.24444444,4.26577778 L4.24355556,4.26577778 Z"></path>
                        <path d="M2.48355556,7.99733333 C1.51288889,7.99733333 0.529777778,7.24622222 0.529777778,5.81066667 C0.529777778,3.57066667 2.34844444,3.28444444 3.93422222,3.28444444 L4.19822222,3.28444444 L4.19822222,3.06044444 C4.19822222,2.65688889 4.08711111,1.71644444 3.05422222,1.71644444 C2.27644444,1.71644444 1.60977778,2.15466667 1.33866667,2.41244444 C1.32533333,2.42577778 1.30666667,2.42844444 1.28977778,2.42222222 C1.27288889,2.416 1.26222222,2.4 1.26133333,2.38222222 L1.17422222,0.964444444 C1.17333333,0.947555556 1.18311111,0.929777778 1.19822222,0.920888889 C1.61244444,0.704888889 2.23822222,0.377777778 3.23911111,0.377777778 C5.30311111,0.377777778 5.72622222,1.56888889 5.72622222,3.35822222 L5.72622222,6.54755556 C5.72622222,6.744 5.72088889,6.92977778 5.71466667,7.10933333 C5.70577778,7.40355556 5.69777778,7.65688889 5.72088889,7.83111111 C5.72266667,7.84533333 5.71911111,7.85777778 5.71022222,7.86755556 C5.70133333,7.87733333 5.68888889,7.88355556 5.67555556,7.88355556 L4.28711111,7.88355556 C4.264,7.88355556 4.24355556,7.86577778 4.24177778,7.84177778 C4.22133333,7.624 4.22933333,7.42133333 4.23733333,7.20711111 C4.24,7.12711111 4.24355556,7.04533333 4.24533333,6.96177778 C3.89066667,7.48888889 3.39644444,7.99733333 2.48355556,7.99733333 L2.48355556,7.99733333 Z M3.93333333,3.376 C1.64266667,3.376 0.621333333,4.12711111 0.621333333,5.81066667 C0.621333333,7.18577778 1.55822222,7.90577778 2.48355556,7.90577778 C3.40266667,7.90577778 3.86666667,7.384 4.22933333,6.82044444 C4.23822222,6.80711111 4.25244444,6.8 4.26844444,6.8 L4.29333333,6.8 C4.31822222,6.8 4.33866667,6.81955556 4.33866667,6.84533333 C4.33866667,6.97333333 4.33422222,7.09422222 4.32977778,7.21066667 C4.32266667,7.40888889 4.31555556,7.59555556 4.33066667,7.792 L5.62577778,7.792 C5.60888889,7.61422222 5.61688889,7.37688889 5.62488889,7.10666667 C5.63022222,6.928 5.63555556,6.74311111 5.63555556,6.54755556 L5.63555556,3.35822222 C5.63555556,1.624 5.22844444,0.469333333 3.24,0.469333333 C2.28177778,0.469333333 1.67377778,0.776888889 1.26755556,0.989333333 L1.34666667,2.28266667 C1.66222222,2.01244444 2.30933333,1.62577778 3.05422222,1.62577778 C3.83911111,1.62577778 4.28977778,2.14844444 4.28977778,3.06044444 L4.28977778,3.32977778 C4.28977778,3.35466667 4.26933333,3.376 4.24444444,3.376 L3.93333333,3.376 L3.93333333,3.376 Z M2.992,6.80711111 C2.37866667,6.80711111 1.96711111,6.33866667 1.96711111,5.64088889 C1.96711111,4.64533333 2.60711111,4.22044444 4.10755556,4.22044444 L4.24355556,4.22044444 C4.26844444,4.22044444 4.28888889,4.24 4.28888889,4.26577778 L4.28888889,4.67733333 C4.28888889,6.13066667 3.87644444,6.80711111 2.992,6.80711111 L2.992,6.80711111 Z M4.10755556,4.312 C2.67111111,4.312 2.05866667,4.70933333 2.05866667,5.64088889 C2.05866667,6.29333333 2.42488889,6.71555556 2.992,6.71555556 C3.81511111,6.71555556 4.19733333,6.06755556 4.19733333,4.67733333 L4.19733333,4.312 L4.10755556,4.312 L4.10755556,4.312 Z"></path>
                    </g>
                    <g transform="translate(6.222222, 0.000000)">
                        <path d="M0.908444444,1.78488889 C0.908444444,1.26044444 0.904888889,0.859555556 0.904888889,0.550222222 L2.24977778,0.553777778 C2.26222222,0.782222222 2.25511111,0.809777778 2.25511111,1.30577778 L2.29244444,1.30577778 C2.54044444,0.682666667 3.08977778,0.424888889 4.08177778,0.424888889 C5.66844444,0.424888889 6.416,2.15377778 6.416,4.18133333 C6.416,6.56355556 5.49422222,7.76888889 4.11911111,7.76888889 C3.20177778,7.76888889 2.69333333,7.63111111 2.47111111,7.064 L2.44622222,7.064 L2.44622222,10.5342222 L0.909333333,10.5342222 L0.909333333,1.78488889 L0.908444444,1.78488889 Z M3.63466667,6.47822222 C4.48977778,6.47822222 4.96977778,5.712 4.96977778,4.25155556 C4.96977778,2.56533333 4.552,1.71466667 3.65955556,1.71466667 C2.75466667,1.71466667 2.44533333,2.74222222 2.44533333,4.11733333 C2.44533333,5.536 2.792,6.47822222 3.63466667,6.47822222 L3.63466667,6.47822222 Z"></path>
                        <path d="M2.44533333,10.5804444 L0.908444444,10.5804444 C0.883555556,10.5804444 0.863111111,10.56 0.863111111,10.5342222 L0.863111111,1.78488889 C0.863111111,1.48888889 0.862222222,1.23111111 0.860444444,1.008 C0.859555556,0.836444444 0.858666667,0.685333333 0.858666667,0.550222222 C0.858666667,0.537777778 0.863111111,0.526222222 0.872,0.517333333 C0.880888889,0.509333333 0.892444444,0.504 0.904888889,0.504 L0.904888889,0.504 L2.25066667,0.507555556 C2.27466667,0.507555556 2.29511111,0.526222222 2.296,0.551111111 C2.304,0.703111111 2.304,0.766222222 2.30222222,0.935111111 C2.30222222,0.996444444 2.30133333,1.07288889 2.30133333,1.17333333 C2.57422222,0.617777778 3.11644444,0.378666667 4.08177778,0.378666667 C5.528,0.378666667 6.46222222,1.87111111 6.46222222,4.18044444 C6.46222222,6.49066667 5.60888889,7.81422222 4.12,7.81422222 C3.30222222,7.81422222 2.76177778,7.71288889 2.49244444,7.21688889 L2.49244444,10.5342222 C2.49066667,10.5591111 2.47022222,10.5804444 2.44533333,10.5804444 L2.44533333,10.5804444 Z M0.954666667,10.4888889 L2.39911111,10.4888889 L2.39911111,7.06311111 C2.39911111,7.03822222 2.41955556,7.01688889 2.44533333,7.01688889 L2.47022222,7.01688889 C2.48888889,7.01688889 2.50577778,7.02933333 2.51288889,7.04622222 C2.70933333,7.54577778 3.12888889,7.72266667 4.11911111,7.72266667 C5.54933333,7.72266667 6.37066667,6.432 6.37066667,4.18044444 C6.37066667,2.46844444 5.77155556,0.469333333 4.08177778,0.469333333 C3.09511111,0.469333333 2.57244444,0.724444444 2.33511111,1.32266667 C2.328,1.34044444 2.31111111,1.35111111 2.29244444,1.35111111 L2.25511111,1.35111111 C2.22933333,1.35111111 2.20888889,1.33066667 2.20888889,1.30488889 C2.20888889,1.136 2.20977778,1.02133333 2.21066667,0.933333333 C2.21155556,0.784 2.21244444,0.718222222 2.20622222,0.598222222 L0.950222222,0.594666667 C0.950222222,0.718222222 0.951111111,0.854222222 0.952,1.00622222 C0.952888889,1.23022222 0.954666667,1.48711111 0.954666667,1.784 L0.954666667,10.4888889 L0.954666667,10.4888889 Z M3.63466667,6.52444444 C2.82666667,6.52444444 2.39911111,5.69155556 2.39911111,4.11733333 C2.39911111,2.49244444 2.82311111,1.66844444 3.65955556,1.66844444 C4.57244444,1.66844444 5.016,2.51288889 5.016,4.25155556 C5.016,5.71733333 4.52533333,6.52444444 3.63466667,6.52444444 L3.63466667,6.52444444 Z M3.65955556,1.76 C2.88355556,1.76 2.49066667,2.55377778 2.49066667,4.11733333 C2.49066667,5.17333333 2.68888889,6.432 3.63466667,6.432 C4.46666667,6.432 4.92444444,5.65777778 4.92444444,4.25155556 C4.92444444,2.57511111 4.51111111,1.76 3.65955556,1.76 L3.65955556,1.76 Z"></path>
                    </g>
                    <g transform="translate(19.555556, 0.000000)">
                        <path d="M0.562666667,5.88088889 C0.821333333,5.99111111 1.47911111,6.44088889 2.22844444,6.44088889 C2.80977778,6.44088889 3.26133333,6.28888889 3.26133333,5.73866667 C3.26133333,5.46311111 3.13244444,5.20177778 2.55111111,4.84355556 L1.61866667,4.248 C0.947555556,3.82133333 0.486222222,3.51111111 0.486222222,2.52533333 C0.486222222,1.38844444 1.37688889,0.424888889 2.784,0.424888889 C3.63644444,0.424888889 4.29422222,0.658666667 4.44977778,0.713777778 L4.35911111,2.03466667 C3.95911111,1.86933333 3.53333333,1.71822222 2.952,1.71822222 C2.30666667,1.71822222 2.03555556,1.98044444 2.03555556,2.40622222 C2.03555556,2.792 2.23022222,2.94133333 2.69422222,3.25777778 L3.79822222,3.78577778 C4.66666667,4.29422222 4.90311111,5.00177778 4.90311111,5.64177778 C4.90311111,6.95022222 3.96177778,7.82577778 2.51555556,7.82577778 C1.68888889,7.82577778 0.822222222,7.528 0.486222222,7.39022222 L0.562666667,5.88088889 L0.562666667,5.88088889 Z"></path>
                        <path d="M2.51466667,7.872 C1.58577778,7.872 0.647111111,7.50666667 0.468444444,7.43288889 C0.450666667,7.42488889 0.439111111,7.408 0.44,7.38844444 L0.517333333,5.87911111 C0.518222222,5.864 0.526222222,5.85066667 0.538666667,5.84266667 C0.551111111,5.83466667 0.567111111,5.83288889 0.580444444,5.83911111 C0.635555556,5.86222222 0.707555556,5.89955556 0.790222222,5.944 C1.10933333,6.112 1.64355556,6.39466667 2.22844444,6.39466667 C2.90222222,6.39466667 3.21511111,6.18666667 3.21511111,5.73866667 C3.21511111,5.48 3.09866667,5.23466667 2.52711111,4.88266667 L1.59377778,4.28622222 C0.949333333,3.87644444 0.44,3.55288889 0.44,2.52622222 C0.44,1.28266667 1.42488889,0.379555556 2.78311111,0.379555556 C3.17511111,0.379555556 3.78488889,0.430222222 4.464,0.671111111 C4.48266667,0.678222222 4.496,0.696888889 4.49422222,0.717333333 L4.40355556,2.03911111 C4.40266667,2.05422222 4.39466667,2.06666667 4.38222222,2.07466667 C4.36977778,2.08266667 4.35377778,2.08355556 4.34044444,2.07822222 C3.95644444,1.91911111 3.53333333,1.76533333 2.95111111,1.76533333 C2.36533333,1.76533333 2.08088889,1.97511111 2.08088889,2.408 C2.08088889,2.77155556 2.26488889,2.912 2.72,3.22222222 L3.81688889,3.74577778 C4.568,4.18577778 4.94755556,4.824 4.94755556,5.64355556 C4.94666667,6.97511111 3.96977778,7.872 2.51466667,7.872 L2.51466667,7.872 Z M0.532444444,7.36 C0.766222222,7.45333333 1.64533333,7.78133333 2.51377778,7.78133333 C3.936,7.78133333 4.85511111,6.94222222 4.85511111,5.64266667 C4.85511111,4.85777778 4.49066667,4.24711111 3.77244444,3.82577778 L2.67288889,3.30044444 C2.19555556,2.976 1.98755556,2.81688889 1.98755556,2.40711111 C1.98755556,2.07288889 2.15466667,1.67377778 2.95022222,1.67377778 C3.52,1.67377778 3.93955556,1.816 4.31644444,1.96977778 L4.4,0.745777778 C3.74666667,0.519111111 3.16088889,0.470222222 2.78222222,0.470222222 C1.47733333,0.470222222 0.529777778,1.33511111 0.529777778,2.52533333 C0.529777778,3.50311111 0.995555556,3.79911111 1.64177778,4.20888889 L2.57422222,4.80533333 C3.09333333,5.12444444 3.30488889,5.39555556 3.30488889,5.73866667 C3.30488889,6.24177778 2.952,6.48622222 2.22666667,6.48622222 C1.61955556,6.48622222 1.07288889,6.19822222 0.745777778,6.02488889 C0.692444444,5.99733333 0.644444444,5.97155556 0.602666667,5.95111111 L0.532444444,7.36 L0.532444444,7.36 Z"></path>
                    </g>
                    <g transform="translate(13.333333, 0.000000)">
                        <path d="M0.4,1.78488889 C0.4,1.26044444 0.396444444,0.859555556 0.396444444,0.550222222 L1.74222222,0.553777778 C1.75466667,0.782222222 1.74666667,0.809777778 1.74666667,1.30577778 L1.784,1.30577778 C2.032,0.682666667 2.58222222,0.424888889 3.57333333,0.424888889 C5.16,0.424888889 5.90755556,2.15377778 5.90755556,4.18133333 C5.90755556,6.56355556 4.98577778,7.76888889 3.61066667,7.76888889 C2.69333333,7.76888889 2.18488889,7.63111111 1.96266667,7.064 L1.93777778,7.064 L1.93777778,10.5342222 L0.4,10.5342222 L0.4,1.78488889 L0.4,1.78488889 Z M3.12711111,6.47822222 C3.98222222,6.47822222 4.46222222,5.712 4.46222222,4.25155556 C4.46222222,2.56533333 4.04355556,1.71466667 3.15111111,1.71466667 C2.24622222,1.71466667 1.93688889,2.74222222 1.93688889,4.11733333 C1.93688889,5.536 2.28355556,6.47822222 3.12711111,6.47822222 L3.12711111,6.47822222 Z"></path>
                        <path d="M1.93688889,10.5804444 L0.4,10.5804444 C0.375111111,10.5804444 0.354666667,10.56 0.354666667,10.5342222 L0.354666667,1.78488889 C0.354666667,1.48888889 0.352888889,1.23111111 0.352,1.008 C0.351111111,0.836444444 0.351111111,0.685333333 0.351111111,0.550222222 C0.351111111,0.537777778 0.355555556,0.526222222 0.364444444,0.517333333 C0.372444444,0.509333333 0.384,0.504 0.396444444,0.504 L0.396444444,0.504 L1.74222222,0.507555556 C1.76622222,0.507555556 1.78666667,0.526222222 1.78755556,0.551111111 C1.79555556,0.703111111 1.79555556,0.766222222 1.79377778,0.935111111 C1.79377778,0.996444444 1.79288889,1.07288889 1.79288889,1.17333333 C2.06577778,0.617777778 2.608,0.378666667 3.57244444,0.378666667 C5.01866667,0.378666667 5.95288889,1.87111111 5.95288889,4.18044444 C5.95288889,6.49066667 5.09866667,7.81422222 3.60977778,7.81422222 C2.792,7.81422222 2.25155556,7.71288889 1.98222222,7.21688889 L1.98222222,10.5342222 C1.98311111,10.5591111 1.96266667,10.5804444 1.93688889,10.5804444 L1.93688889,10.5804444 Z M0.446222222,10.4888889 L1.89066667,10.4888889 L1.89066667,7.06311111 C1.89066667,7.03822222 1.91111111,7.01688889 1.93688889,7.01688889 L1.96177778,7.01688889 C1.98044444,7.01688889 1.99733333,7.02933333 2.00444444,7.04622222 C2.20088889,7.54577778 2.62133333,7.72266667 3.61066667,7.72266667 C5.04088889,7.72266667 5.86222222,6.432 5.86222222,4.18044444 C5.86222222,2.46844444 5.26311111,0.469333333 3.57333333,0.469333333 C2.58666667,0.469333333 2.06488889,0.724444444 1.82666667,1.32266667 C1.81955556,1.34044444 1.80355556,1.35111111 1.784,1.35111111 L1.74666667,1.35111111 C1.72177778,1.35111111 1.70133333,1.33066667 1.70133333,1.30488889 C1.70133333,1.136 1.70222222,1.02133333 1.70222222,0.933333333 C1.70311111,0.784 1.704,0.718222222 1.69866667,0.598222222 L0.442666667,0.594666667 C0.442666667,0.718222222 0.443555556,0.854222222 0.443555556,1.00622222 C0.444444444,1.23022222 0.446222222,1.48711111 0.446222222,1.784 L0.446222222,10.4888889 L0.446222222,10.4888889 Z M3.12711111,6.52444444 C2.31911111,6.52444444 1.89155556,5.69155556 1.89155556,4.11733333 C1.89155556,2.49244444 2.31555556,1.66844444 3.152,1.66844444 C4.06488889,1.66844444 4.50844444,2.51288889 4.50844444,4.25155556 C4.50755556,5.71733333 4.01777778,6.52444444 3.12711111,6.52444444 L3.12711111,6.52444444 Z M3.15111111,1.76 C2.37511111,1.76 1.98311111,2.55377778 1.98311111,4.11733333 C1.98311111,5.17333333 2.18133333,6.432 3.12711111,6.432 C3.95911111,6.432 4.41688889,5.65777778 4.41688889,4.25155556 C4.416,2.57511111 4.00266667,1.76 3.15111111,1.76 L3.15111111,1.76 Z"></path>
                    </g>
                </g>
            </g>
            <g id="Group" transform="translate(73.000000, 15.000000)" fill="#FFFFFF" sketch:type="MSShapeGroup">
                <path d="M4.55,0.53 L6.008,0.53 L9.883,10.446 L8.425,10.446 L7.342,7.46 L3.148,7.46 L2.037,10.446 L0.676,10.446 L4.55,0.53 L4.55,0.53 Z M3.564,6.349 L6.925,6.349 L5.272,1.724 L5.244,1.724 L3.564,6.349 L3.564,6.349 Z" id="Shape"></path>
                <path d="M12.855,10.446 L11.591,10.446 L8.925,3.266 L10.244,3.266 L12.258,9.251 L12.286,9.251 L14.244,3.266 L15.48,3.266 L12.855,10.446 L12.855,10.446 Z" id="Shape"></path>
                <path d="M22.229,10.418 C22.021,10.543 21.757,10.613 21.382,10.613 C20.771,10.613 20.382,10.28 20.382,9.502 C19.73,10.266 18.855,10.613 17.855,10.613 C16.55,10.613 15.48,10.03 15.48,8.599 C15.48,6.974 16.688,6.627 17.91,6.391 C19.216,6.141 20.327,6.224 20.327,5.335 C20.327,4.307 19.48,4.141 18.73,4.141 C17.73,4.141 16.994,4.446 16.938,5.502 L15.758,5.502 C15.827,3.725 17.202,3.1 18.799,3.1 C20.09,3.1 21.493,3.392 21.493,5.072 L21.493,8.766 C21.493,9.322 21.493,9.571 21.868,9.571 C21.965,9.571 22.076,9.557 22.229,9.502 L22.229,10.418 L22.229,10.418 Z M20.313,6.738 C19.855,7.071 18.966,7.086 18.174,7.224 C17.397,7.363 16.73,7.641 16.73,8.516 C16.73,9.294 17.397,9.571 18.119,9.571 C19.675,9.571 20.313,8.599 20.313,7.946 L20.313,6.738 L20.313,6.738 Z" id="Shape"></path>
                <path d="M24.23,1.974 L23.049,1.974 L23.049,0.53 L24.23,0.53 L24.23,1.974 L24.23,1.974 Z M23.049,3.266 L24.23,3.266 L24.23,10.446 L23.049,10.446 L23.049,3.266 L23.049,3.266 Z" id="Shape"></path>
                <path d="M25.715,0.53 L26.896,0.53 L26.896,10.446 L25.715,10.446 L25.715,0.53 L25.715,0.53 Z" id="Shape"></path>
                <path d="M34.742,10.418 C34.534,10.543 34.27,10.613 33.895,10.613 C33.284,10.613 32.895,10.28 32.895,9.502 C32.243,10.266 31.368,10.613 30.368,10.613 C29.062,10.613 27.993,10.03 27.993,8.599 C27.993,6.974 29.201,6.627 30.424,6.391 C31.73,6.141 32.84,6.224 32.84,5.335 C32.84,4.307 31.993,4.141 31.243,4.141 C30.243,4.141 29.507,4.446 29.451,5.502 L28.271,5.502 C28.34,3.725 29.715,3.1 31.312,3.1 C32.603,3.1 34.006,3.392 34.006,5.072 L34.006,8.766 C34.006,9.322 34.006,9.571 34.381,9.571 C34.478,9.571 34.589,9.557 34.741,9.502 L34.741,10.418 L34.742,10.418 Z M32.826,6.738 C32.368,7.071 31.479,7.086 30.687,7.224 C29.91,7.363 29.243,7.641 29.243,8.516 C29.243,9.294 29.91,9.571 30.632,9.571 C32.188,9.571 32.826,8.599 32.826,7.946 L32.826,6.738 L32.826,6.738 Z" id="Shape"></path>
                <path d="M35.534,0.53 L36.715,0.53 L36.715,4.238 L36.743,4.238 C37.132,3.446 38.048,3.099 39.034,3.099 C41.242,3.099 42.339,4.849 42.339,6.876 C42.339,8.903 41.256,10.612 39.062,10.612 C38.327,10.612 37.271,10.334 36.744,9.487 L36.716,9.487 L36.716,10.445 L35.535,10.445 L35.535,0.53 L35.534,0.53 Z M38.867,4.141 C37.284,4.141 36.673,5.502 36.673,6.849 C36.673,8.266 37.313,9.571 38.937,9.571 C40.548,9.571 41.09,8.196 41.09,6.794 C41.089,5.446 40.395,4.141 38.867,4.141 L38.867,4.141 Z" id="Shape"></path>
                <path d="M43.242,0.53 L44.423,0.53 L44.423,10.446 L43.242,10.446 L43.242,0.53 L43.242,0.53 Z" id="Shape"></path>
                <path d="M52.033,8.168 C51.713,9.751 50.574,10.612 48.964,10.612 C46.672,10.612 45.589,9.029 45.52,6.835 C45.52,4.682 46.936,3.099 48.895,3.099 C51.436,3.099 52.213,5.474 52.144,7.209 L46.77,7.209 C46.728,8.459 47.437,9.57 49.005,9.57 C49.978,9.57 50.658,9.098 50.866,8.168 L52.033,8.168 L52.033,8.168 Z M50.893,6.168 C50.838,5.043 49.991,4.141 48.825,4.141 C47.589,4.141 46.852,5.071 46.769,6.168 L50.893,6.168 L50.893,6.168 Z" id="Shape"></path>
                <path d="M60.324,3.099 C62.601,3.099 63.809,4.751 63.809,6.862 C63.809,8.959 62.601,10.612 60.324,10.612 C58.047,10.612 56.838,8.959 56.838,6.862 C56.837,4.752 58.046,3.099 60.324,3.099 L60.324,3.099 Z M60.324,9.571 C61.559,9.571 62.559,8.599 62.559,6.863 C62.559,5.113 61.559,4.141 60.324,4.141 C59.088,4.141 58.088,5.113 58.088,6.863 C58.087,8.599 59.087,9.571 60.324,9.571 L60.324,9.571 Z" id="Shape"></path>
                <path d="M64.851,3.266 L65.962,3.266 L65.962,4.405 L65.989,4.405 C66.489,3.516 67.295,3.1 68.322,3.1 C70.211,3.1 70.794,4.183 70.794,5.725 L70.794,10.447 L69.614,10.447 L69.614,5.587 C69.614,4.712 69.058,4.143 68.156,4.143 C66.725,4.143 66.031,5.101 66.031,6.393 L66.031,10.448 L64.85,10.448 L64.85,3.266 L64.851,3.266 Z" id="Shape"></path>
            </g>
            <g id="Group" transform="translate(73.000000, 29.000000)" sketch:type="MSShapeGroup">
                <g transform="translate(65.000000, 0.000000)" id="Shape">
                    <path d="M2.504,9.38 L0.606,9.38 L0.606,7.306 L2.504,7.306 L2.504,5.058 C2.504,1.7 4.52,0.444 6.738,0.444 C7.467,0.444 8.374,0.59 9.103,0.941 L8.579,3.015 C8.052,2.81 7.527,2.693 7.001,2.693 C5.687,2.693 5.074,3.511 5.074,4.971 L5.074,7.307 L8.607,7.307 L7.935,9.381 L5.074,9.381 L5.074,21.121 L2.504,21.121 L2.504,9.38 L2.504,9.38 Z M10.593,2.809 C10.593,1.904 11.266,1.173 12.23,1.173 C13.222,1.173 13.922,1.875 13.922,2.809 C13.922,3.743 13.192,4.474 12.23,4.474 C11.266,4.474 10.593,3.743 10.593,2.809 L10.593,2.809 Z M10.974,7.306 L13.542,7.306 L13.542,21.12 L10.974,21.12 L10.974,7.306 L10.974,7.306 Z" fill="url(#linearGradient-2)"></path>
                    <path d="M16.054,7.306 L18.215,7.306 L18.507,9 C19.967,7.452 21.135,6.955 22.391,6.955 C22.975,6.955 23.618,7.101 24.026,7.364 L23.122,9.642 C22.684,9.409 22.246,9.29 21.808,9.29 C20.815,9.29 19.909,9.816 18.624,11.072 L18.624,21.12 L16.055,21.12 L16.055,7.306 L16.054,7.306 Z" fill="url(#linearGradient-3)"></path>
                    <path d="M23.355,14.111 C23.355,9.906 25.662,6.956 29.195,6.956 C32.816,6.956 34.919,9.731 34.919,14.142 L34.919,14.784 L25.984,14.784 C26.042,17.384 27.618,19.309 30.364,19.309 C31.678,19.309 32.816,18.901 33.78,18.375 L34.598,20.156 C33.313,20.974 31.618,21.412 30.042,21.412 C25.458,21.411 23.355,18.054 23.355,14.111 L23.355,14.111 Z M32.262,12.856 C32.203,10.928 31.269,9.001 29.195,9.001 C27.21,9.001 26.012,10.753 25.984,12.856 L32.262,12.856 L32.262,12.856 Z" fill="url(#linearGradient-4)"></path>
                </g>
                <g id="Shape" fill="#FFFFFF">
                    <path d="M0.676,0.444 L3.246,0.444 L3.246,12.3 L3.304,12.3 L8.298,7.306 L11.336,7.306 L5.407,13.206 L11.92,21.12 L8.854,21.12 L3.305,14.256 L3.247,14.256 L3.247,21.12 L0.677,21.12 L0.677,0.444 L0.676,0.444 Z"></path>
                    <path d="M12.239,2.809 C12.239,1.904 12.911,1.173 13.874,1.173 C14.868,1.173 15.568,1.875 15.568,2.809 C15.568,3.743 14.838,4.474 13.874,4.474 C12.911,4.474 12.239,3.743 12.239,2.809 L12.239,2.809 Z M12.619,7.306 L15.189,7.306 L15.189,21.12 L12.619,21.12 L12.619,7.306 L12.619,7.306 Z"></path>
                    <path d="M17.141,7.306 L19.33,7.306 L19.623,9 C21.112,7.773 22.66,6.955 24.412,6.955 C26.601,6.955 28.617,8.241 28.617,11.861 L28.617,21.12 L26.048,21.12 L26.048,12.709 C26.048,10.752 25.58,9.233 23.682,9.233 C22.281,9.233 20.937,10.051 19.711,11.102 L19.711,21.12 L17.141,21.12 L17.141,7.306 L17.141,7.306 Z"></path>
                    <path d="M29.605,14.374 C29.605,9.935 32.789,6.955 36.906,6.955 C37.607,6.955 38.367,7.013 39.067,7.22 L39.067,0.444 L41.637,0.444 L41.637,20.448 C40.557,21.033 38.775,21.412 37.023,21.412 C32.905,21.411 29.605,18.989 29.605,14.374 L29.605,14.374 Z M39.067,18.9 L39.067,9.438 C38.424,9.234 37.929,9.118 37.051,9.118 C34.395,9.118 32.263,10.986 32.263,14.316 C32.263,17.352 34.103,19.222 37.081,19.222 C37.723,19.222 38.541,19.135 39.067,18.9 L39.067,18.9 Z"></path>
                    <path d="M43.646,0.444 L46.216,0.444 L46.216,17.674 C46.216,18.725 46.537,19.046 47.268,19.046 C47.472,19.046 47.88,18.958 48.115,18.87 L48.64,20.886 C47.998,21.149 47.18,21.294 46.508,21.294 C44.581,21.294 43.646,20.244 43.646,18.404 L43.646,0.444 L43.646,0.444 Z"></path>
                    <path d="M48.727,14.111 C48.727,9.906 51.035,6.956 54.568,6.956 C58.19,6.956 60.292,9.731 60.292,14.142 L60.292,14.784 L51.356,14.784 C51.415,17.384 52.992,19.309 55.737,19.309 C57.05,19.309 58.19,18.901 59.153,18.375 L59.97,20.156 C58.686,20.974 56.992,21.412 55.414,21.412 C50.83,21.411 48.727,18.054 48.727,14.111 L48.727,14.111 Z M57.634,12.856 C57.575,10.928 56.641,9.001 54.568,9.001 C52.583,9.001 51.385,10.753 51.356,12.856 L57.634,12.856 L57.634,12.856 Z"></path>
                </g>
            </g>
        </g>
    </g>
</svg>