<svg width="27" height="15" viewBox="0 0 27 15" xmlns="http://www.w3.org/2000/svg" xmlns:sketch="http://www.bohemiancoding.com/sketch/ns"><title>link</title><desc>Created with Sketch.</desc><g sketch:type="MSLayerGroup" fill="none"><path id="Shape" sketch:type="MSShapeGroup" d="M12.908 9.508l.006-.007-.007.006.001.001zM14.323 14.173l-.22-.065-.002.001.222.064zM9.809 10.169h-.001c.055.146.134.312.211.462h.004l-.214-.462z"/><path fill="#4A4A4A" sketch:type="MSShapeGroup" d="M10.019 10.632l.205.373-.201-.373h-.003zM10.277 11.094h.002l-.04-.065.038.065zM13.989 14.074c-.17-.055-.337-.119-.501-.187l-.002.001c.016.007.211.091.504.186zM14.101 14.109l.002-.001-.086-.025.084.026zM20.104.496h-4.087c-.353 0-.7.028-1.038.082l-.219.042c1.254.746 2.287 1.849 2.966 3.176h2.587c1.977 0 3.579 1.662 3.579 3.713 0 2.05-1.603 3.712-3.579 3.712h-4.47c-.892 0-1.707-.339-2.334-.899l-.001.001-.001-.001c-.133-.116-.239-.225-.326-.321-.189-.214-.273-.365-.273-.365l.001-.001-.001-.001c-.406-.602-.645-1.334-.645-2.125 0-.769.225-1.483.611-2.076l.034-.049c-.469-.412-1.074-.663-1.736-.663h-1.361c-.358.855-.558 1.796-.558 2.788 0 .991.199 1.933.556 2.787l.214.462.201.373.015.025.04.065c.754 1.25 1.876 2.234 3.21 2.792.164.069.331.132.501.187l.028.009.086.025.22.065.003.001c.54.144 1.106.22 1.689.22h4.087c3.735 0 6.762-3.14 6.762-7.012 0-3.873-3.027-7.013-6.762-7.013zM6.896 14.522h4.087c.353 0 .7-.028 1.038-.082l.219-.042c-1.254-.746-2.287-1.849-2.966-3.176h-2.588c-1.977 0-3.579-1.662-3.579-3.713 0-2.05 1.602-3.712 3.579-3.712h4.468999999999999c.892 0 1.707.339 2.334.899l.001-.001.001.001c.134.116.239.224.326.321.189.213.273.365.273.365l-.001.001.001.001c.406.602.645 1.334.645 2.125 0 .769-.225 1.483-.611 2.075l-.034.049c.469.413 1.074.663 1.736.663h1.361c.357-.855.558-1.797.558-2.788 0-.991-.199-1.933-.556-2.787l-.214-.462-.201-.373-.014-.025-.04-.064c-.754-1.25-1.876-2.235-3.21-2.792-.164-.069-.331-.132-.501-.188l-.028-.009-.086-.025-.22-.065-.002-.001c-.54-.144-1.106-.221-1.689-.221h-4.086c-3.735 0-6.762 3.139-6.762 7.012 0 3.873 3.027 7.013 6.762 7.013zM14.326 14.174l-.003-.001.003.001zM13.989 14.074l.028.009-.028-.009zM12.907 9.508s.084.151.273.365l.004-.004c-.1-.114-.191-.235-.277-.361l-.001.001zM10.238 11.029l-.015-.025.015.025zM13.185 9.869l-.004.004c.086.097.192.206.326.321l.001-.001c-.113-.101-.221-.21-.322-.325zM13.507 10.195l.003-.004-.004.003.001.001z"/><path fill="#4A4A4A" sketch:type="MSShapeGroup" d="M13.5 10.309h.001v.001h-.001z"/></g></svg>