<svg width="24" height="24" viewBox="0 0 24 24" xmlns="http://www.w3.org/2000/svg" xmlns:sketch="http://www.bohemiancoding.com/sketch/ns"><title>question</title><desc>Created with Sketch.</desc><g sketch:type="MSLayerGroup" fill="none"><rect transform="matrix(.707 -.707 .707 .707 -1 -.991)" x="4" y="4" width="18" height="18" rx="4" fill="#4A4A4A" sketch:type="MSShapeGroup"/><path d="M11.464 13.216h2.064c-.192-1.904 2.208-2.496 2.208-4.48 0-1.888-1.36-2.736-3.168-2.736-1.184 0-2.192.592-2.912 1.456l1.296 1.184c.432-.432.864-.736 1.456-.736.64 0 1.072.352 1.072 1.008 0 1.2-2.336 2.112-2.016 4.304zm-.384 3.416c0 .832.592 1.472 1.408 1.472s1.424-.64 1.424-1.472c0-.848-.608-1.488-1.424-1.488s-1.408.64-1.408 1.488z" stroke="#fff" stroke-width=".5" fill="#fff" sketch:type="MSShapeGroup"/></g></svg>