<?xml version="1.0" encoding="UTF-8" standalone="no"?>
<svg width="191px" height="63px" viewBox="0 0 191 63" version="1.1" xmlns="http://www.w3.org/2000/svg" xmlns:xlink="http://www.w3.org/1999/xlink" xmlns:sketch="http://www.bohemiancoding.com/sketch/ns">
    <!-- Generator: Sketch 3.2.2 (9983) - http://www.bohemiancoding.com/sketch -->
    <title>Steam</title>
    <desc>Created with Sketch.</desc>
    <defs></defs>
    <g id="Page-1" stroke="none" stroke-width="1" fill="none" fill-rule="evenodd" sketch:type="MSPage">
        <g id="Steam" sketch:type="MSLayerGroup">
            <path d="M190.4,53.687056 C190.4,58.3140109 186.640819,62.066 182.003529,62.066 L8.79846892,62.066 C4.16117943,62.066 0.4,58.3140109 0.4,53.687056 L0.4,8.44494398 C0.4,3.81798907 4.16117943,0.066 8.79846892,0.066 L182.003529,0.066 C186.640819,0.066 190.4,3.81798907 190.4,8.44494398 L190.4,53.687056" id="Fill-1" fill="#1A1918" sketch:type="MSShapeGroup"></path>
            <path d="M96.768,23.077 C96.768,26.626 93.888,29.506 90.339,29.506 C86.79,29.506 83.909,26.626 83.909,23.077 C83.909,19.528 86.79,16.648 90.339,16.648 C93.888,16.648 96.768,19.528 96.768,23.077 L96.768,23.077 Z M90.307,11.109 C83.715,11.109 78.361,16.425 78.301,23.003 L70.821,33.722 C70.516,33.691 70.207,33.673 69.894,33.673 C68.223,33.673 66.661,34.132 65.319,34.934 L31.442,21.309 C30.557,17.29 26.965,14.262 22.688,14.262 C17.751,14.262 13.725,18.3 13.725,23.238 C13.725,28.175 17.751,32.202 22.688,32.202 C24.359,32.202 25.921,31.742 27.263,30.94 L61.14,44.541 C62.016,48.569 65.609,51.6 69.894,51.6 C74.535,51.6 78.365,48.043 78.808,43.514 L90.307,35.107 C96.934,35.107 102.312,29.74 102.312,23.114 C102.312,16.485 96.934,11.109 90.307,11.109 L90.307,11.109 Z M90.307,15.065 C94.747,15.065 98.355,18.673 98.355,23.114 C98.355,27.555 94.747,31.151 90.307,31.151 C85.866,31.151 82.258,27.555 82.258,23.114 C82.258,18.673 85.866,15.065 90.307,15.065 L90.307,15.065 Z M22.688,16.635 C25.219,16.635 27.407,18.049 28.512,20.134 L25.235,18.824 L25.235,18.836 C22.595,17.888 19.663,19.178 18.608,21.803 C17.553,24.428 18.767,27.4 21.328,28.542 L21.328,28.554 L24.11,29.667 C23.653,29.767 23.176,29.828 22.688,29.828 C19.035,29.828 16.098,26.891 16.098,23.238 C16.098,19.585 19.035,16.635 22.688,16.635 L22.688,16.635 Z M69.894,36.047 C73.547,36.047 76.484,38.983 76.484,42.637 C76.484,46.29 73.547,49.227 69.894,49.227 C67.353,49.227 65.158,47.81 64.058,45.715 C65.142,46.153 66.227,46.585 67.31,47.026 C69.996,48.105 73.055,46.807 74.134,44.12 C75.214,41.434 73.903,38.387 71.217,37.308 L68.472,36.207 C68.929,36.108 69.406,36.047 69.894,36.047 L69.894,36.047 Z" id="Fill-2" fill="#FFFFFF" sketch:type="MSShapeGroup"></path>
            <path d="M117.042,25.423 C117.042,26.661 116.585,27.632 115.673,28.336 C114.76,29.041 113.599,29.393 112.189,29.393 C110.143,29.393 108.55,28.817 107.411,27.665 L109.065,26.011 C109.8,26.746 110.854,27.114 112.227,27.114 C113.77,27.114 114.542,26.575 114.542,25.496 C114.542,25.006 114.414,24.641 114.156,24.402 C113.899,24.163 113.507,24.007 112.98,23.933 L111.399,23.713 C109.083,23.394 107.926,22.175 107.926,20.055 C107.926,18.866 108.336,17.907 109.157,17.179 C109.977,16.449 111.087,16.085 112.483,16.085 C114.248,16.085 115.657,16.593 116.712,17.61 L115.094,19.209 C114.469,18.609 113.574,18.309 112.41,18.309 C111.76,18.309 111.262,18.465 110.912,18.777 C110.563,19.09 110.389,19.485 110.389,19.963 C110.389,20.343 110.527,20.662 110.802,20.919 C111.078,21.176 111.473,21.342 111.988,21.415 L113.531,21.636 C114.646,21.795 115.48,22.132 116.031,22.647 C116.705,23.285 117.042,24.209 117.042,25.423" id="Fill-3" fill="#FFFFFF" sketch:type="MSShapeGroup"></path>
            <path d="M129.828,18.475 L126.409,18.475 L126.409,29.283 L123.854,29.283 L123.854,18.475 L120.435,18.475 L120.435,16.195 L129.828,16.195 L129.828,18.475" id="Fill-4" fill="#FFFFFF" sketch:type="MSShapeGroup"></path>
            <path d="M142.504,29.283 L133.883,29.283 L133.883,16.195 L142.504,16.195 L142.504,18.475 L136.438,18.475 L136.438,21.545 L141.604,21.545 L141.604,23.824 L136.438,23.824 L136.438,27.004 L142.504,27.004 L142.504,29.283" id="Fill-5" fill="#FFFFFF" sketch:type="MSShapeGroup"></path>
            <path d="M157.882,29.283 L155.217,29.283 L154.445,26.967 L149.795,26.967 L149.005,29.283 L146.339,29.283 L151.1,16.195 L153.103,16.195 L157.882,29.283 L157.882,29.283 Z M153.765,24.816 L152.166,20.056 L150.512,24.816 L153.765,24.816 L153.765,24.816 Z" id="Fill-6" fill="#FFFFFF" sketch:type="MSShapeGroup"></path>
            <path d="M173.333,29.283 L170.779,29.283 L170.779,21.655 L168.278,26.618 L166.551,26.618 L164.033,21.655 L164.033,29.283 L161.478,29.283 L161.478,16.195 L163.986,16.195 L167.391,23.272 L170.779,16.195 L173.333,16.195 L173.333,29.283" id="Fill-7" fill="#FFFFFF" sketch:type="MSShapeGroup"></path>
            <path d="M177.575,16.791 L176.692,16.791 L176.692,19.583 L176.032,19.583 L176.032,16.791 L175.15,16.791 L175.15,16.203 L177.576,16.203 L177.575,16.791" id="Fill-8" fill="#FFFFFF" sketch:type="MSShapeGroup"></path>
            <path d="M181.075,19.583 L180.415,19.583 L180.415,17.613 L179.769,18.895 L179.323,18.895 L178.672,17.613 L178.672,19.583 L178.012,19.583 L178.012,16.203 L178.661,16.203 L179.54,18.03 L180.415,16.203 L181.075,16.203 L181.075,19.583" id="Fill-9" fill="#FFFFFF" sketch:type="MSShapeGroup"></path>
        </g>
    </g>
</svg>