<svg width="22" height="22" viewBox="0 0 22 22" xmlns="http://www.w3.org/2000/svg" xmlns:sketch="http://www.bohemiancoding.com/sketch/ns"><title>text</title><desc>Created with Sketch.</desc><path d="M2.444 14.28c-.391.39-.399 1.017.001 1.416l3.531 3.532c.392.391 1.024.394 1.417.001l9.899-9.898c.39-.391.398-1.017-.002-1.417l-3.531-3.531c-.392-.392-1.024-.395-1.417-.002l-9.898 9.899zm13.455-13.456l-2.088 2.088 4.949 4.949 2.088-2.088c.709-.709 0-1.418 0-1.418l-3.531-3.531s-.709-.709-1.418 0zm-14.859 14.836l-1.04 6.012 6-1.052-4.96-4.96z" sketch:type="MSShapeGroup" fill="#4A4A4A"/></svg>