<svg width="26" height="19" viewBox="0 0 26 19" xmlns="http://www.w3.org/2000/svg" xmlns:sketch="http://www.bohemiancoding.com/sketch/ns"><title>video</title><desc>Created with Sketch.</desc><g sketch:type="MSLayerGroup" transform="translate(0 .509)" fill="none"><rect stroke="#4A4A4A" stroke-width="2" sketch:type="MSShapeGroup" width="26" height="18" rx="2"/><path fill="#4A4A4A" sketch:type="MSShapeGroup" d="M1 1h4v16h-4zM21 1h4v16h-4z"/><path fill="#fff" sketch:type="MSShapeGroup" d="M1 2h3v2h-3zM22 2h3v2h-3zM1 5h3v2h-3zM22 5h3v2h-3zM1 8h3v2h-3zM22 8h3v2h-3zM1 11h3v2h-3zM22 11h3v2h-3zM1 14h3v2h-3zM22 14h3v2h-3z"/><path fill="#4A4A4A" sketch:type="MSShapeGroup" d="M17.75 9.125l-8.813 5.088v-10.176z"/></g></svg>