<?xml version="1.0" encoding="UTF-8" standalone="no"?>
<svg width="191px" height="63px" viewBox="0 0 191 63" version="1.1" xmlns="http://www.w3.org/2000/svg" xmlns:xlink="http://www.w3.org/1999/xlink" xmlns:sketch="http://www.bohemiancoding.com/sketch/ns">
    <!-- Generator: Sketch 3.2.2 (9983) - http://www.bohemiancoding.com/sketch -->
    <title>Windows Phone</title>
    <desc>Created with Sketch.</desc>
    <defs></defs>
    <g id="Page-1" stroke="none" stroke-width="1" fill="none" fill-rule="evenodd" sketch:type="MSPage">
        <g id="Windows-Phone" sketch:type="MSLayerGroup">
            <path d="M190.515,54.240056 C190.515,58.8670109 186.754839,62.619 182.117574,62.619 L8.91442375,62.619 C4.27615966,62.619 0.515,58.8670109 0.515,54.240056 L0.515,8.99794398 C0.515,4.37098907 4.27615966,0.619 8.91442375,0.619 L182.117574,0.619 C186.754839,0.619 190.515,4.37098907 190.515,8.99794398 L190.515,54.240056 L190.515,54.240056 Z" id="Shape" fill="#1A1919" sketch:type="MSShapeGroup"></path>
            <g id="Group" transform="translate(20.000000, 5.000000)" fill="#FFFFFF" sketch:type="MSShapeGroup">
                <path d="M18.8579631,5 C16.6288909,5.8071679 15,6.49777951 15,10.8870277 L15,13 L16.3351466,12.7220101 L16.3351466,10.8976237 C16.3019039,7.92014024 17.0519794,7.29746786 19,6.43046358 C18.9915382,5.86825088 18.9431853,5.39267628 18.8579631,5" id="Fill-92"></path>
                <path d="M23,4.13968246 C23.0891549,4.51689193 23.1606009,4.92844353 23.2082316,5.36990602 C26.7335125,4.90961075 26.6657303,6.22845915 26.6657303,8.98247606 L26.6657303,10 L28,9.75185045 L28,8.98247606 C28,4.70632753 27.2635564,3.56085147 23,4.13968246" id="Fill-93"></path>
                <path d="M10.2369748,12.7533524 L10.2369748,7.04843268 C10.1977591,3.51502318 12.0179272,2.43292003 15.377591,1.64241165 C20.4386555,0.451873454 20.7607843,3.72458936 20.7607843,5.80620523 L20.7607843,10.641959 L22,10.3908167 L22,5.91295477 C21.9871148,1.97277336 20.762465,-0.977446593 15.129972,0.302985949 C12.0969188,0.992925029 9,1.76882557 9,6.9310082 L9,13 L10.2369748,12.7533524" id="Fill-94"></path>
                <path d="M27,28 L17,28 L17,20.515213 L27,19 L27,28 L27,28 Z M27,39 L17,37.4157848 L17,29 L27,29 L27,39 L27,39 Z M16,28 L8,28 L8,22.0923695 L16,21 L16,28 L16,28 Z M16,37 L8,35.8386407 L8,29 L16,29 L16,37 L16,37 Z M34.1701337,10 L0,16.9185193 L0,42.08205 L34.1701337,49 L41,46.4848994 L41,12.5156699 L34.1701337,10 L34.1701337,10 Z" id="Fill-95"></path>
                <path d="M67.4286243,24.9072344 L63.4239115,12.1135977 C63.2232567,11.4653375 63.1103534,10.9316314 63.0852017,10.5130074 C63.0013626,10.8846484 62.8716915,11.4099081 62.6458849,12.0898422 L58.3773585,24.9072344 L57.3478147,24.9072344 L52,7.90412961 L53.3934053,7.90412961 L57.498725,21.5281517 C57.6574604,22.0655531 57.7871314,22.5675852 57.8877383,23.0337202 C57.9464257,22.9550632 57.9648703,22.8605693 57.9944934,22.7491826 C58.0235576,22.6388516 59.6327088,17.6908526 62.8213881,7.90412961 L63.4490632,7.90412961 L67.5292312,21.5281517 C67.730445,22.2239229 67.8595571,22.7254271 67.9182445,23.0337202 L68.0568584,22.6779162 L72.3879847,7.90412961 L73.7310866,7.90412961 L68.4581681,24.9072344 L67.4286243,24.9072344 Z" id="Fill-96"></path>
                <path d="M76.4228796,12.7655532 L77.5776231,12.7655532 L77.5776231,24.9072344 L76.4228796,24.9072344 L76.4228796,12.7655532 Z M76.9879549,9.70637743 C76.7369967,9.70637743 76.5145437,9.61980196 76.3222727,9.44559523 C76.1300018,9.2719164 76.0338663,9.05072664 76.0338663,8.78149806 C76.0338663,8.52071586 76.1316786,8.30955619 76.3284209,8.14749114 C76.5251633,7.98542609 76.7448216,7.90412961 76.9879549,7.90412961 C77.2472971,7.90412961 77.4753394,7.98331449 77.6715228,8.14115635 C77.8682652,8.2995261 77.9671953,8.51279737 77.9671953,8.78149806 C77.9671953,9.03488966 77.8705009,9.25185623 77.6782299,9.43398145 C77.4854001,9.61557877 77.2551221,9.70637743 76.9879549,9.70637743 L76.9879549,9.70637743 Z" id="Fill-97"></path>
                <path d="M90.3602864,25.0930549 L90.3602864,18.0260686 C90.3602864,15.1094256 89.2469036,13.6508401 87.0212557,13.6508401 C85.7988821,13.6508401 84.7866651,14.0779106 83.9829279,14.9315235 C83.1797496,15.7856644 82.777881,16.8488534 82.777881,18.1210904 L82.777881,25.0930549 L81.6231376,25.0930549 L81.6231376,12.9513737 L82.777881,12.9513737 L82.777881,15.1569365 L82.8281845,15.1569365 C83.7655052,13.489303 85.2298943,12.6552223 87.2219106,12.6552223 C88.6192284,12.6552223 89.6839846,13.0896833 90.416738,13.9591333 C91.1494915,14.8291111 91.5155888,16.0775927 91.5155888,17.7066896 L91.5155888,25.0930549 L90.3602864,25.0930549" id="Fill-98"></path>
                <path d="M103.975751,17.437461 C103.975751,16.2671085 103.583943,15.2989414 102.801445,14.5319039 C102.019506,13.7653943 101.013437,13.3816115 99.7832388,13.3816115 C98.4183387,13.3816115 97.3016023,13.8799484 96.430235,14.8755662 C95.5605444,15.8722399 95.1251401,17.2041295 95.1251401,18.8712352 C95.1251401,20.4765766 95.5057695,21.7530368 96.2675872,22.7016716 C97.0288459,23.6503065 98.0623022,24.1243599 99.3679559,24.1243599 C100.749065,24.1243599 101.862448,23.7152381 102.707545,22.8969943 C103.553761,22.0787506 103.975751,21.0139779 103.975751,19.7016206 L103.975751,17.437461 L103.975751,17.437461 Z M103.975751,24.8238264 L103.975751,22.6182636 L103.926007,22.6182636 C103.498986,23.3853011 102.873547,23.9934409 102.048011,24.4442668 C101.224153,24.8945648 100.305836,25.1205057 99.2930597,25.1205057 C97.6861442,25.1205057 96.3888743,24.5667395 95.4012501,23.4607907 C94.4141848,22.3537861 93.9195343,20.8561361 93.9195343,18.966257 C93.9195343,17.7093291 94.1643444,16.5796248 94.6545235,15.5750327 C95.1435847,14.5714963 95.8388901,13.7891497 96.7382038,13.227465 C97.6380765,12.6663082 98.6609131,12.3859937 99.8078316,12.3859937 C101.732777,12.3859937 103.104943,13.132971 103.926007,14.6269257 L103.975751,14.6269257 L103.975751,6.84833125 L105.131053,6.84833125 L105.131053,24.8238264 L103.975751,24.8238264 L103.975751,24.8238264 Z" id="Fill-99"></path>
                <path d="M114.069416,13.6508401 C112.555282,13.6508401 111.348,14.1354516 110.447009,15.1036187 C109.547696,16.0723137 109.097759,17.4094823 109.097759,19.1167083 C109.097759,20.7220497 109.543224,22.0027331 110.435272,22.9587585 C111.326202,23.9153119 112.521188,24.3935885 114.019113,24.3935885 C115.550573,24.3935885 116.739411,23.9195351 117.584509,22.9709002 C118.430724,22.0222654 118.852714,20.7056848 118.852714,19.0222143 C118.852714,17.2838423 118.43799,15.9535364 117.60966,15.0323523 C116.780772,14.1116961 115.600876,13.6508401 114.069416,13.6508401 L114.069416,13.6508401 Z M113.982223,25.3897343 C112.123791,25.3897343 110.64487,24.8122126 109.543224,23.6587529 C108.442697,22.5042373 107.892712,20.9828319 107.892712,19.0929528 C107.892712,17.1096356 108.456111,15.5401913 109.58179,14.3862037 C110.70691,13.2322161 112.219926,12.6552223 114.11972,12.6552223 C115.952442,12.6552223 117.401181,13.2242976 118.463142,14.3624482 C119.526222,15.5011268 120.05832,17.0621247 120.05832,19.0459698 C120.05832,20.9427116 119.505541,22.4752029 118.401101,23.6408043 C117.296102,24.8069336 115.82277,25.3897343 113.982223,25.3897343 L113.982223,25.3897343 Z" id="Fill-100"></path>
                <path d="M134.356794,24.7969035 L133.276947,24.7969035 L130.47784,15.6431316 C130.428095,15.4852898 130.359906,15.1447948 130.277185,14.6237583 L130.214026,14.6237583 C130.206201,14.7816002 130.122362,15.1141767 129.963068,15.6193762 L126.824133,24.7969035 L125.744845,24.7969035 L121.865891,12.6552223 L123.146393,12.6552223 L126.134417,22.3427002 C126.217138,22.6114009 126.276384,22.9513679 126.30992,23.3626014 L126.410527,23.3626014 C126.426736,23.1804762 126.506662,22.841037 126.64863,22.3427002 L129.912764,12.6552223 L130.704205,12.6552223 L133.616774,22.3427002 C133.683287,22.5876454 133.741974,22.9276125 133.792278,23.3626014 L133.892884,23.3626014 C133.892884,23.1493301 133.963868,22.8088352 134.105836,22.3427002 L137.157019,12.6552223 L138.348651,12.6552223 L134.356794,24.7969035" id="Fill-101"></path>
                <path d="M139.751558,24.5598768 L139.751558,23.2432962 C140.137218,23.5595078 140.645842,23.8303201 141.277988,24.055733 C141.909017,24.281146 142.463473,24.3935885 142.940238,24.3935885 C144.957965,24.3935885 145.966269,23.6154651 145.966269,22.0576346 C145.966269,21.5524351 145.763379,21.1111114 145.357598,20.7357751 C144.951258,20.3604388 144.213474,19.950789 143.141452,19.5089374 C141.978883,19.0422745 141.130432,18.542354 140.60001,18.0086479 C140.06847,17.4749418 139.801862,16.7928961 139.801862,15.9630386 C139.801862,14.9990946 140.198141,14.206718 140.988464,13.5859085 C141.779905,12.9650991 142.769206,12.6552223 143.958044,12.6552223 C145.0541,12.6552223 145.999246,12.8684935 146.795158,13.2950361 L146.795158,14.5282086 C145.832127,13.9438242 144.844502,13.6508401 143.832285,13.6508401 C142.995013,13.6508401 142.314798,13.8604161 141.792201,14.2795681 C141.269046,14.69872 141.006909,15.2361214 141.006909,15.8917722 C141.006909,16.3589629 141.0846,16.7216297 141.239423,16.9824119 C141.394804,17.2431941 141.6575,17.495002 142.030863,17.735724 C142.403109,17.9769739 142.944709,18.243563 143.656782,18.5365471 C145.028948,19.113013 145.957885,19.6467191 146.443593,20.1366095 C146.928183,20.6275557 147.171875,21.2678975 147.171875,22.0576346 C147.171875,23.0532525 146.777831,23.8582987 145.991421,24.4706618 C145.204452,25.0835528 144.158699,25.3897343 142.853045,25.3897343 C141.60552,25.3897343 140.572622,25.1125872 139.751558,24.5598768" id="Fill-102"></path>
                <path d="M54.9198353,31.1549213 L54.9198353,39.1821563 L57.4808394,39.1821563 C59.1129066,39.1821563 60.3492534,38.8184337 61.1904387,38.0909886 C62.031624,37.3635436 62.4519372,36.3283333 62.4519372,34.9843019 C62.4519372,32.4313815 60.8992377,31.1549213 57.7943975,31.1549213 L54.9198353,31.1549213 L54.9198353,31.1549213 Z M54.9198353,40.2611822 L54.9198353,47.0790001 L53.6767814,47.0790001 L53.6767814,30.0758953 L58.020763,30.0758953 C59.8870206,30.0758953 61.3055777,30.4786824 62.2764341,31.2853124 C63.2467316,32.0914144 63.7324393,33.277076 63.7324393,34.8422971 C63.7324393,36.4787845 63.1695996,37.790614 62.0439204,38.7788413 C60.9182412,39.7670686 59.4052255,40.2611822 57.5059911,40.2611822 L54.9198353,40.2611822 L54.9198353,40.2611822 Z" id="Fill-103"></path>
                <path d="M76.3871083,46.9955921 L76.3871083,39.7153344 C76.3871083,38.2762813 76.1109983,37.2231224 75.5587783,36.554802 C75.0065583,35.8875374 74.1441337,35.5533773 72.9726225,35.5533773 C72.194037,35.5533773 71.4847585,35.7508116 70.844228,36.146208 C70.2042564,36.5416045 69.7040167,37.0969545 69.3446265,37.81173 C68.9841185,38.5275613 68.8047029,39.3473887 68.8047029,40.2722681 L68.8047029,46.9955921 L67.6499595,46.9955921 L67.6499595,29.020097 L68.8047029,29.020097 L68.8047029,37.0357182 L68.8550064,37.0357182 C69.8756073,35.3833937 71.3489392,34.5572315 73.2738842,34.5572315 C74.671202,34.5572315 75.7326046,34.9784951 76.4558563,35.8199664 C77.1796669,36.6619656 77.5424106,37.8771895 77.5424106,39.466166 L77.5424106,46.9955921 L76.3871083,46.9955921" id="Fill-104"></path>
                <path d="M86.1225009,35.8231337 C84.6078084,35.8231337 83.3999669,36.3072173 82.5006532,37.2753844 C81.6013394,38.2440794 81.1514031,39.5817759 81.1514031,41.2890019 C81.1514031,42.8938154 81.596868,44.1744988 82.4883568,45.1310522 C83.3792866,46.0870776 84.5742728,46.5653542 86.0727564,46.5653542 C87.6042167,46.5653542 88.7924958,46.0913008 89.6381525,45.1426659 C90.4826914,44.1940311 90.9057993,42.8779784 90.9057993,41.1945079 C90.9057993,39.455608 90.4916343,38.1253021 89.6627453,37.204118 C88.8344153,36.2834618 87.6545202,35.8231337 86.1225009,35.8231337 L86.1225009,35.8231337 Z M86.0347494,47.5615 C84.1768756,47.5615 82.6973955,46.9845062 81.596868,45.8305186 C80.4963405,44.6760031 79.9463562,43.1545976 79.9463562,41.2652464 C79.9463562,39.2814013 80.5091958,37.7124849 81.6343161,36.5579694 C82.7599954,35.4039818 84.2730111,34.826988 86.1728044,34.826988 C88.0060853,34.826988 89.4531477,35.3960633 90.516786,36.5342139 C91.5793064,37.6728925 92.1108461,39.2338904 92.1108461,41.2182634 C92.1108461,43.1150052 91.5586261,44.6469686 90.4541861,45.81257 C89.3491872,46.9786993 87.8758553,47.5615 86.0347494,47.5615 L86.0347494,47.5615 Z" id="Fill-105"></path>
                <path d="M103.775096,47.2653486 L103.775096,40.1983622 C103.775096,37.2817192 102.662831,35.8231337 100.435507,35.8231337 C99.214251,35.8231337 98.2009161,36.2496763 97.3977378,37.1038172 C96.5940006,37.9574301 96.192132,39.0200912 96.192132,40.293384 L96.192132,47.2653486 L95.0373886,47.2653486 L95.0373886,35.1236673 L96.192132,35.1236673 L96.192132,37.3287022 L96.2424354,37.3287022 C97.1803152,35.6610687 98.6452631,34.826988 100.63672,34.826988 C102.035156,34.826988 103.099353,35.261449 103.831548,36.1314269 C104.564301,37.0008768 104.92984,38.2498863 104.92984,39.8779274 L104.92984,47.2653486 L103.775096,47.2653486" id="Fill-106"></path>
                <path d="M117.408447,40.2458731 C117.358702,38.8390218 117.00043,37.7494379 116.335866,36.979233 C115.669624,36.2079723 114.759132,35.8231337 113.604389,35.8231337 C112.391517,35.8231337 111.390478,36.2063886 110.604627,36.9734261 C109.817099,37.7399357 109.331391,38.8305754 109.148063,40.2458731 L117.408447,40.2458731 L117.408447,40.2458731 Z M109.097759,41.2420189 C109.097759,42.9254894 109.507453,44.2341514 110.328517,45.1664214 C111.147904,46.0992193 112.265758,46.5653542 113.679844,46.5653542 C115.128024,46.5653542 116.534285,46.0633221 117.897508,45.0597858 L117.897508,46.2216919 C116.559436,47.1148973 115.073808,47.5615 113.441741,47.5615 C111.750427,47.5615 110.403413,46.9866178 109.399021,45.8363255 C108.395188,44.686561 107.892712,43.1150052 107.892712,41.1232416 C107.892712,39.953417 108.141435,38.8844211 108.639439,37.9157261 C109.137443,36.947559 109.828277,36.1905516 110.711382,35.6452317 C111.593369,35.0999119 112.574845,34.826988 113.654692,34.826988 C115.219688,34.826988 116.437031,35.3485524 117.308399,36.3922091 C118.178089,37.4358658 118.614053,38.8897001 118.614053,40.7558237 L118.614053,41.2420189 L109.097759,41.2420189 L109.097759,41.2420189 Z" id="Fill-107"></path>
            </g>
        </g>
    </g>
</svg>