<?xml version="1.0" encoding="UTF-8" standalone="no"?>
<svg width="191px" height="63px" viewBox="0 0 191 63" version="1.1" xmlns="http://www.w3.org/2000/svg" xmlns:xlink="http://www.w3.org/1999/xlink" xmlns:sketch="http://www.bohemiancoding.com/sketch/ns">
    <!-- Generator: Sketch 3.2.2 (9983) - http://www.bohemiancoding.com/sketch -->
    <title>Windows Store</title>
    <desc>Created with Sketch.</desc>
    <defs></defs>
    <g id="Page-1" stroke="none" stroke-width="1" fill="none" fill-rule="evenodd" sketch:type="MSPage">
        <g id="Windows-Store" sketch:type="MSLayerGroup">
            <g id="Shape" fill="#1A1919" sketch:type="MSShapeGroup">
                <path d="M190.515,54.240056 C190.515,58.8670109 186.754839,62.619 182.117574,62.619 L8.91442375,62.619 C4.27615966,62.619 0.515,58.8670109 0.515,54.240056 L0.515,8.99794398 C0.515,4.37098907 4.27615966,0.619 8.91442375,0.619 L182.117574,0.619 C186.754839,0.619 190.515,4.37098907 190.515,8.99794398 L190.515,54.240056 L190.515,54.240056 Z"></path>
            </g>
            <g id="Group" transform="translate(16.000000, 5.000000)" fill="#FFFFFF" sketch:type="MSShapeGroup">
                <path d="M18.8579631,5 C16.6288909,5.8071679 15,6.49777951 15,10.8870277 L15,13 L16.3351466,12.7220101 L16.3351466,10.8976237 C16.3019039,7.92014024 17.0519794,7.29746786 19,6.43046358 C18.9915382,5.86825088 18.9431853,5.39267628 18.8579631,5" id="Fill-92"></path>
                <path d="M23,4.13968246 C23.0891549,4.51689193 23.1606009,4.92844353 23.2082316,5.36990602 C26.7335125,4.90961075 26.6657303,6.22845915 26.6657303,8.98247606 L26.6657303,10 L28,9.75185045 L28,8.98247606 C28,4.70632753 27.2635564,3.56085147 23,4.13968246" id="Fill-93"></path>
                <path d="M10.2369748,12.7533524 L10.2369748,7.04843268 C10.1977591,3.51502318 12.0179272,2.43292003 15.377591,1.64241165 C20.4386555,0.451873454 20.7607843,3.72458936 20.7607843,5.80620523 L20.7607843,10.641959 L22,10.3908167 L22,5.91295477 C21.9871148,1.97277336 20.762465,-0.977446593 15.129972,0.302985949 C12.0969188,0.992925029 9,1.76882557 9,6.9310082 L9,13 L10.2369748,12.7533524" id="Fill-94"></path>
                <path d="M27,28 L17,28 L17,20.515213 L27,19 L27,28 L27,28 Z M27,39 L17,37.4157848 L17,29 L27,29 L27,39 L27,39 Z M16,28 L8,28 L8,22.0923695 L16,21 L16,28 L16,28 Z M16,37 L8,35.8386407 L8,29 L16,29 L16,37 L16,37 Z M34.1701337,10 L0,16.9185193 L0,42.08205 L34.1701337,49 L41,46.4848994 L41,12.5156699 L34.1701337,10 L34.1701337,10 Z" id="Fill-95"></path>
            </g>
            <g id="Group-16" transform="translate(67.000000, 21.000000)" fill="#FFFFFF" sketch:type="MSShapeGroup">
                <path d="M76.1152,9.4531 L75.2082,9.4531 L75.2082,6.2021 C75.2082,5.5681 75.1122,5.1141 74.9182,4.8401 C74.7242,4.5651 74.3992,4.4281 73.9422,4.4281 C73.5552,4.4281 73.2262,4.6041 72.9552,4.9591 C72.6852,5.3121 72.5492,5.7341 72.5492,6.2241 L72.5492,9.4531 L71.6422,9.4531 L71.6422,6.0921 C71.6422,4.9821 71.2132,4.4281 70.3542,4.4281 C69.9562,4.4281 69.6282,4.5951 69.3702,4.9281 C69.1122,5.2621 68.9832,5.6931 68.9832,6.2241 L68.9832,9.4531 L68.0762,9.4531 L68.0762,3.7921 L68.9832,3.7921 L68.9832,4.6871 L69.0062,4.6871 C69.4072,3.9981 69.9912,3.6541 70.7582,3.6541 C71.1262,3.6541 71.4582,3.7571 71.7532,3.9641 C72.0482,4.1701 72.2522,4.4591 72.3672,4.8311 C72.7872,4.0461 73.4132,3.6541 74.2462,3.6541 C75.4922,3.6541 76.1152,4.4241 76.1152,5.9651 L76.1152,9.4531 Z M65.7442,6.6341 C65.7442,5.9231 65.5862,5.3771 65.2712,4.9971 C64.9562,4.6171 64.5062,4.4281 63.9202,4.4281 C63.3372,4.4281 62.8762,4.6221 62.5372,5.0111 C62.1982,5.4001 62.0292,5.9481 62.0292,6.6551 C62.0292,7.3341 62.1992,7.8631 62.5402,8.2451 C62.8812,8.6271 63.3412,8.8171 63.9202,8.8171 C64.5092,8.8171 64.9612,8.6291 65.2742,8.2541 C65.5872,7.8781 65.7442,7.3381 65.7442,6.6341 L65.7442,6.6341 Z M66.6732,6.6001 C66.6732,7.5001 66.4172,8.2231 65.9072,8.7701 C65.3962,9.3171 64.7122,9.5921 63.8532,9.5921 C63.0162,9.5921 62.3482,9.3251 61.8492,8.7921 C61.3502,8.2601 61.1002,7.5581 61.1002,6.6881 C61.1002,5.7531 61.3562,5.0131 61.8682,4.4701 C62.3812,3.9261 63.0872,3.6541 63.9862,3.6541 C64.8262,3.6541 65.4842,3.9161 65.9602,4.4411 C66.4352,4.9671 66.6732,5.6861 66.6732,6.6001 L66.6732,6.6001 Z M60.6892,4.7101 C60.5262,4.5881 60.2962,4.5271 59.9972,4.5271 C59.5952,4.5271 59.2692,4.7161 59.0192,5.0941 C58.7682,5.4721 58.6432,5.9631 58.6432,6.5671 L58.6432,9.4531 L57.7362,9.4531 L57.7362,3.7921 L58.6432,3.7921 L58.6432,4.9591 L58.6652,4.9591 C58.7902,4.5681 58.9842,4.2591 59.2452,4.0321 C59.5072,3.8061 59.8072,3.6921 60.1472,3.6921 C60.3832,3.6921 60.5632,3.7191 60.6892,3.7691 L60.6892,4.7101 Z M56.9902,1.8681 C56.8132,1.7681 56.6132,1.7191 56.3872,1.7191 C55.7542,1.7191 55.4372,2.1191 55.4372,2.9191 L55.4372,3.7921 L56.7632,3.7921 L56.7632,4.5601 L55.4372,4.5601 L55.4372,9.4531 L54.5302,9.4531 L54.5302,4.5601 L53.5682,4.5601 L53.5682,3.7921 L54.5302,3.7921 L54.5302,2.8741 C54.5302,2.3001 54.6992,1.8351 55.0392,1.4811 C55.3782,1.1271 55.8092,0.9501 56.3322,0.9501 C56.6092,0.9501 56.8282,0.9831 56.9902,1.0501 L56.9902,1.8681 Z M48.8142,6.8931 L48.8142,6.0581 C48.8142,5.5911 48.6582,5.2021 48.3462,4.8921 C48.0352,4.5831 47.6562,4.4281 47.2102,4.4281 C46.6652,4.4281 46.2322,4.6301 45.9112,5.0331 C45.5912,5.4361 45.4302,5.9961 45.4302,6.7111 C45.4302,7.3591 45.5812,7.8731 45.8842,8.2511 C46.1862,8.6291 46.5932,8.8171 47.1052,8.8171 C47.6032,8.8171 48.0122,8.6371 48.3332,8.2751 C48.6532,7.9141 48.8142,7.4541 48.8142,6.8931 L48.8142,6.8931 Z M49.7202,9.4531 L48.8142,9.4531 L48.8142,8.4911 L48.7912,8.4911 C48.3712,9.2241 47.7222,9.5921 46.8452,9.5921 C46.1312,9.5921 45.5612,9.3341 45.1372,8.8201 C44.7132,8.3061 44.5012,7.6191 44.5012,6.7611 C44.5012,5.8241 44.7372,5.0731 45.2062,4.5051 C45.6762,3.9371 46.3052,3.6541 47.0942,3.6541 C47.8682,3.6541 48.4342,3.9601 48.7912,4.5711 L48.8142,4.5711 L48.8142,1.0721 L49.7202,1.0721 L49.7202,9.4531 Z M42.3182,6.5901 L40.9472,6.7831 C40.4792,6.8491 40.1512,6.9611 39.9632,7.1171 C39.7752,7.2741 39.6812,7.5271 39.6812,7.8781 C39.6812,8.1611 39.7822,8.3891 39.9852,8.5601 C40.1872,8.7311 40.4472,8.8171 40.7642,8.8171 C41.2142,8.8171 41.5852,8.6591 41.8782,8.3421 C42.1712,8.0251 42.3182,7.6291 42.3182,7.1531 L42.3182,6.5901 Z M43.2242,9.4531 L42.3182,9.4531 L42.3182,8.5681 L42.2962,8.5681 C41.9012,9.2501 41.3212,9.5921 40.5542,9.5921 C40.0092,9.5921 39.5722,9.4431 39.2442,9.1461 C38.9162,8.8491 38.7522,8.4501 38.7522,7.9491 C38.7522,6.8951 39.3752,6.2801 40.6202,6.1021 L42.3182,5.8651 C42.3182,4.9071 41.9292,4.4281 41.1512,4.4281 C40.4692,4.4281 39.8542,4.6581 39.3052,5.1191 L39.3052,4.1901 C39.4702,4.0641 39.7542,3.9441 40.1562,3.8281 C40.5582,3.7121 40.9152,3.6541 41.2292,3.6541 C42.5592,3.6541 43.2242,4.3591 43.2242,5.7711 L43.2242,9.4531 Z M36.8832,6.6341 C36.8832,5.9231 36.7252,5.3771 36.4102,4.9971 C36.0952,4.6171 35.6452,4.4281 35.0592,4.4281 C34.4762,4.4281 34.0152,4.6221 33.6772,5.0111 C33.3382,5.4001 33.1682,5.9481 33.1682,6.6551 C33.1682,7.3341 33.3392,7.8631 33.6792,8.2451 C34.0202,8.6271 34.4802,8.8171 35.0592,8.8171 C35.6482,8.8171 36.1002,8.6291 36.4132,8.2541 C36.7262,7.8781 36.8832,7.3381 36.8832,6.6341 L36.8832,6.6341 Z M37.8122,6.6001 C37.8122,7.5001 37.5562,8.2231 37.0462,8.7701 C36.5352,9.3171 35.8512,9.5921 34.9922,9.5921 C34.1562,9.5921 33.4882,9.3251 32.9892,8.7921 C32.4892,8.2601 32.2392,7.5581 32.2392,6.6881 C32.2392,5.7531 32.4952,5.0131 33.0082,4.4701 C33.5202,3.9261 34.2262,3.6541 35.1252,3.6541 C35.9662,3.6541 36.6232,3.9161 37.0992,4.4411 C37.5742,4.9671 37.8122,5.6861 37.8122,6.6001 L37.8122,6.6001 Z M30.8352,9.4531 L29.9282,9.4531 L29.9282,1.0721 L30.8352,1.0721 L30.8352,9.4531 Z M28.2202,9.4531 L27.3142,9.4531 L27.3142,6.2241 C27.3142,5.0261 26.8752,4.4281 25.9982,4.4281 C25.5522,4.4281 25.1782,4.5971 24.8782,4.9331 C24.5782,5.2701 24.4272,5.7011 24.4272,6.2241 L24.4272,9.4531 L23.5212,9.4531 L23.5212,3.7921 L24.4272,3.7921 L24.4272,4.7311 L24.4502,4.7311 C24.8742,4.0131 25.4932,3.6541 26.3072,3.6541 C26.9302,3.6541 27.4052,3.8561 27.7312,4.2621 C28.0572,4.6671 28.2202,5.2421 28.2202,5.9861 L28.2202,9.4531 Z M22.4652,3.7921 L20.7682,9.4531 L19.8282,9.4531 L18.6612,5.4001 C18.6212,5.2611 18.5922,5.0881 18.5732,4.8811 L18.5512,4.8811 C18.5402,5.0101 18.5012,5.1801 18.4352,5.3901 L17.1692,9.4531 L16.2622,9.4531 L14.5542,3.7921 L15.5052,3.7921 L16.6712,8.0491 C16.7082,8.1961 16.7342,8.3661 16.7492,8.5571 L16.7932,8.5571 C16.8012,8.4181 16.8352,8.2441 16.8982,8.0381 L18.1972,3.7921 L19.0272,3.7921 L20.2042,8.0591 C20.2412,8.2041 20.2672,8.3731 20.2822,8.5681 L20.3252,8.5681 C20.3332,8.3911 20.3632,8.2231 20.4142,8.0591 L21.5702,3.7921 L22.4652,3.7921 Z M13.0012,6.6341 C13.0012,5.9231 12.8432,5.3771 12.5282,4.9971 C12.2132,4.6171 11.7622,4.4281 11.1772,4.4281 C10.5942,4.4281 10.1332,4.6221 9.7942,5.0111 C9.4552,5.4001 9.2852,5.9481 9.2852,6.6551 C9.2852,7.3341 9.4562,7.8631 9.7972,8.2451 C10.1382,8.6271 10.5982,8.8171 11.1772,8.8171 C11.7662,8.8171 12.2182,8.6291 12.5312,8.2541 C12.8442,7.8781 13.0012,7.3381 13.0012,6.6341 L13.0012,6.6341 Z M13.9292,6.6001 C13.9292,7.5001 13.6742,8.2231 13.1642,8.7701 C12.6532,9.3171 11.9692,9.5921 11.1102,9.5921 C10.2732,9.5921 9.6052,9.3251 9.1062,8.7921 C8.6072,8.2601 8.3572,7.5581 8.3572,6.6881 C8.3572,5.7531 8.6132,5.0131 9.1252,4.4701 C9.6372,3.9261 10.3442,3.6541 11.2432,3.6541 C12.0832,3.6541 12.7412,3.9161 13.2172,4.4411 C13.6922,4.9671 13.9292,5.6861 13.9292,6.6001 L13.9292,6.6001 Z M6.3722,5.4121 C6.3722,3.3811 5.2942,2.3651 3.1382,2.3651 L1.9002,2.3651 L1.9002,8.6131 L3.0772,8.6131 C4.1242,8.6131 4.9352,8.3341 5.5102,7.7751 C6.0852,7.2171 6.3722,6.4291 6.3722,5.4121 L6.3722,5.4121 Z M7.3452,5.3901 C7.3452,6.1971 7.1682,6.9091 6.8142,7.5261 C6.4612,8.1431 5.9572,8.6191 5.3052,8.9531 C4.6532,9.2861 3.9072,9.4531 3.0662,9.4531 L0.9712,9.4531 L0.9712,1.5251 L3.1602,1.5251 C5.9502,1.5251 7.3452,2.8131 7.3452,5.3901 L7.3452,5.3901 Z" id="Fill-10"></path>
                <path d="M64.354,24.0938 C64.354,24.8238 64.073,25.4168 63.51,25.8728 C62.948,26.3278 62.2,26.5568 61.268,26.5568 C60.471,26.5568 59.774,26.3858 59.176,26.0458 L59.176,24.5958 C59.839,25.1348 60.57,25.4038 61.366,25.4038 C62.435,25.4038 62.972,25.0118 62.972,24.2268 C62.972,23.9078 62.868,23.6488 62.659,23.4478 C62.45,23.2478 61.975,22.9778 61.234,22.6368 C60.488,22.3188 59.96,21.9778 59.653,21.6128 C59.345,21.2468 59.192,20.7618 59.192,20.1578 C59.192,19.4618 59.472,18.8798 60.032,18.4118 C60.591,17.9468 61.303,17.7138 62.165,17.7138 C62.829,17.7138 63.429,17.8448 63.968,18.1098 L63.968,19.4668 C63.418,19.0668 62.783,18.8648 62.058,18.8648 C61.612,18.8648 61.255,18.9758 60.983,19.1958 C60.71,19.4148 60.575,19.6978 60.575,20.0438 C60.575,20.4168 60.68,20.7028 60.888,20.9048 C61.097,21.1038 61.528,21.3418 62.181,21.6148 C62.982,21.9568 63.545,22.3128 63.868,22.6868 C64.192,23.0598 64.354,23.5298 64.354,24.0938 L64.354,24.0938 Z M58.601,17.9188 L56.073,26.3508 L54.673,26.3508 L52.937,20.3158 C52.876,20.1068 52.832,19.8488 52.805,19.5418 L52.771,19.5418 C52.754,19.7348 52.698,19.9858 52.599,20.2988 L50.713,26.3508 L49.363,26.3508 L46.818,17.9188 L48.235,17.9188 L49.971,24.2588 C50.026,24.4788 50.065,24.7328 50.087,25.0168 L50.153,25.0168 C50.163,24.8088 50.215,24.5508 50.309,24.2418 L52.245,17.9188 L53.48,17.9188 L55.233,24.2758 C55.287,24.4898 55.327,24.7418 55.348,25.0328 L55.413,25.0328 C55.426,24.7698 55.469,24.5168 55.546,24.2758 L57.267,17.9188 L58.601,17.9188 Z M44.926,22.1518 C44.926,21.0918 44.691,20.2808 44.222,19.7138 C43.752,19.1488 43.082,18.8648 42.208,18.8648 C41.341,18.8648 40.655,19.1558 40.151,19.7348 C39.646,20.3138 39.393,21.1298 39.393,22.1838 C39.393,23.1948 39.647,23.9828 40.155,24.5508 C40.662,25.1188 41.347,25.4038 42.208,25.4038 C43.086,25.4038 43.76,25.1238 44.226,24.5648 C44.693,24.0038 44.926,23.1988 44.926,22.1518 L44.926,22.1518 Z M46.31,22.1018 C46.31,23.4418 45.93,24.5188 45.168,25.3338 C44.409,26.1498 43.389,26.5568 42.11,26.5568 C40.865,26.5568 39.869,26.1598 39.125,25.3668 C38.381,24.5728 38.01,23.5298 38.01,22.2338 C38.01,20.8398 38.392,19.7378 39.155,18.9278 C39.917,18.1178 40.968,17.7138 42.308,17.7138 C43.559,17.7138 44.538,18.1048 45.247,18.8868 C45.955,19.6688 46.31,20.7398 46.31,22.1018 L46.31,22.1018 Z M34.989,22.5378 L34.989,21.2948 C34.989,20.5978 34.757,20.0198 34.293,19.5568 C33.829,19.0958 33.266,18.8648 32.602,18.8648 C31.79,18.8648 31.145,19.1658 30.667,19.7678 C30.19,20.3678 29.95,21.2008 29.95,22.2668 C29.95,23.2328 30.176,23.9958 30.626,24.5598 C31.076,25.1228 31.682,25.4038 32.446,25.4038 C33.186,25.4038 33.796,25.1348 34.273,24.5958 C34.751,24.0588 34.989,23.3728 34.989,22.5378 L34.989,22.5378 Z M36.339,26.3508 L34.989,26.3508 L34.989,24.9178 L34.957,24.9178 C34.33,26.0108 33.365,26.5568 32.059,26.5568 C30.993,26.5568 30.145,26.1738 29.514,25.4078 C28.883,24.6418 28.568,23.6198 28.568,22.3418 C28.568,20.9478 28.917,19.8268 29.618,18.9818 C30.317,18.1368 31.254,17.7138 32.429,17.7138 C33.581,17.7138 34.425,18.1688 34.957,19.0798 L34.989,19.0798 L34.989,13.8668 L36.339,13.8668 L36.339,26.3508 Z M26.969,26.3508 L25.618,26.3508 L25.618,21.5418 C25.618,19.7578 24.965,18.8648 23.66,18.8648 C22.995,18.8648 22.439,19.1168 21.992,19.6188 C21.543,20.1208 21.32,20.7618 21.32,21.5418 L21.32,26.3508 L19.971,26.3508 L19.971,17.9188 L21.32,17.9188 L21.32,19.3188 L21.353,19.3188 C21.985,18.2488 22.906,17.7138 24.12,17.7138 C25.048,17.7138 25.754,18.0158 26.24,18.6188 C26.726,19.2228 26.969,20.0788 26.969,21.1878 L26.969,26.3508 Z M17.926,26.3508 L16.575,26.3508 L16.575,17.9188 L17.926,17.9188 L17.926,26.3508 Z M18.157,15.1458 C18.157,15.3988 18.069,15.6088 17.893,15.7748 C17.717,15.9428 17.51,16.0268 17.267,16.0268 C17.02,16.0268 16.812,15.9458 16.642,15.7838 C16.471,15.6208 16.386,15.4078 16.386,15.1458 C16.386,14.9098 16.471,14.7048 16.638,14.5308 C16.805,14.3598 17.015,14.2718 17.267,14.2718 C17.52,14.2718 17.731,14.3578 17.902,14.5288 C18.071,14.6978 18.157,14.9038 18.157,15.1458 L18.157,15.1458 Z M15.478,14.5428 L12.142,26.3508 L10.521,26.3508 L8.09,17.7138 C7.997,17.3898 7.938,16.9908 7.91,16.5198 L7.877,16.5198 C7.834,16.9248 7.759,17.3188 7.656,17.6978 L5.209,26.3508 L3.604,26.3508 L0.154,14.5428 L1.668,14.5428 L4.18,23.6008 C4.285,24.0008 4.352,24.3968 4.386,24.7858 L4.419,24.7858 C4.445,24.4508 4.529,24.0568 4.666,23.6008 L7.285,14.5428 L8.618,14.5428 L11.113,23.6658 C11.207,24.0068 11.273,24.3718 11.31,24.7608 L11.343,24.7608 C11.37,24.4758 11.445,24.1008 11.566,23.6338 L13.979,14.5428 L15.478,14.5428 Z" id="Fill-12"></path>
                <path d="M103.8257,21.3281 C103.8147,20.5491 103.6267,19.9441 103.2617,19.5131 C102.8967,19.0821 102.3817,18.8661 101.7177,18.8661 C101.0917,18.8661 100.5557,19.0921 100.1117,19.5421 C99.6667,19.9921 99.3877,20.5881 99.2717,21.3281 L103.8257,21.3281 Z M105.2087,22.4741 L99.2557,22.4741 C99.2777,23.4231 99.5287,24.1481 100.0087,24.6511 C100.4897,25.1531 101.1547,25.4041 102.0057,25.4041 C102.9607,25.4041 103.8307,25.0981 104.6157,24.4821 L104.6157,25.7421 C103.8807,26.2861 102.9037,26.5571 101.6847,26.5571 C100.4827,26.5571 99.5437,26.1691 98.8677,25.3921 C98.1927,24.6151 97.8557,23.5411 97.8557,22.1691 C97.8557,21.3341 98.0247,20.5721 98.3617,19.8841 C98.6997,19.1941 99.1647,18.6601 99.7577,18.2821 C100.3507,17.9031 101.0097,17.7141 101.7337,17.7141 C102.8257,17.7141 103.6787,18.0691 104.2907,18.7801 C104.9027,19.4911 105.2087,20.4861 105.2087,21.7651 L105.2087,22.4741 Z M97.0747,19.2861 C96.8327,19.1051 96.4897,19.0151 96.0447,19.0151 C95.4467,19.0151 94.9607,19.2961 94.5877,19.8581 C94.2137,20.4221 94.0277,21.1531 94.0277,22.0531 L94.0277,26.3511 L92.6767,26.3511 L92.6767,17.9201 L94.0277,17.9201 L94.0277,19.6571 L94.0607,19.6571 C94.2467,19.0751 94.5347,18.6151 94.9247,18.2771 C95.3147,17.9401 95.7627,17.7711 96.2667,17.7711 C96.6187,17.7711 96.8877,17.8091 97.0747,17.8871 L97.0747,19.2861 Z M89.8767,22.1521 C89.8767,21.0931 89.6417,20.2801 89.1727,19.7151 C88.7037,19.1491 88.0327,18.8661 87.1597,18.8661 C86.2917,18.8661 85.6057,19.1561 85.1007,19.7351 C84.5957,20.3141 84.3437,21.1311 84.3437,22.1841 C84.3437,23.1951 84.5967,23.9841 85.1047,24.5531 C85.6127,25.1201 86.2977,25.4041 87.1597,25.4041 C88.0367,25.4041 88.7107,25.1251 89.1767,24.5641 C89.6437,24.0051 89.8767,23.2001 89.8767,22.1521 L89.8767,22.1521 Z M91.2607,22.1021 C91.2607,23.4421 90.8797,24.5191 90.1197,25.3351 C89.3597,26.1491 88.3397,26.5571 87.0607,26.5571 C85.8147,26.5571 84.8197,26.1611 84.0757,25.3671 C83.3317,24.5741 82.9597,23.5301 82.9597,22.2341 C82.9597,20.8401 83.3417,19.7381 84.1047,18.9291 C84.8677,18.1181 85.9187,17.7141 87.2587,17.7141 C88.5097,17.7141 89.4897,18.1041 90.1987,18.8871 C90.9067,19.6691 91.2607,20.7411 91.2607,22.1021 L91.2607,22.1021 Z M81.9507,26.2691 C81.6267,26.4501 81.2037,26.5411 80.6827,26.5411 C79.2117,26.5411 78.4757,25.7121 78.4757,24.0541 L78.4757,19.0641 L77.0267,19.0641 L77.0267,17.9201 L78.4757,17.9201 L78.4757,15.8611 L79.8257,15.4251 L79.8257,17.9201 L81.9507,17.9201 L81.9507,19.0641 L79.8257,19.0641 L79.8257,23.8231 C79.8257,24.3891 79.9227,24.7911 80.1147,25.0301 C80.3067,25.2681 80.6277,25.3881 81.0777,25.3881 C81.4117,25.3881 81.7037,25.2981 81.9507,25.1161 L81.9507,26.2691 Z M76.3707,23.3711 C76.3707,24.3641 76.0197,25.1431 75.3167,25.7091 C74.6147,26.2741 73.6587,26.5571 72.4517,26.5571 C72.0127,26.5571 71.5167,26.4841 70.9657,26.3391 C70.4127,26.1931 70.0227,26.0411 69.7917,25.8821 L69.7917,24.2431 C70.1267,24.5461 70.5667,24.7981 71.1137,25.0011 C71.6597,25.2041 72.1687,25.3061 72.6407,25.3061 C74.1567,25.3061 74.9127,24.7161 74.9127,23.5351 C74.9127,23.0411 74.7517,22.6171 74.4277,22.2631 C74.1037,21.9091 73.4397,21.4431 72.4347,20.8671 C71.4637,20.3181 70.7827,19.7971 70.3927,19.3031 C70.0027,18.8081 69.8077,18.2081 69.8077,17.5001 C69.8077,16.5661 70.1567,15.8071 70.8537,15.2231 C71.5517,14.6381 72.4517,14.3461 73.5547,14.3461 C74.6147,14.3461 75.3887,14.4851 75.8767,14.7661 L75.8767,16.3131 C75.2627,15.8311 74.4637,15.5891 73.4807,15.5891 C72.8277,15.5891 72.2937,15.7531 71.8797,16.0791 C71.4647,16.4061 71.2577,16.8381 71.2577,17.3761 C71.2577,17.7651 71.3197,18.0791 71.4427,18.3141 C71.5667,18.5511 71.7747,18.7841 72.0687,19.0151 C72.3627,19.2451 72.8577,19.5561 73.5547,19.9451 C74.5977,20.5271 75.3277,21.0761 75.7447,21.5921 C76.1617,22.1081 76.3707,22.7011 76.3707,23.3711 L76.3707,23.3711 Z" id="Fill-14"></path>
            </g>
        </g>
    </g>
</svg>